<?xml version="1.0" encoding="utf-8" ?>
    <svg version="1.1"
        baseProfile="full"
        xmlns="http://www.w3.org/2000/svg"
        xmlns:xlink="http://www.w3.org/1999/xlink" 
         xmlns:rdf="http://www.w3.org/1999/02/22-rdf-syntax-ns#"
         xmlns:cc="http://creativecommons.org/ns#"
         xmlns:dc="http://purl.org/dc/elements/1.1/" 
        preserveAspectRatio="xMidYMid meet" height="600" width="500" viewBox="0,0,1000,1200 ">
<metadata>
<rdf:RDF>
      <cc:Work
         rdf:about="">
        <dc:format>image/svg+xml</dc:format>
        <dc:type
           rdf:resource="http://purl.org/dc/dcmitype/StillImage" />
        <dc:rights>
          <cc:Agent>
            <dc:title>This work is licensed under a &lt;a rel=&quot;license&quot; href=&quot;http://creativecommons.org/licenses/by-nc-sa/4.0/&quot;&gt;Creative Commons Attribution-NonCommercial-ShareAlike 4.0 International License&lt;/a&gt;.</dc:title>
          </cc:Agent>
        </dc:rights>
         <dc:creator>
           <cc:Agent>
              <dc:title>triskele/geometric - Traceable heraldic art http://heraldicart.org/credits.html
heater shape - https://commons.wikimedia.org/wiki/User:MG
</dc:title>
           </cc:Agent>
        </dc:creator>
      </cc:Work>
      </rdf:RDF>
</metadata>
<defs></defs><g ><g mask="url(#mask7-1)"><g><g  fill="#1E7FCB"><rect x='0' y='0' width='1000' height='1200'><title>Field</title></rect></g><g transform='translate(0,0)'><g  fill="#149414"><g class="PlaceCharge" transform=" translate(100,100) scale(2.7303754266212, 2.9197080291971) " >
<title>a triskele</title><g transform="translate(-35,-62)"><g fill-opacity="1" stroke-dasharray="none"  stroke="none" stroke-opacity="1"  ><g  ><g  ><path d="M 139.79745 204.60713 C 157.45 198.13333 191.77325 219.59823 198.9567 246.40747 C 207.05038 276.6132 189.125 307.66086 158.91923 315.7544 C 148.41015 318.57032 137.79915 318.23674 128.08839 315.33225 C 146.42772 331.58547 172.31732 338.6124 197.75894 331.79527 C 238.0333 321.0039 261.9338 279.60702 251.14222 239.33271 C 246.53734 222.14687 236.03546 207.7995 222.75 198 C 209.45 185.46667 212.00398 147.07265 231.03329 128.04345 C 253.14537 105.93125 288.99612 105.93125 311.1082 128.04345 C 318.80142 135.73662 323.81803 145.0928 326.15805 154.95481 C 331.0641 130.94588 324.2048 105.01136 305.58017 86.38683 C 276.0974 56.9039 228.2964 56.9039 198.8136 86.38683 C 186.8274 98.37297 179.71416 113.38676 177.47386 128.96643 C 175.41996 145.65446 138.55877 165.9328 111.93503 158.79892 C 81.72926 150.70539 63.80388 119.65773 71.897566 89.452 C 74.71344 78.9429 80.30783 69.92029 87.67858 62.962775 C 64.43321 70.71849 45.402903 89.62607 38.5859 115.06773 C 27.794322 155.34203 51.69482 196.73891 91.96918 207.53029 C 108.44852 211.94596 125.11581 210.55327 139.79745 204.60714 Z"  />
<path d="M 139.79745 204.60713 C 157.45 198.13333 191.77325 219.59823 198.9567 246.40747 C 207.05038 276.6132 189.125 307.66086 158.91923 315.7544 C 148.41015 318.57032 137.79915 318.23674 128.08839 315.33225 C 146.42772 331.58547 172.31732 338.6124 197.75894 331.79527 C 238.0333 321.0039 261.9338 279.60702 251.14222 239.33271 C 246.53734 222.14687 236.03546 207.7995 222.75 198 C 209.45 185.46667 212.00398 147.07265 231.03329 128.04345 C 253.14537 105.93125 288.99612 105.93125 311.1082 128.04345 C 318.80142 135.73662 323.81803 145.0928 326.15805 154.95481 C 331.0641 130.94588 324.2048 105.01136 305.58017 86.38683 C 276.0974 56.9039 228.2964 56.9039 198.8136 86.38683 C 186.8274 98.37297 179.71416 113.38676 177.47386 128.96643 C 175.41996 145.65446 138.55877 165.9328 111.93503 158.79892 C 81.72926 150.70539 63.80388 119.65773 71.897566 89.452 C 74.71344 78.9429 80.30783 69.92029 87.67858 62.962775 C 64.43321 70.71849 45.402903 89.62607 38.5859 115.06773 C 27.794322 155.34203 51.69482 196.73891 91.96918 207.53029 C 108.44852 211.94596 125.11581 210.55327 139.79745 204.60714 Z"  stroke="#696969" stroke-linecap="round" stroke-linejoin="round"  stroke-width="2"  />
</g>
</g>
</g>
</g>
</g>
</g></g></g></g><defs><mask id="mask7-1" >
<path fill="#FFFFFF" d="m 0,0 v 800 c -2.5063876,43.11115 1.2341419,84.33503 21.489586,125.13639 20.255443,40.80137 53.477613,79.98631 98.039434,115.63581 44.56181,35.6494 100.44867,67.7517 164.92346,94.7345 64.47479,26.9828 137.51639,48.8374 215.54752,64.4933 78.03113,-15.6559 151.07273,-37.5105 215.54752,-64.4933 64.47479,-26.9828 120.36165,-59.0851 164.92346,-94.7345 44.56182,-35.6495 77.78399,-74.83444 98.03943,-115.63581 C 998.76586,884.33503 1000.1453,841.93063 1000,800 V 0 Z" />
</mask>
</defs></g></svg>
