<?xml version="1.0" encoding="utf-8" ?>
    <svg version="1.1"
        baseProfile="full"
        xmlns="http://www.w3.org/2000/svg"
        xmlns:xlink="http://www.w3.org/1999/xlink" 
         xmlns:rdf="http://www.w3.org/1999/02/22-rdf-syntax-ns#"
         xmlns:cc="http://creativecommons.org/ns#"
         xmlns:dc="http://purl.org/dc/elements/1.1/" 
        preserveAspectRatio="xMidYMid meet" height="600" width="500" viewBox="0,0,1000,1200 ">
<metadata>
<rdf:RDF>
      <cc:Work
         rdf:about="">
        <dc:format>image/svg+xml</dc:format>
        <dc:type
           rdf:resource="http://purl.org/dc/dcmitype/StillImage" />
        <dc:rights>
          <cc:Agent>
            <dc:title>This work is licensed under a &lt;a rel=&quot;license&quot; href=&quot;http://creativecommons.org/licenses/by-nc-sa/4.0/&quot;&gt;Creative Commons Attribution-NonCommercial-ShareAlike 4.0 International License&lt;/a&gt;.</dc:title>
          </cc:Agent>
        </dc:rights>
         <dc:creator>
           <cc:Agent>
              <dc:title>heater shape - https://commons.wikimedia.org/wiki/User:MG
</dc:title>
           </cc:Agent>
        </dc:creator>
      </cc:Work>
      </rdf:RDF>
</metadata>
<defs></defs><g ><g mask="url(#mask7-1)"><g><defs><pattern  patternContentUnits="userSpaceOnUse" patternUnits="userSpaceOnUse" x="25" y="0" width="100" height="100" id="pattern6-1" >
<g class="treatment"><g  fill="#1E7FCB"><rect x="0" y="0" width="100" height="100" /></g><g stroke-width="2" stroke="none" ><g  fill="#149414"><g>
    <path d="M 2.9892146,0 H 8.3334821 V 100 H 2.9892146 Z"/>
    <path d="m 12.953262,0 h 5.344267 v 100 h -5.344267 z"/>
    <path d="m 22.917309,0 h 5.344267 v 100 h -5.344267 z"/>
    <path d="m 32.881356,0 h 5.344267 v 100 h -5.344267 z"/>
    <path d="m 42.845403,0 h 5.344268 v 100 h -5.344268 z"/>
    <path d="M 1e-6,47.363551 V 42 h 99.640471 v 5.363551 z"/>
    <path d="M 1e-6,37.363551 V 32 h 99.640471 v 5.363551 z"/>
    <path d="M 1e-6,27.36355 V 22 h 99.640471 v 5.36355 z"/>
    <path d="M 1e-6,17.363551 V 12 h 99.640471 v 5.363551 z"/>
    <path d="M 1e-6,7.363551 V 2 h 99.640471 v 5.363551 z"/>
    <path d="m 51.813046,52 h 4.982023 v 5 h -4.982023 z"/>
    <path d="m 61.777093,52 h 4.982023 v 5 h -4.982023 z"/>
    <path d="m 71.74114,52 h 4.982023 v 5 H 71.74114 Z"/>
    <path d="m 81.705187,52 h 4.982023 v 5 h -4.982023 z"/>
    <path d="m 91.669234,52 h 4.982024 v 5 h -4.982024 z"/>
    <path d="m 51.813046,62 h 4.982023 v 5 h -4.982023 z"/>
    <path d="m 61.777093,62 h 4.982023 v 5 h -4.982023 z"/>
    <path d="m 71.74114,62 h 4.982023 v 5 H 71.74114 Z"/>
    <path d="m 81.705187,62 h 4.982023 v 5 h -4.982023 z"/>
    <path d="m 91.669234,62 h 4.982024 v 5 h -4.982024 z"/>
    <path d="m 51.813046,72 h 4.982023 v 5 h -4.982023 z"/>
    <path d="m 61.777093,72 h 4.982023 v 5 h -4.982023 z"/>
    <path d="m 71.74114,72 h 4.982023 v 5 H 71.74114 Z"/>
    <path d="m 81.705187,72 h 4.982023 v 5 h -4.982023 z"/>
    <path d="m 91.669234,72 h 4.982024 v 5 h -4.982024 z"/>
    <path d="m 51.813046,82 h 4.982023 v 5 h -4.982023 z"/>
    <path d="m 61.777093,82 h 4.982023 v 5 h -4.982023 z"/>
    <path d="m 71.74114,82 h 4.982023 v 5 H 71.74114 Z"/>
    <path d="m 81.705187,82 h 4.982023 v 5 h -4.982023 z"/>
    <path d="m 91.669234,82 h 4.982024 v 5 h -4.982024 z"/>
    <path d="m 51.813046,92 h 4.982023 v 5 h -4.982023 z"/>
    <path d="m 61.777093,92 h 4.982023 v 5 h -4.982023 z"/>
    <path d="m 71.74114,92 h 4.982023 v 5 H 71.74114 Z"/>
    <path d="m 81.705187,92 h 4.982023 v 5 h -4.982023 z"/>
    <path d="m 91.669234,92 h 4.982024 v 5 h -4.982024 z"/>
  </g></g></g></g>
</pattern>
</defs><g  fill="url(#pattern6-1)"><rect x='0' y='0' width='1000' height='1200'><title>Field</title></rect></g></g></g><defs><mask id="mask7-1" >
<path fill="#FFFFFF" d="m 0,0 v 800 c -2.5063876,43.11115 1.2341419,84.33503 21.489586,125.13639 20.255443,40.80137 53.477613,79.98631 98.039434,115.63581 44.56181,35.6494 100.44867,67.7517 164.92346,94.7345 64.47479,26.9828 137.51639,48.8374 215.54752,64.4933 78.03113,-15.6559 151.07273,-37.5105 215.54752,-64.4933 64.47479,-26.9828 120.36165,-59.0851 164.92346,-94.7345 44.56182,-35.6495 77.78399,-74.83444 98.03943,-115.63581 C 998.76586,884.33503 1000.1453,841.93063 1000,800 V 0 Z" />
</mask>
</defs></g></svg>
