<?xml version="1.0" encoding="utf-8" ?>
    <svg version="1.1"
        baseProfile="full"
        xmlns="http://www.w3.org/2000/svg"
        xmlns:xlink="http://www.w3.org/1999/xlink" 
         xmlns:rdf="http://www.w3.org/1999/02/22-rdf-syntax-ns#"
         xmlns:cc="http://creativecommons.org/ns#"
         xmlns:dc="http://purl.org/dc/elements/1.1/" 
        preserveAspectRatio="xMidYMid meet" height="600" width="500" viewBox="0,0,1000,1200 ">
<metadata>
<rdf:RDF>
      <cc:Work
         rdf:about="">
        <dc:format>image/svg+xml</dc:format>
        <dc:type
           rdf:resource="http://purl.org/dc/dcmitype/StillImage" />
        <dc:rights>
          <cc:Agent>
            <dc:title>This work is licensed under a &lt;a rel=&quot;license&quot; href=&quot;http://creativecommons.org/licenses/by-nc-sa/4.0/&quot;&gt;Creative Commons Attribution-NonCommercial-ShareAlike 4.0 International License&lt;/a&gt;.</dc:title>
          </cc:Agent>
        </dc:rights>
         <dc:creator>
           <cc:Agent>
              <dc:title>tree/tree-fruit - unknown
heater shape - https://commons.wikimedia.org/wiki/User:MG
</dc:title>
           </cc:Agent>
        </dc:creator>
      </cc:Work>
      </rdf:RDF>
</metadata>
<defs></defs><g ><g mask="url(#mask8-1)"><g><defs><pattern  patternContentUnits="userSpaceOnUse" patternUnits="userSpaceOnUse" x="0" y="0" width="200" height="200" id="pattern7-1" >
<g class="treatment"><g  fill="#1E7FCB"><rect x="0" y="0" width="200" height="200" /></g><g stroke-width="2" stroke="none" ><g  fill="#F0F0F0"><g>
    <path d="M87.746,137.714 L88.346,116.041 L67.919,123.308 L81.143,106.127 L60.345,100 L81.143,93.873 L67.919,76.691 L88.346,83.959 L87.746,62.286 L100,80.173 L112.254,62.286 L111.654,83.959 L132.081,76.692 L118.857,93.873 L139.655,100 L118.857,106.127 L132.081,123.309 L111.654,116.041 L112.254,137.714 L100,119.827 z"/>
    <path d="M187.746,37.714 L188.346,16.041 L167.919,23.308 L181.143,6.127 L160.345,-0 L181.143,-6.127 L167.919,-23.309 L188.346,-16.041 L187.746,-37.714 L200,-19.827 L212.254,-37.714 L211.654,-16.041 L232.081,-23.308 L218.857,-6.127 L239.655,0 L218.857,6.127 L232.081,23.309 L211.654,16.041 L212.254,37.714 L200,19.827 z"/>
    <path d="M-12.254,37.714 L-11.654,16.041 L-32.081,23.308 L-18.857,6.127 L-39.655,-0 L-18.857,-6.127 L-32.081,-23.309 L-11.654,-16.041 L-12.254,-37.714 L0,-19.827 L12.254,-37.714 L11.654,-16.041 L32.081,-23.308 L18.857,-6.127 L39.655,0 L18.857,6.127 L32.081,23.309 L11.654,16.041 L12.254,37.714 L-0,19.827 z"/>
    <path d="M187.746,237.714 L188.346,216.041 L167.919,223.308 L181.143,206.127 L160.345,200 L181.143,193.873 L167.919,176.691 L188.346,183.959 L187.746,162.286 L200,180.173 L212.254,162.286 L211.654,183.959 L232.081,176.692 L218.857,193.873 L239.655,200 L218.857,206.127 L232.081,223.309 L211.654,216.041 L212.254,237.714 L200,219.827 z"/>
    <path d="M-12.254,237.714 L-11.654,216.041 L-32.081,223.308 L-18.857,206.127 L-39.655,200 L-18.857,193.873 L-32.081,176.691 L-11.654,183.959 L-12.254,162.286 L0,180.173 L12.254,162.286 L11.654,183.959 L32.081,176.692 L18.857,193.873 L39.655,200 L18.857,206.127 L32.081,223.309 L11.654,216.041 L12.254,237.714 L-0,219.827 z"/>
  </g></g></g></g>
</pattern>
</defs><g  fill="url(#pattern7-1)"><rect x='0' y='0' width='1000' height='1200'><title>Field</title></rect></g><g transform='translate(0,0)'><g  fill="#EFD807"><g class="PlaceCharge" transform=" translate(100,157.79816513761) scale(3.6697247706422, 3.6697247706422) " >
<title>a tree</title><g  />
<g  ><path d="m 83,133 -6.3,13 14.3,13 4,68 -7,12 31,-1 14,0 c -11,-14 -11,-50 -11,-74 6,-7 12,-10 17,-14 l -10,-11 -9,8 1,-15 -11,13 -8,-16 -4,18 -15,-14 z"  fill-rule="evenodd" stroke="#000000" stroke-width="3" />
</g>
<g  fill="#149414"  class="feature leaved"   fill-opacity="0.999" ><path d="m 89,137 -4,0 2,10 -5,-2 -3.1,7 -5.4,-1 -3.2,6 -5.8,3 -5,-3 -7.1,5 -0.9,-5 -3.6,3 -1.4,-2 c -1.2,3 -3.4,3 -5.4,3 l -0.9,-4 c -2.1,2 -4.2,4 -7.2,5 l -0.4,-4 -5,4 -0.4,-6 -3.6,0 0,-4 -2.2,-1 c -0.5,-3 2,-5 4.9,-7 l -5.4,0 5,-6 c -3.5,1 -6.9,3 -10.4,6 l -2.2,-4 -2.3,2 -4.9,0 c -2,-2 -1,-5 1.8,-7 -1.3,-3 0.7,-5 2.7,-7 L 7,127 c 0.7,-2 1.1,-3 7.6,-5 l -5.4,-4 c 4.3,0 8.7,0 12.2,4 l 0.4,-4 4.5,3 1.3,-2 3.2,-3 -4.9,-1 4,-5 -7.6,4 -2.3,-5 -4.5,5 -3.1,-5 -7.7,2 3.6,-5 -5.4,-1 3.6,-2 -1.3,-3 6.7,1 -0.9,-4 6.3,-1 -8.5,0 0.9,-3 -7.7,0 3.6,-6 -2.7,-2 5,-3 0,-5 5.4,1 -0.9,-5 7.6,3 -1.8,-6 7.2,0 0.5,-2 -3.2,-1 1.4,-2 -5.4,2 -1.4,-3 -4.9,2 -3.2,-3 -4.5,0 0,-3 4.5,0 0.9,-4 4.1,2 6.3,-2 -5,-3 6.8,-2 -3.2,-3 2.3,-4 -5,-1 -1.8,-5 6.3,-1 -3.1,-4 4.9,-1 -2.2,-3 2.2,-2 -2.7,-4 4.5,-1 -0.9,-5 4.5,-1 c 0,0 -1.4,-5 2.2,-3 3.6,3 13.1,0 13.1,0 l -0.5,5 5.9,-2 1.3,5 1.8,-2 3.2,4 3.5,-2 C 57,20 56.4,18 55.5,17 l 4,-1 2.3,4 c 1.6,-3 3.3,-2 4.9,-1 L 68.1,17 65.4,7 69,4 l 2.7,8 3.6,-5 2.2,4 C 79.1,8 81,5 84,3 c 2,3 2,6 2,8 l 3,-2 3,4 -2,-8 c 4,-1 6,2 8,4 -1,-3 0,-5 3,-8 l 1,7 2,-5 7,0 0,5 c 2,-4 5,-6 9,-7 l 1,9 6,-6 4,0 -2,7 6,0 5,-5 3,8 c 1,-2 1,-4 5,-5 l 0,4 c 2,-2 5,-4 9,-4 l 5,3 -6,4 6,-1 3,3 5,-4 c 1,1 -1,4 -3,6 l 10,-1 3,3 -5,1 4,2 2,0 5,-2 -6,7 c 2,2 4,4 2,7 l -7,-1 -1,1 4,3 -5,3 2,3 -3,6 5,-3 1,5 c 2,-3 3,-5 6,-6 l 2,-1 1,3 7,0 -3,6 c 4,-3 6,-2 9,-2 l -5,3 3,3 -3,0 c 1,3 0,5 -2,7 l 4,0 2,-3 3,1 2,3 6,-1 -1,3 7,2 -3,2 3,5 -4,3 -2,-3 -2,5 -3,-4 -1,5 5,2 5,-1 1,4 2,6 -6,-2 -1,6 -3,-2 -2,2 3,3 -2,2 -4,0 3,3 -2,1 6,5 1,4 -3,0 -3,-2 3,5 -1,3 -3,-2 1,6 c -4,1 -5,-2 -7,-3 l 2,6 c -2,2 -5,1 -7,0 0,3 -2,5 -5,6 l -2,-4 -1,5 -4,-1 4,5 -7,1 3,6 -6,0 -3,5 -5,-5 -2,6 -5,-2 -5,2 -6,-3 -4,5 -2,-4 -5,4 -3,-4 -1,4 -2,-7 -5,4 c -2,-3 -1,-6 2,-9 l -6,0 0,-4 -12,4 -5,-4 -5,4 -1,-6 -4,1 -2,-3 -4,0 z"  fill-rule="evenodd" stroke="#000000" stroke-width="3"  fill-opacity="0.999" />
</g>
</g>
</g></g></g></g><defs><mask id="mask8-1" >
<path fill="#FFFFFF" d="m 0,0 v 800 c -2.5063876,43.11115 1.2341419,84.33503 21.489586,125.13639 20.255443,40.80137 53.477613,79.98631 98.039434,115.63581 44.56181,35.6494 100.44867,67.7517 164.92346,94.7345 64.47479,26.9828 137.51639,48.8374 215.54752,64.4933 78.03113,-15.6559 151.07273,-37.5105 215.54752,-64.4933 64.47479,-26.9828 120.36165,-59.0851 164.92346,-94.7345 44.56182,-35.6495 77.78399,-74.83444 98.03943,-115.63581 C 998.76586,884.33503 1000.1453,841.93063 1000,800 V 0 Z" />
</mask>
</defs></g></svg>
