<?xml version="1.0" encoding="utf-8" ?>
    <svg version="1.1"
        baseProfile="full"
        xmlns="http://www.w3.org/2000/svg"
        xmlns:xlink="http://www.w3.org/1999/xlink" 
         xmlns:rdf="http://www.w3.org/1999/02/22-rdf-syntax-ns#"
         xmlns:cc="http://creativecommons.org/ns#"
         xmlns:dc="http://purl.org/dc/elements/1.1/" 
        preserveAspectRatio="xMidYMid meet" height="600" width="500" viewBox="0,0,1000,1200 ">
<metadata>
<rdf:RDF>
      <cc:Work
         rdf:about="">
        <dc:format>image/svg+xml</dc:format>
        <dc:type
           rdf:resource="http://purl.org/dc/dcmitype/StillImage" />
        <dc:rights>
          <cc:Agent>
            <dc:title>This work is licensed under a &lt;a rel=&quot;license&quot; href=&quot;http://creativecommons.org/licenses/by-nc-sa/4.0/&quot;&gt;Creative Commons Attribution-NonCommercial-ShareAlike 4.0 International License&lt;/a&gt;.</dc:title>
          </cc:Agent>
        </dc:rights>
         <dc:creator>
           <cc:Agent>
              <dc:title>church-bell/christian - Orror (Utlisateur Wikipedia : http://fr.wikipedia.org/wiki/Utilisateur:Orror)
crown/crown - https://commons.wikimedia.org/wiki/User:Asqueladd
tower/architecture - http://commons.wikimedia.org/wiki/User:Spedona
heater shape - https://commons.wikimedia.org/wiki/User:MG
</dc:title>
           </cc:Agent>
        </dc:creator>
      </cc:Work>
      </rdf:RDF>
</metadata>
<defs></defs><g ><g mask="url(#mask11-1)"><g><g><title>per-pale</title><desc>Division used to fill field</desc><g stroke-width="4" stroke="none" ><defs><pattern  patternContentUnits="userSpaceOnUse" patternUnits="userSpaceOnUse" x="0.5" y="0" width="333.32999" height="333.32999" id="pattern9-1" >
<g class="treatment"><g  fill="#F0F0F0"><rect x="0" y="0" width="333.32999" height="333.32999" /></g><g stroke-width="2" stroke="none" ><g  fill="#1E7FCB"><g class="treatment">
    <path d="M 0,166.665 H 166.665 V 0 H 0 Z M 166.665,333.3299 H 333.3299 V 166.665 H 166.665 Z"/>
  </g></g></g></g>
</pattern>
</defs><g  fill="url(#pattern9-1)"><rect x='-100' y='-100' width='1200' height='1400' /></g>
<defs><pattern  patternContentUnits="userSpaceOnUse" patternUnits="userSpaceOnUse" x="2" y="0" width="166.67" height="300" id="pattern10-1" >
<g class="treatment"><g  fill="#F0F0F0"><rect x="0" y="0" width="166.67" height="300" /></g><g stroke-width="2" stroke="none" ><g  fill="#1E7FCB"><g class="treatment"><path d="M0,0 v300l83.33,-150zm166.67,0v300l-83.33,-150z"/></g></g></g></g>
</pattern>
</defs><g  fill="url(#pattern10-1)"><path fill-rule="evenodd" d="M500,0h500 v1200   h-500.000   v-1200.000  z" /></g></g></g><g transform='translate(0,0)'><g><title>fess</title><g  fill="#1E7FCB"><path fill-rule="evenodd" d="M-100,320h1200 v360   h-1200.000   v-360.000  z" /></g><g  fill="#EFD807"><g class="PlaceCharge" transform=" translate(124.44896873317,400) scale(0.37733572227095, 0.37733572227095) " >
<title>three bells</title><desc  />
<g  transform="translate(-61.56628,-74.68642)"  ><g  ><path d="M 264.94868,575.71747 L 264.81263,598.44039 C 264.81263,601.08739 267.22775,603.21838 270.22769,603.21838 L 288.70259,603.21838 C 291.70254,603.21838 294.11765,601.08739 294.11765,598.44039 L 293.93717,575.89671 C 305.98058,570.49659 314.50376,558.22323 314.50376,543.97127 C 314.50376,529.95922 306.26512,517.85973 294.24425,512.02763 L 294.11765,419.42494 C 294.11765,416.77794 291.70254,414.64695 288.70259,414.64695 L 270.22769,414.64695 C 267.22775,414.64695 264.81263,416.77794 264.81263,419.42494 L 264.75602,512.47265 C 252.72987,517.76496 244.42655,529.90433 244.42655,543.97127 C 244.42655,558.18865 252.77238,570.22558 264.94868,575.71747 z "  stroke="#000000" stroke-width="3" />
<g  ><path d="M 279.46515,131.14419 C 296.13703,130.95388 329.85969,139.13161 349.9357,143.92063 C 357.62758,145.49639 359.78267,150.74952 364.08391,153.39724 C 380.52658,163.51888 389.48274,173.8906 407.26736,196.00278 C 409.81853,200.05503 409.38148,207.55996 410.85435,212.22044 C 416.51122,270.38466 410.26751,329.00441 419.8313,385.78265 C 423.89117,404.74503 427.28256,424.742 436.30984,442.76449 C 440.43697,449.10698 443.13946,458.29874 450.39266,458.38906 L 469.85675,479.98403 C 480.2081,493.7367 490.06213,507.49654 495.86403,524.85797 C 423.48796,524.55766 351.11189,524.25734 279.46515,523.95703 C 207.81842,524.25734 135.44235,524.55766 63.06628,524.85797 C 68.868184,507.49654 78.722214,493.7367 89.073559,479.98403 L 108.53765,458.38906 C 115.79085,458.29874 118.49334,449.10698 122.62047,442.76449 C 131.64775,424.742 135.03914,404.74503 139.09901,385.78265 C 148.6628,329.00441 142.41909,270.38466 148.07596,212.22044 C 149.54883,207.55996 149.11178,200.05503 151.66295,196.00278 C 169.44757,173.8906 179.30468,164.41982 194.8464,153.39724 C 198.96629,150.47531 201.30273,145.49639 208.99461,143.92063 C 229.07062,139.13161 262.79327,130.95388 279.46515,131.14419 z "  fill-rule="evenodd" stroke="#000000" stroke-width="3" />
<path d="M 117.12739,450.77858 L 441.80293,450.77858 C 445.44472,450.91533 457.23415,452.7606 456.5694,459.00579 C 456.5694,461.6528 454.15429,463.78378 451.15435,463.78378 L 107.77597,463.78378 C 104.77602,463.78378 102.36091,461.6528 102.36091,459.00579 C 102.66889,453.81606 112.40367,450.87837 117.12739,450.77858 z "  stroke="#000000" stroke-width="3" />
<path d="M 203.28368,144.35001 L 355.64662,144.35001 C 358.64656,144.35001 367.06168,147.66608 367.06168,150.66602 C 367.06168,153.66596 366.64656,156.08108 363.64662,156.08108 L 195.28368,156.08108 C 192.28374,156.08108 191.86862,153.66596 191.86862,150.66602 C 191.86862,147.66608 200.28374,144.35001 203.28368,144.35001 z "  stroke="#000000" stroke-width="3" />
<path d="M 154.14082,198.12741 L 404.78948,198.12741 C 407.61875,198.5099 413.65911,198.2108 413.886,206.29996 C 413.886,208.06463 413.61295,209.48529 410.78948,209.48529 L 148.14082,209.48529 C 145.31735,209.48529 145.0443,208.06463 145.0443,206.29996 C 144.16174,199.66484 147.9273,198.6228 154.14082,198.12741 z "  stroke="#000000" stroke-width="3" />
<path d="M 149.36283,236.98842 L 409.56747,236.98842 C 412.56741,236.98842 418.08158,238.83527 418.08158,241.12935 L 418.08158,243.04054 C 418.08158,245.33462 416.56741,247.18147 413.56747,247.18147 L 145.36283,247.18147 C 142.36289,247.18147 140.84872,245.33462 140.84872,243.04054 L 140.84872,241.12935 C 140.84872,238.83527 146.36289,236.98842 149.36283,236.98842 z "  stroke="#000000" stroke-width="3" />
<path d="M 146.72577,258.91504 L 412.20452,258.91504 C 415.20447,258.91504 418.71863,260.61983 418.71863,262.73743 L 418.71863,263.3745 C 418.71863,265.49211 417.20447,268.09784 414.20452,268.09784 L 144.72577,268.09784 C 141.72583,268.09784 140.21166,265.49211 140.21166,263.3745 L 140.21166,262.73743 C 140.21166,260.61983 143.72583,258.91504 146.72577,258.91504 z "  stroke="#000000" stroke-width="3" />
</g>
</g>
<g  ><g  ><path d="M 279.46511,96.690227 L 312.70201,96.690227 C 317.74247,96.106375 315.51038,101.60134 313.09032,103.38587 C 310.01129,107.22199 308.93206,112.52925 308.68612,117.07633 C 308.5915,120.48318 307.54786,128.22809 307.25585,131.62052 C 310.66374,134.88348 314.89709,134.17488 312.18999,137.1439 C 312.98122,138.66271 318.90615,140.15847 322.65195,138.6158 C 325.15307,141.44026 327.23267,139.844 329.39694,139.17574 C 329.24022,125.8097 332.77516,115.69865 339.70191,104.64155 C 342.82129,91.230292 338.85052,78.149232 322.18879,76.186426 L 279.46511,76.186426 L 236.74143,76.186426 C 220.0797,78.149232 216.10893,91.230292 219.22831,104.64155 C 226.15506,115.69865 229.69,125.8097 229.53328,139.17574 C 231.69755,139.844 233.77715,141.44026 236.27827,138.6158 C 240.02407,140.15847 245.949,138.66271 246.74023,137.1439 C 244.03313,134.17488 248.26648,134.88348 251.67437,131.62052 C 251.38236,128.22809 250.33872,120.48318 250.2441,117.07633 C 249.99816,112.52925 248.91893,107.22199 245.8399,103.38587 C 243.41984,101.60134 241.18775,96.106375 246.22821,96.690227 L 279.46511,96.690227 z "  fill-rule="evenodd" stroke="#000000" stroke-width="3" />
<path d="M 320.48326,90.716776 C 326.82588,91.323272 322.14218,100.4716 319.17402,107.21867 C 315.9163,114.62392 314.61422,125.79236 314.54785,127.01943 C 314.50225,128.66132 313.84001,132.3939 313.69928,134.02884 C 313.43048,136.55699 313.40023,136.69328 315.44017,137.9649 C 314.86589,139.17467 319.47328,139.25847 321.27853,138.515 C 322.48392,139.87622 321.48616,137.99206 322.5292,137.67 C 321.7111,133.60139 322.52601,120.58226 327.86836,107.52196 C 330.01669,102.26999 332.26728,98.151522 332.7697,95.663692 C 333.96145,89.762516 329.12662,82.10933 321.05531,82.10933 L 237.87491,82.10933 C 229.84497,83.055282 226.29093,88.456552 226.16053,95.026626 C 226.11975,97.08113 227.00688,102.79719 229.63927,107.52196 C 235.23069,117.55781 237.37586,132.91434 236.40102,137.67 C 237.44407,137.99206 236.76484,139.87622 237.97023,138.515 C 243.24717,140.04364 245.40249,139.4416 245.40976,136.94943 C 245.41196,136.19688 245.62348,135.45981 245.07167,134.02884 C 244.93094,132.3939 244.42797,128.66132 244.38237,127.01943 C 244.31485,125.77118 242.46679,115.99978 239.67738,108.05651 C 238.52325,104.76996 231.10939,91.092011 238.44696,90.716776 L 320.48326,90.716776 z "  fill-rule="evenodd" stroke="#000000" stroke-width="1.5" />
</g>
<g  ><path d="M 279.46515,142.96336 C 281.80602,142.80555 283.33601,140.58075 285.67926,140.92728 C 287.89067,141.87253 288.75774,139.46388 290.3123,139.02549 C 292.53407,139.24489 296.28006,139.72412 296.79816,136.78935 C 296.99217,119.34515 296.56399,103.67645 296.79816,86.285617 C 296.52321,85.567812 296.5765,85.113944 295.33627,85.217792 C 292.86287,85.394586 293.07867,82.141748 290.59168,82.442129 C 288.47154,82.858179 284.42602,82.839661 284.88382,80.084534 C 284.47165,77.611563 282.12854,76.032162 279.46515,76.390006 C 276.80176,76.032162 274.45867,77.611563 274.04649,80.084534 C 274.50428,82.839661 270.45877,82.858179 268.33862,82.442129 C 265.85165,82.141748 266.06745,85.394586 263.59404,85.217792 C 262.35382,85.113944 262.4071,85.567812 262.13214,86.285617 C 262.36631,103.67645 261.93813,119.34515 262.13214,136.78935 C 262.65024,139.72412 266.39623,139.24489 268.618,139.02549 C 270.17257,139.46388 271.03965,141.87253 273.25106,140.92728 C 275.59431,140.58075 277.12428,142.80555 279.46515,142.96336 z "  fill-rule="evenodd" stroke="#000000" stroke-width="3" />
<rect width="9.9104156" height="67.725594" x="274.78882" y="76.186424" rx="4.9552078" ry="3.1853282"  stroke="#000000" stroke-width="1.5" />
</g>
</g>
</g>
</g>
</g><g  fill="#EFD807"><g class="PlaceCharge" transform=" translate(417.77896873317,400) scale(0.37733572227095, 0.37733572227095) " >
<title>three bells</title><desc  />
<g  transform="translate(-61.56628,-74.68642)"  ><g  ><path d="M 264.94868,575.71747 L 264.81263,598.44039 C 264.81263,601.08739 267.22775,603.21838 270.22769,603.21838 L 288.70259,603.21838 C 291.70254,603.21838 294.11765,601.08739 294.11765,598.44039 L 293.93717,575.89671 C 305.98058,570.49659 314.50376,558.22323 314.50376,543.97127 C 314.50376,529.95922 306.26512,517.85973 294.24425,512.02763 L 294.11765,419.42494 C 294.11765,416.77794 291.70254,414.64695 288.70259,414.64695 L 270.22769,414.64695 C 267.22775,414.64695 264.81263,416.77794 264.81263,419.42494 L 264.75602,512.47265 C 252.72987,517.76496 244.42655,529.90433 244.42655,543.97127 C 244.42655,558.18865 252.77238,570.22558 264.94868,575.71747 z "  stroke="#000000" stroke-width="3" />
<g  ><path d="M 279.46515,131.14419 C 296.13703,130.95388 329.85969,139.13161 349.9357,143.92063 C 357.62758,145.49639 359.78267,150.74952 364.08391,153.39724 C 380.52658,163.51888 389.48274,173.8906 407.26736,196.00278 C 409.81853,200.05503 409.38148,207.55996 410.85435,212.22044 C 416.51122,270.38466 410.26751,329.00441 419.8313,385.78265 C 423.89117,404.74503 427.28256,424.742 436.30984,442.76449 C 440.43697,449.10698 443.13946,458.29874 450.39266,458.38906 L 469.85675,479.98403 C 480.2081,493.7367 490.06213,507.49654 495.86403,524.85797 C 423.48796,524.55766 351.11189,524.25734 279.46515,523.95703 C 207.81842,524.25734 135.44235,524.55766 63.06628,524.85797 C 68.868184,507.49654 78.722214,493.7367 89.073559,479.98403 L 108.53765,458.38906 C 115.79085,458.29874 118.49334,449.10698 122.62047,442.76449 C 131.64775,424.742 135.03914,404.74503 139.09901,385.78265 C 148.6628,329.00441 142.41909,270.38466 148.07596,212.22044 C 149.54883,207.55996 149.11178,200.05503 151.66295,196.00278 C 169.44757,173.8906 179.30468,164.41982 194.8464,153.39724 C 198.96629,150.47531 201.30273,145.49639 208.99461,143.92063 C 229.07062,139.13161 262.79327,130.95388 279.46515,131.14419 z "  fill-rule="evenodd" stroke="#000000" stroke-width="3" />
<path d="M 117.12739,450.77858 L 441.80293,450.77858 C 445.44472,450.91533 457.23415,452.7606 456.5694,459.00579 C 456.5694,461.6528 454.15429,463.78378 451.15435,463.78378 L 107.77597,463.78378 C 104.77602,463.78378 102.36091,461.6528 102.36091,459.00579 C 102.66889,453.81606 112.40367,450.87837 117.12739,450.77858 z "  stroke="#000000" stroke-width="3" />
<path d="M 203.28368,144.35001 L 355.64662,144.35001 C 358.64656,144.35001 367.06168,147.66608 367.06168,150.66602 C 367.06168,153.66596 366.64656,156.08108 363.64662,156.08108 L 195.28368,156.08108 C 192.28374,156.08108 191.86862,153.66596 191.86862,150.66602 C 191.86862,147.66608 200.28374,144.35001 203.28368,144.35001 z "  stroke="#000000" stroke-width="3" />
<path d="M 154.14082,198.12741 L 404.78948,198.12741 C 407.61875,198.5099 413.65911,198.2108 413.886,206.29996 C 413.886,208.06463 413.61295,209.48529 410.78948,209.48529 L 148.14082,209.48529 C 145.31735,209.48529 145.0443,208.06463 145.0443,206.29996 C 144.16174,199.66484 147.9273,198.6228 154.14082,198.12741 z "  stroke="#000000" stroke-width="3" />
<path d="M 149.36283,236.98842 L 409.56747,236.98842 C 412.56741,236.98842 418.08158,238.83527 418.08158,241.12935 L 418.08158,243.04054 C 418.08158,245.33462 416.56741,247.18147 413.56747,247.18147 L 145.36283,247.18147 C 142.36289,247.18147 140.84872,245.33462 140.84872,243.04054 L 140.84872,241.12935 C 140.84872,238.83527 146.36289,236.98842 149.36283,236.98842 z "  stroke="#000000" stroke-width="3" />
<path d="M 146.72577,258.91504 L 412.20452,258.91504 C 415.20447,258.91504 418.71863,260.61983 418.71863,262.73743 L 418.71863,263.3745 C 418.71863,265.49211 417.20447,268.09784 414.20452,268.09784 L 144.72577,268.09784 C 141.72583,268.09784 140.21166,265.49211 140.21166,263.3745 L 140.21166,262.73743 C 140.21166,260.61983 143.72583,258.91504 146.72577,258.91504 z "  stroke="#000000" stroke-width="3" />
</g>
</g>
<g  ><g  ><path d="M 279.46511,96.690227 L 312.70201,96.690227 C 317.74247,96.106375 315.51038,101.60134 313.09032,103.38587 C 310.01129,107.22199 308.93206,112.52925 308.68612,117.07633 C 308.5915,120.48318 307.54786,128.22809 307.25585,131.62052 C 310.66374,134.88348 314.89709,134.17488 312.18999,137.1439 C 312.98122,138.66271 318.90615,140.15847 322.65195,138.6158 C 325.15307,141.44026 327.23267,139.844 329.39694,139.17574 C 329.24022,125.8097 332.77516,115.69865 339.70191,104.64155 C 342.82129,91.230292 338.85052,78.149232 322.18879,76.186426 L 279.46511,76.186426 L 236.74143,76.186426 C 220.0797,78.149232 216.10893,91.230292 219.22831,104.64155 C 226.15506,115.69865 229.69,125.8097 229.53328,139.17574 C 231.69755,139.844 233.77715,141.44026 236.27827,138.6158 C 240.02407,140.15847 245.949,138.66271 246.74023,137.1439 C 244.03313,134.17488 248.26648,134.88348 251.67437,131.62052 C 251.38236,128.22809 250.33872,120.48318 250.2441,117.07633 C 249.99816,112.52925 248.91893,107.22199 245.8399,103.38587 C 243.41984,101.60134 241.18775,96.106375 246.22821,96.690227 L 279.46511,96.690227 z "  fill-rule="evenodd" stroke="#000000" stroke-width="3" />
<path d="M 320.48326,90.716776 C 326.82588,91.323272 322.14218,100.4716 319.17402,107.21867 C 315.9163,114.62392 314.61422,125.79236 314.54785,127.01943 C 314.50225,128.66132 313.84001,132.3939 313.69928,134.02884 C 313.43048,136.55699 313.40023,136.69328 315.44017,137.9649 C 314.86589,139.17467 319.47328,139.25847 321.27853,138.515 C 322.48392,139.87622 321.48616,137.99206 322.5292,137.67 C 321.7111,133.60139 322.52601,120.58226 327.86836,107.52196 C 330.01669,102.26999 332.26728,98.151522 332.7697,95.663692 C 333.96145,89.762516 329.12662,82.10933 321.05531,82.10933 L 237.87491,82.10933 C 229.84497,83.055282 226.29093,88.456552 226.16053,95.026626 C 226.11975,97.08113 227.00688,102.79719 229.63927,107.52196 C 235.23069,117.55781 237.37586,132.91434 236.40102,137.67 C 237.44407,137.99206 236.76484,139.87622 237.97023,138.515 C 243.24717,140.04364 245.40249,139.4416 245.40976,136.94943 C 245.41196,136.19688 245.62348,135.45981 245.07167,134.02884 C 244.93094,132.3939 244.42797,128.66132 244.38237,127.01943 C 244.31485,125.77118 242.46679,115.99978 239.67738,108.05651 C 238.52325,104.76996 231.10939,91.092011 238.44696,90.716776 L 320.48326,90.716776 z "  fill-rule="evenodd" stroke="#000000" stroke-width="1.5" />
</g>
<g  ><path d="M 279.46515,142.96336 C 281.80602,142.80555 283.33601,140.58075 285.67926,140.92728 C 287.89067,141.87253 288.75774,139.46388 290.3123,139.02549 C 292.53407,139.24489 296.28006,139.72412 296.79816,136.78935 C 296.99217,119.34515 296.56399,103.67645 296.79816,86.285617 C 296.52321,85.567812 296.5765,85.113944 295.33627,85.217792 C 292.86287,85.394586 293.07867,82.141748 290.59168,82.442129 C 288.47154,82.858179 284.42602,82.839661 284.88382,80.084534 C 284.47165,77.611563 282.12854,76.032162 279.46515,76.390006 C 276.80176,76.032162 274.45867,77.611563 274.04649,80.084534 C 274.50428,82.839661 270.45877,82.858179 268.33862,82.442129 C 265.85165,82.141748 266.06745,85.394586 263.59404,85.217792 C 262.35382,85.113944 262.4071,85.567812 262.13214,86.285617 C 262.36631,103.67645 261.93813,119.34515 262.13214,136.78935 C 262.65024,139.72412 266.39623,139.24489 268.618,139.02549 C 270.17257,139.46388 271.03965,141.87253 273.25106,140.92728 C 275.59431,140.58075 277.12428,142.80555 279.46515,142.96336 z "  fill-rule="evenodd" stroke="#000000" stroke-width="3" />
<rect width="9.9104156" height="67.725594" x="274.78882" y="76.186424" rx="4.9552078" ry="3.1853282"  stroke="#000000" stroke-width="1.5" />
</g>
</g>
</g>
</g>
</g><g  fill="#EFD807"><g class="PlaceCharge" transform=" translate(711.10896873317,400) scale(0.37733572227095, 0.37733572227095) " >
<title>three bells</title><desc  />
<g  transform="translate(-61.56628,-74.68642)"  ><g  ><path d="M 264.94868,575.71747 L 264.81263,598.44039 C 264.81263,601.08739 267.22775,603.21838 270.22769,603.21838 L 288.70259,603.21838 C 291.70254,603.21838 294.11765,601.08739 294.11765,598.44039 L 293.93717,575.89671 C 305.98058,570.49659 314.50376,558.22323 314.50376,543.97127 C 314.50376,529.95922 306.26512,517.85973 294.24425,512.02763 L 294.11765,419.42494 C 294.11765,416.77794 291.70254,414.64695 288.70259,414.64695 L 270.22769,414.64695 C 267.22775,414.64695 264.81263,416.77794 264.81263,419.42494 L 264.75602,512.47265 C 252.72987,517.76496 244.42655,529.90433 244.42655,543.97127 C 244.42655,558.18865 252.77238,570.22558 264.94868,575.71747 z "  stroke="#000000" stroke-width="3" />
<g  ><path d="M 279.46515,131.14419 C 296.13703,130.95388 329.85969,139.13161 349.9357,143.92063 C 357.62758,145.49639 359.78267,150.74952 364.08391,153.39724 C 380.52658,163.51888 389.48274,173.8906 407.26736,196.00278 C 409.81853,200.05503 409.38148,207.55996 410.85435,212.22044 C 416.51122,270.38466 410.26751,329.00441 419.8313,385.78265 C 423.89117,404.74503 427.28256,424.742 436.30984,442.76449 C 440.43697,449.10698 443.13946,458.29874 450.39266,458.38906 L 469.85675,479.98403 C 480.2081,493.7367 490.06213,507.49654 495.86403,524.85797 C 423.48796,524.55766 351.11189,524.25734 279.46515,523.95703 C 207.81842,524.25734 135.44235,524.55766 63.06628,524.85797 C 68.868184,507.49654 78.722214,493.7367 89.073559,479.98403 L 108.53765,458.38906 C 115.79085,458.29874 118.49334,449.10698 122.62047,442.76449 C 131.64775,424.742 135.03914,404.74503 139.09901,385.78265 C 148.6628,329.00441 142.41909,270.38466 148.07596,212.22044 C 149.54883,207.55996 149.11178,200.05503 151.66295,196.00278 C 169.44757,173.8906 179.30468,164.41982 194.8464,153.39724 C 198.96629,150.47531 201.30273,145.49639 208.99461,143.92063 C 229.07062,139.13161 262.79327,130.95388 279.46515,131.14419 z "  fill-rule="evenodd" stroke="#000000" stroke-width="3" />
<path d="M 117.12739,450.77858 L 441.80293,450.77858 C 445.44472,450.91533 457.23415,452.7606 456.5694,459.00579 C 456.5694,461.6528 454.15429,463.78378 451.15435,463.78378 L 107.77597,463.78378 C 104.77602,463.78378 102.36091,461.6528 102.36091,459.00579 C 102.66889,453.81606 112.40367,450.87837 117.12739,450.77858 z "  stroke="#000000" stroke-width="3" />
<path d="M 203.28368,144.35001 L 355.64662,144.35001 C 358.64656,144.35001 367.06168,147.66608 367.06168,150.66602 C 367.06168,153.66596 366.64656,156.08108 363.64662,156.08108 L 195.28368,156.08108 C 192.28374,156.08108 191.86862,153.66596 191.86862,150.66602 C 191.86862,147.66608 200.28374,144.35001 203.28368,144.35001 z "  stroke="#000000" stroke-width="3" />
<path d="M 154.14082,198.12741 L 404.78948,198.12741 C 407.61875,198.5099 413.65911,198.2108 413.886,206.29996 C 413.886,208.06463 413.61295,209.48529 410.78948,209.48529 L 148.14082,209.48529 C 145.31735,209.48529 145.0443,208.06463 145.0443,206.29996 C 144.16174,199.66484 147.9273,198.6228 154.14082,198.12741 z "  stroke="#000000" stroke-width="3" />
<path d="M 149.36283,236.98842 L 409.56747,236.98842 C 412.56741,236.98842 418.08158,238.83527 418.08158,241.12935 L 418.08158,243.04054 C 418.08158,245.33462 416.56741,247.18147 413.56747,247.18147 L 145.36283,247.18147 C 142.36289,247.18147 140.84872,245.33462 140.84872,243.04054 L 140.84872,241.12935 C 140.84872,238.83527 146.36289,236.98842 149.36283,236.98842 z "  stroke="#000000" stroke-width="3" />
<path d="M 146.72577,258.91504 L 412.20452,258.91504 C 415.20447,258.91504 418.71863,260.61983 418.71863,262.73743 L 418.71863,263.3745 C 418.71863,265.49211 417.20447,268.09784 414.20452,268.09784 L 144.72577,268.09784 C 141.72583,268.09784 140.21166,265.49211 140.21166,263.3745 L 140.21166,262.73743 C 140.21166,260.61983 143.72583,258.91504 146.72577,258.91504 z "  stroke="#000000" stroke-width="3" />
</g>
</g>
<g  ><g  ><path d="M 279.46511,96.690227 L 312.70201,96.690227 C 317.74247,96.106375 315.51038,101.60134 313.09032,103.38587 C 310.01129,107.22199 308.93206,112.52925 308.68612,117.07633 C 308.5915,120.48318 307.54786,128.22809 307.25585,131.62052 C 310.66374,134.88348 314.89709,134.17488 312.18999,137.1439 C 312.98122,138.66271 318.90615,140.15847 322.65195,138.6158 C 325.15307,141.44026 327.23267,139.844 329.39694,139.17574 C 329.24022,125.8097 332.77516,115.69865 339.70191,104.64155 C 342.82129,91.230292 338.85052,78.149232 322.18879,76.186426 L 279.46511,76.186426 L 236.74143,76.186426 C 220.0797,78.149232 216.10893,91.230292 219.22831,104.64155 C 226.15506,115.69865 229.69,125.8097 229.53328,139.17574 C 231.69755,139.844 233.77715,141.44026 236.27827,138.6158 C 240.02407,140.15847 245.949,138.66271 246.74023,137.1439 C 244.03313,134.17488 248.26648,134.88348 251.67437,131.62052 C 251.38236,128.22809 250.33872,120.48318 250.2441,117.07633 C 249.99816,112.52925 248.91893,107.22199 245.8399,103.38587 C 243.41984,101.60134 241.18775,96.106375 246.22821,96.690227 L 279.46511,96.690227 z "  fill-rule="evenodd" stroke="#000000" stroke-width="3" />
<path d="M 320.48326,90.716776 C 326.82588,91.323272 322.14218,100.4716 319.17402,107.21867 C 315.9163,114.62392 314.61422,125.79236 314.54785,127.01943 C 314.50225,128.66132 313.84001,132.3939 313.69928,134.02884 C 313.43048,136.55699 313.40023,136.69328 315.44017,137.9649 C 314.86589,139.17467 319.47328,139.25847 321.27853,138.515 C 322.48392,139.87622 321.48616,137.99206 322.5292,137.67 C 321.7111,133.60139 322.52601,120.58226 327.86836,107.52196 C 330.01669,102.26999 332.26728,98.151522 332.7697,95.663692 C 333.96145,89.762516 329.12662,82.10933 321.05531,82.10933 L 237.87491,82.10933 C 229.84497,83.055282 226.29093,88.456552 226.16053,95.026626 C 226.11975,97.08113 227.00688,102.79719 229.63927,107.52196 C 235.23069,117.55781 237.37586,132.91434 236.40102,137.67 C 237.44407,137.99206 236.76484,139.87622 237.97023,138.515 C 243.24717,140.04364 245.40249,139.4416 245.40976,136.94943 C 245.41196,136.19688 245.62348,135.45981 245.07167,134.02884 C 244.93094,132.3939 244.42797,128.66132 244.38237,127.01943 C 244.31485,125.77118 242.46679,115.99978 239.67738,108.05651 C 238.52325,104.76996 231.10939,91.092011 238.44696,90.716776 L 320.48326,90.716776 z "  fill-rule="evenodd" stroke="#000000" stroke-width="1.5" />
</g>
<g  ><path d="M 279.46515,142.96336 C 281.80602,142.80555 283.33601,140.58075 285.67926,140.92728 C 287.89067,141.87253 288.75774,139.46388 290.3123,139.02549 C 292.53407,139.24489 296.28006,139.72412 296.79816,136.78935 C 296.99217,119.34515 296.56399,103.67645 296.79816,86.285617 C 296.52321,85.567812 296.5765,85.113944 295.33627,85.217792 C 292.86287,85.394586 293.07867,82.141748 290.59168,82.442129 C 288.47154,82.858179 284.42602,82.839661 284.88382,80.084534 C 284.47165,77.611563 282.12854,76.032162 279.46515,76.390006 C 276.80176,76.032162 274.45867,77.611563 274.04649,80.084534 C 274.50428,82.839661 270.45877,82.858179 268.33862,82.442129 C 265.85165,82.141748 266.06745,85.394586 263.59404,85.217792 C 262.35382,85.113944 262.4071,85.567812 262.13214,86.285617 C 262.36631,103.67645 261.93813,119.34515 262.13214,136.78935 C 262.65024,139.72412 266.39623,139.24489 268.618,139.02549 C 270.17257,139.46388 271.03965,141.87253 273.25106,140.92728 C 275.59431,140.58075 277.12428,142.80555 279.46515,142.96336 z "  fill-rule="evenodd" stroke="#000000" stroke-width="3" />
<rect width="9.9104156" height="67.725594" x="274.78882" y="76.186424" rx="4.9552078" ry="3.1853282"  stroke="#000000" stroke-width="1.5" />
</g>
</g>
</g>
</g>
</g></g><g  fill="#EFD807"><g class="PlaceCharge" transform=" translate(262.60832032936,50) scale(0.8632424715296, 0.8632424715296) " >
<title>a crown</title><g  ><g  ><path d="M469.5,262.778 C469.5,283.716 382.419,300.69 275,300.69 C167.581,300.69 80.5,283.716 80.5,262.778 C80.5,241.84 167.581,224.866 275,224.866 C382.419,224.866 469.5,241.84 469.5,262.778 z"  />
<path d="M469.5,262.778 C469.5,283.716 382.419,300.69 275,300.69 C167.581,300.69 80.5,283.716 80.5,262.778 C80.5,241.84 167.581,224.866 275,224.866 C382.419,224.866 469.5,241.84 469.5,262.778 z" fill-opacity="0"  stroke="#000000"  stroke-width="0.841"  />
</g>
<g  ><path d="M469.5,262.778 C469.5,283.716 382.419,300.69 275,300.69 C167.581,300.69 80.5,283.716 80.5,262.778 C80.5,241.84 167.581,224.866 275,224.866 C382.419,224.866 469.5,241.84 469.5,262.778 z" fill-opacity="0.523"  fill="#515151"  />
<path d="M469.5,262.778 C469.5,283.716 382.419,300.69 275,300.69 C167.581,300.69 80.5,283.716 80.5,262.778 C80.5,241.84 167.581,224.866 275,224.866 C382.419,224.866 469.5,241.84 469.5,262.778 z" fill-opacity="0"  stroke="#000000"  stroke-width="0.841"  />
</g>
<g  ><g  ><path d="M270.091,101.017 C234.692,151.968 175.829,134.023 150.123,110.044 C135.523,142.976 102.361,184.358 42.855,140.672 L38.661,141.449 L79.089,257.207 C139.033,219.228 215.971,214.646 266.952,214.289 L283.048,214.289 C334.028,214.646 410.967,219.228 470.911,257.207 L511.339,141.449 L507.145,140.673 C447.639,184.358 414.477,142.976 399.877,110.044 C374.171,134.023 315.308,151.968 279.909,101.017 z"  />
<path d="M270.091,101.017 C234.692,151.968 175.829,134.023 150.123,110.044 C135.523,142.976 102.361,184.358 42.855,140.672 L38.661,141.449 L79.089,257.207 C139.033,219.228 215.971,214.646 266.952,214.289 L283.048,214.289 C334.028,214.646 410.967,219.228 470.911,257.207 L511.339,141.449 L507.145,140.673 C447.639,184.358 414.477,142.976 399.877,110.044 C374.171,134.023 315.308,151.968 279.909,101.017 z" fill-opacity="0"  stroke="#000000"  stroke-width="1"  />
</g>
<g  ><path d="M275,212.079 C195.232,212.079 124.088,229.397 77.747,256.464 L77.747,258.121 L82.151,269.079 C128.543,243.473 197.716,227.273 275,227.273 C353.125,227.273 422.924,243.91 469.317,270 L474.088,258.121 L474.088,257.569 C427.803,229.875 355.839,212.079 275,212.079 z"  />
<path d="M275,212.079 C195.232,212.079 124.088,229.397 77.747,256.464 L77.747,258.121 L82.151,269.079 C128.543,243.473 197.716,227.273 275,227.273 C353.125,227.273 422.924,243.91 469.317,270 L474.088,258.121 L474.088,257.569 C427.803,229.875 355.839,212.079 275,212.079 z" fill-opacity="0"  stroke="#000000"  stroke-width="1"  />
</g>
<g  ><path d="M273.954,139.807 C182.988,139.807 101.857,157.083 49.011,184.081 L49.011,185.735 L54.033,196.666 C106.937,171.123 185.821,154.963 273.954,154.963 C363.045,154.963 442.643,171.559 495.549,197.584 L500.989,185.735 L500.989,185.184 C448.206,157.56 366.141,139.807 273.954,139.807 z"  />
<path d="M273.954,139.807 C182.988,139.807 101.857,157.083 49.011,184.081 L49.011,185.735 L54.033,196.666 C106.937,171.123 185.821,154.963 273.954,154.963 C363.045,154.963 442.643,171.559 495.549,197.584 L500.989,185.735 L500.989,185.184 C448.206,157.56 366.141,139.807 273.954,139.807 z" fill-opacity="0"  stroke="#000000"  stroke-width="1"  />
</g>
<g  ><path d="M276.854,107.83 C293.712,122.571 329.968,159.193 400.231,114.563 C425.515,180.913 482.512,164.037 511.764,142.256 L525.588,117.799 C527.843,100.474 535.274,84.975 549.5,71.873 C535.711,62.233 532.062,68.961 524.654,74.86 C522.276,68.331 517.651,69.883 513.632,69.259 C497.325,79.976 513.302,93.354 512.698,110.145 L508.215,110.892 C505.238,93.876 496.896,88.477 488.039,84.195 C486.607,88.24 484.035,83.178 483.742,96.33 C476.27,95.94 477.846,99.358 479.632,102.864 C468.573,94.689 467.566,101.918 463.373,104.266 C463.913,112.706 467.501,117.797 473.016,120.767 C467.339,123.76 464.852,127.208 466.147,131.196 C485.501,148.363 490.164,134.832 499.436,130.932 C502.905,131.686 505.092,133.241 504.587,136.477 C496.367,145.214 435.831,188.477 402.345,100.305 C363.245,139.085 324.144,137.903 285.044,103.474 L288.575,93.7 C303.323,109.199 315.892,111.87 327.609,109.535 C331.695,103.444 330.091,96.182 327.339,92.38 C337.952,88.875 342.552,83.289 344.568,76.809 C341.38,68.47 336.233,64.52 329.493,64.141 C333.123,55.808 329.23,51.163 325.993,46.195 C301.773,41.098 307.504,54.595 289.651,61.766 L284.694,62.911 C291.864,46.923 313.63,46.658 307.018,19.785 C301.004,18.979 297.882,14.416 287.403,19.412 C289.423,11.83 284.666,6.28 276.754,1.676 L275,0.5 L273.246,1.676 C265.334,6.28 260.577,11.83 262.597,19.412 C252.118,14.416 248.996,18.979 242.982,19.785 C236.37,46.658 258.136,46.923 265.306,62.911 L260.349,61.766 C242.496,54.595 248.227,41.098 224.007,46.195 C220.77,51.163 216.877,55.808 220.507,64.141 C213.767,64.52 208.62,68.47 205.432,76.809 C207.448,83.289 212.048,88.875 222.661,92.38 C219.909,96.182 218.305,103.444 222.391,109.535 C234.108,111.87 246.677,109.199 261.425,93.7 L264.956,103.474 C225.856,137.903 186.755,139.085 147.655,100.305 C114.169,188.477 53.633,145.214 45.413,136.477 C44.908,133.241 47.095,131.686 50.564,130.932 C59.836,134.832 64.499,148.363 83.853,131.196 C85.148,127.208 82.661,123.76 76.984,120.767 C82.499,117.797 86.087,112.706 86.627,104.266 C82.434,101.918 81.427,94.689 70.368,102.864 C72.154,99.358 73.73,95.94 66.258,96.33 C65.965,83.178 63.393,88.24 61.961,84.195 C53.104,88.477 44.762,93.876 41.785,110.892 L37.302,110.145 C36.698,93.354 52.675,79.976 36.368,69.259 C32.349,69.883 27.724,68.331 25.346,74.86 C17.938,68.961 14.289,62.233 0.5,71.873 C14.726,84.975 22.157,100.474 24.412,117.799 L38.236,142.256 C67.488,164.037 124.485,180.913 149.769,114.563 C220.032,159.193 256.288,122.571 273.146,107.83 z"  />
<path d="M276.854,107.83 C293.712,122.571 329.968,159.193 400.231,114.563 C425.515,180.913 482.512,164.037 511.764,142.256 L525.588,117.799 C527.843,100.474 535.274,84.975 549.5,71.873 C535.711,62.233 532.062,68.961 524.654,74.86 C522.276,68.331 517.651,69.883 513.632,69.259 C497.325,79.976 513.302,93.354 512.698,110.145 L508.215,110.892 C505.238,93.876 496.896,88.477 488.039,84.195 C486.607,88.24 484.035,83.178 483.742,96.33 C476.27,95.94 477.846,99.358 479.632,102.864 C468.573,94.689 467.566,101.918 463.373,104.266 C463.913,112.706 467.501,117.797 473.016,120.767 C467.339,123.76 464.852,127.208 466.147,131.196 C485.501,148.363 490.164,134.832 499.436,130.932 C502.905,131.686 505.092,133.241 504.587,136.477 C496.367,145.214 435.831,188.477 402.345,100.305 C363.245,139.085 324.144,137.903 285.044,103.474 L288.575,93.7 C303.323,109.199 315.892,111.87 327.609,109.535 C331.695,103.444 330.091,96.182 327.339,92.38 C337.952,88.875 342.552,83.289 344.568,76.809 C341.38,68.47 336.233,64.52 329.493,64.141 C333.123,55.808 329.23,51.163 325.993,46.195 C301.773,41.098 307.504,54.595 289.651,61.766 L284.694,62.911 C291.864,46.923 313.63,46.658 307.018,19.785 C301.004,18.979 297.882,14.416 287.403,19.412 C289.423,11.83 284.666,6.28 276.754,1.676 L275,0.5 L273.246,1.676 C265.334,6.28 260.577,11.83 262.597,19.412 C252.118,14.416 248.996,18.979 242.982,19.785 C236.37,46.658 258.136,46.923 265.306,62.911 L260.349,61.766 C242.496,54.595 248.227,41.098 224.007,46.195 C220.77,51.163 216.877,55.808 220.507,64.141 C213.767,64.52 208.62,68.47 205.432,76.809 C207.448,83.289 212.048,88.875 222.661,92.38 C219.909,96.182 218.305,103.444 222.391,109.535 C234.108,111.87 246.677,109.199 261.425,93.7 L264.956,103.474 C225.856,137.903 186.755,139.085 147.655,100.305 C114.169,188.477 53.633,145.214 45.413,136.477 C44.908,133.241 47.095,131.686 50.564,130.932 C59.836,134.832 64.499,148.363 83.853,131.196 C85.148,127.208 82.661,123.76 76.984,120.767 C82.499,117.797 86.087,112.706 86.627,104.266 C82.434,101.918 81.427,94.689 70.368,102.864 C72.154,99.358 73.73,95.94 66.258,96.33 C65.965,83.178 63.393,88.24 61.961,84.195 C53.104,88.477 44.762,93.876 41.785,110.892 L37.302,110.145 C36.698,93.354 52.675,79.976 36.368,69.259 C32.349,69.883 27.724,68.331 25.346,74.86 C17.938,68.961 14.289,62.233 0.5,71.873 C14.726,84.975 22.157,100.474 24.412,117.799 L38.236,142.256 C67.488,164.037 124.485,180.913 149.769,114.563 C220.032,159.193 256.288,122.571 273.146,107.83 z" fill-opacity="0"  stroke="#000000"  stroke-width="1"  />
</g>
<g  ><g  ><path d="M306.446,184.02 C306.446,194.534 292.367,203.058 275,203.058 C257.633,203.058 243.554,194.534 243.554,184.02 C243.554,173.505 257.633,164.981 275,164.981 C292.367,164.981 306.446,173.505 306.446,184.02 z"  />
<path d="M306.446,184.02 C306.446,194.534 292.367,203.058 275,203.058 C257.633,203.058 243.554,194.534 243.554,184.02 C243.554,173.505 257.633,164.981 275,164.981 C292.367,164.981 306.446,173.505 306.446,184.02 z" fill-opacity="0"  stroke="#000000"  stroke-width="0.932"  />
</g>
<g  ><path d="M299.885,184.02 C299.885,191.711 288.744,197.947 275,197.947 C261.256,197.947 250.115,191.711 250.115,184.02 C250.115,176.328 261.256,170.092 275,170.092 C288.744,170.092 299.885,176.328 299.885,184.02 z"  fill="#ED1C24"  />
<path d="M299.885,184.02 C299.885,191.711 288.744,197.947 275,197.947 C261.256,197.947 250.115,191.711 250.115,184.02 C250.115,176.328 261.256,170.092 275,170.092 C288.744,170.092 299.885,176.328 299.885,184.02 z" fill-opacity="0"  stroke="#000000"  stroke-width="0.97"  />
</g>
</g>
<g  ><path d="M370.384,187.427 C370.384,196.06 364.207,203.058 356.588,203.058 C348.969,203.058 342.793,196.06 342.793,187.427 C342.793,178.794 348.969,171.795 356.588,171.795 C364.207,171.795 370.384,178.794 370.384,187.427 z" fill-opacity="0"  stroke="#000000"  stroke-width="0.939" stroke-linecap="round" stroke-linejoin="round"  />
<path d="M371.55,187.427 C371.55,196.06 365.512,203.058 358.065,203.058 C350.618,203.058 344.581,196.06 344.581,187.427 C344.581,178.794 350.618,171.795 358.065,171.795 C365.512,171.795 371.55,178.794 371.55,187.427 z" fill-opacity="0"  stroke="#000000"  stroke-width="0.929" stroke-linecap="round" stroke-linejoin="round"  />
<g  ><path d="M370.306,187.427 C370.306,194.894 364.965,200.947 358.376,200.947 C351.787,200.947 346.446,194.894 346.446,187.427 C346.446,179.959 351.787,173.906 358.376,173.906 C364.965,173.906 370.306,179.959 370.306,187.427 z"  fill="#E7E7E7"  />
<path d="M370.306,187.427 C370.306,194.894 364.965,200.947 358.376,200.947 C351.787,200.947 346.446,194.894 346.446,187.427 C346.446,179.959 351.787,173.906 358.376,173.906 C364.965,173.906 370.306,179.959 370.306,187.427 z" fill-opacity="0"  stroke="#000000"  stroke-width="0.939" stroke-linecap="round" stroke-linejoin="round"  />
</g>
</g>
<g  ><path d="M179.617,187.427 C179.617,196.06 185.793,203.058 193.412,203.058 C201.031,203.058 207.208,196.06 207.208,187.427 C207.208,178.794 201.031,171.795 193.412,171.795 C185.793,171.795 179.617,178.794 179.617,187.427 z" fill-opacity="0"  stroke="#000000"  stroke-width="0.939" stroke-linecap="round" stroke-linejoin="round"  />
<path d="M178.451,187.427 C178.451,196.06 184.488,203.058 191.936,203.058 C199.383,203.058 205.42,196.06 205.42,187.427 C205.42,178.794 199.383,171.795 191.936,171.795 C184.488,171.795 178.451,178.794 178.451,187.427 z" fill-opacity="0"  stroke="#000000"  stroke-width="0.929" stroke-linecap="round" stroke-linejoin="round"  />
<g  ><path d="M179.695,187.427 C179.695,194.894 185.036,200.947 191.625,200.947 C198.213,200.947 203.555,194.894 203.555,187.427 C203.555,179.959 198.213,173.906 191.625,173.906 C185.036,173.906 179.695,179.959 179.695,187.427 z"  fill="#E7E7E7"  />
<path d="M179.695,187.427 C179.695,194.894 185.036,200.947 191.625,200.947 C198.213,200.947 203.555,194.894 203.555,187.427 C203.555,179.959 198.213,173.906 191.625,173.906 C185.036,173.906 179.695,179.959 179.695,187.427 z" fill-opacity="0"  stroke="#000000"  stroke-width="0.939" stroke-linecap="round" stroke-linejoin="round"  />
</g>
</g>
<g  ><path d="M149.969,196.573 L127.875,184.843 L126.459,185.126 L147.532,197.061 L149.969,196.573 z" fill-opacity="0"  stroke="#000000"  stroke-width="0.985" stroke-linecap="round" stroke-linejoin="round"  />
<path d="M149.969,196.573 L127.875,217.147 L126.459,217.43 L147.532,197.061 L149.969,196.573 z" fill-opacity="0"  stroke="#000000"  stroke-width="0.985" stroke-linecap="round" stroke-linejoin="round"  />
<path d="M126.427,217.381 L106.584,205.67 L126.382,185.224" fill-opacity="0"  stroke="#000000"  stroke-width="0.985" stroke-linecap="round" stroke-linejoin="round"  />
<g  ><path d="M142.055,198.323 L126.201,214.003 L110.579,204.539 L126.278,189.138 L142.055,198.323 z"  fill="#008F4C"  />
<path d="M142.055,198.323 L126.201,214.003 L110.579,204.539 L126.278,189.138 L142.055,198.323 z" fill-opacity="0"  stroke="#000000"  stroke-width="0.985" stroke-linecap="round" stroke-linejoin="round"  />
</g>
</g>
<path d="M400.031,196.573 L422.126,184.843 L423.541,185.126 L402.468,197.061 L400.031,196.573 z" fill-opacity="0"  stroke="#000000"  stroke-width="1" stroke-linecap="round" stroke-linejoin="round"  />
<path d="M400.031,196.573 L422.126,217.147 L423.541,217.43 L402.468,197.061 L400.031,196.573 z" fill-opacity="0"  stroke="#000000"  stroke-width="1" stroke-linecap="round" stroke-linejoin="round"  />
<path d="M423.573,217.381 L443.416,205.67 L423.618,185.224" fill-opacity="0"  stroke="#000000"  stroke-width="1" stroke-linecap="round" stroke-linejoin="round"  />
<g  ><path d="M407.945,198.323 L423.799,214.003 L439.421,204.539 L423.722,189.138 L407.945,198.323 z"  fill="#008F4C"  />
<path d="M407.945,198.323 L423.799,214.003 L439.421,204.539 L423.722,189.138 L407.945,198.323 z" fill-opacity="0"  stroke="#000000"  stroke-width="1" stroke-linecap="round" stroke-linejoin="round"  />
</g>
<g  ><path d="M45.5,119.3 C51.226,118.942 56.321,118.901 66.5,116.3" fill-opacity="0"  stroke="#000000"  stroke-width="0.985"  />
<path d="M504.5,119.3 C498.774,118.942 493.679,118.901 483.5,116.3" fill-opacity="0"  stroke="#000000"  stroke-width="0.985"  />
</g>
<g  ><g  ><g  ><g  ><path d="M73.042,241.185 C72.934,241.225 72.847,241.302 72.738,241.339 C66.546,243.402 59.554,238.602 57.119,230.624 C54.683,222.647 57.722,214.502 63.913,212.438 C64.022,212.402 64.136,212.412 64.246,212.38 L73.042,241.185 z"  fill="#ED1C24"  />
<path d="M73.042,241.185 C72.934,241.225 72.847,241.302 72.738,241.339 C66.546,243.402 59.554,238.602 57.119,230.624 C54.683,222.647 57.722,214.502 63.913,212.438 C64.022,212.402 64.136,212.412 64.246,212.38 L73.042,241.185 z" fill-opacity="0"  stroke="#000000"  stroke-width="0.982"  />
</g>
<g  ><path d="M64.797,209.323 L61.424,210.447 L71.724,244.179 L75.097,243.055 C72.313,229.632 68.726,217.177 64.797,209.323 z"  />
<path d="M64.797,209.323 L61.424,210.447 L71.724,244.179 L75.097,243.055 C72.313,229.632 68.726,217.177 64.797,209.323 z" fill-opacity="0"  stroke="#000000"  stroke-width="0.982"  />
</g>
</g>
<g  ><g  ><path d="M83.052,196.966 C86.24,197.041 90.338,203.402 92.516,211.896 C94.694,220.39 94.185,228.024 91.46,229.754 L91.345,229.821 C91.183,229.912 91.016,229.982 90.839,230.031 L85.501,231.513 L83.081,222.079 C82.17,220.042 81.355,217.725 80.708,215.202 C80.061,212.679 79.654,210.231 79.468,207.991 L77.072,198.646 L83.052,196.966 z"  />
<path d="M83.052,196.966 C86.24,197.041 90.338,203.402 92.516,211.896 C94.694,220.39 94.185,228.024 91.46,229.754 L91.345,229.821 C91.183,229.912 91.016,229.982 90.839,230.031 L85.501,231.513 L83.081,222.079 C82.17,220.042 81.355,217.725 80.708,215.202 C80.061,212.679 79.654,210.231 79.468,207.991 L77.072,198.646 L83.052,196.966 z" fill-opacity="0"  stroke="#000000"  stroke-width="0.981" stroke-linecap="round" stroke-linejoin="round"  />
</g>
<g  ><path d="M75.647,216.716 C77.97,225.772 82.498,232.374 85.761,231.46 C89.024,230.546 89.787,222.464 87.464,213.407 C85.142,204.351 80.613,197.75 77.35,198.663 C74.087,199.577 73.325,207.659 75.647,216.716 z"  />
<path d="M75.647,216.716 C77.97,225.772 82.498,232.374 85.761,231.46 C89.024,230.546 89.787,222.464 87.464,213.407 C85.142,204.351 80.613,197.75 77.35,198.663 C74.087,199.577 73.325,207.659 75.647,216.716 z" fill-opacity="0"  stroke="#000000"  stroke-width="1.384" stroke-linecap="round" stroke-linejoin="round"  />
</g>
<g  ><path d="M77.256,200.686 C65.907,208.151 72.213,229.462 84.9,230.492 C92.485,226.455 84.212,198.883 77.256,200.686 z"  fill="#E7E7E7"  />
<path d="M77.256,200.686 C65.907,208.151 72.213,229.462 84.9,230.492 C92.485,226.455 84.212,198.883 77.256,200.686 z" fill-opacity="0"  stroke="#000000"  stroke-width="0.981" stroke-linecap="round" stroke-linejoin="round"  />
</g>
</g>
</g>
<g  ><g  ><g  ><path d="M476.959,241.185 C477.066,241.225 477.153,241.302 477.263,241.339 C483.454,243.402 490.446,238.602 492.881,230.624 C495.317,222.647 492.279,214.502 486.087,212.438 C485.978,212.402 485.864,212.412 485.754,212.38 L476.959,241.185 z"  fill="#ED1C24"  />
<path d="M476.959,241.185 C477.066,241.225 477.153,241.302 477.263,241.339 C483.454,243.402 490.446,238.602 492.881,230.624 C495.317,222.647 492.279,214.502 486.087,212.438 C485.978,212.402 485.864,212.412 485.754,212.38 L476.959,241.185 z" fill-opacity="0"  stroke="#000000"  stroke-width="0.982"  />
</g>
<g  ><path d="M485.203,209.323 L488.576,210.447 L478.276,244.179 L474.903,243.055 C477.687,229.632 481.275,217.177 485.203,209.323 z"  />
<path d="M485.203,209.323 L488.576,210.447 L478.276,244.179 L474.903,243.055 C477.687,229.632 481.275,217.177 485.203,209.323 z" fill-opacity="0"  stroke="#000000"  stroke-width="0.982"  />
</g>
</g>
<g  ><g  ><path d="M466.948,196.966 C463.76,197.041 459.662,203.402 457.484,211.896 C455.306,220.39 455.815,228.024 458.54,229.754 L458.655,229.821 C458.817,229.912 458.984,229.982 459.161,230.031 L464.499,231.513 L466.919,222.079 C467.83,220.042 468.645,217.725 469.292,215.202 C469.939,212.679 470.346,210.231 470.532,207.991 L472.928,198.646 L466.948,196.966 z"  />
<path d="M466.948,196.966 C463.76,197.041 459.662,203.402 457.484,211.896 C455.306,220.39 455.815,228.024 458.54,229.754 L458.655,229.821 C458.817,229.912 458.984,229.982 459.161,230.031 L464.499,231.513 L466.919,222.079 C467.83,220.042 468.645,217.725 469.292,215.202 C469.939,212.679 470.346,210.231 470.532,207.991 L472.928,198.646 L466.948,196.966 z" fill-opacity="0"  stroke="#000000"  stroke-width="0.981" stroke-linecap="round" stroke-linejoin="round"  />
</g>
<g  ><path d="M474.353,216.716 C472.03,225.772 467.502,232.374 464.239,231.46 C460.976,230.546 460.213,222.464 462.536,213.407 C464.858,204.351 469.387,197.75 472.65,198.663 C475.913,199.577 476.675,207.659 474.353,216.716 z"  />
<path d="M474.353,216.716 C472.03,225.772 467.502,232.374 464.239,231.46 C460.976,230.546 460.213,222.464 462.536,213.407 C464.858,204.351 469.387,197.75 472.65,198.663 C475.913,199.577 476.675,207.659 474.353,216.716 z" fill-opacity="0"  stroke="#000000"  stroke-width="1.384" stroke-linecap="round" stroke-linejoin="round"  />
</g>
<g  ><path d="M472.744,200.686 C484.093,208.151 477.787,229.462 465.1,230.492 C457.515,226.455 465.788,198.883 472.744,200.686 z"  fill="#E7E7E7"  />
<path d="M472.744,200.686 C484.093,208.151 477.787,229.462 465.1,230.492 C457.515,226.455 465.788,198.883 472.744,200.686 z" fill-opacity="0"  stroke="#000000"  stroke-width="0.981" stroke-linecap="round" stroke-linejoin="round"  />
</g>
</g>
</g>
<g  ><g  ><path d="M35.114,136.145 C35.023,136.181 34.953,136.244 34.861,136.278 C29.614,138.167 23.048,134.852 20.194,128.88 C17.342,122.906 19.144,115.22 24.391,113.33 C24.483,113.296 24.584,113.298 24.678,113.268 C32.649,111.748 41.873,130.52 35.114,136.145 z"  fill="#E7E7E7"  />
<path d="M35.114,136.145 C35.023,136.181 34.953,136.244 34.861,136.278 C29.614,138.167 23.048,134.852 20.194,128.88 C17.342,122.906 19.144,115.22 24.391,113.33 C24.483,113.296 24.584,113.298 24.678,113.268 C32.649,111.748 41.873,130.52 35.114,136.145 z" fill-opacity="0"  stroke="#000000"  stroke-width="1.022"  />
</g>
<g  ><path d="M29.674,111.762 L26.581,112.685 C33.548,118.198 38.216,125.535 37.302,135.333 L40.395,134.41 C42.529,123.879 37.132,115.913 29.674,111.762 z"  />
<path d="M29.674,111.762 L26.581,112.685 C33.548,118.198 38.216,125.535 37.302,135.333 L40.395,134.41 C42.529,123.879 37.132,115.913 29.674,111.762 z" fill-opacity="0"  stroke="#000000"  stroke-width="1.022"  />
</g>
</g>
<g  ><g  ><path d="M514.887,136.145 C514.977,136.181 515.047,136.244 515.14,136.278 C520.387,138.167 526.953,134.852 529.806,128.88 C532.659,122.906 530.857,115.22 525.61,113.33 C525.517,113.296 525.416,113.298 525.323,113.268 C517.351,111.748 508.127,130.52 514.887,136.145 z"  fill="#E7E7E7"  />
<path d="M514.887,136.145 C514.977,136.181 515.047,136.244 515.14,136.278 C520.387,138.167 526.953,134.852 529.806,128.88 C532.659,122.906 530.857,115.22 525.61,113.33 C525.517,113.296 525.416,113.298 525.323,113.268 C517.351,111.748 508.127,130.52 514.887,136.145 z" fill-opacity="0"  stroke="#000000"  stroke-width="1.022"  />
</g>
<g  ><path d="M520.326,111.762 L523.419,112.685 C516.453,118.198 511.785,125.535 512.698,135.333 L509.605,134.41 C507.472,123.879 512.869,115.913 520.326,111.762 z"  />
<path d="M520.326,111.762 L523.419,112.685 C516.453,118.198 511.785,125.535 512.698,135.333 L509.605,134.41 C507.472,123.879 512.869,115.913 520.326,111.762 z" fill-opacity="0"  stroke="#000000"  stroke-width="1.022"  />
</g>
</g>
<g  ><path d="M158.499,96.3 C158.499,102.927 153.126,108.3 146.499,108.3 C139.871,108.3 134.499,102.927 134.499,96.3 C134.499,89.673 139.871,84.3 146.499,84.3 C153.126,84.3 158.499,89.673 158.499,96.3 z"  fill="#E7E7E7"  />
<path d="M158.499,96.3 C158.499,102.927 153.126,108.3 146.499,108.3 C139.871,108.3 134.499,102.927 134.499,96.3 C134.499,89.673 139.871,84.3 146.499,84.3 C153.126,84.3 158.499,89.673 158.499,96.3 z" fill-opacity="0"  stroke="#000000"  stroke-width="0.99"  />
</g>
<g  ><path d="M415.499,96.3 C415.499,102.927 410.126,108.3 403.499,108.3 C396.871,108.3 391.499,102.927 391.499,96.3 C391.499,89.673 396.871,84.3 403.499,84.3 C410.126,84.3 415.499,89.673 415.499,96.3 z"  fill="#E7E7E7"  />
<path d="M415.499,96.3 C415.499,102.927 410.126,108.3 403.499,108.3 C396.871,108.3 391.499,102.927 391.499,96.3 C391.499,89.673 396.871,84.3 403.499,84.3 C410.126,84.3 415.499,89.673 415.499,96.3 z" fill-opacity="0"  stroke="#000000"  stroke-width="0.99"  />
</g>
</g>
<g  ><g  ><path d="M287.519,77.982 C287.519,84.909 281.923,90.525 275.021,90.525 C268.118,90.525 262.523,84.909 262.523,77.982 C262.523,71.054 268.118,65.438 275.021,65.438 C281.923,65.438 287.519,71.054 287.519,77.982 z"  />
<path d="M287.519,77.982 C287.519,84.909 281.923,90.525 275.021,90.525 C268.118,90.525 262.523,84.909 262.523,77.982 C262.523,71.054 268.118,65.438 275.021,65.438 C281.923,65.438 287.519,71.054 287.519,77.982 z" fill-opacity="0"  stroke="#000000"  stroke-width="0.998" stroke-linecap="round" stroke-linejoin="round"  />
</g>
<g  ><path d="M284.956,77.982 C284.956,83.488 280.508,87.951 275.021,87.951 C269.534,87.951 265.085,83.488 265.085,77.982 C265.085,72.476 269.534,68.012 275.021,68.012 C280.508,68.012 284.956,72.476 284.956,77.982 z"  fill="#E7E7E7"  />
<path d="M284.956,77.982 C284.956,83.488 280.508,87.951 275.021,87.951 C269.534,87.951 265.085,83.488 265.085,77.982 C265.085,72.476 269.534,68.012 275.021,68.012 C280.508,68.012 284.956,72.476 284.956,77.982 z" fill-opacity="0"  stroke="#000000"  stroke-width="0.998" stroke-linecap="round" stroke-linejoin="round"  />
</g>
</g>
<path d="M216.499,77.072 C227.748,75.432 239.742,75.086 253.499,77.8" fill-opacity="0"  stroke="#000000"  stroke-width="1"  />
<path d="M274.999,20.904 L274.999,54.884" fill-opacity="0"  stroke="#000000"  stroke-width="1"  />
<path d="M333.499,77.072 C322.25,75.432 310.255,75.086 296.499,77.8" fill-opacity="0"  stroke="#000000"  stroke-width="1"  />
<path d="M265.499,62.98 C253.486,69.593 240.405,40.536 225.709,48.789 C219.156,56.205 223.405,60.815 223.349,66.544 C210.764,66.53 213.063,73.171 209.999,77.297 C212.843,88.364 222.824,88.288 227.013,90.301 C222.839,98.252 222.063,105.248 224.839,106.868 C239.548,109.662 249.031,98.157 261.078,93.802" fill-opacity="0"  stroke="#000000"  stroke-width="1"  />
<path d="M284.499,62.98 C296.512,69.593 309.593,40.536 324.289,48.789 C330.841,56.205 326.593,60.815 326.649,66.544 C339.234,66.53 336.935,73.171 339.999,77.297 C337.155,88.364 327.174,88.288 322.985,90.301 C327.159,98.252 327.935,105.248 325.158,106.868 C310.449,109.662 300.967,98.157 288.92,93.802" fill-opacity="0"  stroke="#000000"  stroke-width="1"  />
<path d="M265.223,62.8 C264.069,48.65 237.55,40.065 246.206,22.746 C248.644,19.866 257.82,19.111 267.343,25.656 C265.629,16.905 264.525,9.134 273.473,4.8 L274.999,3.9 L276.499,4.8 C285.447,9.134 284.343,16.905 282.629,25.656 C292.151,19.111 301.327,19.866 303.766,22.746 C312.421,40.065 285.903,48.65 284.749,62.8" fill-opacity="0"  stroke="#000000"  stroke-width="1"  />
<g  ><path d="M3.499,75.294 C7.551,71.988 14.153,67.688 26.27,80.088 C29.17,75.145 27.595,73.312 35.335,73.323 C43.996,80.133 38.476,86.942 39.652,93.752 L40.499,94.8" fill-opacity="0"  stroke="#000000"  stroke-width="1"  />
<path d="M546.5,75.294 C542.448,71.988 535.846,67.688 523.729,80.088 C520.829,75.145 522.404,73.312 514.664,73.323 C506.003,80.133 511.523,86.942 510.347,93.752 L509.5,94.8" fill-opacity="0"  stroke="#000000"  stroke-width="1"  />
</g>
<path d="M42,110.861 C47.918,104.048 46.965,96.18 60.591,90.55 C61.022,93.866 63.493,90.563 61.561,101.541 C72.144,95.39 65.266,105.356 64.696,109.733 C70.972,107.735 77.645,100.005 83.5,107.256 C80.776,115.037 76.147,118.933 68.962,122.028 C73.543,123.148 78.096,124.311 80.152,129.326 C70.096,143.798 52.623,128.497 52.623,128.497 C50.28,127.077 49.531,128.866 47.903,129.765 L46.215,133.206" fill-opacity="0"  stroke="#000000"  stroke-width="1"  />
<path d="M508,110.861 C502.082,104.048 503.035,96.18 489.409,90.55 C488.978,93.866 486.507,90.563 488.439,101.541 C477.856,95.39 484.734,105.356 485.304,109.733 C479.028,107.735 472.355,100.005 466.5,107.256 C469.224,115.037 473.853,118.933 481.038,122.028 C476.457,123.148 471.904,124.311 469.848,129.326 C479.904,143.798 497.377,128.497 497.377,128.497 C499.72,127.077 500.469,128.866 502.097,129.765 L503.785,133.206" fill-opacity="0"  stroke="#000000"  stroke-width="1"  />
</g>
<path d="M79.688,262.989 C120.131,236.915 192.479,219.544 275,219.544 C358.488,219.544 431.563,237.325 471.721,263.909" fill-opacity="0"  stroke="#000000"  stroke-width="0.96"  />
</g>
</g>
</g><g  fill="#F0F0F0"><g class="PlaceCharge" transform=" translate(388.96489139778,775) scale(0.97927355763973, 0.65284903842649) " >
<title>a tower</title><g  ><g  ><g  ><rect width="53.174603" height="72.222221" x="89.166115" y="307.71967" ry="1.2286743"  stroke="#000000" stroke-width="2.5" />
<path d="m26.54,243.5 -5.492,0 -5.561,10.16 -8.739,70.73 -5.402,0 0,57.14 80.1,-1.715 0,-56.94   c0.6063,-16.94 14.84,-24.15 31.44,-24.13 16.6,0.01712 30.75,7.264 31.96,24.13   l0,56.94 80.61,1.715 0,-11.88 0,-45.26 -6.594,0 -10.33,-70.73 -4.211,-10.16 -4.062,0 0,-207.8 -173.7,0 0,207.8   z "  stroke="#000000" stroke-width="2.44743442999999990" />
<path d="m19.54,38.8 187.9,0   c-0.2899,9.233 2.089,13.01 -8.241,16.12   l-174,0   c-9.215,-3.001 -4.441,-8.769 -5.666,-16.12   z "  stroke="#000000" stroke-width="2.44743442999999990" />
<path d="m172.1,1.201 -0.1179,13.54 23.39,0 0.1512,-13.54 23.45,0 -0.2089,13.54 -0.1776,24.54 -210.2,0 -0.1997,-24.54 -0.1947,-13.54 23.45,0 0.137,13.54 23.39,0 -0.07938,-13.54 23.45,0 0.0217,13.54 23.39,0 0.03587,-13.54 23.45,0 -0.09356,13.54 23.39,0 0.1512,-13.54 23.42,0   z "  stroke="#000000" stroke-width="2.21428943000000000" />
<path d="m146.5,313.9 70.28,-0.06575   m-70.96,54.9 78.36,-0.03784   m-77,-15.54 77.44,-0.03707   m-78.45,-15.55 78.18,0   m-77.84,-13.14 77.85,0   m-222.2,0 79.11,0   m-79.25,13.14 78.91,0   m-79.04,15.66 79.38,-0.03784   m-79.52,15.61 79.19,-0.03762   m-42.9,-31.19 0,15.55   m34.55,-15.55 0,15.55   m-11.13,0 0,15.58   m0,-44.26 0,13.14   m94.87,15.55 0,15.58   m0,-44.26 0,13.14   m12.06,0 0,15.55   m18.66,0 0,15.58   m5.972,-44.26 0,13.14   m-182.9,-35.53 204.8,0   m-189.9,-247.7 175.1,0   m-173.6,15.08 173.6,0   m-174.6,18.81 174.6,0   m-174.3,19.78 174.3,0   m-174.3,15.37 173.8,0   m-173.8,17.97 173.8,0   m-173.8,19.04 173.8,0   m-173.8,17.05 173.8,0   m-173.3,15.89 173.3,0   m-173.8,15.83 173.8,0   m-174.8,15.59 174.8,0   m-173.8,18.68 173.8,0   m-183.8,12.54 192.4,0   m-194.2,15.63 197.3,0   m-198.6,15.7 200.5,0   m-175.1,-233.3 0,15.3   m0.4968,18.93 0,19.78   m0,15.37 0,17.97   m0,19.04 0,17.05   m0,15.89 0,15.83   m0,15.59 0,18.68   m0,12.54 -3.029,15.63   m2.596,15.7 -3.029,14.71   m3.46,11.43 -2.014,10.85   m62.51,-270.3 0,15.3   m-14.11,18.93 0,19.78   m14.11,15.37 0,17.97   m0,19.04 0,17.05   m0,15.89 0,15.83   m0,15.59 0,18.68   m-5.898,12.54 -1.731,15.63   m1.731,15.7 -1.731,14.71   m-29.93,-232.6 -0.0265,18.8   m0,19.78 0,15.37   m0,17.97 0,19.04   m0,17.05 0,15.89   m0,15.83 0,15.59   m0,18.68 -3.029,12.54   m3.029,15.63 -1.731,15.7   m1.731,14.71 -1.731,11.43   m80.56,-244 0,18.8   m0,19.78 0,15.37   m-14.42,17.97 0,19.04   m0,17.05 0,15.89   m0,15.83 0,15.59   m-7.378,18.68 1.298,12.54   m8.187,15.63 1.298,15.7   m35.38,-233.3 0,15.3   m-0.4968,18.93 0,19.78   m0,15.37 0,17.97   m0,19.04 0,17.05   m0,15.89 0,15.83   m0,15.59 0,18.68   m0,12.54 2.164,15.63   m-2.164,15.7 2.596,14.71   m1.458,11.43 1.293,9.999   m23.52,-254 0,18.8   m0,19.78 0,15.37   m0,17.97 0,19.04   m-9.485,17.05 0,15.89   m9.485,15.83 0,15.59   m0,18.68 3.894,12.54   m-3.894,15.63 2.596,15.7   m-2.596,14.71 1.731,11.43   m-186,0.5751 71.54,-0.06924   m-62.13,39.59 0,14.71   m19.9,1.298 0,10.38   m172.2,-42.4 0,15.58   m0,15.58 0,11.68   m-84.38,-257.5 0,-15.58   m-26.83,0 0,-19.9   "  fill-rule="evenodd" stroke="#000000" stroke-width="0.97897374999999998" />
<g  ><g  stroke="#000000" stroke-width="1.05687773000000010" ><path d="m60.04,85.5 0,47.71 30.14,0 0,-47.71 -30.14,0   z "  stroke="#000000" stroke-width="1.05687773000000010" />
<path d="m60.04,85.5 0,47.71 30.14,0 0,-47.71 -30.14,0   z m7.559,6.521 15.01,0 0,34.66 -15.01,0 0,-34.66   z "  stroke="#000000" stroke-width="1.05687773000000010" />
</g>
<g  stroke="#000000" stroke-width="1.05687773000000010" ><path d="m136.5,85.5 0,47.71 30.14,0 0,-47.71 -30.14,0   z "  stroke="#000000" stroke-width="1.05687773000000010" />
<path d="m136.5,85.5 0,47.71 30.14,0 0,-47.71 -30.14,0   z m7.559,6.521 15.01,0 0,34.66 -15.01,0 0,-34.66   z "  stroke="#000000" stroke-width="1.05687773000000010" />
</g>
</g>
<path d="m135.5,381.2 10.24,0.06739 0,-69.86   c-1.15,-8.613 -17.02,-12.93 -32.76,-12.94 -15.74,-0.008723 -31.28,4.288 -31.85,12.94   l0,69.86 10.32,-0.06739 0,-64.88   c0.3915,-6.607 10.97,-9.91 21.69,-9.903 10.72,0.006542 21.58,3.323 22.37,9.903   l0,64.88   z "  stroke="#000000" stroke-width="2.44743442999999990" />
</g>
</g>
</g>
</g>
</g></g></g></g><defs><mask id="mask11-1" >
<path fill="#FFFFFF" d="m 0,0 v 800 c -2.5063876,43.11115 1.2341419,84.33503 21.489586,125.13639 20.255443,40.80137 53.477613,79.98631 98.039434,115.63581 44.56181,35.6494 100.44867,67.7517 164.92346,94.7345 64.47479,26.9828 137.51639,48.8374 215.54752,64.4933 78.03113,-15.6559 151.07273,-37.5105 215.54752,-64.4933 64.47479,-26.9828 120.36165,-59.0851 164.92346,-94.7345 44.56182,-35.6495 77.78399,-74.83444 98.03943,-115.63581 C 998.76586,884.33503 1000.1453,841.93063 1000,800 V 0 Z" />
</mask>
</defs></g></svg>
