<?xml version="1.0" encoding="utf-8" ?>
    <svg version="1.1"
        baseProfile="full"
        xmlns="http://www.w3.org/2000/svg"
        xmlns:xlink="http://www.w3.org/1999/xlink" 
         xmlns:rdf="http://www.w3.org/1999/02/22-rdf-syntax-ns#"
         xmlns:cc="http://creativecommons.org/ns#"
         xmlns:dc="http://purl.org/dc/elements/1.1/" 
        preserveAspectRatio="xMidYMid meet" height="600" width="500" viewBox="0,0,1000,1200 ">
<metadata>
<rdf:RDF>
      <cc:Work
         rdf:about="">
        <dc:format>image/svg+xml</dc:format>
        <dc:type
           rdf:resource="http://purl.org/dc/dcmitype/StillImage" />
        <dc:rights>
          <cc:Agent>
            <dc:title>This work is licensed under a &lt;a rel=&quot;license&quot; href=&quot;http://creativecommons.org/licenses/by-nc-sa/4.0/&quot;&gt;Creative Commons Attribution-NonCommercial-ShareAlike 4.0 International License&lt;/a&gt;.</dc:title>
          </cc:Agent>
        </dc:rights>
         <dc:creator>
           <cc:Agent>
              <dc:title>Crancelin - https://commons.wikimedia.org/wiki/User:Henrysalome
heater shape - https://commons.wikimedia.org/wiki/User:MG
</dc:title>
           </cc:Agent>
        </dc:creator>
      </cc:Work>
      </rdf:RDF>
</metadata>
<defs></defs><g ><g mask="url(#mask8-1)"><g><g><title>quarterly</title><desc>Division used to fill field</desc><g stroke-width="4" stroke="none" ><defs><pattern  patternContentUnits="userSpaceOnUse" patternUnits="userSpaceOnUse" x="0.5" y="0" width="333.32999" height="333.32999" id="pattern6-1" >
<g class="treatment"><g  fill="#F0F0F0"><rect x="0" y="0" width="333.32999" height="333.32999" /></g><g stroke-width="2" stroke="none" ><g  fill="#1E7FCB"><g class="treatment">
    <path d="M 0,166.665 H 166.665 V 0 H 0 Z M 166.665,333.3299 H 333.3299 V 166.665 H 166.665 Z"/>
  </g></g></g></g>
</pattern>
</defs><g  fill="url(#pattern6-1)"><rect x='-100' y='-100' width='1200' height='1400' /></g>
<defs><pattern  patternContentUnits="userSpaceOnUse" patternUnits="userSpaceOnUse" x="0" y="0" width="100" height="100" id="pattern7-1" >
<g class="treatment"><g  fill="#050505"><rect x="0" y="0" width="100" height="100" /></g><g stroke-width="2" stroke="none" ><g  fill="#EFD807"><g>
    <path d="M99.194,-59.982 C112.294,-60.171 124.52,-55.927 135.234,-48.55 C151.965,-36.395 160.554,-17.136 159.902,2.12 C159.512,13.674 155.777,25.221 148.484,35.259 C144.397,41.234 138.888,45.752 133.096,49.956 L135.224,51.422 C161.993,70.87 167.954,108.462 148.505,135.23 C136.349,151.961 117.09,160.55 97.834,159.898 C86.28,159.508 74.733,155.773 64.695,148.48 C58.72,144.393 54.202,138.884 49.999,133.092 L48.533,135.22 C29.084,161.989 -8.507,167.95 -35.276,148.501 C-52.007,136.346 -60.596,117.087 -59.944,97.83 C-59.553,86.277 -55.819,74.729 -48.525,64.691 C-44.439,58.716 -38.929,54.198 -33.137,49.995 L-35.266,48.529 C-62.035,29.08 -67.995,-8.511 -48.547,-35.28 C-36.391,-52.01 -17.132,-60.599 2.124,-59.948 C13.678,-59.557 25.225,-55.823 35.263,-48.529 C41.238,-44.443 45.756,-38.933 49.96,-33.141 L51.425,-35.27 C63.557,-51.52 79.291,-58.748 99.194,-59.982 z M99.269,-52.081 C82.604,-51.702 67.912,-43.727 57.848,-30.584 C55.619,-27.347 56.777,-29.147 54.443,-25.143 C55.915,-22.453 55.952,-22.411 57.594,-16.78 C60.656,-6.276 61.25,7.5 55.75,22.5 L50.685,11.884 C52.122,5.649 52.449,-0.806 51.572,-7.154 C51.049,-9.606 50.526,-12.057 50.003,-14.509 C49.996,-14.529 49.988,-14.549 49.981,-14.569 C43.123,6.563 52.667,34.25 72.25,44.5 L64.675,48.54 C41.764,31.751 33.789,0.775 45.504,-25.02 C42.17,-31.925 36.668,-37.326 30.733,-42.013 L30.609,-42.106 C7.313,-59.032 -25.198,-53.89 -42.124,-30.595 C-59.049,-7.299 -53.876,25.181 -30.581,42.106 C-27.344,44.335 -29.143,43.178 -25.139,45.511 C-22.449,44.04 -22.407,44.002 -16.776,42.361 C-6.272,39.299 12.25,40.25 23,44.5 L11.888,49.27 C5.653,47.832 -0.803,47.506 -7.15,48.382 C-9.602,48.905 -12.053,49.428 -14.505,49.951 C-14.525,49.959 -14.545,49.966 -14.565,49.973 C6.569,56.831 28,49.75 44.25,28.75 L48.544,35.28 C31.755,58.191 0.779,66.165 -25.016,54.45 C-31.921,57.784 -37.322,63.286 -42.009,69.221 L-42.102,69.345 C-59.028,92.641 -53.886,125.153 -30.591,142.078 C-7.295,159.003 25.185,153.831 42.11,130.535 C44.339,127.298 43.182,129.098 45.515,125.093 C44.044,122.403 44.007,122.362 42.365,116.73 C39.302,106.227 40.25,88.75 44.75,77.5 L49.273,88.067 C47.836,94.301 47.509,100.757 48.386,107.104 C48.909,109.556 49.432,112.008 49.955,114.459 C49.962,114.479 49.97,114.5 49.977,114.52 C56.836,93.387 47.667,67.75 27.25,56 L35.283,51.411 C58.194,68.199 66.17,99.176 54.454,124.971 C57.788,131.875 63.29,137.276 69.225,141.964 L69.349,142.057 C92.645,158.982 125.156,153.841 142.082,130.545 C159.007,107.25 153.835,74.77 130.539,57.845 C127.302,55.615 129.102,56.773 125.097,54.439 C122.407,55.911 122.368,55.947 116.734,57.59 C106.231,60.652 88.5,59.75 77.25,55.5 L88.071,50.681 C94.305,52.118 100.761,52.445 107.108,51.568 C109.56,51.045 112.012,50.522 114.463,49.999 C114.483,49.992 114.503,49.984 114.523,49.977 C93.39,43.12 67.75,52.333 56,73 L51.414,64.671 C68.203,41.76 99.179,33.785 124.975,45.5 C131.879,42.166 137.28,36.665 141.968,30.729 L142.061,30.605 C158.986,7.309 153.845,-25.202 130.549,-42.127 C120.76,-49.218 111.16,-51.674 99.269,-52.081 z"/>
  </g></g></g></g>
</pattern>
</defs><g  fill="url(#pattern7-1)"><path fill-rule="evenodd" d="M500,500 v800   h-600.000   v-800.000  h600zM500,500 v-600.000  h600 v600   h-600.000  z" /></g></g></g><g transform='translate(0,0)'><g><title>crancelin</title><g  fill="#EFD807"><g transform="matrix(1.8881309,-0.23324295,0.23183342,1.8996106,-175.72128,-122.85897)">
    <path d="M 55.415756,122.04154 C 305.23838,299.58087 461.06749,505.86478 556.90409,766.82852 l -44.9426,16.3912 C 416.55542,525.87734 273.72749,342.71622 26.500085,165.28099 Z"/>
    <path d="m 541.59243,450.80628 c 7.37854,11.33871 3.70556,30.33125 -18.10579,30.40005 28.16289,25.86317 -23.94646,51.72851 -25.77964,12.54313 -28.92514,22.40128 -14.98188,64.01981 18.01465,58.03031 -22.56486,24.80865 5.3255,58.72852 39.65084,46.06953 -32.25964,-22.31968 17.19892,-52.9627 24.20812,-15.37384 11.61656,-18.46065 29.33544,-11.24404 35.04115,1.02194 6.07264,12.04976 0.12056,30.58169 -21.52005,28.37605 25.30521,28.66531 -29.14202,48.96344 -26.86919,9.80113 -31.10823,19.25505 -21.63268,62.03616 11.80904,59.52843 -25.0344,22.31408 -0.74931,58.89537 34.71108,49.89358 -29.7498,-25.56946 22.5845,-50.63717 25.62617,-12.52153 13.4827,-17.14527 30.72879,-8.41991 35.12124,4.37524 l -90.63063,32.69003 c -21.39537,-5.66771 -31.3208,-14.71066 -40.76613,-27.83805 l -22.56244,-53.08764 c -2.88187,-15.9134 -2.25845,-29.67876 8.52697,-49.00646 -21.8706,-3.40025 -32.3325,-11.76451 -43.09828,-23.83275 L 456.9663,551.27384 c -4.52949,-15.52504 -5.6797,-28.8232 2.91736,-49.39176 -22.21529,-1.31491 -33.81481,-8.1187 -45.78302,-18.99542 l -33.09517,-47.30383 c -6.12748,-14.96646 -8.34711,-28.51779 -1.81589,-49.66552 -22.09958,1.22122 -34.04691,-4.78603 -47.08657,-14.35222 l -38.05649,-43.63324 c -7.65832,-14.24407 -11.45056,-27.04258 -7.16541,-48.75718 -21.8509,3.52462 -34.55519,-0.83533 -48.52327,-8.98607 l -42.23023,-39.36909 c -9.1053,-13.36545 -14.24286,-26.1554 -12.25115,-48.19895 -21.36278,5.78935 -34.20684,2.41477 -48.95046,-4.23129 L 88.71869,143.56966 C 78.266186,131.2291 71.83325,119.52866 71.509948,97.397661 L 125.21011,17.395068 c 11.35252,7.357291 15.6759,26.165291 -4.22179,35.099679 36.24761,12.172245 -0.82431,56.969863 -18.43715,21.917868 -17.312989,32.229485 12.36041,64.590495 40.06808,45.697875 -10.52344,31.8418 28.76307,51.44578 54.97194,25.91977 -38.54887,-7.26882 -5.79271,-55.318566 15.89927,-23.8303 3.10366,-21.58955 22.19853,-22.201823 32.4,-13.31705 10.44872,8.53804 12.54506,27.84344 -8.12175,34.63057 34.77673,15.8945 -6.74975,56.57573 -20.60218,19.87476 -20.58704,30.24324 5.53183,65.50243 35.06237,49.60948 -13.79409,30.56732 23.26728,54.14816 52.00062,31.5016 -37.57785,-11.25855 0.002,-55.47955 18.28373,-21.89631 5.6406,-20.61463 23.72433,-20.15187 33.77365,-10.22381 10.02054,9.8996 9.44375,28.61401 -11.69073,33.17604 32.92469,19.44257 -12.62921,55.51714 -22.56938,17.56914 -23.63557,27.92557 -1.3451,65.82275 29.68508,53.10381 -16.91378,28.95799 17.40749,56.22829 48.35074,36.70924 -36.19515,-15.12478 5.84359,-55.25096 20.5147,-19.94071 7.52458,-20.47241 26.42256,-17.15457 34.55385,-6.34292 8.44519,10.52393 6.43125,29.83992 -15.19501,32.18186 30.71206,22.7777 -18.39809,53.93352 -24.31721,15.15444 -26.42506,25.30198 -8.14314,65.25827 24.04647,55.8524 -19.848,27.03137 11.44937,57.76486 44.26332,41.58725 -34.41587,-18.82543 11.51611,-54.19799 22.41597,-17.54758 9.62335,-19.57379 28.29102,-14.67822 35.24773,-3.07589 z"/>
    <path style="fill:none;stroke:#696969;stroke-width:2" d="M 45.057297,136.4027 C 294.87995,313.94204 446.30929,511.12962 542.14586,772.09336"/>
  </g>
             </g></g></g></g></g><defs><mask id="mask8-1" >
<path fill="#FFFFFF" d="m 0,0 v 800 c -2.5063876,43.11115 1.2341419,84.33503 21.489586,125.13639 20.255443,40.80137 53.477613,79.98631 98.039434,115.63581 44.56181,35.6494 100.44867,67.7517 164.92346,94.7345 64.47479,26.9828 137.51639,48.8374 215.54752,64.4933 78.03113,-15.6559 151.07273,-37.5105 215.54752,-64.4933 64.47479,-26.9828 120.36165,-59.0851 164.92346,-94.7345 44.56182,-35.6495 77.78399,-74.83444 98.03943,-115.63581 C 998.76586,884.33503 1000.1453,841.93063 1000,800 V 0 Z" />
</mask>
</defs></g></svg>
