<?xml version="1.0" encoding="utf-8" ?>
    <svg version="1.1"
        baseProfile="full"
        xmlns="http://www.w3.org/2000/svg"
        xmlns:xlink="http://www.w3.org/1999/xlink" 
         xmlns:rdf="http://www.w3.org/1999/02/22-rdf-syntax-ns#"
         xmlns:cc="http://creativecommons.org/ns#"
         xmlns:dc="http://purl.org/dc/elements/1.1/" 
        preserveAspectRatio="xMidYMid meet" height="600" width="500" viewBox="0,0,1000,1200 ">
<metadata>
<rdf:RDF>
      <cc:Work
         rdf:about="">
        <dc:format>image/svg+xml</dc:format>
        <dc:type
           rdf:resource="http://purl.org/dc/dcmitype/StillImage" />
        <dc:rights>
          <cc:Agent>
            <dc:title>This work is licensed under a &lt;a rel=&quot;license&quot; href=&quot;http://creativecommons.org/licenses/by-nc-sa/4.0/&quot;&gt;Creative Commons Attribution-NonCommercial-ShareAlike 4.0 International License&lt;/a&gt;.</dc:title>
          </cc:Agent>
        </dc:rights>
         <dc:creator>
           <cc:Agent>
              <dc:title>tree/tree-fruit - unknown
heater shape - https://commons.wikimedia.org/wiki/User:MG
</dc:title>
           </cc:Agent>
        </dc:creator>
      </cc:Work>
      </rdf:RDF>
</metadata>
<defs></defs><g ><g mask="url(#mask8-1)"><g><g><title>per-fess</title><desc>Division used to fill field</desc><g stroke-width="4" stroke="none" ><g  fill="#149414"><rect x='-100' y='-100' width='1200' height='1400' /></g>
<g  fill="#1E7FCB"><path fill-rule="evenodd" d="M-100,500 q50.000,-60.000 100.000,0.000   q50.000,60.000 100.000,0.000    q50.000,-60.000 100.000,0.000   q50.000,60.000 100.000,0.000    q50.000,-60.000 100.000,0.000   q50.000,60.000 100.000,0.000    q50.000,-60.000 100.000,0.000   q50.000,60.000 100.000,0.000    q50.000,-60.000 100.000,0.000   q50.000,60.000 100.000,0.000    q50.000,-60.000 100.000,0.000   q50.000,60.000 100.000,0.000    v800   h-1200.000   v-800.000  z" /></g></g></g><g transform='translate(0,0)'><g  fill="#149414"><g class="PlaceCharge" transform=" translate(169.54356846473,600) scale(0.8298755186722, 0.8298755186722) " >
<title>three trees</title><g  />
<g  ><path d="m 83,133 -6.3,13 14.3,13 4,68 -7,12 31,-1 14,0 c -11,-14 -11,-50 -11,-74 6,-7 12,-10 17,-14 l -10,-11 -9,8 1,-15 -11,13 -8,-16 -4,18 -15,-14 z"  fill-rule="evenodd" stroke="#000000" stroke-width="3" />
</g>
<g  ><path d="m 89,137 -4,0 2,10 -5,-2 -3.1,7 -5.4,-1 -3.2,6 -5.8,3 -5,-3 -7.1,5 -0.9,-5 -3.6,3 -1.4,-2 c -1.2,3 -3.4,3 -5.4,3 l -0.9,-4 c -2.1,2 -4.2,4 -7.2,5 l -0.4,-4 -5,4 -0.4,-6 -3.6,0 0,-4 -2.2,-1 c -0.5,-3 2,-5 4.9,-7 l -5.4,0 5,-6 c -3.5,1 -6.9,3 -10.4,6 l -2.2,-4 -2.3,2 -4.9,0 c -2,-2 -1,-5 1.8,-7 -1.3,-3 0.7,-5 2.7,-7 L 7,127 c 0.7,-2 1.1,-3 7.6,-5 l -5.4,-4 c 4.3,0 8.7,0 12.2,4 l 0.4,-4 4.5,3 1.3,-2 3.2,-3 -4.9,-1 4,-5 -7.6,4 -2.3,-5 -4.5,5 -3.1,-5 -7.7,2 3.6,-5 -5.4,-1 3.6,-2 -1.3,-3 6.7,1 -0.9,-4 6.3,-1 -8.5,0 0.9,-3 -7.7,0 3.6,-6 -2.7,-2 5,-3 0,-5 5.4,1 -0.9,-5 7.6,3 -1.8,-6 7.2,0 0.5,-2 -3.2,-1 1.4,-2 -5.4,2 -1.4,-3 -4.9,2 -3.2,-3 -4.5,0 0,-3 4.5,0 0.9,-4 4.1,2 6.3,-2 -5,-3 6.8,-2 -3.2,-3 2.3,-4 -5,-1 -1.8,-5 6.3,-1 -3.1,-4 4.9,-1 -2.2,-3 2.2,-2 -2.7,-4 4.5,-1 -0.9,-5 4.5,-1 c 0,0 -1.4,-5 2.2,-3 3.6,3 13.1,0 13.1,0 l -0.5,5 5.9,-2 1.3,5 1.8,-2 3.2,4 3.5,-2 C 57,20 56.4,18 55.5,17 l 4,-1 2.3,4 c 1.6,-3 3.3,-2 4.9,-1 L 68.1,17 65.4,7 69,4 l 2.7,8 3.6,-5 2.2,4 C 79.1,8 81,5 84,3 c 2,3 2,6 2,8 l 3,-2 3,4 -2,-8 c 4,-1 6,2 8,4 -1,-3 0,-5 3,-8 l 1,7 2,-5 7,0 0,5 c 2,-4 5,-6 9,-7 l 1,9 6,-6 4,0 -2,7 6,0 5,-5 3,8 c 1,-2 1,-4 5,-5 l 0,4 c 2,-2 5,-4 9,-4 l 5,3 -6,4 6,-1 3,3 5,-4 c 1,1 -1,4 -3,6 l 10,-1 3,3 -5,1 4,2 2,0 5,-2 -6,7 c 2,2 4,4 2,7 l -7,-1 -1,1 4,3 -5,3 2,3 -3,6 5,-3 1,5 c 2,-3 3,-5 6,-6 l 2,-1 1,3 7,0 -3,6 c 4,-3 6,-2 9,-2 l -5,3 3,3 -3,0 c 1,3 0,5 -2,7 l 4,0 2,-3 3,1 2,3 6,-1 -1,3 7,2 -3,2 3,5 -4,3 -2,-3 -2,5 -3,-4 -1,5 5,2 5,-1 1,4 2,6 -6,-2 -1,6 -3,-2 -2,2 3,3 -2,2 -4,0 3,3 -2,1 6,5 1,4 -3,0 -3,-2 3,5 -1,3 -3,-2 1,6 c -4,1 -5,-2 -7,-3 l 2,6 c -2,2 -5,1 -7,0 0,3 -2,5 -5,6 l -2,-4 -1,5 -4,-1 4,5 -7,1 3,6 -6,0 -3,5 -5,-5 -2,6 -5,-2 -5,2 -6,-3 -4,5 -2,-4 -5,4 -3,-4 -1,4 -2,-7 -5,4 c -2,-3 -1,-6 2,-9 l -6,0 0,-4 -12,4 -5,-4 -5,4 -1,-6 -4,1 -2,-3 -4,0 z"  fill-rule="evenodd" stroke="#000000" stroke-width="3" />
</g>
</g>
</g><g  fill="#149414"><g class="PlaceCharge" transform=" translate(649.54356846473,600) scale(0.8298755186722, 0.8298755186722) " >
<title>three trees</title><g  />
<g  ><path d="m 83,133 -6.3,13 14.3,13 4,68 -7,12 31,-1 14,0 c -11,-14 -11,-50 -11,-74 6,-7 12,-10 17,-14 l -10,-11 -9,8 1,-15 -11,13 -8,-16 -4,18 -15,-14 z"  fill-rule="evenodd" stroke="#000000" stroke-width="3" />
</g>
<g  ><path d="m 89,137 -4,0 2,10 -5,-2 -3.1,7 -5.4,-1 -3.2,6 -5.8,3 -5,-3 -7.1,5 -0.9,-5 -3.6,3 -1.4,-2 c -1.2,3 -3.4,3 -5.4,3 l -0.9,-4 c -2.1,2 -4.2,4 -7.2,5 l -0.4,-4 -5,4 -0.4,-6 -3.6,0 0,-4 -2.2,-1 c -0.5,-3 2,-5 4.9,-7 l -5.4,0 5,-6 c -3.5,1 -6.9,3 -10.4,6 l -2.2,-4 -2.3,2 -4.9,0 c -2,-2 -1,-5 1.8,-7 -1.3,-3 0.7,-5 2.7,-7 L 7,127 c 0.7,-2 1.1,-3 7.6,-5 l -5.4,-4 c 4.3,0 8.7,0 12.2,4 l 0.4,-4 4.5,3 1.3,-2 3.2,-3 -4.9,-1 4,-5 -7.6,4 -2.3,-5 -4.5,5 -3.1,-5 -7.7,2 3.6,-5 -5.4,-1 3.6,-2 -1.3,-3 6.7,1 -0.9,-4 6.3,-1 -8.5,0 0.9,-3 -7.7,0 3.6,-6 -2.7,-2 5,-3 0,-5 5.4,1 -0.9,-5 7.6,3 -1.8,-6 7.2,0 0.5,-2 -3.2,-1 1.4,-2 -5.4,2 -1.4,-3 -4.9,2 -3.2,-3 -4.5,0 0,-3 4.5,0 0.9,-4 4.1,2 6.3,-2 -5,-3 6.8,-2 -3.2,-3 2.3,-4 -5,-1 -1.8,-5 6.3,-1 -3.1,-4 4.9,-1 -2.2,-3 2.2,-2 -2.7,-4 4.5,-1 -0.9,-5 4.5,-1 c 0,0 -1.4,-5 2.2,-3 3.6,3 13.1,0 13.1,0 l -0.5,5 5.9,-2 1.3,5 1.8,-2 3.2,4 3.5,-2 C 57,20 56.4,18 55.5,17 l 4,-1 2.3,4 c 1.6,-3 3.3,-2 4.9,-1 L 68.1,17 65.4,7 69,4 l 2.7,8 3.6,-5 2.2,4 C 79.1,8 81,5 84,3 c 2,3 2,6 2,8 l 3,-2 3,4 -2,-8 c 4,-1 6,2 8,4 -1,-3 0,-5 3,-8 l 1,7 2,-5 7,0 0,5 c 2,-4 5,-6 9,-7 l 1,9 6,-6 4,0 -2,7 6,0 5,-5 3,8 c 1,-2 1,-4 5,-5 l 0,4 c 2,-2 5,-4 9,-4 l 5,3 -6,4 6,-1 3,3 5,-4 c 1,1 -1,4 -3,6 l 10,-1 3,3 -5,1 4,2 2,0 5,-2 -6,7 c 2,2 4,4 2,7 l -7,-1 -1,1 4,3 -5,3 2,3 -3,6 5,-3 1,5 c 2,-3 3,-5 6,-6 l 2,-1 1,3 7,0 -3,6 c 4,-3 6,-2 9,-2 l -5,3 3,3 -3,0 c 1,3 0,5 -2,7 l 4,0 2,-3 3,1 2,3 6,-1 -1,3 7,2 -3,2 3,5 -4,3 -2,-3 -2,5 -3,-4 -1,5 5,2 5,-1 1,4 2,6 -6,-2 -1,6 -3,-2 -2,2 3,3 -2,2 -4,0 3,3 -2,1 6,5 1,4 -3,0 -3,-2 3,5 -1,3 -3,-2 1,6 c -4,1 -5,-2 -7,-3 l 2,6 c -2,2 -5,1 -7,0 0,3 -2,5 -5,6 l -2,-4 -1,5 -4,-1 4,5 -7,1 3,6 -6,0 -3,5 -5,-5 -2,6 -5,-2 -5,2 -6,-3 -4,5 -2,-4 -5,4 -3,-4 -1,4 -2,-7 -5,4 c -2,-3 -1,-6 2,-9 l -6,0 0,-4 -12,4 -5,-4 -5,4 -1,-6 -4,1 -2,-3 -4,0 z"  fill-rule="evenodd" stroke="#000000" stroke-width="3" />
</g>
</g>
</g><g  fill="#149414"><g class="PlaceCharge" transform=" translate(409.54356846473,900) scale(0.8298755186722, 0.8298755186722) " >
<title>three trees</title><g  />
<g  ><path d="m 83,133 -6.3,13 14.3,13 4,68 -7,12 31,-1 14,0 c -11,-14 -11,-50 -11,-74 6,-7 12,-10 17,-14 l -10,-11 -9,8 1,-15 -11,13 -8,-16 -4,18 -15,-14 z"  fill-rule="evenodd" stroke="#000000" stroke-width="3" />
</g>
<g  ><path d="m 89,137 -4,0 2,10 -5,-2 -3.1,7 -5.4,-1 -3.2,6 -5.8,3 -5,-3 -7.1,5 -0.9,-5 -3.6,3 -1.4,-2 c -1.2,3 -3.4,3 -5.4,3 l -0.9,-4 c -2.1,2 -4.2,4 -7.2,5 l -0.4,-4 -5,4 -0.4,-6 -3.6,0 0,-4 -2.2,-1 c -0.5,-3 2,-5 4.9,-7 l -5.4,0 5,-6 c -3.5,1 -6.9,3 -10.4,6 l -2.2,-4 -2.3,2 -4.9,0 c -2,-2 -1,-5 1.8,-7 -1.3,-3 0.7,-5 2.7,-7 L 7,127 c 0.7,-2 1.1,-3 7.6,-5 l -5.4,-4 c 4.3,0 8.7,0 12.2,4 l 0.4,-4 4.5,3 1.3,-2 3.2,-3 -4.9,-1 4,-5 -7.6,4 -2.3,-5 -4.5,5 -3.1,-5 -7.7,2 3.6,-5 -5.4,-1 3.6,-2 -1.3,-3 6.7,1 -0.9,-4 6.3,-1 -8.5,0 0.9,-3 -7.7,0 3.6,-6 -2.7,-2 5,-3 0,-5 5.4,1 -0.9,-5 7.6,3 -1.8,-6 7.2,0 0.5,-2 -3.2,-1 1.4,-2 -5.4,2 -1.4,-3 -4.9,2 -3.2,-3 -4.5,0 0,-3 4.5,0 0.9,-4 4.1,2 6.3,-2 -5,-3 6.8,-2 -3.2,-3 2.3,-4 -5,-1 -1.8,-5 6.3,-1 -3.1,-4 4.9,-1 -2.2,-3 2.2,-2 -2.7,-4 4.5,-1 -0.9,-5 4.5,-1 c 0,0 -1.4,-5 2.2,-3 3.6,3 13.1,0 13.1,0 l -0.5,5 5.9,-2 1.3,5 1.8,-2 3.2,4 3.5,-2 C 57,20 56.4,18 55.5,17 l 4,-1 2.3,4 c 1.6,-3 3.3,-2 4.9,-1 L 68.1,17 65.4,7 69,4 l 2.7,8 3.6,-5 2.2,4 C 79.1,8 81,5 84,3 c 2,3 2,6 2,8 l 3,-2 3,4 -2,-8 c 4,-1 6,2 8,4 -1,-3 0,-5 3,-8 l 1,7 2,-5 7,0 0,5 c 2,-4 5,-6 9,-7 l 1,9 6,-6 4,0 -2,7 6,0 5,-5 3,8 c 1,-2 1,-4 5,-5 l 0,4 c 2,-2 5,-4 9,-4 l 5,3 -6,4 6,-1 3,3 5,-4 c 1,1 -1,4 -3,6 l 10,-1 3,3 -5,1 4,2 2,0 5,-2 -6,7 c 2,2 4,4 2,7 l -7,-1 -1,1 4,3 -5,3 2,3 -3,6 5,-3 1,5 c 2,-3 3,-5 6,-6 l 2,-1 1,3 7,0 -3,6 c 4,-3 6,-2 9,-2 l -5,3 3,3 -3,0 c 1,3 0,5 -2,7 l 4,0 2,-3 3,1 2,3 6,-1 -1,3 7,2 -3,2 3,5 -4,3 -2,-3 -2,5 -3,-4 -1,5 5,2 5,-1 1,4 2,6 -6,-2 -1,6 -3,-2 -2,2 3,3 -2,2 -4,0 3,3 -2,1 6,5 1,4 -3,0 -3,-2 3,5 -1,3 -3,-2 1,6 c -4,1 -5,-2 -7,-3 l 2,6 c -2,2 -5,1 -7,0 0,3 -2,5 -5,6 l -2,-4 -1,5 -4,-1 4,5 -7,1 3,6 -6,0 -3,5 -5,-5 -2,6 -5,-2 -5,2 -6,-3 -4,5 -2,-4 -5,4 -3,-4 -1,4 -2,-7 -5,4 c -2,-3 -1,-6 2,-9 l -6,0 0,-4 -12,4 -5,-4 -5,4 -1,-6 -4,1 -2,-3 -4,0 z"  fill-rule="evenodd" stroke="#000000" stroke-width="3" />
</g>
</g>
</g><g  fill="#F0F0F0"><g class="PlaceCharge" transform=" translate(416.05723370429,100) scale(1.6958134605193, 1.4131778837661) " >
<title>a sword</title><g transform="translate(-101.25,-61.59375)"><g stroke-opacity="1" stroke-dasharray="none" fill-opacity="1"  ><g  ><g  ><g  ><g  ><path d="M 150.75194 63 L 140.58854 78.24186 L 135.50362 298.5713 L 150.75194 298.5713 L 165.9938 298.5713 L 160.91533 78.24186 Z"  fill="#FFFFFF"  />
<path d="M 150.75194 63 L 140.58854 78.24186 L 135.50362 298.5713 L 150.75194 298.5713 L 165.9938 298.5713 L 160.91533 78.24186 Z"  stroke="#000000" stroke-linecap="round" stroke-linejoin="round"  stroke-width="2"  />
<g  ><path d="M 150.47704 134.48575 L 150.47704 116.26263 L 150.3867 125.37419 L 150.29636 116.26263 L 150.29636 134.48575 L 148.66376 298.48095 L 150.29636 298.56484 L 150.3867 298.56484 L 150.47704 298.5713 L 152.10964 298.48095 Z"  fill="#FFFFFF"  />
<path d="M 150.47704 134.48575 L 150.47704 116.26263 L 150.3867 125.37419 L 150.29636 116.26263 L 150.29636 134.48575 L 148.66376 298.48095 L 150.29636 298.56484 L 150.3867 298.56484 L 150.47704 298.5713 L 152.10964 298.48095 Z"  stroke="#000000" stroke-linecap="round" stroke-linejoin="round"  stroke-width="2"  />
</g>
</g>
</g>
<g  ><g  ><path d="M 138.66492 313.76927 C 138.38046 315.34066 138.11557 316.9666 137.8712 318.64124 L 165.2059 334.26383 C 164.94646 330.0249 164.5699 325.91302 164.08308 322.00323 L 149.67365 313.76927 Z"  fill="#FFFFFF"  />
<path d="M 138.66492 313.76927 C 138.38046 315.34066 138.11557 316.9666 137.8712 318.64124 L 165.2059 334.26383 C 164.94646 330.0249 164.5699 325.91302 164.08308 322.00323 L 149.67365 313.76927 Z"  stroke="#000000" stroke-linecap="round" stroke-linejoin="round"  stroke-width="2"  />
</g>
<g  ><path d="M 149.67042 313.7712 L 164.07985 322.00517 C 163.72155 319.13082 163.30504 316.3771 162.83443 313.7712 Z"  fill="#FFFFFF"  />
<path d="M 149.67042 313.7712 L 164.07985 322.00517 C 163.72155 319.13082 163.30504 316.3771 162.83443 313.7712 Z"  stroke="#000000" stroke-linecap="round" stroke-linejoin="round"  stroke-width="2"  />
</g>
<g  ><path d="M 165.6292 347.57303 C 165.6168 343.0867 165.47609 338.6205 165.20976 334.2606 L 137.87508 318.64447 C 137.30755 322.52448 136.85292 326.64863 136.51996 330.93733 Z"  fill="#FFFFFF"  />
<path d="M 165.6292 347.57303 C 165.6168 343.0867 165.47609 338.6205 165.20976 334.2606 L 137.87508 318.64447 C 137.30755 322.52448 136.85292 326.64863 136.51996 330.93733 Z"  stroke="#000000" stroke-linecap="round" stroke-linejoin="round"  stroke-width="2"  />
</g>
<g  ><path d="M 165.40464 358.64306 C 165.56712 354.9883 165.64274 351.2809 165.6305 347.5698 L 136.52125 330.94056 C 136.24872 334.4891 136.06076 338.1317 135.95985 341.82023 Z"  fill="#FFFFFF"  />
<path d="M 165.40464 358.64306 C 165.56712 354.9883 165.64274 351.2809 165.6305 347.5698 L 136.52125 330.94056 C 136.24872 334.4891 136.06076 338.1317 135.95985 341.82023 Z"  stroke="#000000" stroke-linecap="round" stroke-linejoin="round"  stroke-width="2"  />
</g>
<g  ><path d="M 163.2442 380.43338 L 136.48382 365.1399 C 138.359 390.2478 144.1633 407.46643 150.75129 407.46477 C 155.79924 407.46084 160.50255 397.2841 163.2442 380.43338 Z"  fill="#FFFFFF"  />
<path d="M 163.2442 380.43338 L 136.48382 365.1399 C 138.359 390.2478 144.1633 407.46643 150.75129 407.46477 C 155.79924 407.46084 160.50255 397.2841 163.2442 380.43338 Z"  stroke="#000000" stroke-linecap="round" stroke-linejoin="round"  stroke-width="2"  />
</g>
<g  ><path d="M 136.48318 365.14054 L 163.24355 380.434 C 163.80796 376.96546 164.27945 373.27144 164.6503 369.4124 L 135.91532 352.9961 C 135.9975 357.1119 136.18783 361.18225 136.48318 365.14054 Z"  fill="#FFFFFF"  />
<path d="M 136.48318 365.14054 L 163.24355 380.434 C 163.80796 376.96546 164.27945 373.27144 164.6503 369.4124 L 135.91532 352.9961 C 135.9975 357.1119 136.18783 361.18225 136.48318 365.14054 Z"  stroke="#000000" stroke-linecap="round" stroke-linejoin="round"  stroke-width="2"  />
</g>
<g  ><path d="M 135.9179 352.99157 L 164.65287 369.41432 C 164.98729 365.92625 165.23792 362.3202 165.40142 358.64435 L 135.95662 341.81507 C 135.85503 345.52736 135.84206 349.26956 135.9179 352.99157 Z"  fill="#FFFFFF"  />
<path d="M 135.9179 352.99157 L 164.65287 369.41432 C 164.98729 365.92625 165.23792 362.3202 165.40142 358.64435 L 135.95662 341.81507 C 135.85503 345.52736 135.84206 349.26956 135.9179 352.99157 Z"  stroke="#000000" stroke-linecap="round" stroke-linejoin="round"  stroke-width="2"  />
</g>
<g  ><rect x="104.28878" y="298.2083" width="92.92244" height="15.608066"  fill="#FFFFFF"  />
<rect x="104.28878" y="298.2083" width="92.92244" height="15.608066"  stroke="#000000" stroke-linecap="round" stroke-linejoin="round"  stroke-width="2"  />
</g>
</g>
<g  ><g  ><path d="M 150.75 413.9984 C 141.81937 413.87285 134.64554 406.5975 134.64554 397.66597 C 134.64554 388.73446 141.81937 381.4591 150.75 381.33356 C 156.63972 381.2508 162.1178 384.3455 165.08682 389.4328 C 168.05584 394.52007 168.05584 400.81187 165.08682 405.89916 C 162.1178 410.98646 156.63972 414.08116 150.75 413.9984 Z"  fill="#FFFFFF"  />
<path d="M 150.75 413.9984 C 141.81937 413.87285 134.64554 406.5975 134.64554 397.66597 C 134.64554 388.73446 141.81937 381.4591 150.75 381.33356 C 156.63972 381.2508 162.1178 384.3455 165.08682 389.4328 C 168.05584 394.52007 168.05584 400.81187 165.08682 405.89916 C 162.1178 410.98646 156.63972 414.08116 150.75 413.9984 Z"  stroke="#000000" stroke-linecap="round" stroke-linejoin="round"  stroke-width="2"  />
</g>
<g  ><path d="M 150.74916 405.1054 C 146.68359 405.04433 143.4198 401.73116 143.4198 397.66513 C 143.4198 393.5991 146.68359 390.28594 150.74916 390.2249 C 153.43393 390.18457 155.9322 391.5938 157.28636 393.9124 C 158.64052 396.23097 158.64052 399.0993 157.28636 401.4179 C 155.9322 403.7365 153.43393 405.1457 150.74916 405.1054 Z"  fill="#FFFFFF"  />
<path d="M 150.74916 405.1054 C 146.68359 405.04433 143.4198 401.73116 143.4198 397.66513 C 143.4198 393.5991 146.68359 390.28594 150.74916 390.2249 C 153.43393 390.18457 155.9322 391.5938 157.28636 393.9124 C 158.64052 396.23097 158.64052 399.0993 157.28636 401.4179 C 155.9322 403.7365 153.43393 405.1457 150.74916 405.1054 Z"  stroke="#000000" stroke-linecap="round" stroke-linejoin="round"  stroke-width="2"  />
</g>
</g>
</g>
</g>
</g>
</g>
</g>
</g></g></g></g><defs><mask id="mask8-1" >
<path fill="#FFFFFF" d="m 0,0 v 800 c -2.5063876,43.11115 1.2341419,84.33503 21.489586,125.13639 20.255443,40.80137 53.477613,79.98631 98.039434,115.63581 44.56181,35.6494 100.44867,67.7517 164.92346,94.7345 64.47479,26.9828 137.51639,48.8374 215.54752,64.4933 78.03113,-15.6559 151.07273,-37.5105 215.54752,-64.4933 64.47479,-26.9828 120.36165,-59.0851 164.92346,-94.7345 44.56182,-35.6495 77.78399,-74.83444 98.03943,-115.63581 C 998.76586,884.33503 1000.1453,841.93063 1000,800 V 0 Z" />
</mask>
</defs></g></svg>
