<?xml version="1.0" encoding="utf-8" ?>
    <svg version="1.1"
        baseProfile="full"
        xmlns="http://www.w3.org/2000/svg"
        xmlns:xlink="http://www.w3.org/1999/xlink" 
         xmlns:rdf="http://www.w3.org/1999/02/22-rdf-syntax-ns#"
         xmlns:cc="http://creativecommons.org/ns#"
         xmlns:dc="http://purl.org/dc/elements/1.1/" 
        preserveAspectRatio="xMidYMid meet" height="600" width="500" viewBox="0,0,1000,1200 ">
<metadata>
<rdf:RDF>
      <cc:Work
         rdf:about="">
        <dc:format>image/svg+xml</dc:format>
        <dc:type
           rdf:resource="http://purl.org/dc/dcmitype/StillImage" />
        <dc:rights>
          <cc:Agent>
            <dc:title>This work is licensed under a &lt;a rel=&quot;license&quot; href=&quot;http://creativecommons.org/licenses/by-nc-sa/4.0/&quot;&gt;Creative Commons Attribution-NonCommercial-ShareAlike 4.0 International License&lt;/a&gt;.</dc:title>
          </cc:Agent>
        </dc:rights>
         <dc:creator>
           <cc:Agent>
              <dc:title>bow/weapon - Paolo Ruben
heater shape - https://commons.wikimedia.org/wiki/User:MG
</dc:title>
           </cc:Agent>
        </dc:creator>
      </cc:Work>
      </rdf:RDF>
</metadata>
<defs></defs><g ><g mask="url(#mask8-1)"><g><defs><pattern  patternContentUnits="userSpaceOnUse" patternUnits="userSpaceOnUse" x="0.5" y="0" width="333.32999" height="333.32999" id="pattern7-1" >
<g class="treatment"><g  fill="#149414"><rect x="0" y="0" width="333.32999" height="333.32999" /></g><g stroke-width="2" stroke="none" ><g  fill="#050505"><g class="treatment">
    <path d="M 0,166.665 H 166.665 V 0 H 0 Z M 166.665,333.3299 H 333.3299 V 166.665 H 166.665 Z"/>
  </g></g></g></g>
</pattern>
</defs><g  fill="url(#pattern7-1)"><rect x='0' y='0' width='1000' height='1200'><title>Field</title></rect></g><g transform='translate(0,0)'><g  fill="#EFD807"><g class="PlaceCharge" transform=" translate(100,196.6186124934) scale(1.0249734788112, 1.0249734788112) " >
<title>a bow</title><g  transform="translate(-109.746,-106.447)"  ><g  ><g  ><g  transform="matrix(2.6936,0,0,2.6936,9.40896,-69.697)"  stroke="none" ><path d="m 322.488,210.386 -92.135,142.512 3.469,1.468 90.937,-141.656 1.491,-2.324 -0.06,-0.09 -91.778,-142.9566 -2.886,1.4764 z"  />
<path d="m 322.488,210.386 -92.135,142.512 3.469,1.468 90.937,-141.656 1.491,-2.324 -0.06,-0.09 -91.778,-142.9566 -2.886,1.4764 z"  stroke="#000000" stroke-linecap="round" stroke-linejoin="round"  stroke-width="1.5"  />
</g>
<g  transform="matrix(2.6936,0,0,2.6936,9.40896,-69.697)"  stroke="none" ><path d="m 113.415,191.723 21.663,0.112 c -0.02,-37.248 27.343,-72.196 72.763,-92.9437 14.636,-6.0267 25.258,-15.7398 29.596,-27.0652 0.892,-1.4615 0.411,-3.1478 -1.219,-4.2707 -1.629,-1.123 -4.085,-1.4606 -6.22,-0.8552 -2.134,0.6054 -3.526,2.0343 -3.524,3.6188 -0.938,7.6954 -7.425,14.3703 -17.292,17.7922 -60.394,17.3878 -98.627,58.7518 -95.767,103.6118 z"  />
<path d="m 113.415,191.723 21.663,0.112 c -0.02,-37.248 27.343,-72.196 72.763,-92.9437 14.636,-6.0267 25.258,-15.7398 29.596,-27.0652 0.892,-1.4615 0.411,-3.1478 -1.219,-4.2707 -1.629,-1.123 -4.085,-1.4606 -6.22,-0.8552 -2.134,0.6054 -3.526,2.0343 -3.524,3.6188 -0.938,7.6954 -7.425,14.3703 -17.292,17.7922 -60.394,17.3878 -98.627,58.7518 -95.767,103.6118 z"  stroke="#000000" stroke-linecap="round" stroke-linejoin="round"  stroke-width="2"  />
</g>
<g  transform="matrix(2.6936,0,0,2.6936,9.40896,-69.697)"  stroke="none" ><path d="m 113.415,231.277 21.663,-0.112 c -0.02,37.248 27.343,72.196 72.763,92.944 14.636,6.026 25.258,15.739 29.596,27.065 0.892,1.461 0.411,3.148 -1.219,4.271 -1.629,1.123 -4.085,1.46 -6.22,0.855 -2.134,-0.606 -3.526,-2.034 -3.524,-3.619 -0.938,-7.695 -7.425,-14.37 -17.292,-17.792 -60.394,-17.388 -98.627,-58.752 -95.767,-103.612 z"  />
<path d="m 113.415,231.277 21.663,-0.112 c -0.02,37.248 27.343,72.196 72.763,92.944 14.636,6.026 25.258,15.739 29.596,27.065 0.892,1.461 0.411,3.148 -1.219,4.271 -1.629,1.123 -4.085,1.46 -6.22,0.855 -2.134,-0.606 -3.526,-2.034 -3.524,-3.619 -0.938,-7.695 -7.425,-14.37 -17.292,-17.792 -60.394,-17.388 -98.627,-58.752 -95.767,-103.612 z"  stroke="#000000" stroke-linecap="round" stroke-linejoin="round"  stroke-width="2"  />
</g>
<g  transform="matrix(2.6936,0,0,2.6936,9.40896,-69.697)"  stroke="none" ><path d="m 131.29,237.879 c 3.943,0 7.14,-3.197 7.14,-7.14 v -33.847 c 0,-3.943 -3.197,-7.139 -7.14,-7.139 h -14.064 c -3.942,0 -7.139,3.196 -7.139,7.139 v 33.847 c 0,3.943 3.197,7.14 7.139,7.14 z"  />
<path d="m 131.29,237.879 c 3.943,0 7.14,-3.197 7.14,-7.14 v -33.847 c 0,-3.943 -3.197,-7.139 -7.14,-7.139 h -14.064 c -3.942,0 -7.139,3.196 -7.139,7.139 v 33.847 c 0,3.943 3.197,7.14 7.139,7.14 z"  stroke="#000000" stroke-linecap="round" stroke-linejoin="round"  stroke-width="2"  />
</g>
</g>
<g  ><g  ><g  transform="matrix(2.6936,0,0,2.6936,9.40896,-69.697)"  stroke="none" ><path d="m 223.847,205.323 h 68.893 l 10.407,-20.806 h -68.892 z"  />
<path d="m 223.847,205.323 h 68.893 l 10.407,-20.806 h -68.892 z"  stroke="#000000" stroke-linecap="round" stroke-linejoin="round"  stroke-width="2"  />
</g>
<g  transform="matrix(2.6936,0,0,2.6936,9.40896,-69.697)"  stroke="none" ><path d="M 223.847,214.793 H 292.74 L 303.147,235.6 H 234.255 Z"  />
<path d="M 223.847,214.793 H 292.74 L 303.147,235.6 H 234.255 Z"  stroke="#000000" stroke-linecap="round" stroke-linejoin="round"  stroke-width="2"  />
</g>
</g>
<g  transform="matrix(2.6936,0,0,2.6936,9.40896,-69.697)"  stroke="none" ><path d="M 317.185,202.102 H 79.2762 v 16.063 H 326.014 v -5.045 l -8.131,-2.982 3.613,-1.326 z m 7.361,5.592 1.468,-0.539 v -5.053 h -5.058 z"  />
<path d="M 317.185,202.102 H 79.2762 v 16.063 H 326.014 v -5.045 l -8.131,-2.982 3.613,-1.326 z m 7.361,5.592 1.468,-0.539 v -5.053 h -5.058 z"  stroke="#000000" stroke-linecap="round" stroke-linejoin="round"  stroke-width="2"  />
</g>
<g  transform="matrix(2.6936,0,0,2.6936,9.40896,-69.697)"  stroke="none" ><path d="M 94.8949,189.352 38.25,210.135 94.8949,230.918 Z"  />
<path d="M 94.8949,189.352 38.25,210.135 94.8949,230.918 Z"  stroke="#000000" stroke-linecap="round" stroke-linejoin="round"  stroke-width="2"  />
</g>
</g>
</g>
</g>
</g>
</g></g></g></g><defs><mask id="mask8-1" >
<path fill="#FFFFFF" d="m 0,0 v 800 c -2.5063876,43.11115 1.2341419,84.33503 21.489586,125.13639 20.255443,40.80137 53.477613,79.98631 98.039434,115.63581 44.56181,35.6494 100.44867,67.7517 164.92346,94.7345 64.47479,26.9828 137.51639,48.8374 215.54752,64.4933 78.03113,-15.6559 151.07273,-37.5105 215.54752,-64.4933 64.47479,-26.9828 120.36165,-59.0851 164.92346,-94.7345 44.56182,-35.6495 77.78399,-74.83444 98.03943,-115.63581 C 998.76586,884.33503 1000.1453,841.93063 1000,800 V 0 Z" />
</mask>
</defs></g></svg>
