<?xml version="1.0" encoding="utf-8" ?>
    <svg version="1.1"
        baseProfile="full"
        xmlns="http://www.w3.org/2000/svg"
        xmlns:xlink="http://www.w3.org/1999/xlink" 
         xmlns:rdf="http://www.w3.org/1999/02/22-rdf-syntax-ns#"
         xmlns:cc="http://creativecommons.org/ns#"
         xmlns:dc="http://purl.org/dc/elements/1.1/" 
        preserveAspectRatio="xMidYMid meet" height="600" width="500" viewBox="0,0,1000,1200 ">
<metadata>
<rdf:RDF>
      <cc:Work
         rdf:about="">
        <dc:format>image/svg+xml</dc:format>
        <dc:type
           rdf:resource="http://purl.org/dc/dcmitype/StillImage" />
        <dc:rights>
          <cc:Agent>
            <dc:title>This work is licensed under a &lt;a rel=&quot;license&quot; href=&quot;http://creativecommons.org/licenses/by-nc-sa/4.0/&quot;&gt;Creative Commons Attribution-NonCommercial-ShareAlike 4.0 International License&lt;/a&gt;.</dc:title>
          </cc:Agent>
        </dc:rights>
         <dc:creator>
           <cc:Agent>
              <dc:title>heater shape - https://commons.wikimedia.org/wiki/User:MG
</dc:title>
           </cc:Agent>
        </dc:creator>
      </cc:Work>
      </rdf:RDF>
</metadata>
<defs></defs><g ><g mask="url(#mask8-1)"><g><defs><pattern  patternContentUnits="userSpaceOnUse" patternUnits="userSpaceOnUse" x="0" y="0" width="200" height="200" id="pattern6-1" >
<g class="treatment"><g  fill="#050505"><rect x="0" y="0" width="200" height="200" /></g><g stroke-width="2" stroke="none" ><g  fill="#E21313"><g class="treatment"><polygon points="0,20 76,96 96,76 20,0 0,0"/>
        <polygon points="180,200 104,124 124,104 200,180 200,200"/>
        <polygon points="4,176 176,4 196,24 24,196"/>
        <polygon points="0,180 0,200 20,200"/>
        <polygon points="180,0 200,0 200,20"/></g></g></g></g>
</pattern>
</defs><g  fill="url(#pattern6-1)"><rect x='0' y='0' width='1000' height='1200'><title>Field</title></rect></g><g transform='translate(0,0)'><g><title>quarter</title><defs><pattern  patternContentUnits="userSpaceOnUse" patternUnits="userSpaceOnUse" x="0" y="0" width="222" height="400" id="pattern7-1" >
<g class="fur">        <polygon points="0,0 222,0 222,400 0,400" fill="#F0F0F0"/>
        <g stroke-width="2" stroke="none" fill="#050505">
            <circle r="10" cx="55" cy="30"/>
            <circle r="10" cx="36" cy="55"/>
            <circle r="10" cx="74" cy="55"/>
            <path d="M 53 60 A 50 210 0 0,1 10,180 A 60 40 0 0,0 45,170 A 30 40 0, 0,0 55 200 A 30 40 0, 0,0 62,170 A 60 40 0 0,0 101, 180 A 50 210 0 0,1 57 60 Z"/>
        </g>
        <g stroke-width="2" stroke="none" transform="translate(111,200)" fill="#050505">
            <circle r="10" cx="55" cy="30"/>
            <circle r="10" cx="36" cy="55"/>
            <circle r="10" cx="74" cy="55"/>
            <path d="M 53 60 A 50 210 0 0,1 10,180 A 60 40 0 0,0 45,170 A 30 40 0, 0,0 55 200 A 30 40 0, 0,0 62,170 A 60 40 0 0,0 101, 180 A 50 210 0 0,1 57 60 Z"/>
        </g></g>
</pattern>
</defs><g stroke="#050505" stroke-width="5" fill="url(#pattern7-1)"><path fill-rule="evenodd" d="M-100,-100h600 v600   h-600.000   v-600.000  z" /></g></g></g></g></g><defs><mask id="mask8-1" >
<path fill="#FFFFFF" d="m 0,0 v 800 c -2.5063876,43.11115 1.2341419,84.33503 21.489586,125.13639 20.255443,40.80137 53.477613,79.98631 98.039434,115.63581 44.56181,35.6494 100.44867,67.7517 164.92346,94.7345 64.47479,26.9828 137.51639,48.8374 215.54752,64.4933 78.03113,-15.6559 151.07273,-37.5105 215.54752,-64.4933 64.47479,-26.9828 120.36165,-59.0851 164.92346,-94.7345 44.56182,-35.6495 77.78399,-74.83444 98.03943,-115.63581 C 998.76586,884.33503 1000.1453,841.93063 1000,800 V 0 Z" />
</mask>
</defs></g></svg>
