<?xml version="1.0" encoding="utf-8" ?>
    <svg version="1.1"
        baseProfile="full"
        xmlns="http://www.w3.org/2000/svg"
        xmlns:xlink="http://www.w3.org/1999/xlink" 
         xmlns:rdf="http://www.w3.org/1999/02/22-rdf-syntax-ns#"
         xmlns:cc="http://creativecommons.org/ns#"
         xmlns:dc="http://purl.org/dc/elements/1.1/" 
        preserveAspectRatio="xMidYMid meet" height="600" width="500" viewBox="0,0,1000,1200 ">
<metadata>
<rdf:RDF>
      <cc:Work
         rdf:about="">
        <dc:format>image/svg+xml</dc:format>
        <dc:type
           rdf:resource="http://purl.org/dc/dcmitype/StillImage" />
        <dc:rights>
          <cc:Agent>
            <dc:title>This work is licensed under a &lt;a rel=&quot;license&quot; href=&quot;http://creativecommons.org/licenses/by-nc-sa/4.0/&quot;&gt;Creative Commons Attribution-NonCommercial-ShareAlike 4.0 International License&lt;/a&gt;.</dc:title>
          </cc:Agent>
        </dc:rights>
         <dc:creator>
           <cc:Agent>
              <dc:title>virgin/christian - by http://commons.wikimedia.org/wiki/User:Henrysalome
paschal-lamb/christian - pl.wikipedia.org/wiki/Wikipedysta:Bastian
mitre/christian - https://commons.wikimedia.org/wiki/User:Xavigivax
heater shape - https://commons.wikimedia.org/wiki/User:MG
</dc:title>
           </cc:Agent>
        </dc:creator>
      </cc:Work>
      </rdf:RDF>
</metadata>
<defs></defs><g ><g mask="url(#mask9-1)"><g><g><title>per-fess</title><desc>Division used to fill field</desc><g stroke-width="4" stroke="none" ><g  fill="#E21313"><rect x='-100' y='-100' width='1200' height='1400' /></g>
<g  fill="#F0F0F0"><path fill-rule="evenodd" d="M-100,500h1200 v800   h-1200.000   v-800.000  z" /></g></g></g><g transform='translate(0,0)'><g  fill="#F0F0F0"><g class="PlaceCharge" transform=" translate(166.58536585366,50) scale(0.97560975609756, 0.97560975609756) " >
<title>a virgin</title><g  fill-rule="evenodd" stroke="#000000" stroke-width="3" ><g  stroke-width="3.06"  ><path d="m 43.7,78.8 c 2,28.2 20.3,55.2 8.1,92.2 -5.1,4 -12.2,8 -11.2,25 -2,0 -30.1,29 -29.8,31"  />
<path d="m 33.9,107 c -22.1,11 -38.2,83 -23.8,116 0.9,12 1.9,16 2.8,21 -13.8,35 -4.5,28 -8.4,47 -3.7,18 5.2,20 4.2,29 -7.2,-6 2.3,11 -2.9,20 -0.1,9 1.2,10 1.5,13 -5.2,11 -1.4,29 -4.2,47 l 9.8,7 137.1,2 c 24,-5 15,-16 17,-39 -5,3 0,-18 -4,-28 -1,-8 7,-6 1,-19 13,-5 2,-16 3,-32 -4,-4 -4,-10 -10,-17 17,1 -3,-10 7,-18 l -9,-4 c 0,-4 0,-7 -3,-11 l 9,3 c 0,-10 0,-23 -4,-26 9,-22 -3,-15 -3,-23 7,-31 -14,-39 -20,-52 13,-5 6,-6 6,-9 4,-3 8,-6 4,-12 7,-20 -21,-27 -29,-21 -4,2 -6,7 -9,13 -1,-3 1,-8 -10,-13 4,-8 10,-28.3 -4,-29.3 9,-6.1 1,-8.2 1,-13.3 5,-1 6,-9.1 3,-10.2 2,-2.6 0,-4.9 -1,-7.2 2,-1.3 5,-6.2 4,-8.9 -1,-8.1 -2,7.9 10,-23.7 -5,3.3 -7,10.8 -15,7.4 l -5,9.7 C 84,25.8 87,26.2 83,22.8 92,19.2 87,8.6 80,3.6 68,6.8 61,4.6 68,25.5 67,32 62,26.8 55.9,28.9 50.8,12.7 61,16.4 40.6,10.7 l 10.2,19.5 c 0,2.9 3.1,2.6 2.1,6.2 C 43.7,46.2 37.6,65.6 39.6,89 z"  />
<path d="m 49.8,101 c 4.1,-5 3.1,-8 4.1,-13 -5.1,1 -5.1,-3 -2.1,-11.2 2.1,-2 0,-8.2 -1,-11.2 -4.1,-8.2 3.1,-7.2 6.1,-9.2 3.1,-3.1 -3,-6.1 -1,-9.2 -1,-3 1,-1 6.1,-2.4 l 10,-3.5 4,-6.4 0,0"  />
<path d="m 74,65.6 c -1,5.1 0,7.1 0,10.2 -1,3 -4,1 -5,0"  />
<path d="m 55.9,84 c 5.1,4 4.1,12 19.1,9 5,-4 6,-6 9,-9 3,-3 3,-6.2 4,-13.3"  />
<path d="m 61,59.5 c 3,2 6,3 8,3 l 0,0"  />
<path d="m 80,63.5 c 2,1.1 7,2.1 7,1.1"  />
<path d="m 83,58.4 c 1,-1 3,-1 7,-2"  />
<path d="m 69,57.4 c -2,-3 -5,-3 -8,-1"  />
<path d="m 65,82 c 3,1 4,2 9,3"  />
<path d="m 63,36.8 c 10,-5 21,0.7 32,4.5"  />
<path d="m 50.8,16.5 1,8.9"  />
<path d="m 79,22.9 c -2,6.6 -9,1.2 -4,-3.2 3,-1.1 2,-3 0,-5 -4,-4.2 4,-10.3 6,0.9"  />
<path d="m 100,22.6 c -2,-3.9 -7,-0.2 -6,2.5 2,5 -4,7.6 -4,4.3"  />
<path d="m 80,43.3 c 3,-1 8,-0.1 14,4.9"  />
<path d="m 90,45.4 c 3,3.9 -1,6.9 2,14.1"  />
<path d="m 87,84 c 6,-5.2 1,8 2,15 -6,3 0,7 -2,19 l 8,-18"  />
<path d="m 78,93 c 1,3 -3,7 8,9 l 0,0"  />
<path d="m 78,100 c -7,2 0,10 -19,4 l 0,0 1,0"  />
<path d="m 59,91 c -3.1,11 2,23 -10.2,12 l 0,0"  />
<path d="m 56.9,107 c 5.1,4 10.1,7 16.1,6 l 0,-5 -1,0"  />
<path d="m 73,141 -1,-20 0,0"  />
<path d="m 61,115 1,12"  />
<path d="m 39.6,91 c 1,8 2,16 1,23"  />
<path d="M 33.6,107 C 32.7,160 20.9,197 10.1,223"  />
<path d="m 18.2,150 c -0.8,9 -2.1,20 -5.6,30"  />
<path d="m 42.7,132 c -1.1,15 0,29 -3.1,44 l 0,0"  />
<path d="m 92,119 0,5"  />
<path d="m 92,132 0,11"  />
<path d="m 88,117 c -12,18 2,22 9,30 7,6 13,17 2,15 -10,-7 -20,-12 -26,-5 l -1,5 5,4 c 1,-4 2,-5 10,0 5,4 6,4 12,10 5,4 7,5 8,1 -1,5 4,14 3,19 4,0 9,1 12,4 l 9,1 c 3,-6 8,-9 13,-11 -3,-3 -2,-9 -3,-13 l -2,-3"  />
<path d="M 130,180 z"  />
<path d="m 110,176 1,0"  />
<path d="m 128,179 1,0"  />
<path d="m 139,115 1,8"  />
<path d="m 138,127 1,6"  />
<path d="m 124,131 c -3,-2 -4,-1 -6,0"  />
<path d="m 112,129 c -1,-2 -4,-3 -6,-2"  />
<path d="m 105,114 0,0 c 0,4 -2,9 0,13 0,4 -1,10 1,13 l 3,5 c 1,9 6,7 9,8 3,-1 4,-1 7,-5 l 0,1"  />
<path d="m 114,144 -2,0 0,0 z"  />
<path d="m 107,133 c 3,-1 1,-1 4,0 4,4 -3,9 3,8"  />
<path d="m 119,136 c 2,1 2,1 3,1"  />
<path d="m 127,107 c 0,2 1,3 0,8"  />
<path d="m 133,108 0,3"  />
<path d="m 133,117 1,4"  />
<path d="m 129,130 0,3"  />
<path d="m 17.5,218 c 1.8,7 0.9,13 0,19 4,5 8.3,10 11.5,17 -0.4,7 3.2,10 7.5,14 12.3,18 11.3,35 11.3,52"  />
<path d="m 16.4,228 c 0.1,3 0.5,6 -0.4,9 l 2.2,2"  />
<path d="m 24.1,257 c -2.1,2 -7.1,1 -3.9,6"  />
<path d="m 12.6,274 c -1.2,29 13.6,20 17.1,32"  />
<path d="m 10.4,297 c 7.1,11 15.1,15 15.8,21"  />
<path d="m 18.5,323 c 8.1,-5 5.7,7 10.9,7 5.1,6 11.2,7 11.2,11"  />
<path d="m 9,320 c 9.3,21 8.7,49 38.8,33 l 1,7 c 4.1,3 6.1,0 8.1,-4"  />
<path d="m 11.9,352 c 1.1,16 11.7,23 4.5,34"  />
<path d="m 44.7,375 c -10.2,3 -20,5 -27.9,11 l 0,0 c -3.8,1 -8.3,2 -13,4 l 0,0 0,0"  />
<path d="m 11.9,394 c 1.8,3 1.6,6 1.7,10 l 0.4,0 0,0 -0.4,0"  />
<path d="M 14.6,388 C 52.9,422 94,380 103,340"  />
<path d="m 124,280 c -1,3 -2,6 -6,7 -7,49 -15,76 -17,99 -5,17 -20,7 -39,21"  />
<path d="m 139,291 c -7,15 -8,20 -10,36 -5,11 -8,22 -11,48 -5,14 -10,17 -15,22"  />
<path d="m 101,386 c -3,9 6,9 5,15 9,-1 17,0 18,7 l 0,0 0,0"  />
<path d="m 134,384 c 9,19 18,16 19,24"  />
<path d="m 158,399 c -9,-1 -15,-10 -23,-33"  />
<path d="m 152,353 c -3,16 1,27 3,39"  />
<path d="m 162,340 c 0,4 -4,5 -6,7"  />
<path d="m 158,275 c -38,-47 -54,29 -64,44"  />
<path d="m 155,252 c -12,3 -24,-3 -33,2 -29,24 -34,92 -72.2,138"  />
<path d="M 103,282 C 76,315 56.9,348 38.6,348"  />
<path d="m 77,330 c -6,8 -12,10 -18,15"  />
<path d="m 64,288 c 5,4 7,12 9,26"  />
<path d="M 102,282 C 91,285 83,310 63,274 54.9,263 47.8,257 40.6,252 24.7,245 25,234 27.3,221"  />
<path d="m 105,256 c -4,0 -6,7 -12,11 0,2 1,6 -2,7 -7,-1 -10,7 -17,8 l -7,-8 c 1,-3 9,-5 12,-8 l 5,-10 c -3,3 -7,1 -11,0 -1,-1 -8,10 -8,11 0,2 -5,2 -5,2 l -1,-16 c 5,-5 9,-11 12,-18 -2,-3 -3,-6 2,-7 l -1,-6 c 4,-1 8,-9 11,-14 17,-7 26,7 29,12"  />
<path d="m 84,256 8,-7 c 16,3 37,-4 58,-9 1,-5 6,-11 4,-15 -2,3 -5,2 -8,2 -2,4 -6,3 -11,0 -6,0 -8,1 -10,2"  />
<path d="m 117,234 -7,1"  />
<path d="m 100,239 c 0,-4 1,-4 3,-5 -2,0 -5,-1 -6,4"  />
<path d="m 135,217 c -19,5 -36,-6 -49,31"  />
<path d="m 91,225 0,2"  />
<path d="m 88,212 -9,29 -8,-7"  />
<path d="m 74,256 0,-19"  />
<path d="m 75,251 4,-10"  />
<path d="m 123,200 c -11,6 -6,12 -1,9 l 10,2 c 6,-7 13,-8 20,-11 l 2,-7 0,0"  />
<path d="m 156,199 c -5,4 -6,7 -2,8 -11,-1 -5,6 -2,11 -2,-8 4,-7 7,-8"  />
<path d="m 125,246 c -5,3 -6,5 0,6"  />
<path d="m 115,249 c -2,11 -10,3 -8,0"  />
<path d="m 43.7,267 c 2,3 8.1,0 11.2,10"  />
<path d="m 48.8,227 c 2,5 2,10 11.2,13"  />
<path d="m 54.9,224 c -1,2 5.1,3 6.1,8"  />
<path d="m 62,220 0,4"  />
<path d="m 71,215 c -2,2 -3,5 -3,8 l 0,0 0,-1"  />
<path d="m 37.6,221 c 1,8 2,15 8.1,21"  />
<path d="m 28.7,209 c 0.2,3 -0.7,9 0.3,12 l -2.5,0 c 10,-1 19.2,1 28.4,-8 -2,-11 -7.1,-10 -12.2,-10"  />
<path d="m 80,179 0,-11 c 8,0 18,0 14,11 -1,6 -10,5 -16,3 -2,2 -4,2 -6,1 0,0 0,-1 1,-1 -3,3 -5,0 -7,-2 2,4 0,5 -2,5 8,7 -3,15 -3,5 -1,9 -7.1,5 -8.1,-1 1,7 -6.2,8 -5.1,-3 1,8 -2.1,11 -7.2,10 l 0,0"  />
<path d="m 86,175 c 2,0 2,0 2,0 l 0,0 0,0"  />
<path d="m 80,169 c -17,-14 -17,0 0,2"  />
<path d="m 75,176 c -6,-1 -5,-1 -5,-8 -3,9 10,8 -3,7 0,-7 -1,-5 -5,-6 -3,0 -5.1,1 -6.1,5 -3,5 -1,6 1,5 1.1,4 2.1,8 6.1,6 -2,0 -2,2 -2,5"  />
<path d="m 87,203 c 0,-6 -3,-12 2,-19 -5,11 -3,23 -34.1,31"  />
<path d="m 92,191 2,10 6,-17 0,0 0,-1"  />
<path d="m 110,197 c -4,5 -9,8 -12,-1 l 2,7"  />
<path d="m 107,208 c 1,-3 0,-5 -1,-6"  />
<path d="m 82,184 c 1,4 -1,8 -4,12 l -1,-7 -1,5 c -2,-1 -3,-3 -3,-5 -1,2 -1,4 -2,6 -2,2 -1,4 0,5 0,-3 1,-4 3,-6"  />
<path d="m 70,183 c -2,2 -1,6 -1,10 -1,1 -2,3 -3,5 -2,1 -3,3 -5,4 -3,2 -4.1,4 -4.1,5 l 0,8"  />
<path d="m 62,177 c 0,2 -1,1 0,3"  />
<path d="m 118,120 2,5"  />
<path d="m 133,122 c -2,2 -3,3 -4,0 -1,4 -3,3 -4,1 l 1,0"  />
<path d="m 124,113 -3,0"  />
<path d="m 119,114 c 0,2 -1,4 1,4"  />
<path d="m 112,110 c 0,3 1,3 3,4"  />
<path d="m 113,117 c 1,2 0,2 3,2"  />
<path d="m 134,133 c 0,2 1,3 6,2"  />
</g>
</g>
</g>
</g><g  fill="#F0F0F0"><g class="PlaceCharge" transform=" translate(576.27906976744,50) scale(0.46511627906977, 0.46511627906977) " >
<title>a paschal lamb</title><g  fill-rule="evenodd" stroke="#000000" stroke-width="3" ><path d="M 81,625 406,129 418,137 94,633 z"  fill="#e2e3e4" stroke-width="2.34699988" />
<path d="m 281,311 c -2,-17 -9,-26 -18,-33 4,-9 3,-19 -2,-29 l 8,-3 c 9,-3 23,35 30,-4 22,1 16,-10 5,-22 5,-20 -20,-15 -36,-29 20,-34 -47,-36 -62,-34 -27,-21 -46,0 -38,29 -16,-1 -27,12 -48,10 25,13 24,21 45,33 -8,21 -8,46 -2,75 -13,28 -23,45 -1,84 -14,8 -3,28 4,47 -8,14 -64,-7 -62,47 l 0,46 c -6,19 -26,31 -9,48 1,20 -7,43 16,55 3,-1 6,-4 9,-11 6,5 9,3 14,4 3,-19 -12,-34 -15,-49 18,-1 14,-18 8,-35 0,-37 10,-69 41,-47 l 22,-36 c 2,9 6,18 14,26 7,3 14,4 22,2 0,31 2,56 8,80 1,29 20,54 -9,88 -9,17 -16,34 -6,50 l 9,-4 c 1,4 -1,8 7,12 17,-10 17,-39 26,-47 2,-8 6,-11 12,-11 -2,-21 0,-46 -7,-64 4,-1 6,-14 6,-28 11,-17 20,-38 17,-62 5,1 15,2 26,-3 6,5 11,3 16,3 28,4 53,6 77,-7 10,2 12,2 16,-1 37,20 50,44 9,77 -12,20 -45,39 -30,59 -9,17 -20,32 -10,54 7,0 9,-5 12,-9 1,7 3,12 7,14 19,-8 20,-28 21,-53 15,4 23,-13 24,-33 1,-22 16,-34 29,-46 14,-9 31,-17 35,-38 18,13 44,38 20,74 -18,17 -28,34 -12,43 -13,13 -18,31 -13,48 l 11,-3 c -1,4 0,6 7,10 11,-3 23,-20 26,-43 21,0 13,-32 16,-51 0,-18 4,-25 9,-33 10,-15 20,-14 19,-47 16,-23 8,-29 -8,-58 -15,-22 -16,-32 -14,-54 6,-43 -36,-99 -119,-86 -65,33 -130,10 -182,-5 z"  fill="#000000" fill-rule="evenodd" stroke-width="1px" />
<path d="m 243,620 c -4,13 -9,25 -16,34 9,1 23,2 26,-10 3,0 5,-1 4,8 3,4 9,-1 13,-3 -1,-20 1,-38 -5,-57 3,-10 5,-22 5,-33 7,-12 13,-25 16,-38 -24,1 -40,-29 -55,-43 -5,20 -1,57 6,84 -2,13 7,37 6,58 z"  fill="#978c8f" fill-rule="evenodd" stroke="none" />
<path d="m 246,619 c -4,13 -9,25 -16,34 9,-1 19,0 22,-12 3,-1 6,2 5,11 3,4 7,-1 11,-3 -1,-20 1,-39 -5,-59 3,-10 4,-20 5,-31 6,-12 13,-24 16,-36 -24,0 -37,-24 -52,-42 0,26 0,53 7,80 -1,13 8,37 7,58 z"  fill-rule="evenodd" stroke="none" />
<path d="m 275,537 c 0,-6 -8,8 -10,12 -6,10 -10,23 -13,34 -5,15 -5,28 1,39 3,0 6,-5 10,-25 -3,-25 6,-41 12,-60 z"  fill="#978c8f" fill-rule="evenodd" stroke="none" />
<path d="m 182,465 c -5,-8 -4,-11 -11,-12 -4,-7 -15,-10 -26,-10 -14,2 -43,5 -40,41 l 0,43 c -3,15 -29,36 -6,45 l 19,-2 c 11,10 14,-10 9,-19 -9,-38 4,-68 20,-70 12,0 14,3 20,8 l 15,-24 z"  fill="#978c8f" fill-rule="evenodd" stroke="none" />
<path d="m 182,465 c -5,-8 -7,-8 -14,-10 -3,-7 -12,-9 -23,-9 -14,2 -39,9 -38,37 l 1,44 c -4,15 -29,35 -7,44 l 17,-4 c 12,9 12,-6 7,-15 -9,-38 6,-71 22,-74 11,0 14,6 20,11 l 15,-24 z"  fill-rule="evenodd" stroke="none" />
<path d="m 166,455 c -5,5 -12,6 -20,5 -24,2 -29,1 -33,38 2,6 6,6 10,1 0,-26 3,-30 20,-35 4,7 11,7 22,0 l 1,-9 z"  fill="#978c8f" fill-rule="evenodd" stroke="none" />
<path d="m 426,485 c 29,18 52,43 16,79 l -36,39 c -13,26 12,27 17,19 8,-1 10,24 28,1 -1,-32 6,-51 38,-75 21,-12 35,-20 22,-48 -49,18 -29,-36 -85,-15 z"  fill="#978c8f" fill-rule="evenodd" stroke="none" />
<path d="m 434,486 c 26,19 48,40 14,75 l -39,43 c -13,25 10,24 15,16 8,-1 7,23 25,0 -1,-31 5,-49 35,-73 18,-10 40,-18 24,-47 -44,26 -25,-29 -74,-14 z"  fill-rule="evenodd" stroke="none" />
<path d="m 520,491 c -8,-1 -13,12 -2,19 17,14 32,23 35,48 -3,47 -41,48 -25,67 6,9 21,5 28,14 14,13 18,-13 13,-31 4,-12 5,-23 2,-35 8,-1 12,-11 19,-23 6,-10 13,-18 6,-33 l -13,2 c -10,-5 -15,-10 -20,-18 -15,1 -30,0 -43,-10 z"  fill="#978c8f" fill-rule="evenodd" stroke="none" />
<path d="m 520,491 c -8,-1 -12,10 -1,16 17,14 35,26 38,51 -3,47 -42,48 -27,67 6,9 19,5 26,14 14,13 15,-14 10,-32 4,-12 5,-23 2,-35 7,-1 12,-11 19,-23 6,-10 16,-16 9,-31 -5,4 -8,12 -16,11 -14,-7 -16,-20 -18,-28 -15,1 -29,0 -42,-10 z"  fill-rule="evenodd" stroke="none" />
<path d="m 579,529 -18,39 c 8,2 25,-30 18,-39 z"  fill="#978c8f" fill-rule="evenodd" stroke="none" />
<path d="m 595,518 c 1,13 -7,46 -26,54 9,1 11,-10 19,-24 6,-10 17,-18 7,-30 z"  fill="#978c8f" fill-rule="evenodd" stroke="none" />
<path d="m 140,200 c 0,0 0,0 0,0 z"  fill="none" stroke-width="1px" />
<path d="m 134,199 c 12,-2 20,-9 29,-10 8,0 18,3 25,17 -2,7 -6,-1 -1,14 -29,21 -37,-12 -53,-21 z"  fill="#978c8f" fill-rule="evenodd" stroke="none" />
<path d="m 163,392 c 14,1 8,-5 -2,-5 -2,-10 6,-18 -5,-14 -14,-24 1,-52 10,-71 -7,-7 -13,-78 18,-82 -1,-12 -5,-11 -8,-16 5,0 8,1 -2,-21 -12,-11 -5,-23 7,-32 16,-4 19,11 41,9 28,-2 64,11 40,31 13,9 53,16 35,28 6,5 14,8 14,14 -11,11 -12,-2 -28,-1 1,8 7,0 10,10 6,9 -3,15 -6,14 -15,-17 -35,-12 -48,-7 -3,7 -4,8 1,5 9,-13 17,-8 19,-1 4,8 7,20 -1,26 22,11 15,31 15,33 56,26 115,31 177,16 42,-20 114,-9 127,59 -2,30 2,53 24,82 17,25 7,39 -4,50 -35,0 -38,-34 -42,-56 l -6,0 c 11,10 6,24 9,36 -22,3 -32,-3 -36,-13 -17,28 -61,7 -50,-4 -11,-2 -20,3 -25,-2 6,-6 -5,-5 -22,0 0,0 -49,23 -83,16 8,-5 -8,1 -20,2 7,-8 -3,-3 -14,-2 -24,14 -32,-20 -26,-14 -3,9 4,17 1,37 -26,-4 -40,-29 -47,-45 -30,28 -42,-7 -47,-26 -1,9 -11,12 -19,2 -3,-12 -2,-25 -11,-37 -6,-11 -5,-18 4,-21 z m 53,-184 c 6,0 12,-2 18,-5 18,5 17,8 25,15 -12,9 -14,5 -27,7 -16,-1 -16,-9 -16,-17 z"  fill="#978c8f" fill-rule="evenodd" stroke="none" />
<path d="m 141,200 c 10,-2 16,-8 24,-9 6,0 14,3 19,15 -8,3 -28,-7 -29,-2 -3,10 25,1 29,15 -23,19 -30,-10 -43,-19 z"  fill-rule="evenodd" stroke="none" />
<path d="m 167,391 c 15,1 24,-3 21,-19 -4,10 -12,14 -22,14 -2,-9 20,-27 2,-40 0,10 4,23 -7,27 -13,-24 1,-51 10,-69 -7,-7 -20,-78 18,-80 -2,-11 -6,-11 -9,-15 6,0 10,-2 -1,-23 -11,-10 -11,-26 6,-32 15,-3 9,12 40,10 34,-3 56,10 32,28 13,9 57,15 37,27 7,5 14,10 14,15 -9,6 -12,-6 -28,-5 -2,16 12,7 15,17 -3,10 -6,9 -9,8 -14,-16 -42,-15 -52,-3 -3,7 4,9 9,7 9,-13 14,-10 15,-3 4,8 5,19 -4,24 7,11 26,6 16,34 -7,6 -1,37 -28,55 -1,4 1,4 6,2 18,-14 27,-31 26,-53 56,25 113,30 173,16 42,-20 113,-12 125,53 -1,29 -2,57 23,81 17,25 11,37 1,48 -35,0 -41,-34 -44,-56 l -7,0 c 11,10 6,24 9,35 -22,3 -31,-2 -35,-12 -17,27 -46,14 -49,-4 4,-24 8,-49 -9,-60 l -3,6 c 16,14 8,34 6,53 -8,4 -14,4 -18,0 5,-7 13,-10 11,-27 -8,11 -16,22 -33,27 l 6,-19 c -22,34 -54,41 -87,34 8,-5 13,-12 13,-23 -10,12 -21,23 -32,25 7,-8 8,-16 9,-24 -7,9 -12,20 -23,22 -23,13 -26,-7 -23,-21 13,-12 26,-24 26,-56 -4,-4 -7,-2 -9,1 1,20 -7,37 -22,52 -7,-1 -11,-9 -14,-18 -2,13 3,21 8,27 -3,9 -5,16 -4,35 -26,-10 -26,-27 -33,-41 -29,26 -41,-8 -45,-26 -2,9 -12,12 -19,2 -3,-12 -2,-24 -11,-36 -6,-10 -5,-17 3,-20 z m 46,-183 c 4,-6 11,2 13,-9 -5,-3 -12,-5 -13,-10 0,-8 -4,-7 -10,-2 -2,8 -17,3 -15,-8 1,-2 3,-4 6,1 -2,5 10,4 8,1 9,-13 23,1 20,6 4,15 15,4 15,-4 -3,-15 4,-14 8,-9 9,-9 12,2 16,8 -2,2 -2,4 -7,1 -4,-7 -8,-4 -13,5 0,7 -5,7 -3,10 16,5 17,13 24,20 -3,10 -17,9 -30,10 -16,-1 -20,-12 -19,-20 z"  fill-rule="evenodd" stroke="none" />
<path d="m 227,199 c -6,-3 -13,-5 -14,-10 0,-8 -4,-7 -10,-2 -2,8 -17,3 -15,-8 1,-2 3,-4 6,1 -2,5 10,4 8,1 9,-13 23,1 20,6 4,15 15,4 15,-4 -3,-15 4,-14 8,-9 9,-9 12,2 16,8 -1,2 -2,4 -7,1 -4,-7 -8,-4 -13,5 0,7 -5,7 -3,10 -10,2 -14,9 -11,1 z"  fill="#978c8f" fill-rule="evenodd" stroke="none" />
<path d="m 528,370 c 2,-9 8,-3 12,-1 -4,18 -4,28 9,25 -17,17 -14,-5 -21,-24 z"  fill="#bab7b9" fill-rule="evenodd" stroke="none" />
<path d="m 520,404 c 14,-5 8,15 19,14 -8,8 -6,20 -19,-14 z"  fill="#bab7b9" fill-rule="evenodd" stroke="none" />
<path d="m 528,442 c 6,-4 10,-3 16,-2 -11,2 -7,8 -2,13 -7,5 -8,-7 -14,-11 z"  fill="#bab7b9" fill-rule="evenodd" stroke="none" />
<path d="m 549,241 c -12,16 -25,35 -33,53"  fill="none" stroke-width="3.54299998" />
<path d="m 638,332 c 6,7 13,15 18,24 -5,16 -13,30 -21,41 -5,-12 -10,-21 -17,-30 l 20,-35 z"  fill="#ffffff" fill-rule="evenodd" stroke="none" />
<path d="m 468,293 15,-19 c 13,6 34,7 33,19 -10,10 -32,-11 -48,0 z"  fill="#ffffff" fill-rule="evenodd" stroke="none" />
<path d="m 485,273 -17,22"  fill="none" stroke-width="3.18899989" />
</g>
<g  fill-rule="evenodd" stroke="#000000" stroke-width="3" ><path d="m 227,657 c 10,1 22,-2 29,5 -8,4 -8,35 -21,45 -5,-4 -5,-11 -4,-20 -3,6 -5,11 -11,13 -7,-23 5,-28 7,-43 z"  fill-rule="evenodd" stroke="none" />
<path d="m 116,576 c 6,15 16,29 15,44 -10,2 -8,-17 -16,-12 -4,4 3,15 -4,21 -21,-16 -10,-33 -12,-51 0,-8 10,-5 17,-2 z"  fill-rule="evenodd" stroke="none" />
<path d="m 406,629 c 10,5 16,2 22,-1 2,23 3,47 -15,54 -11,-10 -1,-23 -5,-28 -8,1 -5,23 -13,22 -7,-16 2,-32 11,-47 z"  fill-rule="evenodd" stroke="none" />
<path d="m 554,641 c -3,-8 -15,-5 -25,-5 -9,11 -14,26 -10,40 8,3 8,-13 15,-13 0,8 -8,14 -1,19 10,3 25,-19 21,-41 z"  fill-rule="evenodd" stroke="none" />
</g>
<g  fill="#EFD807"  class="feature banner"  stroke="#000000" stroke-width="3"  fill-opacity="0.999" ><path d="m 455,58.8 c -3,0.5 -5,2.5 -6,5.2 l 0,0 c 0,0 -3,-1 -4,-0.9 -5,0.2 -9,4 -9,8.6 1,3.7 1,5.5 5,6.5 l -8,11.4 -9,-6.5 c 1,-1.6 1,-1.8 1,-4.4 0,-4.6 -4,-8.2 -9,-8 -2,0 -6,2.6 -6,2.6 l 0,0 c -1,-1.7 -3,-2.7 -6,-2.6 0,0 0,0 0,0.1 -5,0.4 -8,4.1 -8,8.6 0,0.2 0,0.4 0,0.6 0,3.1 5,6.8 5,6.8 l 0,0 c 0,0 -1,2.7 -1,4.1 1,4.6 4,8.3 9,8.1 4,-0.1 6,-1.1 7,-4.4 l 9,6.4 -6,9 c -2,-2 -2,-1 -5,-1 -4,0 -8,4 -8,8 0,3 1,5 3,6 l 0,0 c 0,0 -3,4 -3,6 0,5 9,8 9,8 l 0,0 c 0,0 6,-2 7,-5 l 0,0 c 0,0 3,1 4,1 5,0 9,-4 8,-9 0,-3 -1,-5 -4,-6 l 6,-9 11,8 c -1,1 -1,3 -1,5 0,5 4,8 9,8 2,0 5,-2 5,-2 l 0,0 c 2,1 4,2 7,2 4,0 8,-9 8,-9 l 0,0 -6,-7 0,0 c 0,0 1,-3 1,-4 0,-5 -4,-8 -8,-8 -4,0 -6,1 -7,4 L 444,97.9 452,86 c 1,1.8 2,1.7 5,1.6 4,-0.2 8,-4.1 8,-8.7 0,-2.3 -1,-4.3 -3,-5.8 l 0,0 c 0,0 3,-3.8 3,-6.3 0,-4.6 -4,-8 -9,-8 l -1,0 0,0 0,0 0,0 z"  stroke-width="2.83500004"  fill-opacity="0.999" />
<path d="m 320.6,183.1 c 0,5.706 -4.438,10.14 -10.14,10.14 -5.706,0 -10.14,-4.438 -10.14,-10.14 0,-5.706 4.438,-10.14 10.14,-10.14 5.706,0 10.14,4.438 10.14,10.14 z"  stroke-width="2.83500004"  fill-opacity="0.999" />
<path d="m 480.7,112 c 0,5.625 -4.361,10 -9.968,10 -5.607,0 -9.968,-4.375 -9.968,-10 0,-5.625 4.361,-10 9.968,-10 5.607,0 9.968,4.375 9.968,10 z"  stroke-width="2.83500004"  fill-opacity="0.999" />
<path d="m 319.8,175.1 143.5,-63.74 3.6,8.244 -143.5,63.74 z"  stroke-width="2.10599995"  fill-opacity="0.999" />
<path d="m 456,122 c -37,23 -75,43 -117,56 49,35 85,78 156,99 31,7 27,27 0,18 -31,-12 -43,12 -4,15 150,13 160,115 151,195 l -29,-45 c 16,-40 52,-27 54,-78 -8,-48 -63,-84 -106,-101 29,11 104,-4 81,34 -1,35 -25,57 -44,82 l 11,28 c 42,-44 56,-89 48,-134 -12,-41 -63,-43 -108,-49 6,-7 22,-14 12,-25 -37,-26 -68,-54 -105,-95 z"  fill-rule="nonzero" stroke-width="3.54299998"  fill-opacity="0.999" />
<path d="m 436,155 -29,16 c 15,7 26,20 41,31 -8,7 -16,13 -32,17 l 30,21 c 4,-7 10,-13 21,-20 15,12 33,23 48,37 l 17,-23 c -16,-7 -31,-16 -44,-26 3,-6 12,-10 21,-13 l -21,-20 c -5,6 -12,11 -19,16 -15,-11 -29,-24 -33,-36 z"  fill-rule="evenodd" stroke-width="3.54299998"  fill-opacity="0.999" />
</g>
</g>
</g><g  fill="#E21313"><g class="PlaceCharge" transform=" translate(180,275.21071224752) scale(2.7887581498734, 2.7887581498734) " >
<title>a mitre</title><g  transform="translate(-659.18604,-29.370141)"  ><g  ><g  transform="translate(-141.7894,2.1375286)"  stroke="#000000" ><g  transform="matrix(2.37864,0,0,2.3604541,-1234.0932,-104.011)"  ><g  transform="matrix(-1.02603,0,0,1.02603,1172.8199,49.467885)"  stroke-width="0.34999999" ><g  transform="translate(216.3527,15.51153)"  ><a  transform="translate(0,0.746122)"  ><path d="M -0.85497357,53.194629 C 0.63347324,59.66134 3.2038095,64.685532 6.652922,68.538022 L 5.723773,72.082101 C 5.723773,72.082101 14.956498,74.721651 14.987586,74.690563 L 16.476864,68.786729 C 11.590164,62.49183 5.7424276,56.773553 4.9954507,47.99482 L -0.85497357,53.194629 z"  fill-rule="evenodd" />
</a>
<path d="M 32.016332,58.69494 L 41.036715,58.69494 C 45.703457,53.760504 47.69045,48.826069 49.583409,43.891633 L 38.300934,43.891633 C 38.400181,48.826069 34.483173,53.760504 32.016332,58.69494 z"  fill-rule="evenodd" />
<path d="M 4.6156837,44.475584 C 2.0489229,47.300881 0.49851465,50.735989 -1,54.202234 C 3.8888646,49.427286 13.341105,41.348426 16.319278,44.202944 C 19.795966,50.141409 24.946746,54.710163 30.811275,58.69494 L 40.180837,58.69494 C 31.572873,52.127302 23.183188,45.431265 18.210894,36.724997 C 14.485021,35.873625 8.8897503,39.959529 4.6156837,44.475584 z"  fill-rule="evenodd" />
</g>
<g  transform="matrix(0.937878,0.251304,-0.258819,0.965926,57.26451,-45.23491)"  stroke-width="0.3551949" ><rect y="86.122467" x="199.55624" height="11.782799" width="9.9238567"  />
<g  transform="matrix(0.939783,0,0,1,4.152284,-2.016667)"  stroke-width="0.36639786" ><path d="M 209.22507,99.968423 L 209.22507,88.092651"  fill-rule="evenodd" />
<path d="M 210.5515,99.968423 L 210.5515,88.092647"  fill-rule="evenodd" />
<path d="M 211.87795,99.968423 L 211.87795,88.092647"  fill-rule="evenodd" />
<path d="M 213.20439,99.968423 L 213.20439,88.092647"  fill-rule="evenodd" />
<path d="M 214.53083,99.968423 L 214.53083,88.092647"  fill-rule="evenodd" />
<path d="M 215.85726,99.968423 L 215.85726,88.092638"  fill-rule="evenodd" />
<path d="M 217.18371,99.968423 L 217.18371,88.092638"  fill-rule="evenodd" />
</g>
</g>
</g>
</g>
<g  transform="matrix(-2.37864,0,0,2.3604541,3065.5369,-104.011)"  ><g  transform="matrix(-1.02603,0,0,1.02603,1172.8199,49.467885)"  stroke-width="0.34999999" ><g  transform="translate(216.3527,15.51153)"  ><a  transform="translate(0,0.746122)"  ><path d="M -0.85497357,53.194629 C 0.63347324,59.66134 3.2038095,64.685532 6.652922,68.538022 L 5.723773,72.082101 C 5.723773,72.082101 14.956498,74.721651 14.987586,74.690563 L 16.476864,68.786729 C 11.590164,62.49183 5.7424276,56.773553 4.9954507,47.99482 L -0.85497357,53.194629 z"  fill-rule="evenodd" />
</a>
<path d="M 32.016332,58.69494 L 41.036715,58.69494 C 45.703457,53.760504 47.69045,48.826069 49.583409,43.891633 L 38.300934,43.891633 C 38.400181,48.826069 34.483173,53.760504 32.016332,58.69494 z"  fill-rule="evenodd" />
<path d="M 4.6156837,44.475584 C 2.0489229,47.300881 0.49851465,50.735989 -1,54.202234 C 3.8888646,49.427286 13.341105,41.348426 16.319278,44.202944 C 19.795966,50.141409 24.946746,54.710163 30.811275,58.69494 L 40.180837,58.69494 C 31.572873,52.127302 23.183188,45.431265 18.210894,36.724997 C 14.485021,35.873625 8.8897503,39.959529 4.6156837,44.475584 z"  fill-rule="evenodd" />
</g>
<g  transform="matrix(0.937878,0.251304,-0.258819,0.965926,57.26451,-45.23491)"  stroke-width="0.3551949" ><rect y="86.122467" x="199.55624" height="11.782799" width="9.9238567"  />
<g  transform="matrix(0.939783,0,0,1,4.152284,-2.016667)"  stroke-width="0.36639786" ><path d="M 209.22507,99.968423 L 209.22507,88.092651"  fill-rule="evenodd" />
<path d="M 210.5515,99.968423 L 210.5515,88.092647"  fill-rule="evenodd" />
<path d="M 211.87795,99.968423 L 211.87795,88.092647"  fill-rule="evenodd" />
<path d="M 213.20439,99.968423 L 213.20439,88.092647"  fill-rule="evenodd" />
<path d="M 214.53083,99.968423 L 214.53083,88.092647"  fill-rule="evenodd" />
<path d="M 215.85726,99.968423 L 215.85726,88.092638"  fill-rule="evenodd" />
<path d="M 217.18371,99.968423 L 217.18371,88.092638"  fill-rule="evenodd" />
</g>
</g>
</g>
</g>
</g>
<path d="M 777.83435,53.429482 C 777.83435,50.212363 780.5734,47.60437 783.95219,47.60437 C 787.33099,47.60437 790.07004,50.212363 790.07004,53.429482 C 790.07004,56.6466 787.33099,59.254593 783.95219,59.254593 C 780.5734,59.254593 777.83435,56.6466 777.83435,53.429482 L 777.83435,53.429482 z"  class="Silber Rand2"  fill="#e3e4e5" fill-rule="evenodd" stroke="#000000" stroke-width="0.99999994" />
<path d="M 787.71353,62.490767 C 787.71353,59.273648 790.45259,56.665655 793.83138,56.665655 C 797.21017,56.665655 799.94923,59.273648 799.94923,62.490767 C 799.94923,65.707885 797.21017,68.315878 793.83138,68.315878 C 790.45259,68.315878 787.71353,65.707885 787.71353,62.490767 L 787.71353,62.490767 z"  class="Silber Rand2"  fill="#e3e4e5" fill-rule="evenodd" stroke="#000000" stroke-width="0.99999994" />
<path d="M 796.2332,72.84652 C 796.2332,69.629402 798.97226,67.021409 802.35105,67.021409 C 805.72984,67.021409 808.4689,69.629402 808.4689,72.84652 C 808.4689,76.063641 805.72984,78.671634 802.35105,78.671634 C 798.97226,78.671634 796.2332,76.063641 796.2332,72.84652 z"  class="Silber Rand2"  fill="#e3e4e5" fill-rule="evenodd" stroke="#000000" stroke-width="0.99999994" />
<path d="M 802.66827,84.496743 C 802.66827,81.279628 805.40732,78.671634 808.78612,78.671634 C 812.16491,78.671634 814.90396,81.279628 814.90396,84.496743 C 814.90396,87.713865 812.16491,90.321858 808.78612,90.321858 C 805.40732,90.321858 802.66827,87.713865 802.66827,84.496743 z"  class="Silber Rand2"  fill="#e3e4e5" fill-rule="evenodd" stroke="#000000" stroke-width="0.99999994" />
<path d="M 808.10636,97.096248 C 808.10636,93.879126 810.84541,91.271133 814.22421,91.271133 C 817.603,91.271133 820.34205,93.879126 820.34205,97.096248 C 820.34205,100.31336 817.603,102.92136 814.22421,102.92136 C 810.84541,102.92136 808.10636,100.31336 808.10636,97.096248 z"  class="Silber Rand2"  fill="#e3e4e5" fill-rule="evenodd" stroke="#000000" stroke-width="0.99999994" />
<path d="M 812.81937,109.78204 C 812.81937,106.56493 815.55842,103.95693 818.93722,103.95693 C 822.316,103.95693 825.05506,106.56493 825.05506,109.78204 C 825.05506,112.99916 822.316,115.60716 818.93722,115.60716 C 815.55842,115.60716 812.81937,112.99916 812.81937,109.78204 z"  class="Silber Rand2"  fill="#e3e4e5" fill-rule="evenodd" stroke="#000000" stroke-width="0.99999994" />
<path d="M 817.62301,122.98563 C 817.62301,119.76851 820.36206,117.16052 823.74086,117.16052 C 827.11965,117.16052 829.8587,119.76851 829.8587,122.98563 C 829.8587,126.20275 827.11965,128.81074 823.74086,128.81074 C 820.36206,128.81074 817.62301,126.20275 817.62301,122.98563 z"  class="Silber Rand2"  fill="#e3e4e5" fill-rule="evenodd" stroke="#000000" stroke-width="0.99999994" />
<path d="M 769.58658,53.429482 C 769.58658,50.212363 766.84752,47.60437 763.46873,47.60437 C 760.08994,47.60437 757.35088,50.212363 757.35088,53.429482 C 757.35088,56.6466 760.08994,59.254593 763.46873,59.254593 C 766.84752,59.254593 769.58658,56.6466 769.58658,53.429482 L 769.58658,53.429482 z"  class="Silber Rand2"  fill="#e3e4e5" fill-rule="evenodd" stroke="#000000" stroke-width="0.99999994" />
<path d="M 759.70739,62.490767 C 759.70739,59.273648 756.96834,56.665655 753.58954,56.665655 C 750.21075,56.665655 747.4717,59.273648 747.4717,62.490767 C 747.4717,65.707885 750.21075,68.315878 753.58954,68.315878 C 756.96834,68.315878 759.70739,65.707885 759.70739,62.490767 L 759.70739,62.490767 z"  class="Silber Rand2"  fill="#e3e4e5" fill-rule="evenodd" stroke="#000000" stroke-width="0.99999994" />
<path d="M 751.18772,72.84652 C 751.18772,69.629402 748.44866,67.021409 745.06988,67.021409 C 741.69108,67.021409 738.95203,69.629402 738.95203,72.84652 C 738.95203,76.063641 741.69108,78.671634 745.06988,78.671634 C 748.44866,78.671634 751.18772,76.063641 751.18772,72.84652 z"  class="Silber Rand2"  fill="#e3e4e5" fill-rule="evenodd" stroke="#000000" stroke-width="0.99999994" />
<path d="M 744.75265,84.496743 C 744.75265,81.279628 742.0136,78.671634 738.6348,78.671634 C 735.25601,78.671634 732.51696,81.279628 732.51696,84.496743 C 732.51696,87.713865 735.25601,90.321858 738.6348,90.321858 C 742.0136,90.321858 744.75265,87.713865 744.75265,84.496743 z"  class="Silber Rand2"  fill="#e3e4e5" fill-rule="evenodd" stroke="#000000" stroke-width="0.99999994" />
<path d="M 739.31457,97.096248 C 739.31457,93.879126 736.57551,91.271133 733.19672,91.271133 C 729.81793,91.271133 727.07887,93.879126 727.07887,97.096248 C 727.07887,100.31336 729.81793,102.92136 733.19672,102.92136 C 736.57551,102.92136 739.31457,100.31336 739.31457,97.096248 z"  class="Silber Rand2"  fill="#e3e4e5" fill-rule="evenodd" stroke="#000000" stroke-width="0.99999994" />
<path d="M 734.60156,109.78204 C 734.60156,106.56493 731.8625,103.95693 728.48371,103.95693 C 725.10492,103.95693 722.36586,106.56493 722.36586,109.78204 C 722.36586,112.99916 725.10492,115.60716 728.48371,115.60716 C 731.8625,115.60716 734.60156,112.99916 734.60156,109.78204 z"  class="Silber Rand2"  fill="#e3e4e5" fill-rule="evenodd" stroke="#000000" stroke-width="0.99999994" />
<path d="M 729.79792,122.98563 C 729.79792,119.76851 727.05886,117.16052 723.68007,117.16052 C 720.30128,117.16052 717.56222,119.76851 717.56222,122.98563 C 717.56222,126.20275 720.30128,128.81074 723.68007,128.81074 C 727.05886,128.81074 729.79792,126.20275 729.79792,122.98563 L 729.79792,122.98563 z"  class="Silber Rand2"  fill="#e3e4e5" fill-rule="evenodd" stroke="#000000" stroke-width="0.99999994" />
<path d="M 780.50807,40.225895 C 780.50807,34.50657 777.46467,29.870141 773.71046,29.870141 C 769.95625,29.870141 766.91285,34.50657 766.91285,40.225895 C 766.91285,45.94522 769.95625,50.581649 773.71046,50.581649 C 777.46467,50.581649 780.50807,45.94522 780.50807,40.225895 z"  class="Silber Rand2"  fill="#e3e4e5" fill-rule="evenodd" stroke="#000000" stroke-width="0.99999994" />
<path d="M 724.76768,129.54427 C 730.20577,112.71617 735.64386,95.888074 743.80099,82.29615 C 751.95812,68.704219 762.83429,58.348465 773.71046,47.992711"  class="Rand4Hell"  fill="#e3e4e5" fill-rule="evenodd" stroke="#000000" stroke-width="0.99999994" />
<path d="M 822.65324,129.54427 C 817.21515,112.71617 811.77707,95.888074 803.61994,82.29615 C 795.46281,68.704219 784.58663,58.348465 773.71046,47.992711"  class="Rand4Hell"  fill="#e3e4e5" fill-rule="evenodd" stroke="#000000" stroke-width="0.99999994" />
<path d="M 727.48673,123.24453 C 727.48673,121.81469 726.26937,120.65559 724.76768,120.65559 C 723.266,120.65559 722.04864,121.81469 722.04864,123.24453 C 722.04864,124.67436 723.266,125.83346 724.76768,125.83346 C 726.26937,125.83346 727.48673,124.67436 727.48673,123.24453 z"  class="Hellblau"  fill="#e3e4e5" fill-rule="evenodd" stroke="#000000" stroke-width="0.99999994" />
<path d="M 731.56529,110.29983 C 731.56529,108.87 730.34794,107.71089 728.84625,107.71089 C 727.34456,107.71089 726.12721,108.87 726.12721,110.29983 C 726.12721,111.72966 727.34456,112.88877 728.84625,112.88877 C 730.34794,112.88877 731.56529,111.72966 731.56529,110.29983 z"  class="Hellblau"  fill="#e3e4e5" fill-rule="evenodd" stroke="#000000" stroke-width="0.99999994" />
<path d="M 736.2783,97.009946 C 736.2783,95.580115 735.06094,94.421007 733.55926,94.421007 C 732.05757,94.421007 730.84022,95.580115 730.84022,97.009946 C 730.84022,98.439777 732.05757,99.598884 733.55926,99.598884 C 735.06094,99.598884 736.2783,98.439777 736.2783,97.009946 z"  class="Hellblau"  fill="#e3e4e5" fill-rule="evenodd" stroke="#000000" stroke-width="0.99999994" />
<path d="M 741.44449,84.410448 C 741.44449,82.980616 740.22713,81.821509 738.72544,81.821509 C 737.22375,81.821509 736.0064,82.980616 736.0064,84.410448 C 736.0064,85.840279 737.22375,86.999386 738.72544,86.999386 C 740.22713,86.999386 741.44449,85.840279 741.44449,84.410448 z"  class="Hellblau"  fill="#e3e4e5" fill-rule="evenodd" stroke="#000000" stroke-width="0.99999994" />
<path d="M 748.514,73.105412 C 748.514,71.675581 747.29664,70.516474 745.79495,70.516474 C 744.29327,70.516474 743.07591,71.675581 743.07591,73.105412 C 743.07591,74.53525 744.29327,75.694351 745.79495,75.694351 C 747.29664,75.694351 748.514,74.53525 748.514,73.105412 z"  class="Hellblau"  fill="#e3e4e5" fill-rule="evenodd" stroke="#000000" stroke-width="0.99999994" />
<path d="M 757.03366,63.353746 C 757.03366,61.923914 755.81631,60.764808 754.31462,60.764808 C 752.81293,60.764808 751.59557,61.923914 751.59557,63.353746 C 751.59557,64.783578 752.81293,65.942685 754.31462,65.942685 C 755.81631,65.942685 757.03366,64.783578 757.03366,63.353746 z"  class="Hellblau"  fill="#e3e4e5" fill-rule="evenodd" stroke="#000000" stroke-width="0.99999994" />
<path d="M 766.55031,53.688376 C 766.55031,52.258544 765.33296,51.099437 763.83127,51.099437 C 762.32958,51.099437 761.11223,52.258544 761.11223,53.688376 C 761.11223,55.118207 762.32958,56.277314 763.83127,56.277314 C 765.33296,56.277314 766.55031,55.118207 766.55031,53.688376 z"  class="Hellblau"  fill="#e3e4e5" fill-rule="evenodd" stroke="#000000" stroke-width="0.99999994" />
<path d="M 819.9342,123.24453 C 819.9342,121.81469 821.15155,120.65559 822.65324,120.65559 C 824.15493,120.65559 825.37228,121.81469 825.37228,123.24453 C 825.37228,124.67436 824.15493,125.83346 822.65324,125.83346 C 821.15155,125.83346 819.9342,124.67436 819.9342,123.24453 z"  class="Hellblau"  fill="#e3e4e5" fill-rule="evenodd" stroke="#000000" stroke-width="0.99999994" />
<path d="M 815.85563,110.29983 C 815.85563,108.87 817.07299,107.71089 818.57467,107.71089 C 820.07636,107.71089 821.29372,108.87 821.29372,110.29983 C 821.29372,111.72966 820.07636,112.88877 818.57467,112.88877 C 817.07299,112.88877 815.85563,111.72966 815.85563,110.29983 z"  class="Hellblau"  fill="#e3e4e5" fill-rule="evenodd" stroke="#000000" stroke-width="0.99999994" />
<path d="M 811.14262,97.009946 C 811.14262,95.580115 812.35998,94.421007 813.86166,94.421007 C 815.36335,94.421007 816.58071,95.580115 816.58071,97.009946 C 816.58071,98.439777 815.36335,99.598884 813.86166,99.598884 C 812.35998,99.598884 811.14262,98.439777 811.14262,97.009946 z"  class="Hellblau"  fill="#e3e4e5" fill-rule="evenodd" stroke="#000000" stroke-width="0.99999994" />
<path d="M 805.97644,84.410448 C 805.97644,82.980616 807.1938,81.821509 808.69548,81.821509 C 810.19717,81.821509 811.41452,82.980616 811.41452,84.410448 C 811.41452,85.840279 810.19717,86.999386 808.69548,86.999386 C 807.1938,86.999386 805.97644,85.840279 805.97644,84.410448 z"  class="Hellblau"  fill="#e3e4e5" fill-rule="evenodd" stroke="#000000" stroke-width="0.99999994" />
<path d="M 798.90693,73.105412 C 798.90693,71.675581 800.12428,70.516474 801.62597,70.516474 C 803.12766,70.516474 804.34501,71.675581 804.34501,73.105412 C 804.34501,74.53525 803.12766,75.694351 801.62597,75.694351 C 800.12428,75.694351 798.90693,74.53525 798.90693,73.105412 z"  class="Hellblau"  fill="#e3e4e5" fill-rule="evenodd" stroke="#000000" stroke-width="0.99999994" />
<path d="M 790.38726,63.353746 C 790.38726,61.923914 791.60461,60.764808 793.10631,60.764808 C 794.60799,60.764808 795.82535,61.923914 795.82535,63.353746 C 795.82535,64.783578 794.60799,65.942685 793.10631,65.942685 C 791.60461,65.942685 790.38726,64.783578 790.38726,63.353746 L 790.38726,63.353746 z"  class="Hellblau"  fill="#e3e4e5" fill-rule="evenodd" stroke="#000000" stroke-width="0.99999994" />
<path d="M 780.87061,53.688376 C 780.87061,52.258544 782.08796,51.099437 783.58965,51.099437 C 785.09134,51.099437 786.3087,52.258544 786.3087,53.688376 C 786.3087,55.118207 785.09134,56.277314 783.58965,56.277314 C 782.08796,56.277314 780.87061,55.118207 780.87061,53.688376 z"  class="Hellblau"  fill="#e3e4e5" fill-rule="evenodd" stroke="#000000" stroke-width="0.99999994" />
<path  transform="translate(717.06222,29.370141)" d="M 56.65625,18.625 C 45.78008,28.980754 34.90713,39.345568 26.75,52.9375 C 18.59287,66.529424 13.15684,83.359403 7.71875,100.1875 C 11.71191,109.21555 15.965937,118.22221 19.84375,127.25 C 20.64029,128.97511 35.478969,133.01699 55.870919,133.01699 C 76.262869,133.01699 93.118543,129.14579 93.6875,127.25 L 105.59375,100.1875 C 100.15566,83.3594 94.719634,66.529423 86.5625,52.9375 C 78.40537,39.345569 67.532421,28.980754 56.65625,18.625 z"  fill="#e3e4e5" fill-rule="evenodd" stroke="#000000" />
<path d="M 772.92232,162.36197 C 779.71993,162.36197 787.21499,161.97892 793.88068,161.23288 C 801.80918,160.3455 804.62753,159.13685 810.6697,157.17348 L 818.1265,139.81373 C 814.70199,142.82373 801.64593,143.74592 799.70917,144.19469 C 794.06396,144.47369 784.8104,145.78595 783.17037,140.16364 C 781.52988,134.54133 782.02248,104.26027 782.02248,87.603039 C 782.02248,70.945374 782.02248,56.294644 782.02248,56.294644 L 773.86535,48.133913 L 765.70822,55.900728 C 765.70822,55.900728 765.70822,70.945374 765.70822,87.603039 C 765.70822,104.26027 766.20082,134.54133 764.56033,140.16364 C 762.9203,145.78595 755.17649,144.27509 747.8515,144.34265 C 739.69631,144.1143 738.20184,143.2142 730.56031,142.50759 L 736.96385,156.88774 C 744.70347,159.98273 747.05315,160.92662 753.2842,161.43679 C 759.96916,161.98412 766.12471,162.36197 772.92232,162.36197 z"  class="Hellblau"  fill-rule="evenodd" stroke="#000000" stroke-width="0.99999994" />
</g>
<g  transform="matrix(1.02603,0,0,1.02603,831.02305,105.32993)"  stroke="#000000" stroke-width="0.34999999" />
</g>
</g>
</g></g></g></g><defs><mask id="mask9-1" >
<path fill="#FFFFFF" d="m 0,0 v 800 c -2.5063876,43.11115 1.2341419,84.33503 21.489586,125.13639 20.255443,40.80137 53.477613,79.98631 98.039434,115.63581 44.56181,35.6494 100.44867,67.7517 164.92346,94.7345 64.47479,26.9828 137.51639,48.8374 215.54752,64.4933 78.03113,-15.6559 151.07273,-37.5105 215.54752,-64.4933 64.47479,-26.9828 120.36165,-59.0851 164.92346,-94.7345 44.56182,-35.6495 77.78399,-74.83444 98.03943,-115.63581 C 998.76586,884.33503 1000.1453,841.93063 1000,800 V 0 Z" />
</mask>
</defs></g></svg>
