<?xml version="1.0" encoding="utf-8" ?>
    <svg version="1.1"
        baseProfile="full"
        xmlns="http://www.w3.org/2000/svg"
        xmlns:xlink="http://www.w3.org/1999/xlink" 
         xmlns:rdf="http://www.w3.org/1999/02/22-rdf-syntax-ns#"
         xmlns:cc="http://creativecommons.org/ns#"
         xmlns:dc="http://purl.org/dc/elements/1.1/" 
        preserveAspectRatio="xMidYMid meet" height="600" width="500" viewBox="0,0,1000,1200 ">
<metadata>
<rdf:RDF>
      <cc:Work
         rdf:about="">
        <dc:format>image/svg+xml</dc:format>
        <dc:type
           rdf:resource="http://purl.org/dc/dcmitype/StillImage" />
        <dc:rights>
          <cc:Agent>
            <dc:title>This work is licensed under a &lt;a rel=&quot;license&quot; href=&quot;http://creativecommons.org/licenses/by-nc-sa/4.0/&quot;&gt;Creative Commons Attribution-NonCommercial-ShareAlike 4.0 International License&lt;/a&gt;.</dc:title>
          </cc:Agent>
        </dc:rights>
         <dc:creator>
           <cc:Agent>
              <dc:title>chalice/utensil - http://commons.wikimedia.org/wiki/User:Bernina
heater shape - https://commons.wikimedia.org/wiki/User:MG
Noto Serif - http://www.onlinewebfonts.com oNline Web Fonts
</dc:title>
           </cc:Agent>
        </dc:creator>
      </cc:Work>
      </rdf:RDF>
</metadata>
<defs></defs><g ><g mask="url(#mask7-1)"><g><g><title>per-fess</title><desc>Division used to fill field</desc><g stroke-width="4" stroke="none" ><g  fill="#F0F0F0"><rect x='-100' y='-100' width='1200' height='1400' /></g>
<g  fill="#1E7FCB"><path fill-rule="evenodd" d="M-100,500h1200 v800   h-1200.000   v-800.000  z" /></g></g></g><g transform='translate(0,0)'><g  fill="#EFD807"><g class="PlaceCharge" transform=" translate(266.18706554174,100) scale(2.3980695731781, 2.3980695731781) " >
<title>A chalice</title><g transform="translate(-21,-15)"><g  ><path d="m214.5,406.5   c0,-13.25 -42.98,-24 -96,-24 -53.02,0 -96,10.75 -96,24 0,13.25 42.98,24 96,24 53.02,0 96,-10.75 96,-24   z "  fill-rule="evenodd" stroke="#000000" stroke-width="3" />
<path d="m106.5,256.5 24,0 0,-78 -24,0 0,78   z "  fill-rule="evenodd" stroke="#000000" stroke-width="3" />
<path d="m208.5,394.5   c0,-13.25 -40.29,-24 -90,-24 -49.71,0 -90,10.75 -90,24 0,13.25 40.29,24 90,24 49.71,0 90,-10.75 90,-24   z "  fill-rule="evenodd" stroke="#000000" stroke-width="3" />
<path d="m136.5,172.5   c0,-6.627 -8.059,-12 -18,-12 -9.941,0 -18,5.373 -18,12 0,6.627 8.059,12 18,12 9.941,0 18,-5.373 18,-12   z "  fill-rule="evenodd" stroke="#000000" stroke-width="3" />
<path d="m178.5,388.5   c-8,-10 -16,-20 -22,-30 -6,-10 -10,-20 -12,-32 -2,-12 -2,-26 -2,-40   l-48,0   c0,14 0,28 -2,40 -2,12 -6,22 -12,32 -6,10 -14,20 -22,30   "  fill-rule="evenodd" stroke="#000000" stroke-width="3" />
<path d="m148.6,154.9   c0,-9.941 -13.43,-18 -30,-18 -16.57,0 -30,8.059 -30,18 0,9.941 13.43,18 30,18 16.57,0 30,-8.059 30,-18   l0,0   z "  fill-rule="evenodd" stroke="#000000" stroke-width="3" />
<path d="m150.5,214.5   c0,-9.941 -6.268,-18 -14,-18 -7.732,0 -14,8.059 -14,18 0,9.941 6.268,18 14,18 7.732,0 14,-8.059 14,-18   l0,0   z "  fill-rule="evenodd" stroke="#000000" stroke-width="3" />
<path d="m114.5,214.5   c0,-9.941 -6.268,-18 -14,-18 -7.732,0 -14,8.059 -14,18 0,9.941 6.268,18 14,18 7.732,0 14,-8.059 14,-18   z "  fill-rule="evenodd" stroke="#000000" stroke-width="3" />
<path d="m132.5,220.5   c0,-9.941 -6.268,-18 -14,-18 -7.732,0 -14,8.059 -14,18 0,9.941 6.268,18 14,18 7.732,0 14,-8.059 14,-18   z "  fill-rule="evenodd" stroke="#000000" stroke-width="3" />
<path d="m34.5,28.5   c12,48 24,96 46,120 22,24 54,24 76,0 22,-24 34,-72 46,-120   l-168,0   z "  fill-rule="evenodd" stroke="#000000" stroke-width="3" />
<path d="m106.5,286.5   c0,22 0,44 -3,62 -3,18 -9,32 -15,46   "  fill-rule="evenodd" stroke="#000000" stroke-width="3" />
<path d="m130.5,286.5   c0,22 0,44 3,62 3,18 9,32 15,46   "  fill-rule="evenodd" stroke="#000000" stroke-width="3" />
<path d="m88.5,394.5   c-2,2 -4,4 -7,5 -3,1 -7,1 -12,0 -5,-1 -11,-3 -13,-5 -2,-2 0,-4 2,-6   "  fill-rule="evenodd" stroke="#000000" stroke-width="3" />
<path d="m88.5,394.5   c2,4 4,8 9,10 5,2 13,2 21,2 8,0 16,0 21,-2 5,-2 7,-6 9,-10   "  fill-rule="evenodd" stroke="#000000" stroke-width="3" />
<path d="m148.5,394.5   c2,2 4,4 7,5 3,1 7,1 12,0 5,-1 11,-3 13,-5 2,-2 0,-4 -2,-6   "  fill-rule="evenodd" stroke="#000000" stroke-width="3" />
<path d="m142.5,286.5   c0,-3.314 -10.75,-6 -24,-6 -13.25,0 -24,2.686 -24,6 0,3.314 10.75,6 24,6 13.25,0 24,-2.686 24,-6   z "  fill-rule="evenodd" stroke="#000000" stroke-width="3" />
<path d="m142.5,280.5   c0,-3.314 -10.75,-6 -24,-6 -13.25,0 -24,2.686 -24,6 0,3.314 10.75,6 24,6 13.25,0 24,-2.686 24,-6   z "  fill-rule="evenodd" stroke="#000000" stroke-width="3" />
<path d="m202.5,28.5   c0,-6.627 -37.61,-12 -84,-12 -46.39,0 -84,5.373 -84,12 0,6.627 37.61,12 84,12 46.39,0 84,-5.373 84,-12   z "  fill-rule="evenodd" stroke="#000000" stroke-width="3" />
<path d="m94.5,280.5 12,-24 24,0 12,24   "  fill-rule="evenodd" stroke="#000000" stroke-width="3" />
</g>
</g>
</g>
</g></g></g></g><g transform="translate(105.59759834886,985) scale(1.2508599662268, 1.2508599662268) ">
<g  fill="#f2f2f2" stroke="#696969" ><path d="m 315.98,158.83 c 97.09,0 195.39,-10.8 224.71,-45.6 -0.91,-8.53 -1.01,-34.226 -2.94,-42.762 25.1,9.565 75.08,-14.853 92.19,-31 -14.57,1.087 -29.57,1.307 -44.82,1.031 10.94,-13.822 27.04,-25.577 32.54,-39.6873 0,0 -26.6,18.7783 -47.91,25.5933 -24.28,7.766 -51.19,9.565 -67.09,16.657 -10.32,4.598 -10.19,13.248 -8.44,16.125 4.89,8.058 9.72,18.437 9.72,18.437 -41.28,17.07 -121.03,26.626 -187.96,26.626 -66.92,0 -146.68,-9.557 -187.95,-26.626 0,0 4.86,-10.379 9.75,-18.437 1.75,-2.877 1.84,-11.527 -8.47,-16.125 C 113.41,35.97 86.496,34.171 62.219,26.405 40.911,19.59 14.344,0.8117 14.344,0.8117 19.838,14.922 35.939,26.677 46.875,40.499 31.629,40.775 16.627,40.555 2.0625,39.468 19.169,55.615 69.152,80.033 94.25,70.468 92.319,79.004 92.191,104.7 91.281,113.23 120.6,148.02 218.9,158.83 315.98,158.83 Z"  fill-rule="evenodd" stroke="#696969" stroke-width="1px" />
<path d="M 127.98,77.598 C 119.59,74.237 93.143,59.906 97.312,52.023 c 2.698,-5.094 12.768,-2.974 21.618,1.092 7.22,3.312 17.17,9.006 19.1,5.31"  fill="#999999" stroke="#696969" stroke-width="1px" />
<path d="m 504.03,77.598 c 8.38,-3.361 34.83,-17.692 30.66,-25.575 -2.69,-5.094 -12.76,-2.974 -21.62,1.092 -7.22,3.312 -17.17,9.006 -19.09,5.31"  fill="#999999" stroke="#696969" stroke-width="1px" />
<path d="m 535.01,52.823 c 0.94,6.018 1.39,11.954 2.82,18.053"  stroke="#696969" stroke-width="1px" />
<g transform="translate(136.20390317886,126.90600370466) rotate(18.00275160831) scale(0.0244140625) translate(-638,-1638)"><g transform="scale(1,-1) translate(0, -1638)"><path   fill="#050505"  d="M479 102h395q49 0 83.5 13.5t57.5 36.5t36 53.5t18 64.5l14 88h107l-14 -358h-1098v86h26q34 0 64.5 4.5t53.5 18.5t36.5 41.5t13.5 72.5v1006q0 48 -13 77t-36 44.5t-53.5 20.5t-65.5 5h-26v86h1032l10 -358h-106l-10 88q-4 34 -15.5 64.5t-33 53.5t-54 36.5t-78.5 13.5 h-344v-545h494v-100h-494v-613z" />
</g></g><g transform="translate(162.5166264082,133.90024592646) rotate(12.248297401536) scale(0.0244140625) translate(-482.5,-1638)"><g transform="scale(1,-1) translate(0, -1638)"><path   fill="#050505"  d="M659 0h-591v86h6q35 0 65.5 5t53 20.5t36 44.5t13.5 77v639q0 45 -13.5 72.5t-36.5 42.5t-53.5 20t-64.5 5h-6v86h315l39 -203h10q20 46 41 86.5t51.5 71t75.5 48t113 17.5q112 0 166.5 -39t54.5 -110q0 -32 -10.5 -59t-33.5 -46.5t-59 -30t-88 -10.5q0 85 -24 122.5 t-84 37.5q-38 0 -68 -21.5t-52.5 -57t-38 -81.5t-25 -94.5t-13.5 -96.5t-4 -87v-322q0 -45 13.5 -72.5t36.5 -41.5t53.5 -18.5t64.5 -4.5h57v-86z" />
</g></g><g transform="translate(177.87751211494,136.90129564216) rotate(9.9485481302611) scale(0.0244140625) translate(-150,-1638)"></g><g transform="translate(196.51671493424,139.7889944257) rotate(7.750457884815) scale(0.0244140625) translate(-628.5,-1638)"><g transform="scale(1,-1) translate(0, -1638)"><path   fill="#050505"  d="M774 1483q105 0 182.5 -17.5t129 -48.5t77 -73t25.5 -91q0 -33 -13.5 -59.5t-37.5 -45t-56.5 -28.5t-70.5 -10q0 48 -12.5 95t-41 84.5t-74 61t-112.5 23.5q-116 0 -197 -42.5t-132 -124t-74 -201t-23 -273.5q0 -137 24 -251t76 -195.5t132.5 -126.5t193.5 -45 q75 0 132.5 14.5t101.5 38.5t77.5 55.5t59.5 65.5q17 -11 28 -30t11 -50q0 -39 -26.5 -79.5t-80.5 -73.5t-137 -54.5t-197 -21.5q-153 0 -269 54t-194.5 153t-118.5 238t-40 308q0 166 42 304t124.5 237t205.5 154t285 55z" />
</g></g><g transform="translate(226.18669278795,143.09321416574) rotate(5.09209265873) scale(0.0244140625) translate(-591,-1638)"><g transform="scale(1,-1) translate(0, -1638)"><path   fill="#050505"  d="M1069 551q0 -289 -122.5 -430t-358.5 -141q-111 0 -199 35t-149.5 106t-94 178.5t-32.5 251.5q0 287 121.5 427t359.5 140q111 0 199 -34.5t149.5 -105t94 -177t32.5 -250.5zM311 551q0 -114 15 -201t48.5 -145.5t87 -88.5t130.5 -30t130 30t86 88.5t47.5 145.5t14.5 201 t-15 200t-48 143.5t-86.5 86.5t-130.5 29t-130 -29t-86 -86.5t-48 -143.5t-15 -200z" />
</g></g><g transform="translate(249.76431674707,144.8421252942) rotate(3.4449982732501) scale(0.0244140625) translate(-378,-1638)"><g transform="scale(1,-1) translate(0, -1638)"><path   fill="#050505"  d="M688 86v-86h-633v86h27q35 0 65.5 5t53 20.5t36 44.5t13.5 77v768h-187v97h187v102q0 92 25 162t72 118t114 72.5t151 24.5q80 0 135 -10.5t88.5 -29.5t48.5 -45t15 -58q0 -28 -12.5 -49.5t-35 -36t-53 -22t-67.5 -7.5q0 31 -6.5 60.5t-22 52.5t-41.5 37t-65 14 q-44 0 -73.5 -17t-47.5 -50.5t-25.5 -82.5t-7.5 -114v-121h289v-97h-289v-768q0 -48 13.5 -77t36 -44.5t53.5 -20.5t65 -5h78z" />
</g></g><g transform="translate(262.69177678939,145.53027261618) rotate(2.6609426829525) scale(0.0244140625) translate(-150,-1638)"></g><g transform="translate(283.98424074553,146.30018044909) rotate(1.5055862494542) scale(0.0244140625) translate(-722,-1638)"><g transform="scale(1,-1) translate(0, -1638)"><path   fill="#050505"  d="M414 489l-78 -215q-9 -24 -14 -47.5t-5 -40.5q0 -52 33.5 -76t102.5 -24h47v-86h-500v86h39q30 0 51 6.5t38 24.5t32.5 49t34.5 80l454 1216h160l463 -1267q12 -32 24.5 -53t29.5 -33.5t39 -17.5t52 -5h27v-86h-563v86h47q123 0 123 98q0 17 -4.5 35t-12.5 41l-82 229 h-538zM788 950q-32 91 -58.5 170.5t-43.5 153.5q-7 -37 -16.5 -71.5t-20.5 -70.5t-25 -75.5t-32 -87.5l-139 -377h462z" />
</g></g><g transform="translate(325.26213112239,146.67667933481) rotate(-0.41402144541662) scale(0.0244140625) translate(-967.5,-1638)"><g transform="scale(1,-1) translate(0, -1638)"><path   fill="#050505"  d="M608 86v-86h-551v86h27q35 0 64 5t50 20.5t32.5 44.5t11.5 77v639q0 45 -12 72.5t-33 42.5t-50 20t-63 5h-6v86h321l27 -166h10q31 57 65 93.5t72.5 57t81 28t90.5 7.5q50 0 95 -10t83.5 -32t69 -57.5t49.5 -86.5h17q31 57 67 93.5t76.5 57t85 28t92.5 7.5 q78 0 140 -23.5t105 -72t66 -124.5t23 -181v-484q0 -48 12 -77t33 -44.5t50 -20.5t63 -5h6v-86h-356v707q0 67 -11.5 119t-37 88t-66.5 54.5t-100 18.5q-64 0 -107.5 -24.5t-70.5 -66.5t-38.5 -97t-11.5 -117v-449q0 -48 12 -77t33 -44.5t50 -20.5t63 -5h6v-86h-356v707 q0 67 -11.5 119t-37 88t-66.5 54.5t-100 18.5q-67 0 -112.5 -27t-73.5 -73t-40 -106t-12 -126v-432q0 -45 13.5 -72.5t36.5 -41.5t53.5 -18.5t64.5 -4.5h6z" />
</g></g><g transform="translate(364.26514710674,145.75041795565) rotate(-2.375201947098) scale(0.0244140625) translate(-628.5,-1638)"><g transform="scale(1,-1) translate(0, -1638)"><path   fill="#050505"  d="M1036 225q0 -45 13.5 -72.5t36.5 -42.5t53.5 -19.5t64.5 -4.5h17v-86h-347l-22 184h-8q-23 -47 -52.5 -84.5t-67.5 -64t-86 -41t-108 -14.5q-101 0 -179 33.5t-131 103t-80 176.5t-27 254q0 148 27 256t80 178t131 103.5t179 33.5q59 0 107 -13t86.5 -37t68.5 -57t52 -73 h12q-3 50 -6 94q-2 38 -4 75.5t-2 55.5v168q0 45 -13.5 72.5t-36.5 42.5t-53.5 19.5t-64.5 4.5h-17v86h377v-1331zM565 111q80 0 133.5 26.5t86 80.5t46 136t13.5 193q0 107 -13.5 189t-46 137.5t-86.5 84.5t-135 29q-67 0 -115 -29t-78.5 -85t-44.5 -138.5t-14 -189.5 q0 -218 59 -326t195 -108z" />
</g></g><g transform="translate(393.67330067467,144.07613210617) rotate(-4.2063725688245) scale(0.0244140625) translate(-576.5,-1638)"><g transform="scale(1,-1) translate(0, -1638)"><path   fill="#050505"  d="M301 297q0 -96 40.5 -143.5t125.5 -47.5q62 0 112.5 20t86 57t54.5 90t19 118v166l-131 -6q-87 -4 -145.5 -21.5t-94.5 -49t-51.5 -77.5t-15.5 -106zM549 1016q-59 0 -95.5 -16.5t-57 -46.5t-27.5 -71t-7 -89q-85 0 -129.5 29t-44.5 100q0 53 29 90t79.5 60.5t117.5 34.5 t143 11q94 0 164 -18.5t117 -60.5t70.5 -109.5t23.5 -165.5v-531q0 -43 7 -71t22 -45t39.5 -24t58.5 -7h6v-86h-277l-32 176h-17q-32 -43 -62 -79t-66 -62t-81.5 -40.5t-109.5 -14.5q-68 0 -126.5 19.5t-101 60t-66.5 102t-24 145.5q0 163 116 242t351 86l170 6v123 q0 55 -6 101.5t-26 80t-57.5 52t-100.5 18.5z" />
</g></g><g transform="translate(423.74382829714,141.26053002659) rotate(-6.6022302172479) scale(0.0244140625) translate(-660.5,-1638)"><g transform="scale(1,-1) translate(0, -1638)"><path   fill="#050505"  d="M608 86v-86h-551v86h17q35 0 65.5 5t53 20.5t36 44.5t13.5 77v639q0 45 -13.5 72.5t-36.5 42.5t-53.5 20t-64.5 5h-6v86h331l27 -166h10q32 57 67.5 93.5t75 57t84 28t93.5 7.5q81 0 144.5 -23.5t108 -72t68 -124.5t23.5 -181v-484q0 -48 11.5 -77t32.5 -44.5t50 -20.5 t63 -5h7v-86h-357v707q0 67 -12 119t-38.5 88t-69.5 54.5t-105 18.5q-70 0 -117.5 -27t-76.5 -73t-41.5 -106t-12.5 -126v-432q0 -45 13.5 -72.5t36.5 -41.5t53.5 -18.5t64.5 -4.5h6z" />
</g></g><g transform="translate(453.89325330394,136.93599819969) rotate(-9.9218747500336) scale(0.0244140625) translate(-591,-1638)"><g transform="scale(1,-1) translate(0, -1638)"><path   fill="#050505"  d="M1069 551q0 -289 -122.5 -430t-358.5 -141q-111 0 -199 35t-149.5 106t-94 178.5t-32.5 251.5q0 287 121.5 427t359.5 140q111 0 199 -34.5t149.5 -105t94 -177t32.5 -250.5zM311 551q0 -114 15 -201t48.5 -145.5t87 -88.5t130.5 -30t130 30t86 88.5t47.5 145.5t14.5 201 t-15 200t-48 143.5t-86.5 86.5t-130.5 29t-130 -29t-86 -86.5t-48 -143.5t-15 -200z" />
</g></g><g transform="translate(477.06530376179,132.15399606867) rotate(-13.620631078213) scale(0.0244140625) translate(-378,-1638)"><g transform="scale(1,-1) translate(0, -1638)"><path   fill="#050505"  d="M688 86v-86h-633v86h27q35 0 65.5 5t53 20.5t36 44.5t13.5 77v768h-187v97h187v102q0 92 25 162t72 118t114 72.5t151 24.5q80 0 135 -10.5t88.5 -29.5t48.5 -45t15 -58q0 -28 -12.5 -49.5t-35 -36t-53 -22t-67.5 -7.5q0 31 -6.5 60.5t-22 52.5t-41.5 37t-65 14 q-44 0 -73.5 -17t-47.5 -50.5t-25.5 -82.5t-7.5 -114v-121h289v-97h-289v-768q0 -48 13.5 -77t36 -44.5t53.5 -20.5t65 -5h78z" />
</g></g><g transform="translate(489.77266070524,128.75962790855) rotate(-16.403088342117) scale(0.0244140625) translate(-150,-1638)"></g><g transform="translate(501.93005687549,124.79173541283) rotate(-19.908438754584) scale(0.0244140625) translate(-376,-1638)"><g transform="scale(1,-1) translate(0, -1638)"><path   fill="#050505"  d="M78 0v86h26q35 0 65.5 5t53.5 20.5t36 44.5t13 77v996q0 48 -13 77t-36 44.5t-53.5 20.5t-65.5 5h-26v86h596v-86h-27q-34 0 -65 -5t-53.5 -20.5t-36 -44.5t-13.5 -77v-996q0 -48 13.5 -77t36 -44.5t53.5 -20.5t65 -5h27v-86h-596z" />
</g></g>
<path d="M 96.992,52.823 94.175,70.876"  fill="none" stroke="#696969" stroke-width="0.731473px" />
</g>

</g>
<defs><mask id="mask7-1" >
<path fill="#FFFFFF" d="m 0,0 v 800 c -2.5063876,43.11115 1.2341419,84.33503 21.489586,125.13639 20.255443,40.80137 53.477613,79.98631 98.039434,115.63581 44.56181,35.6494 100.44867,67.7517 164.92346,94.7345 64.47479,26.9828 137.51639,48.8374 215.54752,64.4933 78.03113,-15.6559 151.07273,-37.5105 215.54752,-64.4933 64.47479,-26.9828 120.36165,-59.0851 164.92346,-94.7345 44.56182,-35.6495 77.78399,-74.83444 98.03943,-115.63581 C 998.76586,884.33503 1000.1453,841.93063 1000,800 V 0 Z" />
</mask>
</defs></g></svg>
