<?xml version="1.0" encoding="utf-8" ?>
    <svg version="1.1"
        baseProfile="full"
        xmlns="http://www.w3.org/2000/svg"
        xmlns:xlink="http://www.w3.org/1999/xlink" 
         xmlns:rdf="http://www.w3.org/1999/02/22-rdf-syntax-ns#"
         xmlns:cc="http://creativecommons.org/ns#"
         xmlns:dc="http://purl.org/dc/elements/1.1/" 
        preserveAspectRatio="xMidYMid meet" height="600" width="500" viewBox="0,0,1000,1200 ">
<metadata>
<rdf:RDF>
      <cc:Work
         rdf:about="">
        <dc:format>image/svg+xml</dc:format>
        <dc:type
           rdf:resource="http://purl.org/dc/dcmitype/StillImage" />
        <dc:rights>
          <cc:Agent>
            <dc:title>This work is licensed under a &lt;a rel=&quot;license&quot; href=&quot;http://creativecommons.org/licenses/by-nc-sa/4.0/&quot;&gt;Creative Commons Attribution-NonCommercial-ShareAlike 4.0 International License&lt;/a&gt;.</dc:title>
          </cc:Agent>
        </dc:rights>
         <dc:creator>
           <cc:Agent>
              <dc:title>heater shape - https://commons.wikimedia.org/wiki/User:MG
</dc:title>
           </cc:Agent>
        </dc:creator>
      </cc:Work>
      </rdf:RDF>
</metadata>
<defs></defs><g ><g mask="url(#mask7-1)"><g><defs><pattern  patternContentUnits="userSpaceOnUse" patternUnits="userSpaceOnUse" x="25" y="0" width="100" height="100" id="pattern6-1" >
<g class="treatment"><g  fill="#E21313"><rect x="0" y="0" width="100" height="100" /></g><g stroke-width="2" stroke="none" ><g  fill="#1E7FCB"><g>
    <rect y="0" x="0" height="50" width="50"/>
    <g transform="scale(0.50132675)">
      <path d="M 0.52929688,100 100,199.46875 V 128.75977 L 71.240234,100 Z"/>
      <path d="M 0,162.75977 V 200 h 37.240234 z"/>
    </g>
    <g transform="matrix(-0.50132675,0,0,-0.50132675,100.26535,100.26535)">
      <path d="M 0.52929688,100 100,199.46875 V 128.75977 L 71.240234,100 Z"/>
      <path d="M 0,162.75977 V 200 h 37.240234 z"/>
    </g>
  </g></g></g></g>
</pattern>
</defs><g  fill="url(#pattern6-1)"><rect x='0' y='0' width='1000' height='1200'><title>Field</title></rect></g></g></g><defs><mask id="mask7-1" >
<path fill="#FFFFFF" d="m 0,0 v 800 c -2.5063876,43.11115 1.2341419,84.33503 21.489586,125.13639 20.255443,40.80137 53.477613,79.98631 98.039434,115.63581 44.56181,35.6494 100.44867,67.7517 164.92346,94.7345 64.47479,26.9828 137.51639,48.8374 215.54752,64.4933 78.03113,-15.6559 151.07273,-37.5105 215.54752,-64.4933 64.47479,-26.9828 120.36165,-59.0851 164.92346,-94.7345 44.56182,-35.6495 77.78399,-74.83444 98.03943,-115.63581 C 998.76586,884.33503 1000.1453,841.93063 1000,800 V 0 Z" />
</mask>
</defs></g></svg>
