<?xml version="1.0" encoding="utf-8" ?>
    <svg version="1.1"
        baseProfile="full"
        xmlns="http://www.w3.org/2000/svg"
        xmlns:xlink="http://www.w3.org/1999/xlink" 
         xmlns:rdf="http://www.w3.org/1999/02/22-rdf-syntax-ns#"
         xmlns:cc="http://creativecommons.org/ns#"
         xmlns:dc="http://purl.org/dc/elements/1.1/" 
        preserveAspectRatio="xMidYMid meet" height="600" width="500" viewBox="0,0,1000,1200 ">
<metadata>
<rdf:RDF>
      <cc:Work
         rdf:about="">
        <dc:format>image/svg+xml</dc:format>
        <dc:type
           rdf:resource="http://purl.org/dc/dcmitype/StillImage" />
        <dc:rights>
          <cc:Agent>
            <dc:title>This work is licensed under a &lt;a rel=&quot;license&quot; href=&quot;http://creativecommons.org/licenses/by-nc-sa/4.0/&quot;&gt;Creative Commons Attribution-NonCommercial-ShareAlike 4.0 International License&lt;/a&gt;.</dc:title>
          </cc:Agent>
        </dc:rights>
         <dc:creator>
           <cc:Agent>
              <dc:title>wolf/wildlife - http://heraldicart.org Wolf Sejant (1).svg
ship/ship - commons.wikimedia.org by Moktoipas
heater shape - https://commons.wikimedia.org/wiki/User:MG
</dc:title>
           </cc:Agent>
        </dc:creator>
      </cc:Work>
      </rdf:RDF>
</metadata>
<defs></defs><g ><g mask="url(#mask9-1)"><g><g><title>per-pale</title><desc>Division used to fill field</desc><g stroke-width="4" stroke="none" ><defs><pattern  patternContentUnits="userSpaceOnUse" patternUnits="userSpaceOnUse" x="0" y="0" width="222" height="400" id="pattern8-1" >
<g class="fur">        <polygon points="0,0 222,0 222,400 0,400" fill="#F0F0F0"/>
        <g stroke-width="2" stroke="none" fill="#050505">
            <circle r="10" cx="55" cy="30"/>
            <circle r="10" cx="36" cy="55"/>
            <circle r="10" cx="74" cy="55"/>
            <path d="M 53 60 A 50 210 0 0,1 10,180 A 60 40 0 0,0 45,170 A 30 40 0, 0,0 55 200 A 30 40 0, 0,0 62,170 A 60 40 0 0,0 101, 180 A 50 210 0 0,1 57 60 Z"/>
        </g>
        <g stroke-width="2" stroke="none" transform="translate(111,200)" fill="#050505">
            <circle r="10" cx="55" cy="30"/>
            <circle r="10" cx="36" cy="55"/>
            <circle r="10" cx="74" cy="55"/>
            <path d="M 53 60 A 50 210 0 0,1 10,180 A 60 40 0 0,0 45,170 A 30 40 0, 0,0 55 200 A 30 40 0, 0,0 62,170 A 60 40 0 0,0 101, 180 A 50 210 0 0,1 57 60 Z"/>
        </g></g>
</pattern>
</defs><g  fill="url(#pattern8-1)"><rect x='-100' y='-100' width='1200' height='1400' /></g>
<g  fill="#E21313"><path fill-rule="evenodd" d="M500,0h500 v1200   h-500.000   v-1200.000  z" /></g></g></g><g transform='translate(0,0)'><g  fill="#F0F0F0"><g class="PlaceCharge" transform=" translate(550,50) scale(1.5250876925423, 1.2771799865896) " >
<title>a wolf</title><g stroke-opacity="1" stroke-dasharray="none"  stroke="#000000" fill-opacity="1"  transform="translate(-51.045,-82.25)"  ><g  ><g  ><g  ><path d="m 108.95,332.57 c -7.41,2.36 -15.473,1.41 -22.129,-2.61 -3.493,-0.58 -7.038,0.69 -9.353,3.37 -2.315,2.68 -3.064,6.38 -1.976,9.75 0.574,2.36 2.727,3.98 5.151,3.89 2.424,-0.1 4.448,-1.87 4.843,-4.27 8.712,-0.75 16.944,-4.3 23.464,-10.13 z"  />
<path d="m 108.95,332.57 c -7.41,2.36 -15.473,1.41 -22.129,-2.61 -3.493,-0.58 -7.038,0.69 -9.353,3.37 -2.315,2.68 -3.064,6.38 -1.976,9.75 0.574,2.36 2.727,3.98 5.151,3.89 2.424,-0.1 4.448,-1.87 4.843,-4.27 8.712,-0.75 16.944,-4.3 23.464,-10.13 z"  stroke="#000000" stroke-linecap="round" stroke-linejoin="round"  stroke-width="2"  />
</g>
<g  ><path d="m 98.811,334.05 c -4.14,-1.35 -8.684,-0.51 -12.068,2.23 -3.383,2.74 -5.143,7.02 -4.673,11.35 1.53,2.73 4.936,3.77 7.73,2.36 -0.386,-1.87 -0.19,-3.82 0.562,-5.58 1.039,-4.58 4.166,-8.42 8.449,-10.36 z"  />
<path d="m 98.811,334.05 c -4.14,-1.35 -8.684,-0.51 -12.068,2.23 -3.383,2.74 -5.143,7.02 -4.673,11.35 1.53,2.73 4.936,3.77 7.73,2.36 -0.386,-1.87 -0.19,-3.82 0.562,-5.58 1.039,-4.58 4.166,-8.42 8.449,-10.36 z"  stroke="#000000" stroke-linecap="round" stroke-linejoin="round"  stroke-width="2"  />
</g>
<g  ><path d="m 101.41,351.72 c -1.553,-3.46 -0.5,-7.53 2.53,-9.81 -2.89,2.37 -3.92,6.34 -2.53,9.81 3.83,3.43 9.37,4.19 13.98,1.9 1.82,-1.32 3.16,-3.19 3.83,-5.34 0.87,-2.32 2.74,-4.12 5.08,-4.91 1.32,0.2 2.65,-0.28 3.56,-1.26 0.91,-0.98 1.27,-2.35 0.97,-3.65 2.31,-5.67 2.42,-12 0.31,-17.74 2.89,0.32 5.42,2.08 6.72,4.68 1.3,2.6 1.19,5.69 -0.29,8.19 3.91,-3.4 6.19,-8.3 6.28,-13.48 0.1,-5.18 -2.02,-10.16 -5.81,-13.69 4.93,-1.44 10.09,1.38 11.53,6.31 0.3,-7.53 -2.6,-14.83 -7.97,-20.12 5.51,0.58 10.4,3.76 13.17,8.56 -0.91,-7.86 -4.17,-15.26 -9.34,-21.24 0.89,-4.4 1.61,-8.83 2.18,-13.28 v 0 l 3.66,-39.95 c -1.34,-8.09 -6.74,-14.93 -14.3,-18.11 -7.57,-3.18 -16.23,-2.25 -22.95,2.45 -9.17,11.27 -11.09,25.68 -5.19,38.95 l -0.4,0.13 c 0.49,1.18 0.86,2.4 1.12,3.65 1.55,7.96 4.22,15.66 7.92,22.88 0.37,2.47 -0.1,4.99 -1.23,7.19 -3.13,9.45 -4.06,19.49 -2.73,29.35 -0.34,5.45 -1.37,10.84 -3.06,16.03 -0.56,1.97 -1.93,3.62 -3.76,4.53 -1.84,0.92 -3.97,1.03 -5.887,0.29 -4.273,1.95 -7.399,5.77 -8.459,10.35 -0.725,1.72 -0.917,3.62 -0.549,5.45 2.852,3.45 7.818,4.24 11.605,1.87 z"  />
<path d="m 101.41,351.72 c -1.553,-3.46 -0.5,-7.53 2.53,-9.81 -2.89,2.37 -3.92,6.34 -2.53,9.81 3.83,3.43 9.37,4.19 13.98,1.9 1.82,-1.32 3.16,-3.19 3.83,-5.34 0.87,-2.32 2.74,-4.12 5.08,-4.91 1.32,0.2 2.65,-0.28 3.56,-1.26 0.91,-0.98 1.27,-2.35 0.97,-3.65 2.31,-5.67 2.42,-12 0.31,-17.74 2.89,0.32 5.42,2.08 6.72,4.68 1.3,2.6 1.19,5.69 -0.29,8.19 3.91,-3.4 6.19,-8.3 6.28,-13.48 0.1,-5.18 -2.02,-10.16 -5.81,-13.69 4.93,-1.44 10.09,1.38 11.53,6.31 0.3,-7.53 -2.6,-14.83 -7.97,-20.12 5.51,0.58 10.4,3.76 13.17,8.56 -0.91,-7.86 -4.17,-15.26 -9.34,-21.24 0.89,-4.4 1.61,-8.83 2.18,-13.28 v 0 l 3.66,-39.95 c -1.34,-8.09 -6.74,-14.93 -14.3,-18.11 -7.57,-3.18 -16.23,-2.25 -22.95,2.45 -9.17,11.27 -11.09,25.68 -5.19,38.95 l -0.4,0.13 c 0.49,1.18 0.86,2.4 1.12,3.65 1.55,7.96 4.22,15.66 7.92,22.88 0.37,2.47 -0.1,4.99 -1.23,7.19 -3.13,9.45 -4.06,19.49 -2.73,29.35 -0.34,5.45 -1.37,10.84 -3.06,16.03 -0.56,1.97 -1.93,3.62 -3.76,4.53 -1.84,0.92 -3.97,1.03 -5.887,0.29 -4.273,1.95 -7.399,5.77 -8.459,10.35 -0.725,1.72 -0.917,3.62 -0.549,5.45 2.852,3.45 7.818,4.24 11.605,1.87 z"  stroke="#000000" stroke-linecap="round" stroke-linejoin="round"  stroke-width="2"  />
</g>
<g  ><g  ><path d="m 97.926,361.77 c -0.214,-6.21 4.034,-11.87 10.294,-13.72 1.31,0 2.49,0.7 3.1,1.79 0.6,1.1 0.53,2.43 -0.18,3.5 -0.71,1.06 -1.96,1.7 -3.27,1.65 -4.39,0.18 -8.311,2.85 -9.944,6.78 z"  />
</g>
<path d="m 97.926,361.77 c -0.214,-6.21 4.034,-11.87 10.294,-13.72 1.31,0 2.49,0.7 3.1,1.79 0.6,1.1 0.53,2.43 -0.18,3.5 -0.71,1.06 -1.96,1.7 -3.27,1.65 -4.39,0.18 -8.311,2.85 -9.944,6.78 z"  stroke="#000000" stroke-linecap="round" stroke-linejoin="round"  stroke-width="1.5"  />
</g>
<g  ><path d="m 118.56,330.51 c 4.25,-13.52 7.28,-27.38 9.04,-41.44"  stroke="#000000" stroke-linecap="round" stroke-linejoin="round"  stroke-width="1.5"  />
</g>
<g  ><path d="m 279.08,320.37 c -1.23,2.9 -3.64,4.82 -6.53,5.19 -2.81,0.1 -5.11,2.11 -5.86,5.12 -0.75,3.01 0.2,6.45 2.41,8.75 2.21,2.31 5.26,3.04 7.77,1.87 3.7,-0.37 7.1,-1.93 9.84,-4.52 7.22,-5.82 16.27,-8.37 25.62,-7.2 -3.92,-6.53 -11.28,-8.99 -16.81,-5.63 4.19,-4.67 6,-11.56 4.91,-18.64 0,-7.31 2.73,-13.93 7.55,-18.15 -7.74,-0.84 -14.43,4.3 -16.36,12.56 2.08,-9.19 -0.73,-19.53 -7.26,-26.7 -3.81,-6.07 -5.03,-13.34 -3.29,-19.63 1.73,-6.29 6.23,-10.86 12.12,-12.35 -5.38,-3.72 -12.03,-4.23 -16.78,-1.29 -4.75,2.94 -6.65,8.75 -4.81,14.67 -8.75,-15.56 -5.56,-34.29 7.18,-42.21 -11.24,-4.09 -22.22,1.18 -25.48,12.21 -4.38,-15.25 -2.53,-30.6 5.11,-42.3 -13.86,-0.16 -23.96,9.54 -23.5,22.57 -7.67,-17.17 -5.17,-35.87 6.26,-47.02 -14.77,-4.19 -28.45,3.86 -31.97,18.8 -3.93,13.47 -2.14,29 4.95,42.96 7.09,13.95 18.86,25.11 32.55,30.85 23.22,13.43 36.75,42.73 32.38,70.09 z"  />
<path d="m 279.08,320.37 c -1.23,2.9 -3.64,4.82 -6.53,5.19 -2.81,0.1 -5.11,2.11 -5.86,5.12 -0.75,3.01 0.2,6.45 2.41,8.75 2.21,2.31 5.26,3.04 7.77,1.87 3.7,-0.37 7.1,-1.93 9.84,-4.52 7.22,-5.82 16.27,-8.37 25.62,-7.2 -3.92,-6.53 -11.28,-8.99 -16.81,-5.63 4.19,-4.67 6,-11.56 4.91,-18.64 0,-7.31 2.73,-13.93 7.55,-18.15 -7.74,-0.84 -14.43,4.3 -16.36,12.56 2.08,-9.19 -0.73,-19.53 -7.26,-26.7 -3.81,-6.07 -5.03,-13.34 -3.29,-19.63 1.73,-6.29 6.23,-10.86 12.12,-12.35 -5.38,-3.72 -12.03,-4.23 -16.78,-1.29 -4.75,2.94 -6.65,8.75 -4.81,14.67 -8.75,-15.56 -5.56,-34.29 7.18,-42.21 -11.24,-4.09 -22.22,1.18 -25.48,12.21 -4.38,-15.25 -2.53,-30.6 5.11,-42.3 -13.86,-0.16 -23.96,9.54 -23.5,22.57 -7.67,-17.17 -5.17,-35.87 6.26,-47.02 -14.77,-4.19 -28.45,3.86 -31.97,18.8 -3.93,13.47 -2.14,29 4.95,42.96 7.09,13.95 18.86,25.11 32.55,30.85 23.22,13.43 36.75,42.73 32.38,70.09 z"  stroke="#000000" stroke-linecap="round" stroke-linejoin="round"  stroke-width="2"  />
</g>
<g  ><path d="m 252.98,316.42 c -8.62,-16.42 -29.25,-26.33 -49.24,-23.64 -4.35,1.49 -7.84,4.8 -9.57,9.06 -1.73,4.27 -1.51,9.08 0.58,13.18 2.02,2.6 3.78,5.38 5.28,8.32 1,2.96 1.65,6.03 1.93,9.14 0.47,4.5 3.18,8.46 7.21,10.54 4.67,4.75 10.11,8.69 16.09,11.64 -14.84,1.41 -29.75,1.87 -44.64,1.39 -2.57,-2.26 -6.34,-2.48 -9.16,-0.55 -2.92,2.01 -5.22,4.79 -6.65,8.04 -1.18,2.17 -0.69,4.87 1.17,6.5 1.86,1.62 4.6,1.75 6.6,0.29 -0.39,-5.93 2.91,-11.5 8.31,-14 -5.23,2.69 -8.45,8.13 -8.31,14 0.35,1.82 1.76,3.25 3.58,3.63 1.81,0.38 3.68,-0.37 4.73,-1.9 -1.51,-4.49 0.66,-9.38 4.99,-11.29 -4.21,2.03 -6.32,6.81 -4.99,11.29 0.45,2.94 3.19,4.95 6.13,4.52 2.93,-0.44 4.96,-3.17 4.54,-6.11 -0.45,-0.88 -0.75,-1.83 -0.88,-2.82 0.81,-2.18 2.29,-4.06 4.22,-5.36 -1.82,1.42 -3.27,3.26 -4.22,5.36 0.21,1.03 0.66,2 1.31,2.82 3,-0.95 6.05,-1.73 9.14,-2.35 1.43,1.52 1.43,3.89 0,5.4 4.03,-0.47 7.56,-2.95 9.35,-6.6 1.04,2.31 1.07,4.96 0.1,7.29 3.83,-1.41 7.28,-3.68 10.1,-6.63 1.1,2.21 0.95,4.84 -0.39,6.91 3.94,-1.21 7.58,-3.24 10.67,-5.96 5.13,1.71 10.57,2.28 15.94,1.66 3.98,-3.26 6.23,-8.17 6.11,-13.31 -2.62,-3.91 -2.79,-8.97 -0.42,-13.03 3.89,-8.7 4.04,-18.62 0.41,-27.43 z"  />
<path d="m 252.98,316.42 c -8.62,-16.42 -29.25,-26.33 -49.24,-23.64 -4.35,1.49 -7.84,4.8 -9.57,9.06 -1.73,4.27 -1.51,9.08 0.58,13.18 2.02,2.6 3.78,5.38 5.28,8.32 1,2.96 1.65,6.03 1.93,9.14 0.47,4.5 3.18,8.46 7.21,10.54 4.67,4.75 10.11,8.69 16.09,11.64 -14.84,1.41 -29.75,1.87 -44.64,1.39 -2.57,-2.26 -6.34,-2.48 -9.16,-0.55 -2.92,2.01 -5.22,4.79 -6.65,8.04 -1.18,2.17 -0.69,4.87 1.17,6.5 1.86,1.62 4.6,1.75 6.6,0.29 -0.39,-5.93 2.91,-11.5 8.31,-14 -5.23,2.69 -8.45,8.13 -8.31,14 0.35,1.82 1.76,3.25 3.58,3.63 1.81,0.38 3.68,-0.37 4.73,-1.9 -1.51,-4.49 0.66,-9.38 4.99,-11.29 -4.21,2.03 -6.32,6.81 -4.99,11.29 0.45,2.94 3.19,4.95 6.13,4.52 2.93,-0.44 4.96,-3.17 4.54,-6.11 -0.45,-0.88 -0.75,-1.83 -0.88,-2.82 0.81,-2.18 2.29,-4.06 4.22,-5.36 -1.82,1.42 -3.27,3.26 -4.22,5.36 0.21,1.03 0.66,2 1.31,2.82 3,-0.95 6.05,-1.73 9.14,-2.35 1.43,1.52 1.43,3.89 0,5.4 4.03,-0.47 7.56,-2.95 9.35,-6.6 1.04,2.31 1.07,4.96 0.1,7.29 3.83,-1.41 7.28,-3.68 10.1,-6.63 1.1,2.21 0.95,4.84 -0.39,6.91 3.94,-1.21 7.58,-3.24 10.67,-5.96 5.13,1.71 10.57,2.28 15.94,1.66 3.98,-3.26 6.23,-8.17 6.11,-13.31 -2.62,-3.91 -2.79,-8.97 -0.42,-13.03 3.89,-8.7 4.04,-18.62 0.41,-27.43 z"  stroke="#000000" stroke-linecap="round" stroke-linejoin="round"  stroke-width="2"  />
</g>
<g  ><g  ><path d="m 226.21,307.03 c -0.88,2.52 -3.38,3.93 -6,3.38 -2.63,-0.54 -4.67,-2.9 -4.92,-5.66 -5.61,-3.92 -12.06,-6.16 -18.58,-6.44 5.68,-5.1 13.89,-6.15 21.17,-2.69 1.76,-2.02 4.58,-2.65 7.18,-1.6 2.59,1.06 4.44,3.59 4.69,6.43 0.25,2.84 -1.14,5.43 -3.54,6.58 z"  />
</g>
<path d="m 226.21,307.03 c -0.88,2.52 -3.38,3.93 -6,3.38 -2.63,-0.54 -4.67,-2.9 -4.92,-5.66 -5.61,-3.92 -12.06,-6.16 -18.58,-6.44 5.68,-5.1 13.89,-6.15 21.17,-2.69 1.76,-2.02 4.58,-2.65 7.18,-1.6 2.59,1.06 4.44,3.59 4.69,6.43 0.25,2.84 -1.14,5.43 -3.54,6.58 z"  stroke="#000000" stroke-linecap="round" stroke-linejoin="round"  stroke-width="2.16"  />
</g>
<g  ><path d="m 127.8,356.2 c -7.37,2.48 -15.45,1.67 -22.18,-2.23 -3.5,-0.53 -7.023,0.81 -9.291,3.54 -2.268,2.72 -2.952,6.42 -1.805,9.77 0.615,2.35 2.796,3.94 5.218,3.81 2.418,-0.14 4.418,-1.96 4.768,-4.36 8.7,-0.9 16.87,-4.6 23.29,-10.53 z"  />
<path d="m 127.8,356.2 c -7.37,2.48 -15.45,1.67 -22.18,-2.23 -3.5,-0.53 -7.023,0.81 -9.291,3.54 -2.268,2.72 -2.952,6.42 -1.805,9.77 0.615,2.35 2.796,3.94 5.218,3.81 2.418,-0.14 4.418,-1.96 4.768,-4.36 8.7,-0.9 16.87,-4.6 23.29,-10.53 z"  stroke="#000000" stroke-linecap="round" stroke-linejoin="round"  stroke-width="2"  />
</g>
<g  ><path d="m 117.68,357.85 c -4.16,-1.28 -8.69,-0.36 -12.03,2.44 -3.33,2.8 -5.02,7.1 -4.47,11.43 1.58,2.7 5,3.68 7.77,2.22 -0.42,-1.86 -0.26,-3.81 0.46,-5.59 0.96,-4.6 4.02,-8.49 8.27,-10.5 z"  />
<path d="m 117.68,357.85 c -4.16,-1.28 -8.69,-0.36 -12.03,2.44 -3.33,2.8 -5.02,7.1 -4.47,11.43 1.58,2.7 5,3.68 7.77,2.22 -0.42,-1.86 -0.26,-3.81 0.46,-5.59 0.96,-4.6 4.02,-8.49 8.27,-10.5 z"  stroke="#000000" stroke-linecap="round" stroke-linejoin="round"  stroke-width="2"  />
</g>
<g  ><path d="m 175.68,172.58 c 3.87,2.78 8.65,3.53 12.85,2.02 4.19,-1.51 7.29,-5.09 8.33,-9.64 -8.36,2.54 -17.65,0.69 -25.07,-4.99 -7.42,-5.68 -12.11,-14.54 -12.65,-23.9 -6.65,-1.35 -13.57,0.15 -19.07,4.15 -5.49,3.99 -9.06,10.11 -9.82,16.86 -3.92,6.51 -7.36,13.34 -10.29,20.43 0,0.14 0,0.29 0,0.44 -7.51,-3.1 -16.2,0.2 -20.576,7.8 5.756,-2.29 12.026,-2.39 17.756,-0.27 -12.75,2.35 -21.848,14.51 -21.43,28.64 1.877,-7.12 7.92,-11.86 14.96,-11.74 -7.69,9.86 -11.041,22.43 -9.28,34.81 1.77,12.38 8.49,23.51 18.63,30.83 2.48,2.64 4.2,5.89 5,9.42 1.69,7.94 4.49,15.59 8.32,22.74 0.42,2.46 0,4.99 -1.11,7.21 -2.97,9.5 -3.73,19.55 -2.22,29.39 -0.25,5.46 -1.18,10.86 -2.78,16.08 -0.53,1.98 -1.86,3.65 -3.68,4.6 -1.82,0.95 -3.95,1.09 -5.88,0.4 -4.24,2.02 -7.29,5.9 -8.27,10.49 -0.69,1.73 -0.86,3.62 -0.46,5.44 2.91,3.41 7.9,4.12 11.65,1.67 -1.62,-3.43 -0.64,-7.52 2.35,-9.85 -2.85,2.42 -3.8,6.41 -2.35,9.85 3.88,3.36 9.43,4.02 13.99,1.66 1.8,-1.34 3.12,-3.24 3.75,-5.4 0.83,-2.33 2.66,-4.16 4.99,-4.99 1.33,0.16 2.65,-0.33 3.53,-1.33 0.89,-1 1.23,-2.37 0.9,-3.67 2.22,-5.7 2.22,-12.03 0,-17.74 2.9,0.27 5.46,1.99 6.8,4.57 1.35,2.57 1.29,5.65 -0.14,8.18 3.85,-3.47 6.04,-8.4 6.04,-13.58 0,-5.18 -2.19,-10.12 -6.04,-13.59 2.35,-0.73 4.9,-0.5 7.09,0.64 2.18,1.14 3.82,3.11 4.56,5.46 0.16,-7.53 -2.86,-14.78 -8.32,-19.96 5.51,0.48 10.46,3.57 13.31,8.32 -1.05,-7.84 -4.44,-15.18 -9.71,-21.07 0.8,-4.42 1.45,-8.86 1.94,-13.32 7.65,1.59 13.54,7.7 14.84,15.39 2.99,-4.65 2.77,-10.68 -0.55,-15.1 5.51,2.12 9.55,6.94 10.67,12.75 3.31,-3.79 3.76,-9.31 1.11,-13.59 5.92,4.3 13.29,6.09 20.52,4.99 4.65,0.75 8.93,2.99 12.2,6.38 -4.1,1.66 -7.13,5.21 -8.12,9.51 -1,4.31 0.17,8.83 3.13,12.12 2.01,2.6 3.77,5.38 5.26,8.32 1.01,2.96 1.66,6.02 1.95,9.14 0.47,4.5 3.18,8.46 7.2,10.54 4.67,4.75 10.11,8.69 16.08,11.64 -13.67,1.38 -27.43,1.89 -41.17,1.53 -3.49,-3.23 -8.79,-3.52 -12.61,-0.69 -2.92,2.01 -5.23,4.79 -6.66,8.04 -1.16,2.17 -0.67,4.86 1.18,6.48 1.85,1.62 4.58,1.75 6.58,0.31 0.62,-6.62 5.25,-12.19 11.65,-14 -6.25,2.05 -10.77,7.49 -11.65,14 0.35,1.83 1.77,3.26 3.59,3.64 1.82,0.38 3.68,-0.37 4.73,-1.91 -1.5,-4.49 0.66,-9.38 5,-11.29 -4.21,2.03 -6.32,6.81 -5,11.29 0.46,2.94 3.2,4.95 6.13,4.52 2.94,-0.44 4.97,-3.17 4.55,-6.11 -0.46,-0.88 -0.76,-1.83 -0.89,-2.82 -0.28,-1.38 -0.12,-2.82 0.47,-4.11 -0.49,1.31 -0.65,2.72 -0.47,4.11 0.21,1.03 0.65,2 1.3,2.82 3.01,-0.95 6.06,-1.73 9.15,-2.35 1.43,1.52 1.43,3.89 0,5.4 4.04,-0.47 7.56,-2.95 9.35,-6.6 1.04,2.31 1.07,4.96 0.1,7.29 3.82,-1.41 7.28,-3.68 10.09,-6.63 1.11,2.21 0.96,4.84 -0.39,6.91 3.94,-1.21 7.58,-3.24 10.68,-5.96 5.13,1.71 10.57,2.28 15.95,1.66 3.97,-3.26 6.22,-8.17 6.09,-13.31 -1.98,-2.95 -2.59,-6.62 -1.66,-10.05 3.06,-10.04 3.63,-20.67 1.66,-30.98 -8.27,-42.76 -38.05,-78.2 -78.74,-93.73 -9.02,-3.11 -16.26,-10.12 -19.41,-18.82 7.82,2.18 16.03,-0.56 20.26,-6.76 -10.4,2.58 -21.18,-2.57 -25.15,-12 3.53,3.53 8.81,4.97 13.59,3.73 4.79,-1.25 8.25,-4.97 8.92,-9.59 -2.72,2.46 -6.88,2.96 -10.46,1.26 -3.57,-1.7 -5.83,-5.24 -5.66,-8.91 -0.51,-2.03 -1.54,-3.94 -2.98,-5.52 -0.82,-0.59 -1.58,-1.25 -2.28,-1.99 0.83,0.57 1.6,1.24 2.28,1.99 z"  />
<path d="m 175.68,172.58 c 3.87,2.78 8.65,3.53 12.85,2.02 4.19,-1.51 7.29,-5.09 8.33,-9.64 -8.36,2.54 -17.65,0.69 -25.07,-4.99 -7.42,-5.68 -12.11,-14.54 -12.65,-23.9 -6.65,-1.35 -13.57,0.15 -19.07,4.15 -5.49,3.99 -9.06,10.11 -9.82,16.86 -3.92,6.51 -7.36,13.34 -10.29,20.43 0,0.14 0,0.29 0,0.44 -7.51,-3.1 -16.2,0.2 -20.576,7.8 5.756,-2.29 12.026,-2.39 17.756,-0.27 -12.75,2.35 -21.848,14.51 -21.43,28.64 1.877,-7.12 7.92,-11.86 14.96,-11.74 -7.69,9.86 -11.041,22.43 -9.28,34.81 1.77,12.38 8.49,23.51 18.63,30.83 2.48,2.64 4.2,5.89 5,9.42 1.69,7.94 4.49,15.59 8.32,22.74 0.42,2.46 0,4.99 -1.11,7.21 -2.97,9.5 -3.73,19.55 -2.22,29.39 -0.25,5.46 -1.18,10.86 -2.78,16.08 -0.53,1.98 -1.86,3.65 -3.68,4.6 -1.82,0.95 -3.95,1.09 -5.88,0.4 -4.24,2.02 -7.29,5.9 -8.27,10.49 -0.69,1.73 -0.86,3.62 -0.46,5.44 2.91,3.41 7.9,4.12 11.65,1.67 -1.62,-3.43 -0.64,-7.52 2.35,-9.85 -2.85,2.42 -3.8,6.41 -2.35,9.85 3.88,3.36 9.43,4.02 13.99,1.66 1.8,-1.34 3.12,-3.24 3.75,-5.4 0.83,-2.33 2.66,-4.16 4.99,-4.99 1.33,0.16 2.65,-0.33 3.53,-1.33 0.89,-1 1.23,-2.37 0.9,-3.67 2.22,-5.7 2.22,-12.03 0,-17.74 2.9,0.27 5.46,1.99 6.8,4.57 1.35,2.57 1.29,5.65 -0.14,8.18 3.85,-3.47 6.04,-8.4 6.04,-13.58 0,-5.18 -2.19,-10.12 -6.04,-13.59 2.35,-0.73 4.9,-0.5 7.09,0.64 2.18,1.14 3.82,3.11 4.56,5.46 0.16,-7.53 -2.86,-14.78 -8.32,-19.96 5.51,0.48 10.46,3.57 13.31,8.32 -1.05,-7.84 -4.44,-15.18 -9.71,-21.07 0.8,-4.42 1.45,-8.86 1.94,-13.32 7.65,1.59 13.54,7.7 14.84,15.39 2.99,-4.65 2.77,-10.68 -0.55,-15.1 5.51,2.12 9.55,6.94 10.67,12.75 3.31,-3.79 3.76,-9.31 1.11,-13.59 5.92,4.3 13.29,6.09 20.52,4.99 4.65,0.75 8.93,2.99 12.2,6.38 -4.1,1.66 -7.13,5.21 -8.12,9.51 -1,4.31 0.17,8.83 3.13,12.12 2.01,2.6 3.77,5.38 5.26,8.32 1.01,2.96 1.66,6.02 1.95,9.14 0.47,4.5 3.18,8.46 7.2,10.54 4.67,4.75 10.11,8.69 16.08,11.64 -13.67,1.38 -27.43,1.89 -41.17,1.53 -3.49,-3.23 -8.79,-3.52 -12.61,-0.69 -2.92,2.01 -5.23,4.79 -6.66,8.04 -1.16,2.17 -0.67,4.86 1.18,6.48 1.85,1.62 4.58,1.75 6.58,0.31 0.62,-6.62 5.25,-12.19 11.65,-14 -6.25,2.05 -10.77,7.49 -11.65,14 0.35,1.83 1.77,3.26 3.59,3.64 1.82,0.38 3.68,-0.37 4.73,-1.91 -1.5,-4.49 0.66,-9.38 5,-11.29 -4.21,2.03 -6.32,6.81 -5,11.29 0.46,2.94 3.2,4.95 6.13,4.52 2.94,-0.44 4.97,-3.17 4.55,-6.11 -0.46,-0.88 -0.76,-1.83 -0.89,-2.82 -0.28,-1.38 -0.12,-2.82 0.47,-4.11 -0.49,1.31 -0.65,2.72 -0.47,4.11 0.21,1.03 0.65,2 1.3,2.82 3.01,-0.95 6.06,-1.73 9.15,-2.35 1.43,1.52 1.43,3.89 0,5.4 4.04,-0.47 7.56,-2.95 9.35,-6.6 1.04,2.31 1.07,4.96 0.1,7.29 3.82,-1.41 7.28,-3.68 10.09,-6.63 1.11,2.21 0.96,4.84 -0.39,6.91 3.94,-1.21 7.58,-3.24 10.68,-5.96 5.13,1.71 10.57,2.28 15.95,1.66 3.97,-3.26 6.22,-8.17 6.09,-13.31 -1.98,-2.95 -2.59,-6.62 -1.66,-10.05 3.06,-10.04 3.63,-20.67 1.66,-30.98 -8.27,-42.76 -38.05,-78.2 -78.74,-93.73 -9.02,-3.11 -16.26,-10.12 -19.41,-18.82 7.82,2.18 16.03,-0.56 20.26,-6.76 -10.4,2.58 -21.18,-2.57 -25.15,-12 3.53,3.53 8.81,4.97 13.59,3.73 4.79,-1.25 8.25,-4.97 8.92,-9.59 -2.72,2.46 -6.88,2.96 -10.46,1.26 -3.57,-1.7 -5.83,-5.24 -5.66,-8.91 -0.51,-2.03 -1.54,-3.94 -2.98,-5.52 -0.82,-0.59 -1.58,-1.25 -2.28,-1.99 0.83,0.57 1.6,1.24 2.28,1.99 z"  stroke="#000000" stroke-linecap="round" stroke-linejoin="round"  stroke-width="2"  />
</g>
<g  ><g  ><g  ><path d="m 64.644,345.11 c 1.401,-6.06 6.966,-10.43 13.5,-10.6 1.259,0.36 2.222,1.33 2.521,2.54 0.3,1.21 -0.111,2.49 -1.074,3.33 -0.964,0.85 -2.332,1.13 -3.583,0.75 -4.29,-0.97 -8.77,0.6 -11.364,3.98 z"  />
</g>
<path d="m 64.644,345.11 c 1.401,-6.06 6.966,-10.43 13.5,-10.6 1.259,0.36 2.222,1.33 2.521,2.54 0.3,1.21 -0.111,2.49 -1.074,3.33 -0.964,0.85 -2.332,1.13 -3.583,0.75 -4.29,-0.97 -8.77,0.6 -11.364,3.98 z"  stroke="#000000" stroke-linecap="round" stroke-linejoin="round"  stroke-width="1.5"  />
</g>
<g  ><g  ><path d="m 70.325,353.25 c 1.401,-6.06 6.967,-10.42 13.501,-10.59 1.259,0.35 2.221,1.32 2.521,2.53 0.299,1.22 -0.111,2.49 -1.075,3.33 -0.963,0.85 -2.332,1.13 -3.583,0.76 -4.29,-0.97 -8.769,0.59 -11.364,3.97 z"  />
</g>
<path d="m 70.325,353.25 c 1.401,-6.06 6.967,-10.42 13.501,-10.59 1.259,0.35 2.221,1.32 2.521,2.53 0.299,1.22 -0.111,2.49 -1.075,3.33 -0.963,0.85 -2.332,1.13 -3.583,0.76 -4.29,-0.97 -8.769,0.59 -11.364,3.97 z"  stroke="#000000" stroke-linecap="round" stroke-linejoin="round"  stroke-width="1.5"  />
</g>
<g  ><g  ><path d="m 84.371,359.07 c -0.214,-6.21 4.032,-11.87 10.299,-13.73 1.308,0 2.489,0.71 3.092,1.8 0.603,1.1 0.536,2.43 -0.176,3.5 -0.712,1.06 -1.96,1.69 -3.266,1.65 -4.395,0.18 -8.316,2.85 -9.949,6.78 z"  />
</g>
<path d="m 84.371,359.07 c -0.214,-6.21 4.032,-11.87 10.299,-13.73 1.308,0 2.489,0.71 3.092,1.8 0.603,1.1 0.536,2.43 -0.176,3.5 -0.712,1.06 -1.96,1.69 -3.266,1.65 -4.395,0.18 -8.316,2.85 -9.949,6.78 z"  stroke="#000000" stroke-linecap="round" stroke-linejoin="round"  stroke-width="1.5"  />
</g>
<g  ><g  ><path d="m 154.14,371.44 c 1.3,-6.08 6.79,-10.54 13.32,-10.83 1.26,0.34 2.24,1.29 2.56,2.5 0.32,1.2 -0.1,2.48 -1.02,3.34 -0.94,0.86 -2.31,1.18 -3.57,0.82 -4.3,-0.9 -8.75,0.75 -11.29,4.17 z"  />
</g>
<path d="m 154.14,371.44 c 1.3,-6.08 6.79,-10.54 13.32,-10.83 1.26,0.34 2.24,1.29 2.56,2.5 0.32,1.2 -0.1,2.48 -1.02,3.34 -0.94,0.86 -2.31,1.18 -3.57,0.82 -4.3,-0.9 -8.75,0.75 -11.29,4.17 z"  stroke="#000000" stroke-linecap="round" stroke-linejoin="round"  stroke-width="1.5"  />
</g>
<g  ><g  ><path d="m 161.91,376.15 c 1.29,-6.08 6.78,-10.54 13.31,-10.82 1.26,0.33 2.24,1.28 2.56,2.49 0.32,1.21 -0.1,2.49 -1.01,3.35 -0.95,0.86 -2.31,1.17 -3.57,0.81 -4.31,-0.89 -8.76,0.75 -11.29,4.17 z"  />
</g>
<path d="m 161.91,376.15 c 1.29,-6.08 6.78,-10.54 13.31,-10.82 1.26,0.33 2.24,1.28 2.56,2.49 0.32,1.21 -0.1,2.49 -1.01,3.35 -0.95,0.86 -2.31,1.17 -3.57,0.81 -4.31,-0.89 -8.76,0.75 -11.29,4.17 z"  stroke="#000000" stroke-linecap="round" stroke-linejoin="round"  stroke-width="1.5"  />
</g>
<g  ><g  ><path d="m 171.35,382.81 c -0.32,-6.21 3.82,-11.94 10.06,-13.9 1.31,0 2.5,0.66 3.12,1.74 0.62,1.08 0.58,2.42 -0.12,3.5 -0.69,1.07 -1.92,1.73 -3.23,1.71 -4.39,0.25 -8.27,2.99 -9.83,6.95 z"  />
</g>
<path d="m 171.35,382.81 c -0.32,-6.21 3.82,-11.94 10.06,-13.9 1.31,0 2.5,0.66 3.12,1.74 0.62,1.08 0.58,2.42 -0.12,3.5 -0.69,1.07 -1.92,1.73 -3.23,1.71 -4.39,0.25 -8.27,2.99 -9.83,6.95 z"  stroke="#000000" stroke-linecap="round" stroke-linejoin="round"  stroke-width="1.5"  />
</g>
<g  ><g  ><path d="m 181.86,389.18 c -1.92,-5.91 0.61,-12.52 6.12,-16.03 1.26,-0.35 2.58,0 3.47,0.87 0.88,0.89 1.18,2.19 0.79,3.41 -0.39,1.22 -1.42,2.17 -2.68,2.49 -4.18,1.38 -7.21,5.03 -7.7,9.26 z"  />
</g>
<path d="m 181.86,389.18 c -1.92,-5.91 0.61,-12.52 6.12,-16.03 1.26,-0.35 2.58,0 3.47,0.87 0.88,0.89 1.18,2.19 0.79,3.41 -0.39,1.22 -1.42,2.17 -2.68,2.49 -4.18,1.38 -7.21,5.03 -7.7,9.26 z"  stroke="#000000" stroke-linecap="round" stroke-linejoin="round"  stroke-width="1.5"  />
</g>
<g  ><g  ><path d="m 190.94,390.49 c -1.91,-5.91 0.61,-12.52 6.12,-16.03 1.26,-0.35 2.59,0 3.47,0.87 0.88,0.89 1.18,2.19 0.79,3.41 -0.39,1.22 -1.41,2.17 -2.68,2.49 -4.18,1.38 -7.21,5.03 -7.7,9.26 z"  />
</g>
<path d="m 190.94,390.49 c -1.91,-5.91 0.61,-12.52 6.12,-16.03 1.26,-0.35 2.59,0 3.47,0.87 0.88,0.89 1.18,2.19 0.79,3.41 -0.39,1.22 -1.41,2.17 -2.68,2.49 -4.18,1.38 -7.21,5.03 -7.7,9.26 z"  stroke="#000000" stroke-linecap="round" stroke-linejoin="round"  stroke-width="1.5"  />
</g>
<g  ><g  ><path d="m 202.45,393.75 c -3.38,-5.21 -2.66,-12.25 1.76,-17.07 1.13,-0.66 2.49,-0.68 3.57,-0.1 1.08,0.63 1.71,1.8 1.65,3.08 -0.1,1.28 -0.8,2.47 -1.94,3.11 -3.68,2.41 -5.67,6.72 -5.04,10.93 z"  />
</g>
<path d="m 202.45,393.75 c -3.38,-5.21 -2.66,-12.25 1.76,-17.07 1.13,-0.66 2.49,-0.68 3.57,-0.1 1.08,0.63 1.71,1.8 1.65,3.08 -0.1,1.28 -0.8,2.47 -1.94,3.11 -3.68,2.41 -5.67,6.72 -5.04,10.93 z"  stroke="#000000" stroke-linecap="round" stroke-linejoin="round"  stroke-width="1.5"  />
</g>
<g  ><g  ><path d="m 83.713,369.5 c 1.295,-6.08 6.783,-10.54 13.313,-10.83 1.265,0.34 2.245,1.29 2.565,2.5 0.321,1.2 -0.07,2.48 -1.016,3.34 -0.949,0.86 -2.312,1.18 -3.57,0.82 -4.306,-0.9 -8.757,0.75 -11.292,4.17 z"  />
</g>
<path d="m 83.713,369.5 c 1.295,-6.08 6.783,-10.54 13.313,-10.83 1.265,0.34 2.245,1.29 2.565,2.5 0.321,1.2 -0.07,2.48 -1.016,3.34 -0.949,0.86 -2.312,1.18 -3.57,0.82 -4.306,-0.9 -8.757,0.75 -11.292,4.17 z"  stroke="#000000" stroke-linecap="round" stroke-linejoin="round"  stroke-width="1.5"  />
</g>
<g  ><g  ><path d="m 89.535,377.54 c 1.296,-6.08 6.784,-10.54 13.315,-10.83 1.26,0.34 2.24,1.29 2.56,2.5 0.32,1.2 -0.1,2.48 -1.01,3.34 -0.95,0.87 -2.31,1.18 -3.57,0.82 -4.308,-0.89 -8.759,0.75 -11.295,4.17 z"  />
</g>
<path d="m 89.535,377.54 c 1.296,-6.08 6.784,-10.54 13.315,-10.83 1.26,0.34 2.24,1.29 2.56,2.5 0.32,1.2 -0.1,2.48 -1.01,3.34 -0.95,0.87 -2.31,1.18 -3.57,0.82 -4.308,-0.89 -8.759,0.75 -11.295,4.17 z"  stroke="#000000" stroke-linecap="round" stroke-linejoin="round"  stroke-width="1.5"  />
</g>
<g  ><g  ><path d="m 103.68,383.12 c -0.32,-6.21 3.82,-11.94 10.06,-13.91 1.31,0 2.5,0.66 3.12,1.75 0.62,1.08 0.58,2.42 -0.11,3.49 -0.7,1.08 -1.93,1.74 -3.24,1.72 -4.39,0.25 -8.27,2.99 -9.83,6.95 z"  />
</g>
<path d="m 103.68,383.12 c -0.32,-6.21 3.82,-11.94 10.06,-13.91 1.31,0 2.5,0.66 3.12,1.75 0.62,1.08 0.58,2.42 -0.11,3.49 -0.7,1.08 -1.93,1.74 -3.24,1.72 -4.39,0.25 -8.27,2.99 -9.83,6.95 z"  stroke="#000000" stroke-linecap="round" stroke-linejoin="round"  stroke-width="1.5"  />
</g>
<g  ><g  ><path d="m 117.28,385.58 c -0.32,-6.2 3.82,-11.94 10.06,-13.9 1.31,0 2.5,0.66 3.12,1.74 0.62,1.09 0.58,2.42 -0.11,3.5 -0.7,1.08 -1.93,1.73 -3.24,1.71 -4.39,0.25 -8.27,2.99 -9.83,6.95 z"  />
</g>
<path d="m 117.28,385.58 c -0.32,-6.2 3.82,-11.94 10.06,-13.9 1.31,0 2.5,0.66 3.12,1.74 0.62,1.09 0.58,2.42 -0.11,3.5 -0.7,1.08 -1.93,1.73 -3.24,1.71 -4.39,0.25 -8.27,2.99 -9.83,6.95 z"  stroke="#000000" stroke-linecap="round" stroke-linejoin="round"  stroke-width="1.5"  />
</g>
</g>
<g  ><path d="m 221.52,300.46 c 11.71,-5.82 25.22,-2.39 32.72,8.32"  stroke="#000000" stroke-linecap="round" stroke-linejoin="round"  stroke-width="2.25"  />
</g>
<g  ><path d="m 258.68,370.05 8.32,0.56 c 1.98,-1.27 3.08,-3.55 2.84,-5.89 -0.23,-2.34 -1.76,-4.35 -3.95,-5.21"  stroke="#000000" stroke-linecap="round" stroke-linejoin="round"  stroke-width="1.5"  />
</g>
<g  ><path d="m 139.45,355.64 c 4.01,-13.6 6.8,-27.51 8.31,-41.6"  stroke="#000000" stroke-linecap="round" stroke-linejoin="round"  stroke-width="1.5"  />
</g>
<g  ><path d="m 163.29,289.09 c 0.87,-6.55 0.11,-13.22 -2.21,-19.41 -0.77,-5.23 0.41,-10.56 3.32,-14.97"  stroke="#000000" stroke-linecap="round" stroke-linejoin="round"  stroke-width="2.25"  />
</g>
<g  ><g  ><g  ><path d="m 141.45,161.49 c -18.87,-15.77 -44.592,-19.21 -66.416,-8.86 -4.536,1.8 -9.699,0.75 -13.293,-2.71 -3.595,-3.46 -4.991,-8.73 -3.594,-13.56 -3.36,1.41 -5.664,4.65 -5.977,8.41 1.143,6.56 5.29,12.18 11.115,15.05 5.826,2.87 12.6,2.63 18.16,-0.64 15.96,-7.36 34.505,-5.89 49.395,3.9 z"  />
</g>
<path d="m 141.45,161.49 c -18.87,-15.77 -44.592,-19.21 -66.416,-8.86 -4.536,1.8 -9.699,0.75 -13.293,-2.71 -3.595,-3.46 -4.991,-8.73 -3.594,-13.56 -3.36,1.41 -5.664,4.65 -5.977,8.41 1.143,6.56 5.29,12.18 11.115,15.05 5.826,2.87 12.6,2.63 18.16,-0.64 15.96,-7.36 34.505,-5.89 49.395,3.9 z"  stroke="#000000" stroke-linecap="round" stroke-linejoin="round"  stroke-width="2.25"  />
</g>
</g>
<g  ><g  ><g  ><path d="m 83.062,138.71 c -1.861,4.53 0.145,9.81 4.504,11.86 -0.894,-3.47 0.343,-7.14 3.121,-9.24 -0.119,-1.83 -1.302,-3.41 -2.984,-3.99 -1.682,-0.57 -3.522,0 -4.641,1.37 z"  />
<path d="m 83.062,138.71 c -1.861,4.53 0.145,9.81 4.504,11.86 -0.894,-3.47 0.343,-7.14 3.121,-9.24 -0.119,-1.83 -1.302,-3.41 -2.984,-3.99 -1.682,-0.57 -3.522,0 -4.641,1.37 z"  stroke="#000000" stroke-linecap="round" stroke-linejoin="round"  stroke-width="1"  />
</g>
<g  ><path d="m 94.984,138.13 c -1.86,4.53 0.146,9.81 4.505,11.86 -0.895,-3.47 0.343,-7.14 3.121,-9.24 -0.12,-1.83 -1.3,-3.41 -2.985,-3.99 -1.681,-0.57 -3.521,0 -4.641,1.37 z"  />
<path d="m 94.984,138.13 c -1.86,4.53 0.146,9.81 4.505,11.86 -0.895,-3.47 0.343,-7.14 3.121,-9.24 -0.12,-1.83 -1.3,-3.41 -2.985,-3.99 -1.681,-0.57 -3.521,0 -4.641,1.37 z"  stroke="#000000" stroke-linecap="round" stroke-linejoin="round"  stroke-width="1"  />
</g>
<g  ><path d="m 91.666,165.73 c -3.103,-3.78 -2.729,-9.42 0.84,-12.66 0.16,3.59 2.415,6.73 5.686,7.93 0.421,1.78 -0.248,3.64 -1.687,4.68 -1.44,1.05 -3.358,1.07 -4.839,0 z"  />
<path d="m 91.666,165.73 c -3.103,-3.78 -2.729,-9.42 0.84,-12.66 0.16,3.59 2.415,6.73 5.686,7.93 0.421,1.78 -0.248,3.64 -1.687,4.68 -1.44,1.05 -3.358,1.07 -4.839,0 z"  stroke="#000000" stroke-linecap="round" stroke-linejoin="round"  stroke-width="1"  />
</g>
<g  ><path d="m 103.94,160.84 c -2.62,-3.2 -2.31,-7.96 0.71,-10.68 0.13,3.02 2.04,5.68 4.8,6.69 0.35,1.5 -0.21,3.07 -1.43,3.95 -1.21,0.88 -2.83,0.9 -4.08,0 z"  />
<path d="m 103.94,160.84 c -2.62,-3.2 -2.31,-7.96 0.71,-10.68 0.13,3.02 2.04,5.68 4.8,6.69 0.35,1.5 -0.21,3.07 -1.43,3.95 -1.21,0.88 -2.83,0.9 -4.08,0 z"  stroke="#000000" stroke-linecap="round" stroke-linejoin="round"  stroke-width="1"  />
</g>
</g>
</g>
<g  ><path d="m 136.94,83.862 7.8,40.178 17.69,-2.64 z"  />
<path d="m 136.94,83.862 7.8,40.178 17.69,-2.64 z"  stroke="#000000" stroke-linecap="round" stroke-linejoin="round"  stroke-width="2"  />
</g>
<g  ><path d="m 152.44,114.19 -29.94,-6.8 c -1.75,-0.58 -3.65,-0.37 -5.23,0.58 -1.57,0.95 -2.68,2.56 -3.06,4.41 -2.48,4.17 -7.14,6.35 -11.82,5.53 l -24.767,3.7 c -2.279,-1.64 -5.374,-1.18 -7.075,1.06 -0.957,2.76 0.292,5.84 2.873,7.09 0.243,5.5 4.151,10.13 9.385,11.1 8.989,-1.83 18.324,-1.05 26.964,2.26 l 18.83,9.5 c 1.24,1.49 1.26,3.68 0.1,5.18 -1.21,1.5 -3.29,1.86 -4.92,0.85 -9.71,-1.91 -19.71,-0.55 -28.549,3.89 -2.966,1.42 -4.853,4.5 -4.84,7.9 0.893,2.7 3.426,4.46 6.162,4.27 2.736,-0.19 4.987,-2.27 5.467,-5.07 2.39,-3.63 6.68,-5.39 10.86,-4.44 l 15.75,2.59 c 2.24,0.1 4.35,1.18 5.79,2.99 1.44,1.8 2.07,4.15 1.73,6.45 l -9.15,5.99 c 1.71,2.16 4.36,3.29 7.08,3.02 2.72,-0.27 5.16,-1.91 6.52,-4.38 1.17,5.28 0.72,10.8 -1.29,15.81 6.86,-3.35 11.21,-10.56 11.09,-18.38 2.87,4.77 4.37,10.3 4.31,15.91 6.23,-8.14 6.54,-19.54 0.77,-27.96 4.91,1.69 8.67,5.84 9.99,11.04 1.64,-6.73 -0.1,-13.87 -4.62,-18.97 5.51,3.57 12.39,4.18 18.25,1.64 5.86,-2.54 9.89,-7.89 10.68,-14.19 -7.58,4.33 -17.31,3.25 -24.05,-2.68 1.68,0.25 3.32,-0.49 4.22,-1.91 0.91,-1.42 0.91,-3.26 0,-4.75 L 159.91,83.953 c -0.23,-0.524 -0.79,-0.805 -1.32,-0.669 -0.54,0.137 -0.9,0.652 -0.86,1.224 -2.03,9.837 -3.79,19.732 -5.29,29.682 z"  />
<path d="m 152.44,114.19 -29.94,-6.8 c -1.75,-0.58 -3.65,-0.37 -5.23,0.58 -1.57,0.95 -2.68,2.56 -3.06,4.41 -2.48,4.17 -7.14,6.35 -11.82,5.53 l -24.767,3.7 c -2.279,-1.64 -5.374,-1.18 -7.075,1.06 -0.957,2.76 0.292,5.84 2.873,7.09 0.243,5.5 4.151,10.13 9.385,11.1 8.989,-1.83 18.324,-1.05 26.964,2.26 l 18.83,9.5 c 1.24,1.49 1.26,3.68 0.1,5.18 -1.21,1.5 -3.29,1.86 -4.92,0.85 -9.71,-1.91 -19.71,-0.55 -28.549,3.89 -2.966,1.42 -4.853,4.5 -4.84,7.9 0.893,2.7 3.426,4.46 6.162,4.27 2.736,-0.19 4.987,-2.27 5.467,-5.07 2.39,-3.63 6.68,-5.39 10.86,-4.44 l 15.75,2.59 c 2.24,0.1 4.35,1.18 5.79,2.99 1.44,1.8 2.07,4.15 1.73,6.45 l -9.15,5.99 c 1.71,2.16 4.36,3.29 7.08,3.02 2.72,-0.27 5.16,-1.91 6.52,-4.38 1.17,5.28 0.72,10.8 -1.29,15.81 6.86,-3.35 11.21,-10.56 11.09,-18.38 2.87,4.77 4.37,10.3 4.31,15.91 6.23,-8.14 6.54,-19.54 0.77,-27.96 4.91,1.69 8.67,5.84 9.99,11.04 1.64,-6.73 -0.1,-13.87 -4.62,-18.97 5.51,3.57 12.39,4.18 18.25,1.64 5.86,-2.54 9.89,-7.89 10.68,-14.19 -7.58,4.33 -17.31,3.25 -24.05,-2.68 1.68,0.25 3.32,-0.49 4.22,-1.91 0.91,-1.42 0.91,-3.26 0,-4.75 L 159.91,83.953 c -0.23,-0.524 -0.79,-0.805 -1.32,-0.669 -0.54,0.137 -0.9,0.652 -0.86,1.224 -2.03,9.837 -3.79,19.732 -5.29,29.682 z"  stroke="#000000" stroke-linecap="round" stroke-linejoin="round"  stroke-width="2"  />
</g>
<g  ><path d="m 153.59,124.28 c 0.16,1.5 1.37,2.64 2.82,2.66 1.45,0 2.67,-1.08 2.84,-2.57 l -1.68,-35.452"  stroke="#000000" stroke-linecap="round" stroke-linejoin="round"  stroke-width="1.5"  />
</g>
<g  fill="#ffffff" ><path d="m 111.82,115.85 c -0.96,1.16 -1.2,2.77 -0.65,4.19 0.56,1.41 1.83,2.42 3.31,2.62 1.48,0.2 2.94,-0.45 3.81,-1.68 0.35,-2.18 1.84,-3.98 3.89,-4.7 5.54,2.55 9.91,7.19 12.17,12.93 2.01,2.9 5.77,3.91 8.87,2.38 -3.11,1.41 -6.8,0.43 -8.87,-2.38 -1.39,1.77 -3.42,2.87 -5.64,3.06 -2.22,0.19 -4.43,-0.54 -6.13,-2.03 -0.91,2.17 -0.62,4.68 0.76,6.61 1.38,1.93 3.64,2.99 5.96,2.81 -2.31,0.16 -4.55,-0.89 -5.95,-2.78 -1.41,-1.89 -1.78,-4.37 -0.99,-6.57 -2.86,-0.1 -5.58,1.22 -7.4,3.44 1.16,-2.06 2.95,-3.69 5.11,-4.61 l -2.2,-8.02 c -0.92,1.09 -2.33,1.59 -3.72,1.32 -1.39,-0.27 -2.55,-1.27 -3.03,-2.63 -0.48,-1.36 -0.21,-2.87 0.7,-3.96 z"  />
<path d="m 111.82,115.85 c -0.96,1.16 -1.2,2.77 -0.65,4.19 0.56,1.41 1.83,2.42 3.31,2.62 1.48,0.2 2.94,-0.45 3.81,-1.68 0.35,-2.18 1.84,-3.98 3.89,-4.7 5.54,2.55 9.91,7.19 12.17,12.93 2.01,2.9 5.77,3.91 8.87,2.38 -3.11,1.41 -6.8,0.43 -8.87,-2.38 -1.39,1.77 -3.42,2.87 -5.64,3.06 -2.22,0.19 -4.43,-0.54 -6.13,-2.03 -0.91,2.17 -0.62,4.68 0.76,6.61 1.38,1.93 3.64,2.99 5.96,2.81 -2.31,0.16 -4.55,-0.89 -5.95,-2.78 -1.41,-1.89 -1.78,-4.37 -0.99,-6.57 -2.86,-0.1 -5.58,1.22 -7.4,3.44 1.16,-2.06 2.95,-3.69 5.11,-4.61 l -2.2,-8.02 c -0.92,1.09 -2.33,1.59 -3.72,1.32 -1.39,-0.27 -2.55,-1.27 -3.03,-2.63 -0.48,-1.36 -0.21,-2.87 0.7,-3.96 z"  stroke="#000000" stroke-linecap="round" stroke-linejoin="round"  stroke-width="1.5"  />
</g>
<g  fill="black"   fill-opacity="0.999" ><g   fill-opacity="0.999" ><g  fill="#000000" stroke="none"   fill-opacity="0.999" ><path d="m 118.22,120.74 c 0.8,4.61 5.18,7.67 9.83,6.87 -2.83,-2.32 -3.92,-6.15 -2.76,-9.66 -1.2,-0.97 -2.85,-1.21 -4.31,-0.63 -1.46,0.57 -2.51,1.88 -2.76,3.42 z"   fill-opacity="0.999" />
</g>
<path d="m 118.22,120.74 c 0.8,4.61 5.18,7.67 9.83,6.87 -2.83,-2.32 -3.92,-6.15 -2.76,-9.66 -1.2,-0.97 -2.85,-1.21 -4.31,-0.63 -1.46,0.57 -2.51,1.88 -2.76,3.42 z"  stroke="#000000" stroke-linecap="round" stroke-linejoin="round"  stroke-width="1"   fill-opacity="0.999" />
</g>
</g>
<g  ><path d="m 80.332,124.02 c -0.708,-1.48 -2.076,-2.51 -3.651,-2.75 -1.575,-0.24 -3.151,0.35 -4.206,1.57 -1.417,1.56 -1.822,3.84 -1.037,5.85 0.786,2 2.618,3.36 4.692,3.47 -1.064,-1.67 -1.21,-3.79 -0.386,-5.58 0.699,1.32 2.288,1.82 3.553,1.11 1.265,-0.71 1.728,-2.35 1.035,-3.67 z"  fill="#000000"  />
<path d="m 80.332,124.02 c -0.708,-1.48 -2.076,-2.51 -3.651,-2.75 -1.575,-0.24 -3.151,0.35 -4.206,1.57 -1.417,1.56 -1.822,3.84 -1.037,5.85 0.786,2 2.618,3.36 4.692,3.47 -1.064,-1.67 -1.21,-3.79 -0.386,-5.58 0.699,1.32 2.288,1.82 3.553,1.11 1.265,-0.71 1.728,-2.35 1.035,-3.67 z"  stroke="#000000" stroke-linecap="round" stroke-linejoin="round"  stroke-width="1.5"  />
</g>
<g  ><path d="m 131.55,147.18 c 2.96,0.72 4.72,4.92 3.99,9.55 -0.72,4.63 -3.66,8.09 -6.71,7.88"  stroke="#000000" stroke-linecap="round" stroke-linejoin="round"  stroke-width="1.5"  />
</g>
<g  ><path d="m 175.67,172.58 c -0.68,-0.75 -1.44,-1.42 -2.27,-1.99 0.7,0.74 1.46,1.4 2.27,1.99 z"  />
<path d="m 175.67,172.58 c -0.68,-0.75 -1.44,-1.42 -2.27,-1.99 0.7,0.74 1.46,1.4 2.27,1.99 z"  stroke="#000000" stroke-linecap="round" stroke-linejoin="round"  stroke-width="0.24"  />
</g>
<rect width="50.442" height="25.579" x="93.779" y="98.142"  transform="rotate(-4.4347)"  fill="none" stroke="none" />
</g>
</g>
</g>
</g>
</g><g  fill="#F0F0F0"><g class="PlaceCharge" transform=" translate(550,690) scale(0.88888888888889, 0.88888888888889) " >
<title>a ship</title><g  fill-rule="evenodd" stroke="#000000" stroke-width="3" ><path d="M 242,56.33333 C 318.19047,242.84126 318.19047,242.84126 318.19047,242.84126 M 245.96825,79.3492 C 299.93651,252.36507 299.93651,252.36507 299.93651,252.36507 M 427.71428,184.90475 C 427.71428,184.90475 427.71428,184.90475 380.09524,61.09523 C 409.46032,185.69841 409.46032,185.69841 409.46032,185.69841 M 95.1746,52.36507 C 148.3492,261.09523 148.3492,261.09523 148.3492,261.09523 M 117.39682,240.46031 C 117.39682,240.46031 117.39682,240.46031 95.1746,143.63491 C 109.46031,236.49206 109.46031,236.49206 109.46031,236.49206 M 282.47619,257.92063 C 282.47619,257.92063 282.47619,257.92063 233.26984,168.23809 C 267.39682,256.33333 267.39682,256.33333 267.39682,256.33333"  stroke-width="2.79999995" fill-rule="evenodd"  fill="none"  stroke="#000000" />
<path d="M 92,53.15872 C 132.47619,253.15872 132.47619,253.15872 132.47619,253.15872"  stroke-width="2.79999995" fill-rule="evenodd"  fill="none"  stroke="#000000" />
<path d="M 89.22733,8.1087 L 89.22733,268.83301 L 98.94082,268.83301 L 98.94082,8.1087 L 89.22733,8.1087 z "  stroke-width="3" fill-rule="evenodd"  stroke="#000000" />
<path d="M 228.09349,8.6699 L 228.09349,269.39421 L 237.80698,269.39421 L 237.80698,8.6699 L 228.09349,8.6699 z "  stroke-width="3" fill-rule="evenodd"  stroke="#000000" />
<path d="M 376.55961,9.7923 L 376.55961,270.51661 L 386.2731,270.51661 L 386.2731,9.7923 L 376.55961,9.7923 z "  stroke-width="3" fill-rule="evenodd"  stroke="#000000" />
<path d="M 18.516649,113.61353 L 120.0931,165.01178 L 125.87822,158.27743 L 23.740572,105.19559 L 18.516649,113.61353 z M 41.525687,32.62817 L 143.10214,78.02642 L 148.88726,71.29207 L 46.749611,24.21023 L 41.525687,32.62817 z M 184.06944,32.31175 L 291.64589,79.71 L 299.43101,72.97565 L 189.29336,23.89381 L 184.06944,32.31175 z M 149.83649,119.78668 L 275.58609,172.30732 L 281.37121,165.57297 L 156.74399,113.61352 L 149.83649,119.78668 z M 327.17438,43.53567 L 430.75083,90.93392 L 438.53595,84.19957 L 332.3983,35.11773 L 327.17438,43.53567 z "  stroke-width="3" fill-rule="evenodd"  stroke="#000000" />
<path d="M 71.180252,283.66997 C 148.07204,360.60309 304.60236,372.61227 396.2122,292.13845 L 396.2122,266.60233 C 288.47536,330.23008 197.05917,355.99325 71.180252,271.41954 L 71.180252,283.66997 z "  stroke-width="3" fill-rule="evenodd"  stroke="#000000" />
<path d="M 71.239422,279.89221 C 148.13121,356.82533 304.67679,348.83451 396.28663,268.36069 L 396.28663,242.82457 C 288.54979,306.45232 197.11834,352.21549 71.239422,267.64178 L 71.239422,279.89221 z "  stroke-width="3" fill-rule="evenodd"  stroke="#000000" />
<path d="M 71.304712,265.31408 C 148.1965,342.2472 304.70803,325.52203 396.31787,245.04821 L 396.31787,217.13698 C 290.82581,289.74386 197.18363,337.63736 71.304712,253.06365 L 71.304712,265.31408 z "  stroke-width="3" fill-rule="evenodd"  stroke="#000000" />
<path d="M 71.272072,250.7165 C 148.16386,327.64962 302.68418,320.60803 394.85521,216.00279 L 375.21336,216.00279 C 269.7213,288.60967 197.15099,323.03978 71.272072,238.46607 L 71.272072,250.7165 z "  stroke-width="3" fill-rule="evenodd"  stroke="#000000" />
<path d="M 70.543702,236.13837 C 156.97582,310.82671 271.09003,310.23717 377.29097,216.29465 L 353.72074,216.29465 C 245.9839,283.85077 188.56588,283.76903 97.4811,236.79544 L 70.543702,236.13837 z "  stroke-width="3" fill-rule="evenodd"  stroke="#000000" />
<path d="M 69.785492,240.59257 C 90.55173,242.14819 89.57235,241.97519 110.4705,243.73759 C 122.58061,258.1087 172.3255,275.82312 196.80546,278.05351 C 245.76537,282.5143 302.66804,263.23055 355.76851,216.25929 L 332.19828,216.25929 C 278.32986,250.03735 242.09191,272.5179 190.39809,265.38965 C 164.55118,261.82553 137.08509,250.29801 125.47007,234.13014 C 93.0908,231.43098 38.962482,227.45863 11.421118,227.78095 L 69.785492,240.59257 z "  stroke-width="3" fill-rule="evenodd"  stroke="#000000" />
<path d="M 409.89607,291.45504 L 409.89607,189.86243 L 395.50076,189.86243 L 395.50076,291.45504 L 409.89607,291.45504 z "  stroke-width="3" fill-rule="evenodd"  stroke="#000000" />
<path d="M 424.38019,291.25661 L 424.38019,189.664 L 409.98488,189.664 L 409.98488,291.25661 L 424.38019,291.25661 z "  stroke-width="3" fill-rule="evenodd"  stroke="#000000" />
<path d="M 429.26274,208.89967 L 327.95857,201.24972 L 326.8746,215.60416 L 428.17877,223.25411 L 429.26274,208.89967 z "  stroke-width="3" fill-rule="evenodd"  stroke="#000000" />
<path d="M 430.09883,196.46522 L 328.79466,188.81527 L 327.71069,203.16971 L 429.01486,210.81966 L 430.09883,196.46522 z "  stroke-width="3" fill-rule="evenodd"  stroke="#000000" />
<path d="M 431.09089,184.33029 L 329.78672,176.68034 L 328.70275,191.03478 L 430.00692,198.68473 L 431.09089,184.33029 z "  stroke-width="3" fill-rule="evenodd"  stroke="#000000" />
</g>
<g  fill-rule="evenodd" stroke="#000000" stroke-width="3" ><path d="M 23.2,111 C -0.975,144 28.7,232 93.5,240 81.3,206 71.5,190 120,157 L 23.2,111 z M 49.7,25.9 C 24.1,58 49.8,147 114,158 104,124 94.4,107 144,76.6 L 49.7,25.9 z M 194,27.4 C 170,60.6 162,142 236,153 223,119 243,107 291,73.8 L 194,27.4 z M 158,121 c -58.2,41 0,149 65,157 -12,-34 1,-75 49,-107 L 158,121 z M 335,40.2 C 311,73.4 324,179 389,188 377,154 383,119 431,86.6 L 335,40.2 z"  stroke-width="3" fill-rule="evenodd"  stroke="#000000" />
</g>
<g  fill-rule="evenodd" stroke="#000000" stroke-width="3" ><path d="M 37.4,15 C 58.5,13.2 80.4,13.9 93.8,11.2 97.2,12.8 95.6,27 95,30.1 92.8,32.6 62.5,23.7 37.4,15 z"  stroke-width="3" fill-rule="evenodd"  stroke="#000000" />
<path d="m 174,13.3 c 21,-1.8 45,1.2 59,-1.5 3,1.6 -1,13.5 -1,16.6 -3,2.4 -33,-6.5 -58,-15.1 z"  stroke-width="3" fill-rule="evenodd"  stroke="#000000" />
<path d="m 326,16.5 c 21,-1.8 44,-1.2 58,-3.9 3,1.6 0,15.8 -1,19 -2,2.4 -32,-6.5 -57,-15.1 z"  stroke-width="3" fill-rule="evenodd"  stroke="#000000" />
</g>
</g>
</g></g></g></g><defs><mask id="mask9-1" >
<path fill="#FFFFFF" d="m 0,0 v 800 c -2.5063876,43.11115 1.2341419,84.33503 21.489586,125.13639 20.255443,40.80137 53.477613,79.98631 98.039434,115.63581 44.56181,35.6494 100.44867,67.7517 164.92346,94.7345 64.47479,26.9828 137.51639,48.8374 215.54752,64.4933 78.03113,-15.6559 151.07273,-37.5105 215.54752,-64.4933 64.47479,-26.9828 120.36165,-59.0851 164.92346,-94.7345 44.56182,-35.6495 77.78399,-74.83444 98.03943,-115.63581 C 998.76586,884.33503 1000.1453,841.93063 1000,800 V 0 Z" />
</mask>
</defs></g></svg>
