<?xml version="1.0" encoding="utf-8" ?>
    <svg version="1.1"
        baseProfile="full"
        xmlns="http://www.w3.org/2000/svg"
        xmlns:xlink="http://www.w3.org/1999/xlink" 
         xmlns:rdf="http://www.w3.org/1999/02/22-rdf-syntax-ns#"
         xmlns:cc="http://creativecommons.org/ns#"
         xmlns:dc="http://purl.org/dc/elements/1.1/" 
        preserveAspectRatio="xMidYMid meet" height="600" width="500" viewBox="0,0,1000,1200 ">
<metadata>
<rdf:RDF>
      <cc:Work
         rdf:about="">
        <dc:format>image/svg+xml</dc:format>
        <dc:type
           rdf:resource="http://purl.org/dc/dcmitype/StillImage" />
        <dc:rights>
          <cc:Agent>
            <dc:title>This work is licensed under a &lt;a rel=&quot;license&quot; href=&quot;http://creativecommons.org/licenses/by-nc-sa/4.0/&quot;&gt;Creative Commons Attribution-NonCommercial-ShareAlike 4.0 International License&lt;/a&gt;.</dc:title>
          </cc:Agent>
        </dc:rights>
         <dc:creator>
           <cc:Agent>
              <dc:title>ship/ship - commons.wikimedia.org by Moktoipas
tower/architecture - http://commons.wikimedia.org/wiki/User:Spedona
heater shape - https://commons.wikimedia.org/wiki/User:MG
</dc:title>
           </cc:Agent>
        </dc:creator>
      </cc:Work>
      </rdf:RDF>
</metadata>
<defs></defs><g ><g mask="url(#mask8-1)"><g><g  fill="#050505"><rect x='0' y='0' width='1000' height='1200'><title>Field</title></rect></g><g transform='translate(0,0)'><g><title>ford</title><g  fill="#F0F0F0">  <g>
    <g style="fill:#1E7FCB">
      <path d="m -10 800 h1020 v410 h-1020 z"/>
    </g>
    <g style="fill:#F0F0F0">
      <path d="m-100, 870   c20,-7.537 40,-7.537 60,0 20,7.537 40,7.537 60,0 20,-7.537 40,-7.537 60,0 20,7.537 40,7.537 60,0 20,-7.537 40,-7.537 60,0 20,7.537 40,7.537 60,0 20,-7.537 40,-7.537 60,0 20,7.537 40,7.537 60,0 20,-7.537 40,-7.537 60,0 20,7.537 40,7.537 60,0 20,-7.537 40,-7.537 60,0 20,7.537 40,7.537 60,0 20,-7.537 40,-7.537 60,0 20,7.537 40,7.537 60,0 20,-7.537 40,-7.537 60,0 20,7.537 40,7.537 60,0 20,-7.537 40,-7.537 60,0 20,7.537 40,7.537 60,0 20,-7.537 40,-7.537 60,0 20,7.537 40,7.537 60,0   l0,84.79   c-20,7.537 -40,7.537 -60,0 -20,-7.537 -40,-7.537 -60,0 -20,7.537 -40,7.537 -60,0 -20,-7.537 -40,-7.537 -60,0 -20,7.537 -40,7.537 -60,0 -20,-7.537 -40,-7.537 -60,0 -20,7.537 -40,7.537 -60,0 -20,-7.537 -40,-7.537 -60,0 -20,7.537 -40,7.537 -60,0 -20,-7.537 -40,-7.537 -60,0 -20,7.537 -40,7.537 -60,0 -20,-7.537 -40,-7.537 -60,0 -20,7.537 -40,7.537 -60,0 -20,-7.537 -40,-7.537 -60,0 -20,7.537 -40,7.537 -60,0 -20,-7.537 -40,-7.537 -60,0 -20,7.537 -40,7.537 -60,0 -20,-7.537 -40,-7.537 -60,0 -20,7.537 -40,7.537 -60,0 -20,-7.537 -40,-7.537 -60,0   z m0,169.6   c20,-7.537 40,-7.537 60,0 20,7.537 40,7.537 60,0 20,-7.537 40,-7.537 60,0 20,7.537 40,7.537 60,0 20,-7.537 40,-7.537 60,0 20,7.537 40,7.537 60,0 20,-7.537 40,-7.537 60,0 20,7.537 40,7.537 60,0 20,-7.537 40,-7.537 60,0 20,7.537 40,7.537 60,0 20,-7.537 40,-7.537 60,0 20,7.537 40,7.537 60,0 20,-7.537 40,-7.537 60,0 20,7.537 40,7.537 60,0 20,-7.537 40,-7.537 60,0 20,7.537 40,7.537 60,0 20,-7.537 40,-7.537 60,0 20,7.537 40,7.537 60,0 20,-7.537 40,-7.537 60,0 20,7.537 40,7.537 60,0   l0,84.79   c-20,7.537 -40,7.537 -60,0 -20,-7.537 -40,-7.537 -60,0 -20,7.537 -40,7.537 -60,0 -20,-7.537 -40,-7.537 -60,0 -20,7.537 -40,7.537 -60,0 -20,-7.537 -40,-7.537 -60,0 -20,7.537 -40,7.537 -60,0 -20,-7.537 -40,-7.537 -60,0 -20,7.537 -40,7.537 -60,0 -20,-7.537 -40,-7.537 -60,0 -20,7.537 -40,7.537 -60,0 -20,-7.537 -40,-7.537 -60,0 -20,7.537 -40,7.537 -60,0 -20,-7.537 -40,-7.537 -60,0 -20,7.537 -40,7.537 -60,0 -20,-7.537 -40,-7.537 -60,0 -20,7.537 -40,7.537 -60,0 -20,-7.537 -40,-7.537 -60,0 -20,7.537 -40,7.537 -60,0 -20,-7.537 -40,-7.537 -60,0   z " style="fill-rule:evenodd"/>
    </g>
  </g></g></g><g  fill="#EFD807"><g class="PlaceCharge" transform=" translate(187.5,600) scale(1.3888888888889, 1.3888888888889) " >
<title>a ship</title><g  fill-rule="evenodd" stroke="#000000" stroke-width="3" ><path d="M 242,56.33333 C 318.19047,242.84126 318.19047,242.84126 318.19047,242.84126 M 245.96825,79.3492 C 299.93651,252.36507 299.93651,252.36507 299.93651,252.36507 M 427.71428,184.90475 C 427.71428,184.90475 427.71428,184.90475 380.09524,61.09523 C 409.46032,185.69841 409.46032,185.69841 409.46032,185.69841 M 95.1746,52.36507 C 148.3492,261.09523 148.3492,261.09523 148.3492,261.09523 M 117.39682,240.46031 C 117.39682,240.46031 117.39682,240.46031 95.1746,143.63491 C 109.46031,236.49206 109.46031,236.49206 109.46031,236.49206 M 282.47619,257.92063 C 282.47619,257.92063 282.47619,257.92063 233.26984,168.23809 C 267.39682,256.33333 267.39682,256.33333 267.39682,256.33333"  stroke-width="2.79999995" fill-rule="evenodd"  fill="none"  stroke="#000000" />
<path d="M 92,53.15872 C 132.47619,253.15872 132.47619,253.15872 132.47619,253.15872"  stroke-width="2.79999995" fill-rule="evenodd"  fill="none"  stroke="#000000" />
<path d="M 89.22733,8.1087 L 89.22733,268.83301 L 98.94082,268.83301 L 98.94082,8.1087 L 89.22733,8.1087 z "  stroke-width="3" fill-rule="evenodd"  stroke="#000000" />
<path d="M 228.09349,8.6699 L 228.09349,269.39421 L 237.80698,269.39421 L 237.80698,8.6699 L 228.09349,8.6699 z "  stroke-width="3" fill-rule="evenodd"  stroke="#000000" />
<path d="M 376.55961,9.7923 L 376.55961,270.51661 L 386.2731,270.51661 L 386.2731,9.7923 L 376.55961,9.7923 z "  stroke-width="3" fill-rule="evenodd"  stroke="#000000" />
<path d="M 18.516649,113.61353 L 120.0931,165.01178 L 125.87822,158.27743 L 23.740572,105.19559 L 18.516649,113.61353 z M 41.525687,32.62817 L 143.10214,78.02642 L 148.88726,71.29207 L 46.749611,24.21023 L 41.525687,32.62817 z M 184.06944,32.31175 L 291.64589,79.71 L 299.43101,72.97565 L 189.29336,23.89381 L 184.06944,32.31175 z M 149.83649,119.78668 L 275.58609,172.30732 L 281.37121,165.57297 L 156.74399,113.61352 L 149.83649,119.78668 z M 327.17438,43.53567 L 430.75083,90.93392 L 438.53595,84.19957 L 332.3983,35.11773 L 327.17438,43.53567 z "  stroke-width="3" fill-rule="evenodd"  stroke="#000000" />
<path d="M 71.180252,283.66997 C 148.07204,360.60309 304.60236,372.61227 396.2122,292.13845 L 396.2122,266.60233 C 288.47536,330.23008 197.05917,355.99325 71.180252,271.41954 L 71.180252,283.66997 z "  stroke-width="3" fill-rule="evenodd"  stroke="#000000" />
<path d="M 71.239422,279.89221 C 148.13121,356.82533 304.67679,348.83451 396.28663,268.36069 L 396.28663,242.82457 C 288.54979,306.45232 197.11834,352.21549 71.239422,267.64178 L 71.239422,279.89221 z "  stroke-width="3" fill-rule="evenodd"  stroke="#000000" />
<path d="M 71.304712,265.31408 C 148.1965,342.2472 304.70803,325.52203 396.31787,245.04821 L 396.31787,217.13698 C 290.82581,289.74386 197.18363,337.63736 71.304712,253.06365 L 71.304712,265.31408 z "  stroke-width="3" fill-rule="evenodd"  stroke="#000000" />
<path d="M 71.272072,250.7165 C 148.16386,327.64962 302.68418,320.60803 394.85521,216.00279 L 375.21336,216.00279 C 269.7213,288.60967 197.15099,323.03978 71.272072,238.46607 L 71.272072,250.7165 z "  stroke-width="3" fill-rule="evenodd"  stroke="#000000" />
<path d="M 70.543702,236.13837 C 156.97582,310.82671 271.09003,310.23717 377.29097,216.29465 L 353.72074,216.29465 C 245.9839,283.85077 188.56588,283.76903 97.4811,236.79544 L 70.543702,236.13837 z "  stroke-width="3" fill-rule="evenodd"  stroke="#000000" />
<path d="M 69.785492,240.59257 C 90.55173,242.14819 89.57235,241.97519 110.4705,243.73759 C 122.58061,258.1087 172.3255,275.82312 196.80546,278.05351 C 245.76537,282.5143 302.66804,263.23055 355.76851,216.25929 L 332.19828,216.25929 C 278.32986,250.03735 242.09191,272.5179 190.39809,265.38965 C 164.55118,261.82553 137.08509,250.29801 125.47007,234.13014 C 93.0908,231.43098 38.962482,227.45863 11.421118,227.78095 L 69.785492,240.59257 z "  stroke-width="3" fill-rule="evenodd"  stroke="#000000" />
<path d="M 409.89607,291.45504 L 409.89607,189.86243 L 395.50076,189.86243 L 395.50076,291.45504 L 409.89607,291.45504 z "  stroke-width="3" fill-rule="evenodd"  stroke="#000000" />
<path d="M 424.38019,291.25661 L 424.38019,189.664 L 409.98488,189.664 L 409.98488,291.25661 L 424.38019,291.25661 z "  stroke-width="3" fill-rule="evenodd"  stroke="#000000" />
<path d="M 429.26274,208.89967 L 327.95857,201.24972 L 326.8746,215.60416 L 428.17877,223.25411 L 429.26274,208.89967 z "  stroke-width="3" fill-rule="evenodd"  stroke="#000000" />
<path d="M 430.09883,196.46522 L 328.79466,188.81527 L 327.71069,203.16971 L 429.01486,210.81966 L 430.09883,196.46522 z "  stroke-width="3" fill-rule="evenodd"  stroke="#000000" />
<path d="M 431.09089,184.33029 L 329.78672,176.68034 L 328.70275,191.03478 L 430.00692,198.68473 L 431.09089,184.33029 z "  stroke-width="3" fill-rule="evenodd"  stroke="#000000" />
</g>
<g  fill-rule="evenodd" stroke="#000000" stroke-width="3" ><path d="M 23.2,111 C -0.975,144 28.7,232 93.5,240 81.3,206 71.5,190 120,157 L 23.2,111 z M 49.7,25.9 C 24.1,58 49.8,147 114,158 104,124 94.4,107 144,76.6 L 49.7,25.9 z M 194,27.4 C 170,60.6 162,142 236,153 223,119 243,107 291,73.8 L 194,27.4 z M 158,121 c -58.2,41 0,149 65,157 -12,-34 1,-75 49,-107 L 158,121 z M 335,40.2 C 311,73.4 324,179 389,188 377,154 383,119 431,86.6 L 335,40.2 z"  stroke-width="3" fill-rule="evenodd"  stroke="#000000" />
</g>
<g  fill-rule="evenodd" stroke="#000000" stroke-width="3" ><path d="M 37.4,15 C 58.5,13.2 80.4,13.9 93.8,11.2 97.2,12.8 95.6,27 95,30.1 92.8,32.6 62.5,23.7 37.4,15 z"  stroke-width="3" fill-rule="evenodd"  stroke="#000000" />
<path d="m 174,13.3 c 21,-1.8 45,1.2 59,-1.5 3,1.6 -1,13.5 -1,16.6 -3,2.4 -33,-6.5 -58,-15.1 z"  stroke-width="3" fill-rule="evenodd"  stroke="#000000" />
<path d="m 326,16.5 c 21,-1.8 44,-1.2 58,-3.9 3,1.6 0,15.8 -1,19 -2,2.4 -32,-6.5 -57,-15.1 z"  stroke-width="3" fill-rule="evenodd"  stroke="#000000" />
</g>
</g>
</g><g  fill="#F0F0F0"><g class="PlaceCharge" transform=" translate(277.92978279556,100) scale(1.9585471152795, 1.305698076853) " >
<title>a tower</title><g  ><g  ><g  ><rect width="53.174603" height="72.222221" x="89.166115" y="307.71967" ry="1.2286743"  stroke="#000000" stroke-width="2.5" />
<path d="m26.54,243.5 -5.492,0 -5.561,10.16 -8.739,70.73 -5.402,0 0,57.14 80.1,-1.715 0,-56.94   c0.6063,-16.94 14.84,-24.15 31.44,-24.13 16.6,0.01712 30.75,7.264 31.96,24.13   l0,56.94 80.61,1.715 0,-11.88 0,-45.26 -6.594,0 -10.33,-70.73 -4.211,-10.16 -4.062,0 0,-207.8 -173.7,0 0,207.8   z "  stroke="#000000" stroke-width="2.44743442999999990" />
<path d="m19.54,38.8 187.9,0   c-0.2899,9.233 2.089,13.01 -8.241,16.12   l-174,0   c-9.215,-3.001 -4.441,-8.769 -5.666,-16.12   z "  stroke="#000000" stroke-width="2.44743442999999990" />
<path d="m172.1,1.201 -0.1179,13.54 23.39,0 0.1512,-13.54 23.45,0 -0.2089,13.54 -0.1776,24.54 -210.2,0 -0.1997,-24.54 -0.1947,-13.54 23.45,0 0.137,13.54 23.39,0 -0.07938,-13.54 23.45,0 0.0217,13.54 23.39,0 0.03587,-13.54 23.45,0 -0.09356,13.54 23.39,0 0.1512,-13.54 23.42,0   z "  stroke="#000000" stroke-width="2.21428943000000000" />
<path d="m146.5,313.9 70.28,-0.06575   m-70.96,54.9 78.36,-0.03784   m-77,-15.54 77.44,-0.03707   m-78.45,-15.55 78.18,0   m-77.84,-13.14 77.85,0   m-222.2,0 79.11,0   m-79.25,13.14 78.91,0   m-79.04,15.66 79.38,-0.03784   m-79.52,15.61 79.19,-0.03762   m-42.9,-31.19 0,15.55   m34.55,-15.55 0,15.55   m-11.13,0 0,15.58   m0,-44.26 0,13.14   m94.87,15.55 0,15.58   m0,-44.26 0,13.14   m12.06,0 0,15.55   m18.66,0 0,15.58   m5.972,-44.26 0,13.14   m-182.9,-35.53 204.8,0   m-189.9,-247.7 175.1,0   m-173.6,15.08 173.6,0   m-174.6,18.81 174.6,0   m-174.3,19.78 174.3,0   m-174.3,15.37 173.8,0   m-173.8,17.97 173.8,0   m-173.8,19.04 173.8,0   m-173.8,17.05 173.8,0   m-173.3,15.89 173.3,0   m-173.8,15.83 173.8,0   m-174.8,15.59 174.8,0   m-173.8,18.68 173.8,0   m-183.8,12.54 192.4,0   m-194.2,15.63 197.3,0   m-198.6,15.7 200.5,0   m-175.1,-233.3 0,15.3   m0.4968,18.93 0,19.78   m0,15.37 0,17.97   m0,19.04 0,17.05   m0,15.89 0,15.83   m0,15.59 0,18.68   m0,12.54 -3.029,15.63   m2.596,15.7 -3.029,14.71   m3.46,11.43 -2.014,10.85   m62.51,-270.3 0,15.3   m-14.11,18.93 0,19.78   m14.11,15.37 0,17.97   m0,19.04 0,17.05   m0,15.89 0,15.83   m0,15.59 0,18.68   m-5.898,12.54 -1.731,15.63   m1.731,15.7 -1.731,14.71   m-29.93,-232.6 -0.0265,18.8   m0,19.78 0,15.37   m0,17.97 0,19.04   m0,17.05 0,15.89   m0,15.83 0,15.59   m0,18.68 -3.029,12.54   m3.029,15.63 -1.731,15.7   m1.731,14.71 -1.731,11.43   m80.56,-244 0,18.8   m0,19.78 0,15.37   m-14.42,17.97 0,19.04   m0,17.05 0,15.89   m0,15.83 0,15.59   m-7.378,18.68 1.298,12.54   m8.187,15.63 1.298,15.7   m35.38,-233.3 0,15.3   m-0.4968,18.93 0,19.78   m0,15.37 0,17.97   m0,19.04 0,17.05   m0,15.89 0,15.83   m0,15.59 0,18.68   m0,12.54 2.164,15.63   m-2.164,15.7 2.596,14.71   m1.458,11.43 1.293,9.999   m23.52,-254 0,18.8   m0,19.78 0,15.37   m0,17.97 0,19.04   m-9.485,17.05 0,15.89   m9.485,15.83 0,15.59   m0,18.68 3.894,12.54   m-3.894,15.63 2.596,15.7   m-2.596,14.71 1.731,11.43   m-186,0.5751 71.54,-0.06924   m-62.13,39.59 0,14.71   m19.9,1.298 0,10.38   m172.2,-42.4 0,15.58   m0,15.58 0,11.68   m-84.38,-257.5 0,-15.58   m-26.83,0 0,-19.9   "  fill-rule="evenodd" stroke="#000000" stroke-width="0.97897374999999998" />
<g  ><g  stroke="#000000" stroke-width="1.05687773000000010" ><path d="m60.04,85.5 0,47.71 30.14,0 0,-47.71 -30.14,0   z "  stroke="#000000" stroke-width="1.05687773000000010" />
<path d="m60.04,85.5 0,47.71 30.14,0 0,-47.71 -30.14,0   z m7.559,6.521 15.01,0 0,34.66 -15.01,0 0,-34.66   z "  stroke="#000000" stroke-width="1.05687773000000010" />
</g>
<g  stroke="#000000" stroke-width="1.05687773000000010" ><path d="m136.5,85.5 0,47.71 30.14,0 0,-47.71 -30.14,0   z "  stroke="#000000" stroke-width="1.05687773000000010" />
<path d="m136.5,85.5 0,47.71 30.14,0 0,-47.71 -30.14,0   z m7.559,6.521 15.01,0 0,34.66 -15.01,0 0,-34.66   z "  stroke="#000000" stroke-width="1.05687773000000010" />
</g>
</g>
<path d="m135.5,381.2 10.24,0.06739 0,-69.86   c-1.15,-8.613 -17.02,-12.93 -32.76,-12.94 -15.74,-0.008723 -31.28,4.288 -31.85,12.94   l0,69.86 10.32,-0.06739 0,-64.88   c0.3915,-6.607 10.97,-9.91 21.69,-9.903 10.72,0.006542 21.58,3.323 22.37,9.903   l0,64.88   z "  stroke="#000000" stroke-width="2.44743442999999990" />
</g>
</g>
</g>
</g>
</g></g></g></g><defs><mask id="mask8-1" >
<path fill="#FFFFFF" d="m 0,0 v 800 c -2.5063876,43.11115 1.2341419,84.33503 21.489586,125.13639 20.255443,40.80137 53.477613,79.98631 98.039434,115.63581 44.56181,35.6494 100.44867,67.7517 164.92346,94.7345 64.47479,26.9828 137.51639,48.8374 215.54752,64.4933 78.03113,-15.6559 151.07273,-37.5105 215.54752,-64.4933 64.47479,-26.9828 120.36165,-59.0851 164.92346,-94.7345 44.56182,-35.6495 77.78399,-74.83444 98.03943,-115.63581 C 998.76586,884.33503 1000.1453,841.93063 1000,800 V 0 Z" />
</mask>
</defs></g></svg>
