<?xml version="1.0" encoding="utf-8" ?>
    <svg version="1.1"
        baseProfile="full"
        xmlns="http://www.w3.org/2000/svg"
        xmlns:xlink="http://www.w3.org/1999/xlink" 
         xmlns:rdf="http://www.w3.org/1999/02/22-rdf-syntax-ns#"
         xmlns:cc="http://creativecommons.org/ns#"
         xmlns:dc="http://purl.org/dc/elements/1.1/" 
        preserveAspectRatio="xMidYMid meet" height="600" width="500" viewBox="0,0,1000,1200 ">
<metadata>
<rdf:RDF>
      <cc:Work
         rdf:about="">
        <dc:format>image/svg+xml</dc:format>
        <dc:type
           rdf:resource="http://purl.org/dc/dcmitype/StillImage" />
        <dc:rights>
          <cc:Agent>
            <dc:title>This work is licensed under a &lt;a rel=&quot;license&quot; href=&quot;http://creativecommons.org/licenses/by-nc-sa/4.0/&quot;&gt;Creative Commons Attribution-NonCommercial-ShareAlike 4.0 International License&lt;/a&gt;.</dc:title>
          </cc:Agent>
        </dc:rights>
         <dc:creator>
           <cc:Agent>
              <dc:title>heater shape - https://commons.wikimedia.org/wiki/User:MG
</dc:title>
           </cc:Agent>
        </dc:creator>
      </cc:Work>
      </rdf:RDF>
</metadata>
<defs></defs><g ><g mask="url(#mask8-1)"><g><g><title>quarterly</title><desc>Division used to fill field</desc><g stroke-width="4" stroke="none" ><defs><pattern  patternContentUnits="userSpaceOnUse" patternUnits="userSpaceOnUse" x="2" y="0" width="166.67" height="300" id="pattern6-1" >
<g class="treatment"><g  fill="#F0F0F0"><rect x="0" y="0" width="166.67" height="300" /></g><g stroke-width="2" stroke="none" ><g  fill="#1E7FCB"><g class="treatment"><path d="M0,0 v300l83.33,-150zm166.67,0v300l-83.33,-150z"/></g></g></g></g>
</pattern>
</defs><g  fill="url(#pattern6-1)"><rect x='-100' y='-100' width='1200' height='1400' /></g>
<defs><pattern  patternContentUnits="userSpaceOnUse" patternUnits="userSpaceOnUse" x="0" y="0" width="200" height="200" id="pattern7-1" >
<g class="treatment"><g  fill="#050505"><rect x="0" y="0" width="200" height="200" /></g><g stroke-width="2" stroke="none" ><g  fill="#EFD807"><g>
    <path d="M87.746,137.714 L88.346,116.041 L67.919,123.308 L81.143,106.127 L60.345,100 L81.143,93.873 L67.919,76.691 L88.346,83.959 L87.746,62.286 L100,80.173 L112.254,62.286 L111.654,83.959 L132.081,76.692 L118.857,93.873 L139.655,100 L118.857,106.127 L132.081,123.309 L111.654,116.041 L112.254,137.714 L100,119.827 z"/>
    <path d="M187.746,37.714 L188.346,16.041 L167.919,23.308 L181.143,6.127 L160.345,-0 L181.143,-6.127 L167.919,-23.309 L188.346,-16.041 L187.746,-37.714 L200,-19.827 L212.254,-37.714 L211.654,-16.041 L232.081,-23.308 L218.857,-6.127 L239.655,0 L218.857,6.127 L232.081,23.309 L211.654,16.041 L212.254,37.714 L200,19.827 z"/>
    <path d="M-12.254,37.714 L-11.654,16.041 L-32.081,23.308 L-18.857,6.127 L-39.655,-0 L-18.857,-6.127 L-32.081,-23.309 L-11.654,-16.041 L-12.254,-37.714 L0,-19.827 L12.254,-37.714 L11.654,-16.041 L32.081,-23.308 L18.857,-6.127 L39.655,0 L18.857,6.127 L32.081,23.309 L11.654,16.041 L12.254,37.714 L-0,19.827 z"/>
    <path d="M187.746,237.714 L188.346,216.041 L167.919,223.308 L181.143,206.127 L160.345,200 L181.143,193.873 L167.919,176.691 L188.346,183.959 L187.746,162.286 L200,180.173 L212.254,162.286 L211.654,183.959 L232.081,176.692 L218.857,193.873 L239.655,200 L218.857,206.127 L232.081,223.309 L211.654,216.041 L212.254,237.714 L200,219.827 z"/>
    <path d="M-12.254,237.714 L-11.654,216.041 L-32.081,223.308 L-18.857,206.127 L-39.655,200 L-18.857,193.873 L-32.081,176.691 L-11.654,183.959 L-12.254,162.286 L0,180.173 L12.254,162.286 L11.654,183.959 L32.081,176.692 L18.857,193.873 L39.655,200 L18.857,206.127 L32.081,223.309 L11.654,216.041 L12.254,237.714 L-0,219.827 z"/>
  </g></g></g></g>
</pattern>
</defs><g  fill="url(#pattern7-1)"><path fill-rule="evenodd" d="M500,500 v800   h-600.000   v-800.000  h600zM500,500 v-600.000  h600 v600   h-600.000  z" /></g></g></g></g></g><defs><mask id="mask8-1" >
<path fill="#FFFFFF" d="m 0,0 v 800 c -2.5063876,43.11115 1.2341419,84.33503 21.489586,125.13639 20.255443,40.80137 53.477613,79.98631 98.039434,115.63581 44.56181,35.6494 100.44867,67.7517 164.92346,94.7345 64.47479,26.9828 137.51639,48.8374 215.54752,64.4933 78.03113,-15.6559 151.07273,-37.5105 215.54752,-64.4933 64.47479,-26.9828 120.36165,-59.0851 164.92346,-94.7345 44.56182,-35.6495 77.78399,-74.83444 98.03943,-115.63581 C 998.76586,884.33503 1000.1453,841.93063 1000,800 V 0 Z" />
</mask>
</defs></g></svg>
