<?xml version="1.0" encoding="utf-8" ?>
    <svg version="1.1"
        baseProfile="full"
        xmlns="http://www.w3.org/2000/svg"
        xmlns:xlink="http://www.w3.org/1999/xlink" 
         xmlns:rdf="http://www.w3.org/1999/02/22-rdf-syntax-ns#"
         xmlns:cc="http://creativecommons.org/ns#"
         xmlns:dc="http://purl.org/dc/elements/1.1/" 
        preserveAspectRatio="xMidYMid meet" height="600" width="500" viewBox="0,0,1000,1200 ">
<metadata>
<rdf:RDF>
      <cc:Work
         rdf:about="">
        <dc:format>image/svg+xml</dc:format>
        <dc:type
           rdf:resource="http://purl.org/dc/dcmitype/StillImage" />
        <dc:rights>
          <cc:Agent>
            <dc:title>This work is licensed under a &lt;a rel=&quot;license&quot; href=&quot;http://creativecommons.org/licenses/by-nc-sa/4.0/&quot;&gt;Creative Commons Attribution-NonCommercial-ShareAlike 4.0 International License&lt;/a&gt;.</dc:title>
          </cc:Agent>
        </dc:rights>
         <dc:creator>
           <cc:Agent>
              <dc:title>annulet/annulet - 
Wappen Brienz/Brinzauls (CH-GR)

heater shape - https://commons.wikimedia.org/wiki/User:MG
</dc:title>
           </cc:Agent>
        </dc:creator>
      </cc:Work>
      </rdf:RDF>
</metadata>
<defs></defs><g ><g mask="url(#mask7-1)"><g><g  fill="#E21313"><rect x='0' y='0' width='1000' height='1200'><title>Field</title></rect></g><g transform='translate(0,0)'><g  fill="#149414"><g class="PlaceCharge" transform=" translate(100,218.55574454925) scale(2.0617493943611, 2.0617493943611) " >
<title>three annulets</title><g  transform="matrix(0.06667,0,0,0.06667,-46.002,-58.003)" stroke-miterlimit="10"  ><g  ><path d="m 4140,2700 a 1620,1620 0 0 0 -3240,0 1620,1620 0 0 0 3240,0 z"  stroke="#000000" fill="none" stroke-width="420" />
<path d="m 6300,2700 a 1620,1620 0 0 0 -3240,0 1620,1620 0 0 0 3240,0 z"  stroke="#000000" fill="none" stroke-width="420" />
<path d="m 5220,4590 a 1620,1620 0 0 0 -3240,0 1620,1620 0 0 0 3240,0 z"  stroke="#000000" fill="none" stroke-width="420" />
<path d="m 2520,900 c -477.3,0 -935.3,189.7 -1272.8,527.2 -337.51,337.5 -527.2,795.5 -527.2,1272.8 0,477.3 189.69,935.3 527.2,1272.8 337.5,337.5 795.5,527.2 1272.8,527.2 477.3,0 935.3,-189.7 1272.8,-527.2 337.5,-337.5 527.2,-795.5 527.2,-1272.8 0,-477.3 -189.7,-935.3 -527.2,-1272.8 -337.5,-337.5 -795.5,-527.2 -1272.8,-527.2 z m 0,360 c 382,0 748.1,151.7 1018.2,421.8 270.1,270.1 421.8,636.2 421.8,1018.2 0,382 -151.7,748.1 -421.8,1018.2 -270.1,270.1 -636.2,421.8 -1018.2,421.8 -382,0 -748.1,-151.7 -1018.2,-421.8 -270.1,-270.1 -421.8,-636.2 -421.8,-1018.2 0,-382 151.7,-748.1 421.8,-1018.2 270.1,-270.1 636.2,-421.8 1018.2,-421.8 z"  />
<path d="m 4680,900 c -477.3,0 -935.3,189.7 -1272.8,527.2 -337.5,337.5 -527.2,795.5 -527.2,1272.8 0,477.3 189.7,935.3 527.2,1272.8 337.5,337.5 795.5,527.2 1272.8,527.2 477.3,0 935.3,-189.7 1272.8,-527.2 337.5,-337.5 527.2,-795.5 527.2,-1272.8 0,-477.3 -189.7,-935.3 -527.2,-1272.8 -337.5,-337.5 -795.5,-527.2 -1272.8,-527.2 z m 0,360 c 382,0 748.1,151.7 1018.2,421.8 270.1,270.1 421.8,636.2 421.8,1018.2 0,382 -151.7,748.1 -421.8,1018.2 -270.1,270.1 -636.2,421.8 -1018.2,421.8 -382,0 -748.1,-151.7 -1018.2,-421.8 -270.1,-270.1 -421.8,-636.2 -421.8,-1018.2 0,-382 151.7,-748.1 421.8,-1018.2 270.1,-270.1 636.2,-421.8 1018.2,-421.8 z"  />
<path d="m 3600,2790 c -477.3,0 -935.3,189.7 -1272.8,527.2 -337.5,337.5 -527.2,795.5 -527.2,1272.8 0,477.3 189.7,935.3 527.2,1272.8 337.5,337.5 795.5,527.2 1272.8,527.2 477.3,0 935.3,-189.7 1272.8,-527.2 337.5,-337.5 527.2,-795.5 527.2,-1272.8 0,-477.3 -189.7,-935.3 -527.2,-1272.8 -337.5,-337.5 -795.5,-527.2 -1272.8,-527.2 z m 0,360 c 382,0 748.1,151.7 1018.2,421.8 270.1,270.1 421.8,636.2 421.8,1018.2 0,382 -151.7,748.1 -421.8,1018.2 -270.1,270.1 -636.2,421.8 -1018.2,421.8 -382,0 -748.1,-151.7 -1018.2,-421.8 -270.1,-270.1 -421.8,-636.2 -421.8,-1018.2 0,-382 151.7,-748.1 421.8,-1018.2 270.1,-270.1 636.2,-421.8 1018.2,-421.8 z"  />
<path d="m 3060,2700 a 1620,1620 0 0 1 3240,0"  stroke="#000000" fill="none" stroke-width="420" />
<path d="m 4680,900 c -477.3,0 -935.3,189.7 -1272.8,527.2 -337.5,337.5 -527.2,795.5 -527.2,1272.8 a 180.02,180.02 0 1 0 360,0 c 0,-382 151.7,-748.1 421.8,-1018.2 270.1,-270.1 636.2,-421.8 1018.2,-421.8 382,0 748.1,151.7 1018.2,421.8 270.1,270.1 421.8,636.2 421.8,1018.2 a 180.02,180.02 0 1 0 360,0 c 0,-477.3 -189.7,-935.3 -527.2,-1272.8 -337.5,-337.5 -795.5,-527.2 -1272.8,-527.2 z"  />
<path d="m 5220,4590 a 1620,1620 0 0 0 -1620,-1620"  stroke="#000000" fill="none" stroke-width="420" />
<path d="m 3600,2790 a 180.02,180.02 0 1 0 0,360 c 382,0 748.1,151.7 1018.2,421.8 270.1,270.1 421.8,636.2 421.8,1018.2 a 180.02,180.02 0 1 0 360,0 c 0,-477.3 -189.7,-935.3 -527.2,-1272.8 -337.5,-337.5 -795.5,-527.2 -1272.8,-527.2 z"  />
<path d="m 4140,2700 a 1620,1620 0 0 1 -1620,1620"  stroke="#000000" fill="none" stroke-width="420" />
<path d="m 4137.3,2517.5 a 180.02,180.02 0 0 0 -177.3,182.5 c 0,382 -151.7,748.1 -421.8,1018.2 -270.1,270.1 -636.2,421.8 -1018.2,421.8 a 180.02,180.02 0 1 0 0,360 c 477.3,0 935.3,-189.7 1272.8,-527.2 337.5,-337.5 527.2,-795.5 527.2,-1272.8 a 180.02,180.02 0 0 0 -182.7,-182.5 z"  />
<path d="m 3060,2700 a 1620,1620 0 0 0 1620,1620"  stroke="#000000" fill="none" stroke-width="420" />
<path d="m 3057.3,2517.5 a 180.02,180.02 0 0 0 -177.3,182.5 c 0,477.3 189.7,935.3 527.2,1272.8 337.5,337.5 795.5,527.2 1272.8,527.2 a 180.02,180.02 0 1 0 0,-360 c -382,0 -748.1,-151.7 -1018.2,-421.8 -270.1,-270.1 -421.8,-636.2 -421.8,-1018.2 a 180.02,180.02 0 0 0 -182.7,-182.5 z"  />
<path d="m 1980,4590 a 1620,1620 0 0 1 1620,-1620"  stroke="#000000" fill="none" stroke-width="420" />
<path d="m 3600,2790 c -477.3,0 -935.3,189.7 -1272.8,527.2 -337.5,337.5 -527.2,795.5 -527.2,1272.8 a 180.02,180.02 0 1 0 360,0 c 0,-382 151.7,-748.1 421.8,-1018.2 270.1,-270.1 636.2,-421.8 1018.2,-421.8 a 180.02,180.02 0 1 0 0,-360 z"  />
<path d="m 900,2700 a 1620,1620 0 0 0 1620,1620"  stroke="#000000" fill="none" stroke-width="420" />
<path d="m 897.29,2517.5 a 180.02,180.02 0 0 0 -177.29,182.5 c 0,477.3 189.69,935.3 527.2,1272.8 337.5,337.5 795.5,527.2 1272.8,527.2 a 180.02,180.02 0 1 0 0,-360 c -382,0 -748.1,-151.7 -1018.2,-421.8 -270.1,-270.1 -421.8,-636.2 -421.8,-1018.2 a 180.02,180.02 0 0 0 -182.71,-182.5 z"  />
</g>
</g>
</g>
</g></g></g></g><defs><mask id="mask7-1" >
<path fill="#FFFFFF" d="m 0,0 v 800 c -2.5063876,43.11115 1.2341419,84.33503 21.489586,125.13639 20.255443,40.80137 53.477613,79.98631 98.039434,115.63581 44.56181,35.6494 100.44867,67.7517 164.92346,94.7345 64.47479,26.9828 137.51639,48.8374 215.54752,64.4933 78.03113,-15.6559 151.07273,-37.5105 215.54752,-64.4933 64.47479,-26.9828 120.36165,-59.0851 164.92346,-94.7345 44.56182,-35.6495 77.78399,-74.83444 98.03943,-115.63581 C 998.76586,884.33503 1000.1453,841.93063 1000,800 V 0 Z" />
</mask>
</defs></g></svg>
