<?xml version="1.0" encoding="utf-8" ?>
    <svg version="1.1"
        baseProfile="full"
        xmlns="http://www.w3.org/2000/svg"
        xmlns:xlink="http://www.w3.org/1999/xlink" 
         xmlns:rdf="http://www.w3.org/1999/02/22-rdf-syntax-ns#"
         xmlns:cc="http://creativecommons.org/ns#"
         xmlns:dc="http://purl.org/dc/elements/1.1/" 
        preserveAspectRatio="xMidYMid meet" height="1200" width="1000" viewBox="0,0,1030,1230 ">
<metadata>
<rdf:RDF>
      <cc:Work
         rdf:about="">
        <dc:format>image/svg+xml</dc:format>
        <dc:type
           rdf:resource="http://purl.org/dc/dcmitype/StillImage" />
        <dc:rights>
          <cc:Agent>
            <dc:title>This work is licensed under a &lt;a rel=&quot;license&quot; href=&quot;http://creativecommons.org/licenses/by-nc-sa/4.0/&quot;&gt;Creative Commons Attribution-NonCommercial-ShareAlike 4.0 International License&lt;/a&gt;.</dc:title>
          </cc:Agent>
        </dc:rights>
         <dc:creator>
           <cc:Agent>
              <dc:title>heater shape - https://commons.wikimedia.org/wiki/User:MG
</dc:title>
           </cc:Agent>
        </dc:creator>
      </cc:Work>
      </rdf:RDF>
</metadata>
<defs>
      <filter id="shiny" x="0" y="0" width="150%" height="150%">
      <feGaussianBlur in = "SourceAlpha" stdDeviation = "4" result = "blur1"/>
        <feSpecularLighting result = "specOut" in = "blur1" specularExponent = "20" lighting-color = "#696969">
            <fePointLight x = "300" y = "300" z = "500"/>
        </feSpecularLighting>
        <feComposite result="highlight" in = "SourceGraphic" in2 = "specOut" operator = "arithmetic" k1 = "0" k2 = "1" k3 = "1" k4 = "0"/>
      <feOffset result="offOut" in="SourceGraphic" dx="14" dy="14" />
      <feColorMatrix result = "matrixOut" in = "offOut" type = "matrix" values = "0.2 0 0 0 0 0 0.2 0 0 0 0 0 0.2 0 0 0 0 0 1 0"/>
      <feGaussianBlur result="blurOut" in="matrixOut" stdDeviation="10" />
      <feBlend in="highlight" in2="blurOut" mode="normal"/>
    </filter></defs><g  filter="url(#shiny)" ><g mask="url(#mask7-1)"><g><g><title>orly</title><desc>Division used to fill field</desc><g stroke-width="4" stroke="none" ><g  fill="#da1219"><rect x='-100' y='-100' width='1200' height='1400' /></g>
<g  fill="#fcdd07">              <path
                 fill-rule="evenodd"
                 d="M 932,68 V 805.408 C 932.864,976.48 599.77064,1121.626 500,1132 380.12465,1105.2909 67.136,976.48 68,805.408 V 68 Z m -60,60 H 128 V 781.008 C 127.336,912.48 328.688,1032.16 500,1072 671.312,1032.16 872.664,912.48 872,781.008 Z"
                 id="path2" />
              <path
                 fill-rule="evenodd"
                 d="M 832,168 V 705.408 C 832.864,876.48 655.0586,996.49508 500,1032 328.60632,978.90346 167.136,876.48 168,705.408 V 168 Z m -60,60 H 228 V 681.008 C 227.336,812.48 328.688,932.16 500,972 671.312,932.16 772.664,812.48 772,681.008 Z"
                 id="path7" />
              <path
                 fill-rule="evenodd"
                 d="M 732,268 V 605.408 C 732.864,776.48 655.0586,896.49508 500,932 328.60632,878.90346 267.136,776.48 268,605.408 V 268 Z m -60,60 H 328 V 581.008 C 327.336,712.48 328.688,832.16 500,872 671.312,832.16 672.664,712.48 672,581.008 Z"
                 id="path8" />
              <path
                 fill-rule="evenodd"
                 d="M 632,368 V 505.408 C 632.864,676.48 616.10572,799.00817 500,832 376.35501,790.21236 367.136,676.48 368,505.408 V 368 Z m -56,56 H 422 v 57.008 C 418.82291,613.73654 404.08067,736.16 500,776 585.86697,743.69927 576.664,612.48 576,481.008 Z"
                 id="path9" /></g></g></g></g></g><defs><mask id="mask7-1" >
<path fill="#FFFFFF" d="m 0,0 v 800 c -2.5063876,43.11115 1.2341419,84.33503 21.489586,125.13639 20.255443,40.80137 53.477613,79.98631 98.039434,115.63581 44.56181,35.6494 100.44867,67.7517 164.92346,94.7345 64.47479,26.9828 137.51639,48.8374 215.54752,64.4933 78.03113,-15.6559 151.07273,-37.5105 215.54752,-64.4933 64.47479,-26.9828 120.36165,-59.0851 164.92346,-94.7345 44.56182,-35.6495 77.78399,-74.83444 98.03943,-115.63581 C 998.76586,884.33503 1000.1453,841.93063 1000,800 V 0 Z" />
</mask>
</defs></g></svg>
