<?xml version="1.0" encoding="utf-8" ?>
    <svg version="1.1"
        baseProfile="full"
        xmlns="http://www.w3.org/2000/svg"
        xmlns:xlink="http://www.w3.org/1999/xlink" 
         xmlns:rdf="http://www.w3.org/1999/02/22-rdf-syntax-ns#"
         xmlns:cc="http://creativecommons.org/ns#"
         xmlns:dc="http://purl.org/dc/elements/1.1/" 
        preserveAspectRatio="xMidYMid meet" height="600" width="500" viewBox="0,0,1000,1200 ">
<metadata>
<rdf:RDF>
      <cc:Work
         rdf:about="">
        <dc:format>image/svg+xml</dc:format>
        <dc:type
           rdf:resource="http://purl.org/dc/dcmitype/StillImage" />
        <dc:rights>
          <cc:Agent>
            <dc:title>This work is licensed under a &lt;a rel=&quot;license&quot; href=&quot;http://creativecommons.org/licenses/by-nc-sa/4.0/&quot;&gt;Creative Commons Attribution-NonCommercial-ShareAlike 4.0 International License&lt;/a&gt;.</dc:title>
          </cc:Agent>
        </dc:rights>
         <dc:creator>
           <cc:Agent>
              <dc:title>raven/bird - Raven Close
heater shape - https://commons.wikimedia.org/wiki/User:MG
</dc:title>
           </cc:Agent>
        </dc:creator>
      </cc:Work>
      </rdf:RDF>
</metadata>
<defs></defs><g ><g mask="url(#mask8-1)"><g><g><title>per-fess</title><desc>Division used to fill field</desc><g stroke-width="4" stroke="none" ><g  fill="#149414"><rect x='-100' y='-100' width='1200' height='1400' /></g>
<defs><pattern  patternContentUnits="userSpaceOnUse" patternUnits="userSpaceOnUse" x="0" y="0" width="200" height="200" id="pattern7-1" >
<g class="treatment"><g  fill="#1E7FCB"><rect x="0" y="0" width="200" height="200" /></g><g stroke-width="2" stroke="none" ><g  fill="#149414"><path d="m 64.123375,18.100649 c -10e-7,9.100146 -7.304447,16.477272 -16.314936,16.477271 -9.010489,-10e-7 -16.314933,-7.377126 -16.314934,-16.477271 0,-9.100146 7.304445,-16.4772718 16.314934,-16.4772724 9.01049,-6e-7 16.314936,7.3771256 16.314936,16.4772724 z" style="opacity:1;"/><path style="opacity:1;" d="m 88.798699,69.237013 c -10e-7,9.100146 -7.304447,16.477272 -16.314936,16.477271 -9.010489,-1e-6 -16.314933,-7.377126 -16.314934,-16.477271 0,-9.100146 7.304445,-16.477272 16.314934,-16.477273 9.01049,-10e-7 16.314936,7.377126 16.314936,16.477273 z"/><path style="opacity:1;" d="m 40.422076,69.237013 c -10e-7,9.100146 -7.304447,16.477272 -16.314936,16.477271 -9.010489,-1e-6 -16.3149326,-7.377126 -16.3149337,-16.477271 0,-9.100146 7.3044447,-16.477272 16.3149337,-16.477273 9.01049,-10e-7 16.314936,7.377126 16.314936,16.477273 z"/><path style="opacity:1;" d="m 166.72078,119.07467 c 0,9.10015 -7.30445,16.47728 -16.31494,16.47728 -9.01049,0 -16.31493,-7.37713 -16.31493,-16.47728 0,-9.10014 7.30444,-16.47727 16.31493,-16.47727 9.01049,0 16.31494,7.37712 16.31494,16.47727 z"/><path d="m 191.3961,170.21104 c 0,9.10014 -7.30444,16.47727 -16.31493,16.47727 -9.01049,0 -16.31494,-7.37712 -16.31494,-16.47727 0,-9.10015 7.30445,-16.47727 16.31494,-16.47727 9.01049,0 16.31493,7.37713 16.31493,16.47727 z" style="opacity:1;"/><path d="m 143.01948,170.21104 c 0,9.10015 -7.30445,16.47727 -16.31494,16.47727 -9.01049,0 -16.31493,-7.37713 -16.31493,-16.47727 0,-9.10014 7.30444,-16.47727 16.31493,-16.47727 9.01049,0 16.31494,7.37712 16.31494,16.47727 z" style="opacity:1;"/></g></g></g>
</pattern>
</defs><g  fill="url(#pattern7-1)"><path fill-rule="evenodd" d="M-100,500h1200 v800   h-1200.000   v-800.000  z" /></g></g></g><g transform='translate(0,0)'><g  fill="#050505"><g class="PlaceCharge" transform=" translate(100,128.76860622463) scale(0.9021199819576, 0.9021199819576) " >
<title>three ravens</title><style type="text/css"  />
<g  transform="translate(-3.2315,-14.693)"  ><g  transform="translate(4.7333,-19.514)"  ><g  transform="rotate(-168.1,71.558,287.08)"  ><g  transform="rotate(112.8,92.183,306.84)"  ><g  transform="rotate(45,58.618,372.56)"  ><g  ><g  transform="matrix(0.87463,-0.48481,0.48481,0.87463,-145.94,17.717)"  ><path d="m 53.91,380.98 a 371.79,244.9 0 0 1 -51.9,26.04 5.1211,3.3733 -180 1 0 6.59,5.16 167.4,110.26 -180 0 0 53.55,-24.15 6.8171,4.4904 -180 0 0 -8.24,-7.05 z"  class="st1"  stroke="#696969" stroke-width="1.5" />
</g>
<g  transform="rotate(5,171.64,550.36)"  ><path d="m 40.55,391.3 14.83,2.63 a 6.1912,6.1912 -180 0 0 11.57,-3.06 6.1485,6.1485 -180 0 0 -9.05,-5.42 l -17.06,-3.01 -25.68,-9.27 a 6.1485,6.1485 -180 0 0 -11.06,3.7 6.1485,6.1485 -180 0 0 9.58,5.1 l 7.23,2.63 -11.32,2.2 a 6.1485,6.1485 -180 0 0 -9.59,5.1 6.1485,6.1485 -180 0 0 11.18,3.54 l 16.22,-3.16 -8.2,8.5 a 6.1485,6.1485 -180 0 0 -6.22,6.15 6.1485,6.1485 -180 0 0 12.29,0.19 z"  class="st1"  stroke="#696969" stroke-width="1.5" />
</g>
</g>
<g  transform="rotate(5,19.752,389.24)"  ><g  transform="translate(1.5094,-45.447)"  fill="#666666" ><path d="m 20.84,404.56 a 16.086,20.051 -180 0 0 -20.84,8.52 22.506,28.052 0 0 1 18.1,-3.41 2.6214,3.2673 -180 0 0 2.74,-5.11 z"  class="st1"  fill="#666666" stroke="#696969" stroke-width="1.5" />
</g>
<g  transform="rotate(-15,-87.257,401.59)"  fill="#666666" ><path d="m 20.84,404.56 a 16.086,20.051 -180 0 0 -20.84,8.52 22.506,28.052 0 0 1 18.1,-3.41 2.6214,3.2673 -180 0 0 2.74,-5.11 z"  class="st1"  fill="#666666" stroke="#696969" stroke-width="1.5" />
</g>
<g  transform="rotate(-45,10.397,387.98)"  fill="#666666" ><path d="m 20.84,404.56 a 16.086,20.051 -180 0 0 -20.84,8.52 22.506,28.052 0 0 1 18.1,-3.41 2.6214,3.2673 -180 0 0 2.74,-5.11 z"  class="st1"  fill="#666666" stroke="#696969" stroke-width="1.5" />
</g>
<g  transform="matrix(-0.70711,-0.70711,-0.70711,0.70711,376.88,103.72)"  fill="#666666" ><path d="m 20.84,404.56 a 16.086,20.051 -180 0 0 -20.84,8.52 22.506,28.052 0 0 1 18.1,-3.41 2.6214,3.2673 -180 0 0 2.74,-5.11 z"  class="st1"  fill="#666666" stroke="#696969" stroke-width="1.5" />
</g>
</g>
</g>
</g>
<g  transform="rotate(120,45.329,355.18)"  ><g  ><path d="m 92.02,320.27 a 105.12,129.28 -180 0 0 -72.65,44.52 18.135,22.304 0 0 1 -19.37,5.02 16.233,19.965 -180 0 0 9.18,10.03 11.098,13.649 0 0 1 -8.16,12.54 16.221,19.95 -180 0 0 16.31,-5.01 18.758,23.071 -180 0 0 -5.35,25.71 24.248,29.823 0 0 1 24.73,-19.13 7.6632,9.425 -180 0 0 2.8,16.93 11.04,13.578 0 0 1 7.65,-17.87 55.919,68.775 -180 0 0 22.18,-27.27 20.004,24.603 0 0 1 22.43,-7.84 z"  class="st2"  stroke="#696969" stroke-width="3" />
</g>
</g>
</g>
<g  transform="rotate(-40,52.03,-2.8829)"  ><g  ><path d="m 48.11,283.89 -5.32,-0.35 0.11,-0.6 -9.43,-1.31 -9.85,32.49 a 22.665,16.955 -180 0 1 -16.79,5.54 13.914,10.409 0 0 0 14.03,3.58 l -5.57,18.38 a 15.256,11.412 -180 0 1 -15.29,0.18 12.768,9.5507 0 0 0 13.1,7.05 l -7.1,23.4 a 14.184,6.8935 -173.98 0 0 7.78,7.99 l -0.01,0.1 h 0.14 0.13 l 0.01,-0.1 a 14.184,6.8935 -173.98 0 0 11.08,-5.38 l 2.72,-14.04 -4.47,26.76 a 14.272,7.7584 -177.44 0 0 8.66,8.3 l -0.01,0.1 h 0.14 0.13 l 0.01,-0.1 a 14.272,7.7584 -177.44 0 0 10.48,-7.02 l 0.66,-9.06 -1.19,24.29 a 16.179,8.9208 -179.95 0 0 10.86,8.87 v 0.1 h 0.16 0.15 v -0.1 a 16.179,8.9208 -179.95 0 0 10.9,-8.84 l -0.93,-21.19 0.4,5.92 a 14.273,7.758 -2.46 0 0 10.45,7.05 l 0.01,0.1 h 0.13 0.14 l -0.01,-0.1 a 14.273,7.758 -2.46 0 0 8.7,-8.28 l -3.7,-22.77 1.94,10.01 a 14.184,6.8935 -6.02 0 0 11.09,5.38 l 0.01,0.1 h 0.13 0.14 l -0.01,-0.1 a 14.184,6.8935 -6.02 0 0 7.77,-7.99 l -7.09,-23.4 a 12.768,9.5507 -180 0 0 13.09,-7.05 15.256,11.412 0 0 1 -15.28,-0.18 l -5.58,-18.38 a 13.914,10.409 -180 0 0 14.04,-3.58 22.665,16.955 0 0 1 -16.8,-5.54 l -9.85,-32.49 -9.43,1.31 0.12,0.62 -4.77,0.31 -0.02,-0.52 h -10.88 z"  class="st3"  stroke="#696969" stroke-width="3" />
</g>
<g  transform="translate(25.719,-24.744)"  ><g  transform="rotate(-85.355,8.3452,404.03)"  ><path d="m 0,413.08 h 103.06"  class="st4"  stroke="#696969" stroke-width="3" />
</g>
<g  transform="rotate(-80.571,-7.3651,406.83)"  ><path d="m 0,413.08 h 92.62"  class="st4"  stroke="#696969" stroke-width="3" />
</g>
<g  transform="matrix(-0.08097,-0.99672,-0.99672,0.08097,450.79,379.63)"  ><path d="m 0,413.08 h 103.06"  class="st4"  stroke="#696969" stroke-width="3" />
</g>
<g  transform="matrix(-0.16382,-0.98649,-0.98649,0.16382,463.26,332.92)"  ><path d="m 0,413.08 h 92.62"  class="st4"  stroke="#696969" stroke-width="3" />
</g>
</g>
</g>
<g  transform="rotate(176.6,107.73,309.04)"  ><g  transform="rotate(120,89.892,310.67)"  ><g  transform="rotate(45,58.618,372.56)"  ><g  ><g  transform="rotate(-29,-38.718,291.01)"  ><path d="m 53.91,380.98 a 371.79,244.9 0 0 1 -51.9,26.04 5.1211,3.3733 -180 1 0 6.59,5.16 167.4,110.26 -180 0 0 53.55,-24.15 6.8171,4.4904 -180 0 0 -8.24,-7.05 z"  class="st1"  stroke="#696969" stroke-width="1.5" />
</g>
<g  transform="rotate(5,171.64,550.36)"  ><path d="m 40.55,391.3 14.83,2.63 a 6.1912,6.1912 -180 0 0 11.57,-3.06 6.1485,6.1485 -180 0 0 -9.05,-5.42 l -17.06,-3.01 -25.68,-9.27 a 6.1485,6.1485 -180 0 0 -11.06,3.7 6.1485,6.1485 -180 0 0 9.58,5.1 l 7.23,2.63 -11.32,2.2 a 6.1485,6.1485 -180 0 0 -9.59,5.1 6.1485,6.1485 -180 0 0 11.18,3.54 l 16.22,-3.16 -8.2,8.5 a 6.1485,6.1485 -180 0 0 -6.22,6.15 6.1485,6.1485 -180 0 0 12.29,0.19 z"  class="st1"  stroke="#696969" stroke-width="1.5" />
</g>
</g>
<g  transform="rotate(5,19.752,389.24)"  ><g  transform="translate(1.5094,-45.447)"  fill="#666666" ><path d="m 20.84,404.56 a 16.086,20.051 -180 0 0 -20.84,8.52 22.506,28.052 0 0 1 18.1,-3.41 2.6214,3.2673 -180 0 0 2.74,-5.11 z"  class="st1"  fill="#666666" stroke="#696969" stroke-width="1.5" />
</g>
<g  transform="rotate(-15,-87.257,401.59)"  fill="#666666" ><path d="m 20.84,404.56 a 16.086,20.051 -180 0 0 -20.84,8.52 22.506,28.052 0 0 1 18.1,-3.41 2.6214,3.2673 -180 0 0 2.74,-5.11 z"  class="st1"  fill="#666666" stroke="#696969" stroke-width="1.5" />
</g>
<g  transform="rotate(-45,10.397,387.98)"  fill="#666666" ><path d="m 20.84,404.56 a 16.086,20.051 -180 0 0 -20.84,8.52 22.506,28.052 0 0 1 18.1,-3.41 2.6214,3.2673 -180 0 0 2.74,-5.11 z"  class="st1"  fill="#666666" stroke="#696969" stroke-width="1.5" />
</g>
<g  transform="matrix(-0.70711,-0.70711,-0.70711,0.70711,376.88,103.72)"  fill="#666666" ><path d="m 20.84,404.56 a 16.086,20.051 -180 0 0 -20.84,8.52 22.506,28.052 0 0 1 18.1,-3.41 2.6214,3.2673 -180 0 0 2.74,-5.11 z"  class="st1"  fill="#666666" stroke="#696969" stroke-width="1.5" />
</g>
</g>
</g>
</g>
<g  transform="rotate(120,45.329,355.18)"  ><g  ><path d="m 92.02,320.27 a 105.12,129.28 -180 0 0 -72.65,44.52 18.135,22.304 0 0 1 -19.37,5.02 16.233,19.965 -180 0 0 9.18,10.03 11.098,13.649 0 0 1 -8.16,12.54 16.221,19.95 -180 0 0 16.31,-5.01 18.758,23.071 -180 0 0 -5.35,25.71 24.248,29.823 0 0 1 24.73,-19.13 7.6632,9.425 -180 0 0 2.8,16.93 11.04,13.578 0 0 1 7.65,-17.87 55.919,68.775 -180 0 0 22.18,-27.27 20.004,24.603 0 0 1 22.43,-7.84 z"  class="st2"  stroke="#696969" stroke-width="3" />
</g>
</g>
</g>
<g  transform="rotate(-20,-281.44,54.965)"  ><path d="m 18.4,225.91 a 73.013,73.013 -180 0 0 -9.3,83.76 851.02,851.02 -180 0 0 10.86,16.54 32.7,32.7 0 0 1 6.72,37.23 20.262,20.262 -180 0 0 13.96,-26.88 44.649,44.649 0 0 1 -5.17,42.39 18.585,18.585 -180 0 0 17.06,-18.61 24.923,24.923 -85.48 0 0 28.95,31.02 11.403,11.403 112.14 0 1 -4.65,-19.65 15.775,15.775 0 0 1 11.37,28.96 15.253,15.253 -106.76 0 0 24.31,-10.34 32.318,32.318 -45 0 0 22.23,22.75 33.909,33.909 173.97 0 1 -2.59,-24.82 22.35,22.35 -45 0 0 21.2,16.54 18.19,18.19 116.74 0 1 -10.34,-21.71 38.741,38.741 -45 0 0 35.68,3.1 l -48.67,-78.95 a 161.9,161.9 -180 0 0 -44.4,-72.02 63.768,63.768 -95.53 0 0 -67.22,-9.31 z"  class="st3"  stroke="#696969" stroke-width="3" />
</g>
<g  transform="rotate(-20,-297.25,-70.209)"  ><g  ><path d="m 110.34,315.76 a 522.4,466.73 -87 0 0 2.48,1.15 18.882,16.87 -87 0 0 -11.49,-14.37 564.42,504.27 93 0 1 -6.46,-3.34 534.74,435.14 -86.55 0 0 3.95,1.9 19.328,15.728 -86.55 0 0 -10.86,-14.36 1793.6,1299.2 91.71 0 1 -3.35,-1.84 534.7,387.33 -88.29 0 0 4.3,1.99 19.327,14 -88.29 0 0 -9.01,-13.22 2622.8,1620.8 -90.24 0 0 -4.02,-2.44 577.72,418.49 -88.29 0 0 2.84,1.46 19.327,14 91.71 0 1 1.21,0.46 32.834,20.309 -91.53 0 0 -9.41,-12.48 l -3.67,-2.1 a 4.0121,4.0121 -92.13 0 0 -1.82,-1.87 34.907,34.907 -1.87 0 0 -64.97,8.58 66.082,66.082 -1.87 0 0 33.69,60.41 16.192,16.192 -13.58 0 0 1.89,-1.36 581.54,519.57 -87 0 0 43.17,29.91 4.521,4.521 -2.13 0 0 0.35,0.21 581.54,519.57 -87 0 0 69.67,35.68 21.02,18.78 -87 0 0 -0.21,-0.95 581.54,581.54 -2.13 0 0 68.84,23.9 21.02,21.02 -2.13 0 0 -11.72,-12.81 19.899,19.899 -2.04 0 0 -15.22,-12.84 594.83,594.83 178.13 0 1 -10.87,-3.55 522.4,522.4 -0.56 0 0 2.86,0.92 18.882,18.882 -0.56 0 0 -14.15,-13.25 564.42,564.42 0 0 1 -7.52,-2.75 534.75,487.04 -91 0 0 4.59,1.53 19.329,17.604 -91 0 0 -13.45,-13.31 1793.8,1454.1 86 0 1 -3.92,-1.52 534.75,433.49 -94 0 0 4.99,1.59 19.329,15.668 -94 0 0 -11.29,-12.34 2624.1,1813.3 -96.3 0 0 -1.31,-0.58 21.02,18.78 -87 0 0 -0.12,-0.3 v 0 a 19.329,15.668 86 0 1 1.39,0.34 32.865,22.71 -98 0 0 -9.65,-10.45 19.899,17.779 -87 0 0 -12.36,-13.59 594.83,531.44 93 0 1 -9.39,-4.42 z"  class="st3"  stroke="#696969" stroke-width="3" />
</g>
<g  transform="rotate(-2,214.89,265.46)"  ><g  transform="translate(75.789)"  ><g  ><g  transform="translate(16.277,-71.457)"  ><path d="m 46.97,413.08 a 32.865,22.71 -96 0 0 -11.24,-11.97 l -32.9,-14.82 -2.83,5.07 a 577.77,468.36 -92 0 0 45.6,21.32 19.329,15.668 88 0 1 1.37,0.4 z"  class="st1"  stroke="#696969" stroke-width="1.5" />
</g>
<g  transform="translate(12.231,-58.199)"  ><path d="m 55.83,410.9 a 534.75,433.49 -92 0 0 6.04,2.18 19.329,15.668 -92 0 0 -10.85,-12.73 2624.1,1813.3 -94.3 0 0 -47.47,-21.92 l -3.55,7.1 a 1484.6,1352.2 -90.96 0 0 55.83,25.37 z"  class="st1"  stroke="#696969" stroke-width="1.5" />
</g>
<g  transform="translate(9.4689,-44.533)"  ><path d="m 72.01,411.39 a 534.75,487.04 -89 0 0 4.53,1.69 19.329,17.604 -89 0 0 -12.98,-13.78 1793.8,1454.1 88 0 1 -60.45,-27.71 l -3.11,5.27 a 565.87,565.87 -0.13 0 0 72.01,34.53 z"  class="st1"  stroke="#696969" stroke-width="1.5" />
</g>
<g  transform="translate(6.5607,-29.477)"  ><path d="m 93.19,412.06 a 522.4,522.4 -177.61 0 0 2.83,1.02 18.882,18.882 -177.61 0 0 -13.68,-13.74 564.42,564.42 91.2 0 1 -7.42,-3.01 534.75,487.04 91 0 1 -71.83,-34.58 l -3.09,5.54 a 522.4,522.4 -177.61 0 0 5.06,3.04 594.83,594.83 -180 0 0 88.13,41.73 z"  class="st1"  stroke="#696969" stroke-width="1.5" />
</g>
<g  ><path d="m 95.35,388.72 a 550.54,550.54 0 0 1 -91.94,-45.38 l -3.41,6.1 a 581.54,581.54 -180 0 0 136.52,63.64 21.02,21.02 -180 0 0 -15.78,-14.73 628.32,628.32 0 0 1 -25.39,-9.63 z"  class="st1"  stroke="#696969" stroke-width="1.5" />
</g>
<g  transform="translate(3.2488,-12.625)"  ><path d="m 91.57,402.39 a 550.54,550.54 -180 0 0 30.61,10.69 19.899,19.899 -180 0 0 -14.94,-13.95 594.83,594.83 0 0 1 -10.74,-3.93 522.4,522.4 1.91 0 1 -88.13,-41.72 594.83,594.83 0 0 1 -5.09,-2.98 l -3.28,5.87 a 628.32,628.32 -180 0 0 91.57,46.02 z"  class="st1"  stroke="#696969" stroke-width="1.5" />
</g>
</g>
<g  transform="translate(3.1563,-13.414)"  ><g  transform="rotate(25.608,182.49,402.03)"  ><path d="m 0,413.08 h 49.29"  class="st5"  stroke="#696969" stroke-width="1.5" />
</g>
<g  transform="rotate(24.84,170.14,398.15)"  ><path d="m 0,413.08 h 64.49"  class="st5"  stroke="#696969" stroke-width="1.5" />
</g>
<g  transform="rotate(25.447,148.75,392.6)"  ><path d="m 0,411.49 a 582.2,647.75 -180 0 0 81.41,0"  class="st5"  stroke="#696969" stroke-width="1.5" />
</g>
<g  transform="rotate(25.651,132.5,388.02)"  ><path d="m 0,410.59 a 593.26,656.07 -180 0 0 103.29,0"  class="st5"  stroke="#696969" stroke-width="1.5" />
</g>
<g  transform="rotate(25.238,115.81,382.72)"  ><path d="m 0,408.64 a 534.01,578.19 -180 0 0 132.01,0"  class="st5"  stroke="#696969" stroke-width="1.5" />
</g>
</g>
</g>
<g  transform="rotate(5,906.27,571.05)"  ><g  transform="translate(2.8199,-13.414)"  ><g  transform="rotate(28.212,164.97,396.48)"  ><path d="m 0,413.08 h 45.07"  class="st5"  stroke="#696969" stroke-width="1.5" />
</g>
<g  transform="rotate(27.39,153.72,394.01)"  ><path d="m 0,413.08 h 58.89"  class="st5"  stroke="#696969" stroke-width="1.5" />
</g>
<g  transform="rotate(28.04,134.48,389.91)"  ><path d="m 0,411.49 a 532.16,647.75 -180 0 0 74.42,0"  class="st5"  stroke="#696969" stroke-width="1.5" />
</g>
<g  transform="rotate(28.258,119.82,386.63)"  ><path d="m 0,410.59 a 542.45,656.07 -180 0 0 94.44,0"  class="st5"  stroke="#696969" stroke-width="1.5" />
</g>
<g  transform="rotate(27.816,104.7,382.72)"  ><path d="m 0,408.64 a 487.94,578.19 -180 0 0 120.63,0"  class="st5"  stroke="#696969" stroke-width="1.5" />
</g>
</g>
<g  ><g  transform="translate(14.543,-71.457)"  ><path d="m 41.97,413.08 a 32.834,20.309 -94.53 0 0 -10.05,-11.97 l -29.39,-14.82 -2.53,5.07 a 577.72,418.49 -91.29 0 0 40.74,21.32 19.327,14 88.71 0 1 1.23,0.4 z"  class="st1"  stroke="#696969" stroke-width="1.5" />
</g>
<g  transform="translate(10.927,-58.199)"  ><path d="m 49.88,410.9 a 534.7,387.33 -91.29 0 0 5.4,2.18 19.327,14 -91.29 0 0 -9.7,-12.73 2622.8,1620.8 -93.24 0 0 -42.41,-21.92 l -3.17,7.1 a 1484.6,1208.1 -90.43 0 0 49.88,25.37 z"  class="st1"  stroke="#696969" stroke-width="1.5" />
</g>
<g  transform="translate(8.4598,-44.533)"  ><path d="m 64.34,411.39 a 534.74,435.14 -89.55 0 0 4.04,1.69 19.328,15.728 -89.55 0 0 -11.59,-13.78 1793.6,1299.2 88.71 0 1 -54.02,-27.71 l -2.77,5.27 a 565.87,505.57 -90 0 0 64.34,34.53 z"  class="st1"  stroke="#696969" stroke-width="1.5" />
</g>
<g  transform="translate(5.8615,-29.477)"  ><path d="m 83.26,412.06 a 522.4,466.73 -90 0 0 2.53,1.02 18.882,16.87 -90 0 0 -12.23,-13.74 564.42,504.27 90 0 1 -6.62,-3.01 534.74,435.14 90.45 0 1 -64.17,-34.58 l -2.77,5.54 a 522.4,466.73 -90 0 0 4.52,3.04 531.44,594.83 -180 0 0 78.74,41.73 z"  class="st1"  stroke="#696969" stroke-width="1.5" />
</g>
<g  ><path d="m 85.19,388.72 a 491.87,550.54 0 0 1 -82.14,-45.38 l -3.05,6.1 a 519.57,581.54 -180 0 0 121.97,63.64 18.78,21.02 -180 0 0 -14.1,-14.73 561.36,628.32 0 0 1 -22.68,-9.63 z"  class="st1"  stroke="#696969" stroke-width="1.5" />
</g>
<g  transform="translate(2.9026,-12.625)"  ><path d="m 81.81,402.39 a 491.87,550.54 -180 0 0 27.35,10.69 17.779,19.899 -180 0 0 -13.34,-13.95 531.44,594.83 0 0 1 -9.61,-3.93 522.4,466.73 90 0 1 -78.73,-41.72 531.44,594.83 0 0 1 -4.55,-2.98 l -2.93,5.87 a 561.36,628.32 -180 0 0 81.81,46.02 z"  class="st1"  stroke="#696969" stroke-width="1.5" />
</g>
</g>
</g>
<g  transform="rotate(5,423.31,658.65)"  ><g  ><g  transform="translate(14.543,-71.457)"  ><path d="m 41.97,413.08 a 32.834,20.309 -94.53 0 0 -10.05,-11.97 l -29.39,-14.82 -2.53,5.07 a 577.72,418.49 -91.29 0 0 40.74,21.32 19.327,14 88.71 0 1 1.23,0.4 z"  class="st1"  stroke="#696969" stroke-width="1.5" />
</g>
<g  transform="translate(10.927,-58.199)"  ><path d="m 49.88,410.9 a 534.7,387.33 -91.29 0 0 5.4,2.18 19.327,14 -91.29 0 0 -9.7,-12.73 2622.8,1620.8 -93.24 0 0 -42.41,-21.92 l -3.17,7.1 a 1484.6,1208.1 -90.43 0 0 49.88,25.37 z"  class="st1"  stroke="#696969" stroke-width="1.5" />
</g>
<g  transform="translate(8.4598,-44.533)"  ><path d="m 64.34,411.39 a 534.74,435.14 -89.55 0 0 4.04,1.69 19.328,15.728 -89.55 0 0 -11.59,-13.78 1793.6,1299.2 88.71 0 1 -54.02,-27.71 l -2.77,5.27 a 565.87,505.57 -90 0 0 64.34,34.53 z"  class="st1"  stroke="#696969" stroke-width="1.5" />
</g>
<g  transform="translate(5.8615,-29.477)"  ><path d="m 83.26,412.06 a 522.4,466.73 -90 0 0 2.53,1.02 18.882,16.87 -90 0 0 -12.23,-13.74 564.42,504.27 90 0 1 -6.62,-3.01 534.74,435.14 90.45 0 1 -64.17,-34.58 l -2.77,5.54 a 522.4,466.73 -90 0 0 4.52,3.04 531.44,594.83 -180 0 0 78.74,41.73 z"  class="st1"  stroke="#696969" stroke-width="1.5" />
</g>
<g  ><path d="m 85.19,388.72 a 491.87,550.54 0 0 1 -82.14,-45.38 l -3.05,6.1 a 519.57,581.54 -180 0 0 121.97,63.64 18.78,21.02 -180 0 0 -14.1,-14.73 561.36,628.32 0 0 1 -22.68,-9.63 z"  class="st1"  stroke="#696969" stroke-width="1.5" />
</g>
<g  transform="translate(2.9026,-12.625)"  ><path d="m 81.81,402.39 a 491.87,550.54 -180 0 0 27.35,10.69 17.779,19.899 -180 0 0 -13.34,-13.95 531.44,594.83 0 0 1 -9.61,-3.93 522.4,466.73 90 0 1 -78.73,-41.72 531.44,594.83 0 0 1 -4.55,-2.98 l -2.93,5.87 a 561.36,628.32 -180 0 0 81.81,46.02 z"  class="st1"  stroke="#696969" stroke-width="1.5" />
</g>
</g>
<g  transform="translate(2.8199,-13.414)"  ><g  transform="rotate(28.212,164.97,396.48)"  ><path d="m 0,413.08 h 45.07"  class="st5"  stroke="#696969" stroke-width="1.5" />
</g>
<g  transform="rotate(27.39,153.72,394.01)"  ><path d="m 0,413.08 h 58.89"  class="st5"  stroke="#696969" stroke-width="1.5" />
</g>
<g  transform="rotate(28.04,134.48,389.91)"  ><path d="m 0,411.49 a 532.16,647.75 -180 0 0 74.42,0"  class="st5"  stroke="#696969" stroke-width="1.5" />
</g>
<g  transform="rotate(28.258,119.82,386.63)"  ><path d="m 0,410.59 a 542.45,656.07 -180 0 0 94.44,0"  class="st5"  stroke="#696969" stroke-width="1.5" />
</g>
<g  transform="rotate(27.816,104.7,382.72)"  ><path d="m 0,408.64 a 487.94,578.19 -180 0 0 120.63,0"  class="st5"  stroke="#696969" stroke-width="1.5" />
</g>
</g>
</g>
<g  transform="translate(0,-93.742)"  ><path d="m 65.43,345.22 a 34.907,34.907 -180 0 0 -65.23,6.31 66.082,66.082 -180 0 0 31.56,61.55 16.192,16.192 -5.55 0 0 8.15,-13.42 7.3774,7.3774 -180 0 0 7.76,-10.12 5.7599,5.7599 -0.2 0 0 4.54,-9.87 10.451,10.451 -180 0 0 7.53,-11.7 10.426,10.426 -179.51 0 0 4.63,-15.32 4.0121,4.0121 -180 0 0 1.06,-7.43 z"  class="st1"  stroke="#696969" stroke-width="1.5" />
</g>
</g>
</g>
<g  transform="translate(0,-267.8)"  ><g  transform="rotate(-2,-2039.4,151.07)"  ><path d="m 67.04,403.29 a 43.016,34.545 -180 0 0 -28.54,-2.39 50.836,40.826 175.02 0 1 -38.5,-4.87 45.783,36.768 -3.23 0 0 43.26,13.47 39.463,31.692 0 0 1 23.48,3.58 6.2154,4.9915 -180 0 0 0.3,-9.79 z"  class="st6"  stroke="#696969" stroke-width="1.5" />
</g>
<g  transform="rotate(-15,62.85,237.54)"  ><path d="m 44.42,305.7 a 49.278,49.278 0 0 1 56.43,36.65 14.084,14.084 -180 0 0 18.33,1.93 15.294,15.294 0 0 1 -17.37,7.72 68.208,68.208 17.86 0 1 2.42,8.2 15.276,15.276 -77.87 0 0 17.84,2.41 9.9493,9.9493 78.88 0 1 -14.47,7.71 245.02,245.02 161.86 0 1 2.41,9.65 10.42,10.42 -180 0 0 11.58,11.57 12.657,12.657 0 0 1 -18.09,-0.48 10.883,10.883 -122.03 0 0 -0.24,14.95 15.205,15.205 0 0 1 -13.98,-17.36 18.96,18.96 -180 0 0 -0.97,17.36 12.749,12.749 122.03 0 1 -7,-11.69 16.809,16.809 -82.02 0 0 -7.91,17.72 20.965,20.965 88.35 0 1 -12.88,-16.81 11.732,11.732 -85.32 0 0 -5.49,17.85 26.932,26.932 95.66 0 1 -14.95,-22.98 19.413,19.413 -88.91 0 0 0.83,22.55 14.786,14.786 95.24 0 1 -13.61,-22.07 18.065,18.065 96.58 0 1 -27.3,7.58 26.559,26.559 -75.78 0 0 10.56,-18.33 21.148,21.148 0 0 1 16.42,-14.45 44.327,44.327 -180 0 0 18.65,-10.49 575.99,575.99 -180 0 0 -1.21,-49.19 z"  class="st3"  stroke="#696969" stroke-width="3" />
</g>
<g  transform="rotate(-5,-917.51,-500.26)"  ><g  fill="#ffffff" ><path d="m 0.01,400.19 a 12.482,12.482 -180 0 0 24.42,4.02 36.575,36.575 -180 0 0 -24.42,-4.02 z"  class="st7"  fill="#ffffff" stroke="#696969" stroke-width="0.75" />
</g>
<g  transform="translate(4.6572,-3.8128)"  ><path d="m 0.98,403.46 a 6.2459,6.2459 -180 0 0 9.4,8.06 4.2469,4.2469 0 0 1 -2.95,-7.52 z"  class="st8"  fill="#000000" stroke="#696969" stroke-width="0.75" />
</g>
</g>
<g  transform="rotate(-15,-157.32,353)"  ><path d="m 66.8,366.27 a 59.445,59.445 94.28 0 1 8.43,35.69 11.076,11.076 0 0 1 -17.36,9.16 l -40.75,-15.43 a 20.861,20.861 0 0 1 -17.12,-15.43 l 60.77,16.87 a 3.7033,3.7033 -180 0 0 2.89,-6.75 19.902,19.902 -180 0 0 -23.15,-13.98 46.212,46.212 -180 0 0 -38.58,-9.17 13.004,13.004 0 0 1 15.43,-11.57 138.82,138.82 109.17 0 1 49.44,10.61 z"  class="st3"  stroke="#696969" stroke-width="3" />
</g>
</g>
</g>
</g>
</g>
</g><g  fill="#050505"><g class="PlaceCharge" transform=" translate(580,128.76860622463) scale(0.9021199819576, 0.9021199819576) " >
<title>three ravens</title><style type="text/css"  />
<g  transform="translate(-3.2315,-14.693)"  ><g  transform="translate(4.7333,-19.514)"  ><g  transform="rotate(-168.1,71.558,287.08)"  ><g  transform="rotate(112.8,92.183,306.84)"  ><g  transform="rotate(45,58.618,372.56)"  ><g  ><g  transform="matrix(0.87463,-0.48481,0.48481,0.87463,-145.94,17.717)"  ><path d="m 53.91,380.98 a 371.79,244.9 0 0 1 -51.9,26.04 5.1211,3.3733 -180 1 0 6.59,5.16 167.4,110.26 -180 0 0 53.55,-24.15 6.8171,4.4904 -180 0 0 -8.24,-7.05 z"  class="st1"  stroke="#696969" stroke-width="1.5" />
</g>
<g  transform="rotate(5,171.64,550.36)"  ><path d="m 40.55,391.3 14.83,2.63 a 6.1912,6.1912 -180 0 0 11.57,-3.06 6.1485,6.1485 -180 0 0 -9.05,-5.42 l -17.06,-3.01 -25.68,-9.27 a 6.1485,6.1485 -180 0 0 -11.06,3.7 6.1485,6.1485 -180 0 0 9.58,5.1 l 7.23,2.63 -11.32,2.2 a 6.1485,6.1485 -180 0 0 -9.59,5.1 6.1485,6.1485 -180 0 0 11.18,3.54 l 16.22,-3.16 -8.2,8.5 a 6.1485,6.1485 -180 0 0 -6.22,6.15 6.1485,6.1485 -180 0 0 12.29,0.19 z"  class="st1"  stroke="#696969" stroke-width="1.5" />
</g>
</g>
<g  transform="rotate(5,19.752,389.24)"  ><g  transform="translate(1.5094,-45.447)"  fill="#666666" ><path d="m 20.84,404.56 a 16.086,20.051 -180 0 0 -20.84,8.52 22.506,28.052 0 0 1 18.1,-3.41 2.6214,3.2673 -180 0 0 2.74,-5.11 z"  class="st1"  fill="#666666" stroke="#696969" stroke-width="1.5" />
</g>
<g  transform="rotate(-15,-87.257,401.59)"  fill="#666666" ><path d="m 20.84,404.56 a 16.086,20.051 -180 0 0 -20.84,8.52 22.506,28.052 0 0 1 18.1,-3.41 2.6214,3.2673 -180 0 0 2.74,-5.11 z"  class="st1"  fill="#666666" stroke="#696969" stroke-width="1.5" />
</g>
<g  transform="rotate(-45,10.397,387.98)"  fill="#666666" ><path d="m 20.84,404.56 a 16.086,20.051 -180 0 0 -20.84,8.52 22.506,28.052 0 0 1 18.1,-3.41 2.6214,3.2673 -180 0 0 2.74,-5.11 z"  class="st1"  fill="#666666" stroke="#696969" stroke-width="1.5" />
</g>
<g  transform="matrix(-0.70711,-0.70711,-0.70711,0.70711,376.88,103.72)"  fill="#666666" ><path d="m 20.84,404.56 a 16.086,20.051 -180 0 0 -20.84,8.52 22.506,28.052 0 0 1 18.1,-3.41 2.6214,3.2673 -180 0 0 2.74,-5.11 z"  class="st1"  fill="#666666" stroke="#696969" stroke-width="1.5" />
</g>
</g>
</g>
</g>
<g  transform="rotate(120,45.329,355.18)"  ><g  ><path d="m 92.02,320.27 a 105.12,129.28 -180 0 0 -72.65,44.52 18.135,22.304 0 0 1 -19.37,5.02 16.233,19.965 -180 0 0 9.18,10.03 11.098,13.649 0 0 1 -8.16,12.54 16.221,19.95 -180 0 0 16.31,-5.01 18.758,23.071 -180 0 0 -5.35,25.71 24.248,29.823 0 0 1 24.73,-19.13 7.6632,9.425 -180 0 0 2.8,16.93 11.04,13.578 0 0 1 7.65,-17.87 55.919,68.775 -180 0 0 22.18,-27.27 20.004,24.603 0 0 1 22.43,-7.84 z"  class="st2"  stroke="#696969" stroke-width="3" />
</g>
</g>
</g>
<g  transform="rotate(-40,52.03,-2.8829)"  ><g  ><path d="m 48.11,283.89 -5.32,-0.35 0.11,-0.6 -9.43,-1.31 -9.85,32.49 a 22.665,16.955 -180 0 1 -16.79,5.54 13.914,10.409 0 0 0 14.03,3.58 l -5.57,18.38 a 15.256,11.412 -180 0 1 -15.29,0.18 12.768,9.5507 0 0 0 13.1,7.05 l -7.1,23.4 a 14.184,6.8935 -173.98 0 0 7.78,7.99 l -0.01,0.1 h 0.14 0.13 l 0.01,-0.1 a 14.184,6.8935 -173.98 0 0 11.08,-5.38 l 2.72,-14.04 -4.47,26.76 a 14.272,7.7584 -177.44 0 0 8.66,8.3 l -0.01,0.1 h 0.14 0.13 l 0.01,-0.1 a 14.272,7.7584 -177.44 0 0 10.48,-7.02 l 0.66,-9.06 -1.19,24.29 a 16.179,8.9208 -179.95 0 0 10.86,8.87 v 0.1 h 0.16 0.15 v -0.1 a 16.179,8.9208 -179.95 0 0 10.9,-8.84 l -0.93,-21.19 0.4,5.92 a 14.273,7.758 -2.46 0 0 10.45,7.05 l 0.01,0.1 h 0.13 0.14 l -0.01,-0.1 a 14.273,7.758 -2.46 0 0 8.7,-8.28 l -3.7,-22.77 1.94,10.01 a 14.184,6.8935 -6.02 0 0 11.09,5.38 l 0.01,0.1 h 0.13 0.14 l -0.01,-0.1 a 14.184,6.8935 -6.02 0 0 7.77,-7.99 l -7.09,-23.4 a 12.768,9.5507 -180 0 0 13.09,-7.05 15.256,11.412 0 0 1 -15.28,-0.18 l -5.58,-18.38 a 13.914,10.409 -180 0 0 14.04,-3.58 22.665,16.955 0 0 1 -16.8,-5.54 l -9.85,-32.49 -9.43,1.31 0.12,0.62 -4.77,0.31 -0.02,-0.52 h -10.88 z"  class="st3"  stroke="#696969" stroke-width="3" />
</g>
<g  transform="translate(25.719,-24.744)"  ><g  transform="rotate(-85.355,8.3452,404.03)"  ><path d="m 0,413.08 h 103.06"  class="st4"  stroke="#696969" stroke-width="3" />
</g>
<g  transform="rotate(-80.571,-7.3651,406.83)"  ><path d="m 0,413.08 h 92.62"  class="st4"  stroke="#696969" stroke-width="3" />
</g>
<g  transform="matrix(-0.08097,-0.99672,-0.99672,0.08097,450.79,379.63)"  ><path d="m 0,413.08 h 103.06"  class="st4"  stroke="#696969" stroke-width="3" />
</g>
<g  transform="matrix(-0.16382,-0.98649,-0.98649,0.16382,463.26,332.92)"  ><path d="m 0,413.08 h 92.62"  class="st4"  stroke="#696969" stroke-width="3" />
</g>
</g>
</g>
<g  transform="rotate(176.6,107.73,309.04)"  ><g  transform="rotate(120,89.892,310.67)"  ><g  transform="rotate(45,58.618,372.56)"  ><g  ><g  transform="rotate(-29,-38.718,291.01)"  ><path d="m 53.91,380.98 a 371.79,244.9 0 0 1 -51.9,26.04 5.1211,3.3733 -180 1 0 6.59,5.16 167.4,110.26 -180 0 0 53.55,-24.15 6.8171,4.4904 -180 0 0 -8.24,-7.05 z"  class="st1"  stroke="#696969" stroke-width="1.5" />
</g>
<g  transform="rotate(5,171.64,550.36)"  ><path d="m 40.55,391.3 14.83,2.63 a 6.1912,6.1912 -180 0 0 11.57,-3.06 6.1485,6.1485 -180 0 0 -9.05,-5.42 l -17.06,-3.01 -25.68,-9.27 a 6.1485,6.1485 -180 0 0 -11.06,3.7 6.1485,6.1485 -180 0 0 9.58,5.1 l 7.23,2.63 -11.32,2.2 a 6.1485,6.1485 -180 0 0 -9.59,5.1 6.1485,6.1485 -180 0 0 11.18,3.54 l 16.22,-3.16 -8.2,8.5 a 6.1485,6.1485 -180 0 0 -6.22,6.15 6.1485,6.1485 -180 0 0 12.29,0.19 z"  class="st1"  stroke="#696969" stroke-width="1.5" />
</g>
</g>
<g  transform="rotate(5,19.752,389.24)"  ><g  transform="translate(1.5094,-45.447)"  fill="#666666" ><path d="m 20.84,404.56 a 16.086,20.051 -180 0 0 -20.84,8.52 22.506,28.052 0 0 1 18.1,-3.41 2.6214,3.2673 -180 0 0 2.74,-5.11 z"  class="st1"  fill="#666666" stroke="#696969" stroke-width="1.5" />
</g>
<g  transform="rotate(-15,-87.257,401.59)"  fill="#666666" ><path d="m 20.84,404.56 a 16.086,20.051 -180 0 0 -20.84,8.52 22.506,28.052 0 0 1 18.1,-3.41 2.6214,3.2673 -180 0 0 2.74,-5.11 z"  class="st1"  fill="#666666" stroke="#696969" stroke-width="1.5" />
</g>
<g  transform="rotate(-45,10.397,387.98)"  fill="#666666" ><path d="m 20.84,404.56 a 16.086,20.051 -180 0 0 -20.84,8.52 22.506,28.052 0 0 1 18.1,-3.41 2.6214,3.2673 -180 0 0 2.74,-5.11 z"  class="st1"  fill="#666666" stroke="#696969" stroke-width="1.5" />
</g>
<g  transform="matrix(-0.70711,-0.70711,-0.70711,0.70711,376.88,103.72)"  fill="#666666" ><path d="m 20.84,404.56 a 16.086,20.051 -180 0 0 -20.84,8.52 22.506,28.052 0 0 1 18.1,-3.41 2.6214,3.2673 -180 0 0 2.74,-5.11 z"  class="st1"  fill="#666666" stroke="#696969" stroke-width="1.5" />
</g>
</g>
</g>
</g>
<g  transform="rotate(120,45.329,355.18)"  ><g  ><path d="m 92.02,320.27 a 105.12,129.28 -180 0 0 -72.65,44.52 18.135,22.304 0 0 1 -19.37,5.02 16.233,19.965 -180 0 0 9.18,10.03 11.098,13.649 0 0 1 -8.16,12.54 16.221,19.95 -180 0 0 16.31,-5.01 18.758,23.071 -180 0 0 -5.35,25.71 24.248,29.823 0 0 1 24.73,-19.13 7.6632,9.425 -180 0 0 2.8,16.93 11.04,13.578 0 0 1 7.65,-17.87 55.919,68.775 -180 0 0 22.18,-27.27 20.004,24.603 0 0 1 22.43,-7.84 z"  class="st2"  stroke="#696969" stroke-width="3" />
</g>
</g>
</g>
<g  transform="rotate(-20,-281.44,54.965)"  ><path d="m 18.4,225.91 a 73.013,73.013 -180 0 0 -9.3,83.76 851.02,851.02 -180 0 0 10.86,16.54 32.7,32.7 0 0 1 6.72,37.23 20.262,20.262 -180 0 0 13.96,-26.88 44.649,44.649 0 0 1 -5.17,42.39 18.585,18.585 -180 0 0 17.06,-18.61 24.923,24.923 -85.48 0 0 28.95,31.02 11.403,11.403 112.14 0 1 -4.65,-19.65 15.775,15.775 0 0 1 11.37,28.96 15.253,15.253 -106.76 0 0 24.31,-10.34 32.318,32.318 -45 0 0 22.23,22.75 33.909,33.909 173.97 0 1 -2.59,-24.82 22.35,22.35 -45 0 0 21.2,16.54 18.19,18.19 116.74 0 1 -10.34,-21.71 38.741,38.741 -45 0 0 35.68,3.1 l -48.67,-78.95 a 161.9,161.9 -180 0 0 -44.4,-72.02 63.768,63.768 -95.53 0 0 -67.22,-9.31 z"  class="st3"  stroke="#696969" stroke-width="3" />
</g>
<g  transform="rotate(-20,-297.25,-70.209)"  ><g  ><path d="m 110.34,315.76 a 522.4,466.73 -87 0 0 2.48,1.15 18.882,16.87 -87 0 0 -11.49,-14.37 564.42,504.27 93 0 1 -6.46,-3.34 534.74,435.14 -86.55 0 0 3.95,1.9 19.328,15.728 -86.55 0 0 -10.86,-14.36 1793.6,1299.2 91.71 0 1 -3.35,-1.84 534.7,387.33 -88.29 0 0 4.3,1.99 19.327,14 -88.29 0 0 -9.01,-13.22 2622.8,1620.8 -90.24 0 0 -4.02,-2.44 577.72,418.49 -88.29 0 0 2.84,1.46 19.327,14 91.71 0 1 1.21,0.46 32.834,20.309 -91.53 0 0 -9.41,-12.48 l -3.67,-2.1 a 4.0121,4.0121 -92.13 0 0 -1.82,-1.87 34.907,34.907 -1.87 0 0 -64.97,8.58 66.082,66.082 -1.87 0 0 33.69,60.41 16.192,16.192 -13.58 0 0 1.89,-1.36 581.54,519.57 -87 0 0 43.17,29.91 4.521,4.521 -2.13 0 0 0.35,0.21 581.54,519.57 -87 0 0 69.67,35.68 21.02,18.78 -87 0 0 -0.21,-0.95 581.54,581.54 -2.13 0 0 68.84,23.9 21.02,21.02 -2.13 0 0 -11.72,-12.81 19.899,19.899 -2.04 0 0 -15.22,-12.84 594.83,594.83 178.13 0 1 -10.87,-3.55 522.4,522.4 -0.56 0 0 2.86,0.92 18.882,18.882 -0.56 0 0 -14.15,-13.25 564.42,564.42 0 0 1 -7.52,-2.75 534.75,487.04 -91 0 0 4.59,1.53 19.329,17.604 -91 0 0 -13.45,-13.31 1793.8,1454.1 86 0 1 -3.92,-1.52 534.75,433.49 -94 0 0 4.99,1.59 19.329,15.668 -94 0 0 -11.29,-12.34 2624.1,1813.3 -96.3 0 0 -1.31,-0.58 21.02,18.78 -87 0 0 -0.12,-0.3 v 0 a 19.329,15.668 86 0 1 1.39,0.34 32.865,22.71 -98 0 0 -9.65,-10.45 19.899,17.779 -87 0 0 -12.36,-13.59 594.83,531.44 93 0 1 -9.39,-4.42 z"  class="st3"  stroke="#696969" stroke-width="3" />
</g>
<g  transform="rotate(-2,214.89,265.46)"  ><g  transform="translate(75.789)"  ><g  ><g  transform="translate(16.277,-71.457)"  ><path d="m 46.97,413.08 a 32.865,22.71 -96 0 0 -11.24,-11.97 l -32.9,-14.82 -2.83,5.07 a 577.77,468.36 -92 0 0 45.6,21.32 19.329,15.668 88 0 1 1.37,0.4 z"  class="st1"  stroke="#696969" stroke-width="1.5" />
</g>
<g  transform="translate(12.231,-58.199)"  ><path d="m 55.83,410.9 a 534.75,433.49 -92 0 0 6.04,2.18 19.329,15.668 -92 0 0 -10.85,-12.73 2624.1,1813.3 -94.3 0 0 -47.47,-21.92 l -3.55,7.1 a 1484.6,1352.2 -90.96 0 0 55.83,25.37 z"  class="st1"  stroke="#696969" stroke-width="1.5" />
</g>
<g  transform="translate(9.4689,-44.533)"  ><path d="m 72.01,411.39 a 534.75,487.04 -89 0 0 4.53,1.69 19.329,17.604 -89 0 0 -12.98,-13.78 1793.8,1454.1 88 0 1 -60.45,-27.71 l -3.11,5.27 a 565.87,565.87 -0.13 0 0 72.01,34.53 z"  class="st1"  stroke="#696969" stroke-width="1.5" />
</g>
<g  transform="translate(6.5607,-29.477)"  ><path d="m 93.19,412.06 a 522.4,522.4 -177.61 0 0 2.83,1.02 18.882,18.882 -177.61 0 0 -13.68,-13.74 564.42,564.42 91.2 0 1 -7.42,-3.01 534.75,487.04 91 0 1 -71.83,-34.58 l -3.09,5.54 a 522.4,522.4 -177.61 0 0 5.06,3.04 594.83,594.83 -180 0 0 88.13,41.73 z"  class="st1"  stroke="#696969" stroke-width="1.5" />
</g>
<g  ><path d="m 95.35,388.72 a 550.54,550.54 0 0 1 -91.94,-45.38 l -3.41,6.1 a 581.54,581.54 -180 0 0 136.52,63.64 21.02,21.02 -180 0 0 -15.78,-14.73 628.32,628.32 0 0 1 -25.39,-9.63 z"  class="st1"  stroke="#696969" stroke-width="1.5" />
</g>
<g  transform="translate(3.2488,-12.625)"  ><path d="m 91.57,402.39 a 550.54,550.54 -180 0 0 30.61,10.69 19.899,19.899 -180 0 0 -14.94,-13.95 594.83,594.83 0 0 1 -10.74,-3.93 522.4,522.4 1.91 0 1 -88.13,-41.72 594.83,594.83 0 0 1 -5.09,-2.98 l -3.28,5.87 a 628.32,628.32 -180 0 0 91.57,46.02 z"  class="st1"  stroke="#696969" stroke-width="1.5" />
</g>
</g>
<g  transform="translate(3.1563,-13.414)"  ><g  transform="rotate(25.608,182.49,402.03)"  ><path d="m 0,413.08 h 49.29"  class="st5"  stroke="#696969" stroke-width="1.5" />
</g>
<g  transform="rotate(24.84,170.14,398.15)"  ><path d="m 0,413.08 h 64.49"  class="st5"  stroke="#696969" stroke-width="1.5" />
</g>
<g  transform="rotate(25.447,148.75,392.6)"  ><path d="m 0,411.49 a 582.2,647.75 -180 0 0 81.41,0"  class="st5"  stroke="#696969" stroke-width="1.5" />
</g>
<g  transform="rotate(25.651,132.5,388.02)"  ><path d="m 0,410.59 a 593.26,656.07 -180 0 0 103.29,0"  class="st5"  stroke="#696969" stroke-width="1.5" />
</g>
<g  transform="rotate(25.238,115.81,382.72)"  ><path d="m 0,408.64 a 534.01,578.19 -180 0 0 132.01,0"  class="st5"  stroke="#696969" stroke-width="1.5" />
</g>
</g>
</g>
<g  transform="rotate(5,906.27,571.05)"  ><g  transform="translate(2.8199,-13.414)"  ><g  transform="rotate(28.212,164.97,396.48)"  ><path d="m 0,413.08 h 45.07"  class="st5"  stroke="#696969" stroke-width="1.5" />
</g>
<g  transform="rotate(27.39,153.72,394.01)"  ><path d="m 0,413.08 h 58.89"  class="st5"  stroke="#696969" stroke-width="1.5" />
</g>
<g  transform="rotate(28.04,134.48,389.91)"  ><path d="m 0,411.49 a 532.16,647.75 -180 0 0 74.42,0"  class="st5"  stroke="#696969" stroke-width="1.5" />
</g>
<g  transform="rotate(28.258,119.82,386.63)"  ><path d="m 0,410.59 a 542.45,656.07 -180 0 0 94.44,0"  class="st5"  stroke="#696969" stroke-width="1.5" />
</g>
<g  transform="rotate(27.816,104.7,382.72)"  ><path d="m 0,408.64 a 487.94,578.19 -180 0 0 120.63,0"  class="st5"  stroke="#696969" stroke-width="1.5" />
</g>
</g>
<g  ><g  transform="translate(14.543,-71.457)"  ><path d="m 41.97,413.08 a 32.834,20.309 -94.53 0 0 -10.05,-11.97 l -29.39,-14.82 -2.53,5.07 a 577.72,418.49 -91.29 0 0 40.74,21.32 19.327,14 88.71 0 1 1.23,0.4 z"  class="st1"  stroke="#696969" stroke-width="1.5" />
</g>
<g  transform="translate(10.927,-58.199)"  ><path d="m 49.88,410.9 a 534.7,387.33 -91.29 0 0 5.4,2.18 19.327,14 -91.29 0 0 -9.7,-12.73 2622.8,1620.8 -93.24 0 0 -42.41,-21.92 l -3.17,7.1 a 1484.6,1208.1 -90.43 0 0 49.88,25.37 z"  class="st1"  stroke="#696969" stroke-width="1.5" />
</g>
<g  transform="translate(8.4598,-44.533)"  ><path d="m 64.34,411.39 a 534.74,435.14 -89.55 0 0 4.04,1.69 19.328,15.728 -89.55 0 0 -11.59,-13.78 1793.6,1299.2 88.71 0 1 -54.02,-27.71 l -2.77,5.27 a 565.87,505.57 -90 0 0 64.34,34.53 z"  class="st1"  stroke="#696969" stroke-width="1.5" />
</g>
<g  transform="translate(5.8615,-29.477)"  ><path d="m 83.26,412.06 a 522.4,466.73 -90 0 0 2.53,1.02 18.882,16.87 -90 0 0 -12.23,-13.74 564.42,504.27 90 0 1 -6.62,-3.01 534.74,435.14 90.45 0 1 -64.17,-34.58 l -2.77,5.54 a 522.4,466.73 -90 0 0 4.52,3.04 531.44,594.83 -180 0 0 78.74,41.73 z"  class="st1"  stroke="#696969" stroke-width="1.5" />
</g>
<g  ><path d="m 85.19,388.72 a 491.87,550.54 0 0 1 -82.14,-45.38 l -3.05,6.1 a 519.57,581.54 -180 0 0 121.97,63.64 18.78,21.02 -180 0 0 -14.1,-14.73 561.36,628.32 0 0 1 -22.68,-9.63 z"  class="st1"  stroke="#696969" stroke-width="1.5" />
</g>
<g  transform="translate(2.9026,-12.625)"  ><path d="m 81.81,402.39 a 491.87,550.54 -180 0 0 27.35,10.69 17.779,19.899 -180 0 0 -13.34,-13.95 531.44,594.83 0 0 1 -9.61,-3.93 522.4,466.73 90 0 1 -78.73,-41.72 531.44,594.83 0 0 1 -4.55,-2.98 l -2.93,5.87 a 561.36,628.32 -180 0 0 81.81,46.02 z"  class="st1"  stroke="#696969" stroke-width="1.5" />
</g>
</g>
</g>
<g  transform="rotate(5,423.31,658.65)"  ><g  ><g  transform="translate(14.543,-71.457)"  ><path d="m 41.97,413.08 a 32.834,20.309 -94.53 0 0 -10.05,-11.97 l -29.39,-14.82 -2.53,5.07 a 577.72,418.49 -91.29 0 0 40.74,21.32 19.327,14 88.71 0 1 1.23,0.4 z"  class="st1"  stroke="#696969" stroke-width="1.5" />
</g>
<g  transform="translate(10.927,-58.199)"  ><path d="m 49.88,410.9 a 534.7,387.33 -91.29 0 0 5.4,2.18 19.327,14 -91.29 0 0 -9.7,-12.73 2622.8,1620.8 -93.24 0 0 -42.41,-21.92 l -3.17,7.1 a 1484.6,1208.1 -90.43 0 0 49.88,25.37 z"  class="st1"  stroke="#696969" stroke-width="1.5" />
</g>
<g  transform="translate(8.4598,-44.533)"  ><path d="m 64.34,411.39 a 534.74,435.14 -89.55 0 0 4.04,1.69 19.328,15.728 -89.55 0 0 -11.59,-13.78 1793.6,1299.2 88.71 0 1 -54.02,-27.71 l -2.77,5.27 a 565.87,505.57 -90 0 0 64.34,34.53 z"  class="st1"  stroke="#696969" stroke-width="1.5" />
</g>
<g  transform="translate(5.8615,-29.477)"  ><path d="m 83.26,412.06 a 522.4,466.73 -90 0 0 2.53,1.02 18.882,16.87 -90 0 0 -12.23,-13.74 564.42,504.27 90 0 1 -6.62,-3.01 534.74,435.14 90.45 0 1 -64.17,-34.58 l -2.77,5.54 a 522.4,466.73 -90 0 0 4.52,3.04 531.44,594.83 -180 0 0 78.74,41.73 z"  class="st1"  stroke="#696969" stroke-width="1.5" />
</g>
<g  ><path d="m 85.19,388.72 a 491.87,550.54 0 0 1 -82.14,-45.38 l -3.05,6.1 a 519.57,581.54 -180 0 0 121.97,63.64 18.78,21.02 -180 0 0 -14.1,-14.73 561.36,628.32 0 0 1 -22.68,-9.63 z"  class="st1"  stroke="#696969" stroke-width="1.5" />
</g>
<g  transform="translate(2.9026,-12.625)"  ><path d="m 81.81,402.39 a 491.87,550.54 -180 0 0 27.35,10.69 17.779,19.899 -180 0 0 -13.34,-13.95 531.44,594.83 0 0 1 -9.61,-3.93 522.4,466.73 90 0 1 -78.73,-41.72 531.44,594.83 0 0 1 -4.55,-2.98 l -2.93,5.87 a 561.36,628.32 -180 0 0 81.81,46.02 z"  class="st1"  stroke="#696969" stroke-width="1.5" />
</g>
</g>
<g  transform="translate(2.8199,-13.414)"  ><g  transform="rotate(28.212,164.97,396.48)"  ><path d="m 0,413.08 h 45.07"  class="st5"  stroke="#696969" stroke-width="1.5" />
</g>
<g  transform="rotate(27.39,153.72,394.01)"  ><path d="m 0,413.08 h 58.89"  class="st5"  stroke="#696969" stroke-width="1.5" />
</g>
<g  transform="rotate(28.04,134.48,389.91)"  ><path d="m 0,411.49 a 532.16,647.75 -180 0 0 74.42,0"  class="st5"  stroke="#696969" stroke-width="1.5" />
</g>
<g  transform="rotate(28.258,119.82,386.63)"  ><path d="m 0,410.59 a 542.45,656.07 -180 0 0 94.44,0"  class="st5"  stroke="#696969" stroke-width="1.5" />
</g>
<g  transform="rotate(27.816,104.7,382.72)"  ><path d="m 0,408.64 a 487.94,578.19 -180 0 0 120.63,0"  class="st5"  stroke="#696969" stroke-width="1.5" />
</g>
</g>
</g>
<g  transform="translate(0,-93.742)"  ><path d="m 65.43,345.22 a 34.907,34.907 -180 0 0 -65.23,6.31 66.082,66.082 -180 0 0 31.56,61.55 16.192,16.192 -5.55 0 0 8.15,-13.42 7.3774,7.3774 -180 0 0 7.76,-10.12 5.7599,5.7599 -0.2 0 0 4.54,-9.87 10.451,10.451 -180 0 0 7.53,-11.7 10.426,10.426 -179.51 0 0 4.63,-15.32 4.0121,4.0121 -180 0 0 1.06,-7.43 z"  class="st1"  stroke="#696969" stroke-width="1.5" />
</g>
</g>
</g>
<g  transform="translate(0,-267.8)"  ><g  transform="rotate(-2,-2039.4,151.07)"  ><path d="m 67.04,403.29 a 43.016,34.545 -180 0 0 -28.54,-2.39 50.836,40.826 175.02 0 1 -38.5,-4.87 45.783,36.768 -3.23 0 0 43.26,13.47 39.463,31.692 0 0 1 23.48,3.58 6.2154,4.9915 -180 0 0 0.3,-9.79 z"  class="st6"  stroke="#696969" stroke-width="1.5" />
</g>
<g  transform="rotate(-15,62.85,237.54)"  ><path d="m 44.42,305.7 a 49.278,49.278 0 0 1 56.43,36.65 14.084,14.084 -180 0 0 18.33,1.93 15.294,15.294 0 0 1 -17.37,7.72 68.208,68.208 17.86 0 1 2.42,8.2 15.276,15.276 -77.87 0 0 17.84,2.41 9.9493,9.9493 78.88 0 1 -14.47,7.71 245.02,245.02 161.86 0 1 2.41,9.65 10.42,10.42 -180 0 0 11.58,11.57 12.657,12.657 0 0 1 -18.09,-0.48 10.883,10.883 -122.03 0 0 -0.24,14.95 15.205,15.205 0 0 1 -13.98,-17.36 18.96,18.96 -180 0 0 -0.97,17.36 12.749,12.749 122.03 0 1 -7,-11.69 16.809,16.809 -82.02 0 0 -7.91,17.72 20.965,20.965 88.35 0 1 -12.88,-16.81 11.732,11.732 -85.32 0 0 -5.49,17.85 26.932,26.932 95.66 0 1 -14.95,-22.98 19.413,19.413 -88.91 0 0 0.83,22.55 14.786,14.786 95.24 0 1 -13.61,-22.07 18.065,18.065 96.58 0 1 -27.3,7.58 26.559,26.559 -75.78 0 0 10.56,-18.33 21.148,21.148 0 0 1 16.42,-14.45 44.327,44.327 -180 0 0 18.65,-10.49 575.99,575.99 -180 0 0 -1.21,-49.19 z"  class="st3"  stroke="#696969" stroke-width="3" />
</g>
<g  transform="rotate(-5,-917.51,-500.26)"  ><g  fill="#ffffff" ><path d="m 0.01,400.19 a 12.482,12.482 -180 0 0 24.42,4.02 36.575,36.575 -180 0 0 -24.42,-4.02 z"  class="st7"  fill="#ffffff" stroke="#696969" stroke-width="0.75" />
</g>
<g  transform="translate(4.6572,-3.8128)"  ><path d="m 0.98,403.46 a 6.2459,6.2459 -180 0 0 9.4,8.06 4.2469,4.2469 0 0 1 -2.95,-7.52 z"  class="st8"  fill="#000000" stroke="#696969" stroke-width="0.75" />
</g>
</g>
<g  transform="rotate(-15,-157.32,353)"  ><path d="m 66.8,366.27 a 59.445,59.445 94.28 0 1 8.43,35.69 11.076,11.076 0 0 1 -17.36,9.16 l -40.75,-15.43 a 20.861,20.861 0 0 1 -17.12,-15.43 l 60.77,16.87 a 3.7033,3.7033 -180 0 0 2.89,-6.75 19.902,19.902 -180 0 0 -23.15,-13.98 46.212,46.212 -180 0 0 -38.58,-9.17 13.004,13.004 0 0 1 15.43,-11.57 138.82,138.82 109.17 0 1 49.44,10.61 z"  class="st3"  stroke="#696969" stroke-width="3" />
</g>
</g>
</g>
</g>
</g>
</g><g  fill="#050505"><g class="PlaceCharge" transform=" translate(340,728.76860622463) scale(0.9021199819576, 0.9021199819576) " >
<title>three ravens</title><style type="text/css"  />
<g  transform="translate(-3.2315,-14.693)"  ><g  transform="translate(4.7333,-19.514)"  ><g  transform="rotate(-168.1,71.558,287.08)"  ><g  transform="rotate(112.8,92.183,306.84)"  ><g  transform="rotate(45,58.618,372.56)"  ><g  ><g  transform="matrix(0.87463,-0.48481,0.48481,0.87463,-145.94,17.717)"  ><path d="m 53.91,380.98 a 371.79,244.9 0 0 1 -51.9,26.04 5.1211,3.3733 -180 1 0 6.59,5.16 167.4,110.26 -180 0 0 53.55,-24.15 6.8171,4.4904 -180 0 0 -8.24,-7.05 z"  class="st1"  stroke="#696969" stroke-width="1.5" />
</g>
<g  transform="rotate(5,171.64,550.36)"  ><path d="m 40.55,391.3 14.83,2.63 a 6.1912,6.1912 -180 0 0 11.57,-3.06 6.1485,6.1485 -180 0 0 -9.05,-5.42 l -17.06,-3.01 -25.68,-9.27 a 6.1485,6.1485 -180 0 0 -11.06,3.7 6.1485,6.1485 -180 0 0 9.58,5.1 l 7.23,2.63 -11.32,2.2 a 6.1485,6.1485 -180 0 0 -9.59,5.1 6.1485,6.1485 -180 0 0 11.18,3.54 l 16.22,-3.16 -8.2,8.5 a 6.1485,6.1485 -180 0 0 -6.22,6.15 6.1485,6.1485 -180 0 0 12.29,0.19 z"  class="st1"  stroke="#696969" stroke-width="1.5" />
</g>
</g>
<g  transform="rotate(5,19.752,389.24)"  ><g  transform="translate(1.5094,-45.447)"  fill="#666666" ><path d="m 20.84,404.56 a 16.086,20.051 -180 0 0 -20.84,8.52 22.506,28.052 0 0 1 18.1,-3.41 2.6214,3.2673 -180 0 0 2.74,-5.11 z"  class="st1"  fill="#666666" stroke="#696969" stroke-width="1.5" />
</g>
<g  transform="rotate(-15,-87.257,401.59)"  fill="#666666" ><path d="m 20.84,404.56 a 16.086,20.051 -180 0 0 -20.84,8.52 22.506,28.052 0 0 1 18.1,-3.41 2.6214,3.2673 -180 0 0 2.74,-5.11 z"  class="st1"  fill="#666666" stroke="#696969" stroke-width="1.5" />
</g>
<g  transform="rotate(-45,10.397,387.98)"  fill="#666666" ><path d="m 20.84,404.56 a 16.086,20.051 -180 0 0 -20.84,8.52 22.506,28.052 0 0 1 18.1,-3.41 2.6214,3.2673 -180 0 0 2.74,-5.11 z"  class="st1"  fill="#666666" stroke="#696969" stroke-width="1.5" />
</g>
<g  transform="matrix(-0.70711,-0.70711,-0.70711,0.70711,376.88,103.72)"  fill="#666666" ><path d="m 20.84,404.56 a 16.086,20.051 -180 0 0 -20.84,8.52 22.506,28.052 0 0 1 18.1,-3.41 2.6214,3.2673 -180 0 0 2.74,-5.11 z"  class="st1"  fill="#666666" stroke="#696969" stroke-width="1.5" />
</g>
</g>
</g>
</g>
<g  transform="rotate(120,45.329,355.18)"  ><g  ><path d="m 92.02,320.27 a 105.12,129.28 -180 0 0 -72.65,44.52 18.135,22.304 0 0 1 -19.37,5.02 16.233,19.965 -180 0 0 9.18,10.03 11.098,13.649 0 0 1 -8.16,12.54 16.221,19.95 -180 0 0 16.31,-5.01 18.758,23.071 -180 0 0 -5.35,25.71 24.248,29.823 0 0 1 24.73,-19.13 7.6632,9.425 -180 0 0 2.8,16.93 11.04,13.578 0 0 1 7.65,-17.87 55.919,68.775 -180 0 0 22.18,-27.27 20.004,24.603 0 0 1 22.43,-7.84 z"  class="st2"  stroke="#696969" stroke-width="3" />
</g>
</g>
</g>
<g  transform="rotate(-40,52.03,-2.8829)"  ><g  ><path d="m 48.11,283.89 -5.32,-0.35 0.11,-0.6 -9.43,-1.31 -9.85,32.49 a 22.665,16.955 -180 0 1 -16.79,5.54 13.914,10.409 0 0 0 14.03,3.58 l -5.57,18.38 a 15.256,11.412 -180 0 1 -15.29,0.18 12.768,9.5507 0 0 0 13.1,7.05 l -7.1,23.4 a 14.184,6.8935 -173.98 0 0 7.78,7.99 l -0.01,0.1 h 0.14 0.13 l 0.01,-0.1 a 14.184,6.8935 -173.98 0 0 11.08,-5.38 l 2.72,-14.04 -4.47,26.76 a 14.272,7.7584 -177.44 0 0 8.66,8.3 l -0.01,0.1 h 0.14 0.13 l 0.01,-0.1 a 14.272,7.7584 -177.44 0 0 10.48,-7.02 l 0.66,-9.06 -1.19,24.29 a 16.179,8.9208 -179.95 0 0 10.86,8.87 v 0.1 h 0.16 0.15 v -0.1 a 16.179,8.9208 -179.95 0 0 10.9,-8.84 l -0.93,-21.19 0.4,5.92 a 14.273,7.758 -2.46 0 0 10.45,7.05 l 0.01,0.1 h 0.13 0.14 l -0.01,-0.1 a 14.273,7.758 -2.46 0 0 8.7,-8.28 l -3.7,-22.77 1.94,10.01 a 14.184,6.8935 -6.02 0 0 11.09,5.38 l 0.01,0.1 h 0.13 0.14 l -0.01,-0.1 a 14.184,6.8935 -6.02 0 0 7.77,-7.99 l -7.09,-23.4 a 12.768,9.5507 -180 0 0 13.09,-7.05 15.256,11.412 0 0 1 -15.28,-0.18 l -5.58,-18.38 a 13.914,10.409 -180 0 0 14.04,-3.58 22.665,16.955 0 0 1 -16.8,-5.54 l -9.85,-32.49 -9.43,1.31 0.12,0.62 -4.77,0.31 -0.02,-0.52 h -10.88 z"  class="st3"  stroke="#696969" stroke-width="3" />
</g>
<g  transform="translate(25.719,-24.744)"  ><g  transform="rotate(-85.355,8.3452,404.03)"  ><path d="m 0,413.08 h 103.06"  class="st4"  stroke="#696969" stroke-width="3" />
</g>
<g  transform="rotate(-80.571,-7.3651,406.83)"  ><path d="m 0,413.08 h 92.62"  class="st4"  stroke="#696969" stroke-width="3" />
</g>
<g  transform="matrix(-0.08097,-0.99672,-0.99672,0.08097,450.79,379.63)"  ><path d="m 0,413.08 h 103.06"  class="st4"  stroke="#696969" stroke-width="3" />
</g>
<g  transform="matrix(-0.16382,-0.98649,-0.98649,0.16382,463.26,332.92)"  ><path d="m 0,413.08 h 92.62"  class="st4"  stroke="#696969" stroke-width="3" />
</g>
</g>
</g>
<g  transform="rotate(176.6,107.73,309.04)"  ><g  transform="rotate(120,89.892,310.67)"  ><g  transform="rotate(45,58.618,372.56)"  ><g  ><g  transform="rotate(-29,-38.718,291.01)"  ><path d="m 53.91,380.98 a 371.79,244.9 0 0 1 -51.9,26.04 5.1211,3.3733 -180 1 0 6.59,5.16 167.4,110.26 -180 0 0 53.55,-24.15 6.8171,4.4904 -180 0 0 -8.24,-7.05 z"  class="st1"  stroke="#696969" stroke-width="1.5" />
</g>
<g  transform="rotate(5,171.64,550.36)"  ><path d="m 40.55,391.3 14.83,2.63 a 6.1912,6.1912 -180 0 0 11.57,-3.06 6.1485,6.1485 -180 0 0 -9.05,-5.42 l -17.06,-3.01 -25.68,-9.27 a 6.1485,6.1485 -180 0 0 -11.06,3.7 6.1485,6.1485 -180 0 0 9.58,5.1 l 7.23,2.63 -11.32,2.2 a 6.1485,6.1485 -180 0 0 -9.59,5.1 6.1485,6.1485 -180 0 0 11.18,3.54 l 16.22,-3.16 -8.2,8.5 a 6.1485,6.1485 -180 0 0 -6.22,6.15 6.1485,6.1485 -180 0 0 12.29,0.19 z"  class="st1"  stroke="#696969" stroke-width="1.5" />
</g>
</g>
<g  transform="rotate(5,19.752,389.24)"  ><g  transform="translate(1.5094,-45.447)"  fill="#666666" ><path d="m 20.84,404.56 a 16.086,20.051 -180 0 0 -20.84,8.52 22.506,28.052 0 0 1 18.1,-3.41 2.6214,3.2673 -180 0 0 2.74,-5.11 z"  class="st1"  fill="#666666" stroke="#696969" stroke-width="1.5" />
</g>
<g  transform="rotate(-15,-87.257,401.59)"  fill="#666666" ><path d="m 20.84,404.56 a 16.086,20.051 -180 0 0 -20.84,8.52 22.506,28.052 0 0 1 18.1,-3.41 2.6214,3.2673 -180 0 0 2.74,-5.11 z"  class="st1"  fill="#666666" stroke="#696969" stroke-width="1.5" />
</g>
<g  transform="rotate(-45,10.397,387.98)"  fill="#666666" ><path d="m 20.84,404.56 a 16.086,20.051 -180 0 0 -20.84,8.52 22.506,28.052 0 0 1 18.1,-3.41 2.6214,3.2673 -180 0 0 2.74,-5.11 z"  class="st1"  fill="#666666" stroke="#696969" stroke-width="1.5" />
</g>
<g  transform="matrix(-0.70711,-0.70711,-0.70711,0.70711,376.88,103.72)"  fill="#666666" ><path d="m 20.84,404.56 a 16.086,20.051 -180 0 0 -20.84,8.52 22.506,28.052 0 0 1 18.1,-3.41 2.6214,3.2673 -180 0 0 2.74,-5.11 z"  class="st1"  fill="#666666" stroke="#696969" stroke-width="1.5" />
</g>
</g>
</g>
</g>
<g  transform="rotate(120,45.329,355.18)"  ><g  ><path d="m 92.02,320.27 a 105.12,129.28 -180 0 0 -72.65,44.52 18.135,22.304 0 0 1 -19.37,5.02 16.233,19.965 -180 0 0 9.18,10.03 11.098,13.649 0 0 1 -8.16,12.54 16.221,19.95 -180 0 0 16.31,-5.01 18.758,23.071 -180 0 0 -5.35,25.71 24.248,29.823 0 0 1 24.73,-19.13 7.6632,9.425 -180 0 0 2.8,16.93 11.04,13.578 0 0 1 7.65,-17.87 55.919,68.775 -180 0 0 22.18,-27.27 20.004,24.603 0 0 1 22.43,-7.84 z"  class="st2"  stroke="#696969" stroke-width="3" />
</g>
</g>
</g>
<g  transform="rotate(-20,-281.44,54.965)"  ><path d="m 18.4,225.91 a 73.013,73.013 -180 0 0 -9.3,83.76 851.02,851.02 -180 0 0 10.86,16.54 32.7,32.7 0 0 1 6.72,37.23 20.262,20.262 -180 0 0 13.96,-26.88 44.649,44.649 0 0 1 -5.17,42.39 18.585,18.585 -180 0 0 17.06,-18.61 24.923,24.923 -85.48 0 0 28.95,31.02 11.403,11.403 112.14 0 1 -4.65,-19.65 15.775,15.775 0 0 1 11.37,28.96 15.253,15.253 -106.76 0 0 24.31,-10.34 32.318,32.318 -45 0 0 22.23,22.75 33.909,33.909 173.97 0 1 -2.59,-24.82 22.35,22.35 -45 0 0 21.2,16.54 18.19,18.19 116.74 0 1 -10.34,-21.71 38.741,38.741 -45 0 0 35.68,3.1 l -48.67,-78.95 a 161.9,161.9 -180 0 0 -44.4,-72.02 63.768,63.768 -95.53 0 0 -67.22,-9.31 z"  class="st3"  stroke="#696969" stroke-width="3" />
</g>
<g  transform="rotate(-20,-297.25,-70.209)"  ><g  ><path d="m 110.34,315.76 a 522.4,466.73 -87 0 0 2.48,1.15 18.882,16.87 -87 0 0 -11.49,-14.37 564.42,504.27 93 0 1 -6.46,-3.34 534.74,435.14 -86.55 0 0 3.95,1.9 19.328,15.728 -86.55 0 0 -10.86,-14.36 1793.6,1299.2 91.71 0 1 -3.35,-1.84 534.7,387.33 -88.29 0 0 4.3,1.99 19.327,14 -88.29 0 0 -9.01,-13.22 2622.8,1620.8 -90.24 0 0 -4.02,-2.44 577.72,418.49 -88.29 0 0 2.84,1.46 19.327,14 91.71 0 1 1.21,0.46 32.834,20.309 -91.53 0 0 -9.41,-12.48 l -3.67,-2.1 a 4.0121,4.0121 -92.13 0 0 -1.82,-1.87 34.907,34.907 -1.87 0 0 -64.97,8.58 66.082,66.082 -1.87 0 0 33.69,60.41 16.192,16.192 -13.58 0 0 1.89,-1.36 581.54,519.57 -87 0 0 43.17,29.91 4.521,4.521 -2.13 0 0 0.35,0.21 581.54,519.57 -87 0 0 69.67,35.68 21.02,18.78 -87 0 0 -0.21,-0.95 581.54,581.54 -2.13 0 0 68.84,23.9 21.02,21.02 -2.13 0 0 -11.72,-12.81 19.899,19.899 -2.04 0 0 -15.22,-12.84 594.83,594.83 178.13 0 1 -10.87,-3.55 522.4,522.4 -0.56 0 0 2.86,0.92 18.882,18.882 -0.56 0 0 -14.15,-13.25 564.42,564.42 0 0 1 -7.52,-2.75 534.75,487.04 -91 0 0 4.59,1.53 19.329,17.604 -91 0 0 -13.45,-13.31 1793.8,1454.1 86 0 1 -3.92,-1.52 534.75,433.49 -94 0 0 4.99,1.59 19.329,15.668 -94 0 0 -11.29,-12.34 2624.1,1813.3 -96.3 0 0 -1.31,-0.58 21.02,18.78 -87 0 0 -0.12,-0.3 v 0 a 19.329,15.668 86 0 1 1.39,0.34 32.865,22.71 -98 0 0 -9.65,-10.45 19.899,17.779 -87 0 0 -12.36,-13.59 594.83,531.44 93 0 1 -9.39,-4.42 z"  class="st3"  stroke="#696969" stroke-width="3" />
</g>
<g  transform="rotate(-2,214.89,265.46)"  ><g  transform="translate(75.789)"  ><g  ><g  transform="translate(16.277,-71.457)"  ><path d="m 46.97,413.08 a 32.865,22.71 -96 0 0 -11.24,-11.97 l -32.9,-14.82 -2.83,5.07 a 577.77,468.36 -92 0 0 45.6,21.32 19.329,15.668 88 0 1 1.37,0.4 z"  class="st1"  stroke="#696969" stroke-width="1.5" />
</g>
<g  transform="translate(12.231,-58.199)"  ><path d="m 55.83,410.9 a 534.75,433.49 -92 0 0 6.04,2.18 19.329,15.668 -92 0 0 -10.85,-12.73 2624.1,1813.3 -94.3 0 0 -47.47,-21.92 l -3.55,7.1 a 1484.6,1352.2 -90.96 0 0 55.83,25.37 z"  class="st1"  stroke="#696969" stroke-width="1.5" />
</g>
<g  transform="translate(9.4689,-44.533)"  ><path d="m 72.01,411.39 a 534.75,487.04 -89 0 0 4.53,1.69 19.329,17.604 -89 0 0 -12.98,-13.78 1793.8,1454.1 88 0 1 -60.45,-27.71 l -3.11,5.27 a 565.87,565.87 -0.13 0 0 72.01,34.53 z"  class="st1"  stroke="#696969" stroke-width="1.5" />
</g>
<g  transform="translate(6.5607,-29.477)"  ><path d="m 93.19,412.06 a 522.4,522.4 -177.61 0 0 2.83,1.02 18.882,18.882 -177.61 0 0 -13.68,-13.74 564.42,564.42 91.2 0 1 -7.42,-3.01 534.75,487.04 91 0 1 -71.83,-34.58 l -3.09,5.54 a 522.4,522.4 -177.61 0 0 5.06,3.04 594.83,594.83 -180 0 0 88.13,41.73 z"  class="st1"  stroke="#696969" stroke-width="1.5" />
</g>
<g  ><path d="m 95.35,388.72 a 550.54,550.54 0 0 1 -91.94,-45.38 l -3.41,6.1 a 581.54,581.54 -180 0 0 136.52,63.64 21.02,21.02 -180 0 0 -15.78,-14.73 628.32,628.32 0 0 1 -25.39,-9.63 z"  class="st1"  stroke="#696969" stroke-width="1.5" />
</g>
<g  transform="translate(3.2488,-12.625)"  ><path d="m 91.57,402.39 a 550.54,550.54 -180 0 0 30.61,10.69 19.899,19.899 -180 0 0 -14.94,-13.95 594.83,594.83 0 0 1 -10.74,-3.93 522.4,522.4 1.91 0 1 -88.13,-41.72 594.83,594.83 0 0 1 -5.09,-2.98 l -3.28,5.87 a 628.32,628.32 -180 0 0 91.57,46.02 z"  class="st1"  stroke="#696969" stroke-width="1.5" />
</g>
</g>
<g  transform="translate(3.1563,-13.414)"  ><g  transform="rotate(25.608,182.49,402.03)"  ><path d="m 0,413.08 h 49.29"  class="st5"  stroke="#696969" stroke-width="1.5" />
</g>
<g  transform="rotate(24.84,170.14,398.15)"  ><path d="m 0,413.08 h 64.49"  class="st5"  stroke="#696969" stroke-width="1.5" />
</g>
<g  transform="rotate(25.447,148.75,392.6)"  ><path d="m 0,411.49 a 582.2,647.75 -180 0 0 81.41,0"  class="st5"  stroke="#696969" stroke-width="1.5" />
</g>
<g  transform="rotate(25.651,132.5,388.02)"  ><path d="m 0,410.59 a 593.26,656.07 -180 0 0 103.29,0"  class="st5"  stroke="#696969" stroke-width="1.5" />
</g>
<g  transform="rotate(25.238,115.81,382.72)"  ><path d="m 0,408.64 a 534.01,578.19 -180 0 0 132.01,0"  class="st5"  stroke="#696969" stroke-width="1.5" />
</g>
</g>
</g>
<g  transform="rotate(5,906.27,571.05)"  ><g  transform="translate(2.8199,-13.414)"  ><g  transform="rotate(28.212,164.97,396.48)"  ><path d="m 0,413.08 h 45.07"  class="st5"  stroke="#696969" stroke-width="1.5" />
</g>
<g  transform="rotate(27.39,153.72,394.01)"  ><path d="m 0,413.08 h 58.89"  class="st5"  stroke="#696969" stroke-width="1.5" />
</g>
<g  transform="rotate(28.04,134.48,389.91)"  ><path d="m 0,411.49 a 532.16,647.75 -180 0 0 74.42,0"  class="st5"  stroke="#696969" stroke-width="1.5" />
</g>
<g  transform="rotate(28.258,119.82,386.63)"  ><path d="m 0,410.59 a 542.45,656.07 -180 0 0 94.44,0"  class="st5"  stroke="#696969" stroke-width="1.5" />
</g>
<g  transform="rotate(27.816,104.7,382.72)"  ><path d="m 0,408.64 a 487.94,578.19 -180 0 0 120.63,0"  class="st5"  stroke="#696969" stroke-width="1.5" />
</g>
</g>
<g  ><g  transform="translate(14.543,-71.457)"  ><path d="m 41.97,413.08 a 32.834,20.309 -94.53 0 0 -10.05,-11.97 l -29.39,-14.82 -2.53,5.07 a 577.72,418.49 -91.29 0 0 40.74,21.32 19.327,14 88.71 0 1 1.23,0.4 z"  class="st1"  stroke="#696969" stroke-width="1.5" />
</g>
<g  transform="translate(10.927,-58.199)"  ><path d="m 49.88,410.9 a 534.7,387.33 -91.29 0 0 5.4,2.18 19.327,14 -91.29 0 0 -9.7,-12.73 2622.8,1620.8 -93.24 0 0 -42.41,-21.92 l -3.17,7.1 a 1484.6,1208.1 -90.43 0 0 49.88,25.37 z"  class="st1"  stroke="#696969" stroke-width="1.5" />
</g>
<g  transform="translate(8.4598,-44.533)"  ><path d="m 64.34,411.39 a 534.74,435.14 -89.55 0 0 4.04,1.69 19.328,15.728 -89.55 0 0 -11.59,-13.78 1793.6,1299.2 88.71 0 1 -54.02,-27.71 l -2.77,5.27 a 565.87,505.57 -90 0 0 64.34,34.53 z"  class="st1"  stroke="#696969" stroke-width="1.5" />
</g>
<g  transform="translate(5.8615,-29.477)"  ><path d="m 83.26,412.06 a 522.4,466.73 -90 0 0 2.53,1.02 18.882,16.87 -90 0 0 -12.23,-13.74 564.42,504.27 90 0 1 -6.62,-3.01 534.74,435.14 90.45 0 1 -64.17,-34.58 l -2.77,5.54 a 522.4,466.73 -90 0 0 4.52,3.04 531.44,594.83 -180 0 0 78.74,41.73 z"  class="st1"  stroke="#696969" stroke-width="1.5" />
</g>
<g  ><path d="m 85.19,388.72 a 491.87,550.54 0 0 1 -82.14,-45.38 l -3.05,6.1 a 519.57,581.54 -180 0 0 121.97,63.64 18.78,21.02 -180 0 0 -14.1,-14.73 561.36,628.32 0 0 1 -22.68,-9.63 z"  class="st1"  stroke="#696969" stroke-width="1.5" />
</g>
<g  transform="translate(2.9026,-12.625)"  ><path d="m 81.81,402.39 a 491.87,550.54 -180 0 0 27.35,10.69 17.779,19.899 -180 0 0 -13.34,-13.95 531.44,594.83 0 0 1 -9.61,-3.93 522.4,466.73 90 0 1 -78.73,-41.72 531.44,594.83 0 0 1 -4.55,-2.98 l -2.93,5.87 a 561.36,628.32 -180 0 0 81.81,46.02 z"  class="st1"  stroke="#696969" stroke-width="1.5" />
</g>
</g>
</g>
<g  transform="rotate(5,423.31,658.65)"  ><g  ><g  transform="translate(14.543,-71.457)"  ><path d="m 41.97,413.08 a 32.834,20.309 -94.53 0 0 -10.05,-11.97 l -29.39,-14.82 -2.53,5.07 a 577.72,418.49 -91.29 0 0 40.74,21.32 19.327,14 88.71 0 1 1.23,0.4 z"  class="st1"  stroke="#696969" stroke-width="1.5" />
</g>
<g  transform="translate(10.927,-58.199)"  ><path d="m 49.88,410.9 a 534.7,387.33 -91.29 0 0 5.4,2.18 19.327,14 -91.29 0 0 -9.7,-12.73 2622.8,1620.8 -93.24 0 0 -42.41,-21.92 l -3.17,7.1 a 1484.6,1208.1 -90.43 0 0 49.88,25.37 z"  class="st1"  stroke="#696969" stroke-width="1.5" />
</g>
<g  transform="translate(8.4598,-44.533)"  ><path d="m 64.34,411.39 a 534.74,435.14 -89.55 0 0 4.04,1.69 19.328,15.728 -89.55 0 0 -11.59,-13.78 1793.6,1299.2 88.71 0 1 -54.02,-27.71 l -2.77,5.27 a 565.87,505.57 -90 0 0 64.34,34.53 z"  class="st1"  stroke="#696969" stroke-width="1.5" />
</g>
<g  transform="translate(5.8615,-29.477)"  ><path d="m 83.26,412.06 a 522.4,466.73 -90 0 0 2.53,1.02 18.882,16.87 -90 0 0 -12.23,-13.74 564.42,504.27 90 0 1 -6.62,-3.01 534.74,435.14 90.45 0 1 -64.17,-34.58 l -2.77,5.54 a 522.4,466.73 -90 0 0 4.52,3.04 531.44,594.83 -180 0 0 78.74,41.73 z"  class="st1"  stroke="#696969" stroke-width="1.5" />
</g>
<g  ><path d="m 85.19,388.72 a 491.87,550.54 0 0 1 -82.14,-45.38 l -3.05,6.1 a 519.57,581.54 -180 0 0 121.97,63.64 18.78,21.02 -180 0 0 -14.1,-14.73 561.36,628.32 0 0 1 -22.68,-9.63 z"  class="st1"  stroke="#696969" stroke-width="1.5" />
</g>
<g  transform="translate(2.9026,-12.625)"  ><path d="m 81.81,402.39 a 491.87,550.54 -180 0 0 27.35,10.69 17.779,19.899 -180 0 0 -13.34,-13.95 531.44,594.83 0 0 1 -9.61,-3.93 522.4,466.73 90 0 1 -78.73,-41.72 531.44,594.83 0 0 1 -4.55,-2.98 l -2.93,5.87 a 561.36,628.32 -180 0 0 81.81,46.02 z"  class="st1"  stroke="#696969" stroke-width="1.5" />
</g>
</g>
<g  transform="translate(2.8199,-13.414)"  ><g  transform="rotate(28.212,164.97,396.48)"  ><path d="m 0,413.08 h 45.07"  class="st5"  stroke="#696969" stroke-width="1.5" />
</g>
<g  transform="rotate(27.39,153.72,394.01)"  ><path d="m 0,413.08 h 58.89"  class="st5"  stroke="#696969" stroke-width="1.5" />
</g>
<g  transform="rotate(28.04,134.48,389.91)"  ><path d="m 0,411.49 a 532.16,647.75 -180 0 0 74.42,0"  class="st5"  stroke="#696969" stroke-width="1.5" />
</g>
<g  transform="rotate(28.258,119.82,386.63)"  ><path d="m 0,410.59 a 542.45,656.07 -180 0 0 94.44,0"  class="st5"  stroke="#696969" stroke-width="1.5" />
</g>
<g  transform="rotate(27.816,104.7,382.72)"  ><path d="m 0,408.64 a 487.94,578.19 -180 0 0 120.63,0"  class="st5"  stroke="#696969" stroke-width="1.5" />
</g>
</g>
</g>
<g  transform="translate(0,-93.742)"  ><path d="m 65.43,345.22 a 34.907,34.907 -180 0 0 -65.23,6.31 66.082,66.082 -180 0 0 31.56,61.55 16.192,16.192 -5.55 0 0 8.15,-13.42 7.3774,7.3774 -180 0 0 7.76,-10.12 5.7599,5.7599 -0.2 0 0 4.54,-9.87 10.451,10.451 -180 0 0 7.53,-11.7 10.426,10.426 -179.51 0 0 4.63,-15.32 4.0121,4.0121 -180 0 0 1.06,-7.43 z"  class="st1"  stroke="#696969" stroke-width="1.5" />
</g>
</g>
</g>
<g  transform="translate(0,-267.8)"  ><g  transform="rotate(-2,-2039.4,151.07)"  ><path d="m 67.04,403.29 a 43.016,34.545 -180 0 0 -28.54,-2.39 50.836,40.826 175.02 0 1 -38.5,-4.87 45.783,36.768 -3.23 0 0 43.26,13.47 39.463,31.692 0 0 1 23.48,3.58 6.2154,4.9915 -180 0 0 0.3,-9.79 z"  class="st6"  stroke="#696969" stroke-width="1.5" />
</g>
<g  transform="rotate(-15,62.85,237.54)"  ><path d="m 44.42,305.7 a 49.278,49.278 0 0 1 56.43,36.65 14.084,14.084 -180 0 0 18.33,1.93 15.294,15.294 0 0 1 -17.37,7.72 68.208,68.208 17.86 0 1 2.42,8.2 15.276,15.276 -77.87 0 0 17.84,2.41 9.9493,9.9493 78.88 0 1 -14.47,7.71 245.02,245.02 161.86 0 1 2.41,9.65 10.42,10.42 -180 0 0 11.58,11.57 12.657,12.657 0 0 1 -18.09,-0.48 10.883,10.883 -122.03 0 0 -0.24,14.95 15.205,15.205 0 0 1 -13.98,-17.36 18.96,18.96 -180 0 0 -0.97,17.36 12.749,12.749 122.03 0 1 -7,-11.69 16.809,16.809 -82.02 0 0 -7.91,17.72 20.965,20.965 88.35 0 1 -12.88,-16.81 11.732,11.732 -85.32 0 0 -5.49,17.85 26.932,26.932 95.66 0 1 -14.95,-22.98 19.413,19.413 -88.91 0 0 0.83,22.55 14.786,14.786 95.24 0 1 -13.61,-22.07 18.065,18.065 96.58 0 1 -27.3,7.58 26.559,26.559 -75.78 0 0 10.56,-18.33 21.148,21.148 0 0 1 16.42,-14.45 44.327,44.327 -180 0 0 18.65,-10.49 575.99,575.99 -180 0 0 -1.21,-49.19 z"  class="st3"  stroke="#696969" stroke-width="3" />
</g>
<g  transform="rotate(-5,-917.51,-500.26)"  ><g  fill="#ffffff" ><path d="m 0.01,400.19 a 12.482,12.482 -180 0 0 24.42,4.02 36.575,36.575 -180 0 0 -24.42,-4.02 z"  class="st7"  fill="#ffffff" stroke="#696969" stroke-width="0.75" />
</g>
<g  transform="translate(4.6572,-3.8128)"  ><path d="m 0.98,403.46 a 6.2459,6.2459 -180 0 0 9.4,8.06 4.2469,4.2469 0 0 1 -2.95,-7.52 z"  class="st8"  fill="#000000" stroke="#696969" stroke-width="0.75" />
</g>
</g>
<g  transform="rotate(-15,-157.32,353)"  ><path d="m 66.8,366.27 a 59.445,59.445 94.28 0 1 8.43,35.69 11.076,11.076 0 0 1 -17.36,9.16 l -40.75,-15.43 a 20.861,20.861 0 0 1 -17.12,-15.43 l 60.77,16.87 a 3.7033,3.7033 -180 0 0 2.89,-6.75 19.902,19.902 -180 0 0 -23.15,-13.98 46.212,46.212 -180 0 0 -38.58,-9.17 13.004,13.004 0 0 1 15.43,-11.57 138.82,138.82 109.17 0 1 49.44,10.61 z"  class="st3"  stroke="#696969" stroke-width="3" />
</g>
</g>
</g>
</g>
</g>
</g></g></g></g><defs><mask id="mask8-1" >
<path fill="#FFFFFF" d="m 0,0 v 800 c -2.5063876,43.11115 1.2341419,84.33503 21.489586,125.13639 20.255443,40.80137 53.477613,79.98631 98.039434,115.63581 44.56181,35.6494 100.44867,67.7517 164.92346,94.7345 64.47479,26.9828 137.51639,48.8374 215.54752,64.4933 78.03113,-15.6559 151.07273,-37.5105 215.54752,-64.4933 64.47479,-26.9828 120.36165,-59.0851 164.92346,-94.7345 44.56182,-35.6495 77.78399,-74.83444 98.03943,-115.63581 C 998.76586,884.33503 1000.1453,841.93063 1000,800 V 0 Z" />
</mask>
</defs></g></svg>
